G04 #@! TF.GenerationSoftware,KiCad,Pcbnew,5.1.12-84ad8e8a86~92~ubuntu21.04.1*
G04 #@! TF.CreationDate,2021-11-29T17:40:15-03:00*
G04 #@! TF.ProjectId,Franzininho WIFI,4672616e-7a69-46e6-996e-686f20574946,rev?*
G04 #@! TF.SameCoordinates,Original*
G04 #@! TF.FileFunction,Legend,Top*
G04 #@! TF.FilePolarity,Positive*
%FSLAX46Y46*%
G04 Gerber Fmt 4.6, Leading zero omitted, Abs format (unit mm)*
G04 Created by KiCad (PCBNEW 5.1.12-84ad8e8a86~92~ubuntu21.04.1) date 2021-11-29 17:40:15*
%MOMM*%
%LPD*%
G01*
G04 APERTURE LIST*
%ADD10C,0.150000*%
%ADD11C,0.200000*%
%ADD12C,0.250000*%
%ADD13C,0.125000*%
%ADD14C,0.010000*%
%ADD15C,0.120000*%
G04 APERTURE END LIST*
D10*
X145017380Y-110533928D02*
X145065000Y-110562500D01*
X145112619Y-110619642D01*
X145112619Y-110762500D01*
X145065000Y-110819642D01*
X145017380Y-110848214D01*
X144922142Y-110876785D01*
X144826904Y-110876785D01*
X144684047Y-110848214D01*
X144112619Y-110505357D01*
X144112619Y-110876785D01*
X144112619Y-111448214D02*
X144112619Y-111105357D01*
X144112619Y-111276785D02*
X145112619Y-111276785D01*
X144969761Y-111219642D01*
X144874523Y-111162500D01*
X144826904Y-111105357D01*
X140882619Y-107430357D02*
X140882619Y-107801785D01*
X140501666Y-107601785D01*
X140501666Y-107687500D01*
X140454047Y-107744642D01*
X140406428Y-107773214D01*
X140311190Y-107801785D01*
X140073095Y-107801785D01*
X139977857Y-107773214D01*
X139930238Y-107744642D01*
X139882619Y-107687500D01*
X139882619Y-107516071D01*
X139930238Y-107458928D01*
X139977857Y-107430357D01*
X140882619Y-108001785D02*
X140882619Y-108373214D01*
X140501666Y-108173214D01*
X140501666Y-108258928D01*
X140454047Y-108316071D01*
X140406428Y-108344642D01*
X140311190Y-108373214D01*
X140073095Y-108373214D01*
X139977857Y-108344642D01*
X139930238Y-108316071D01*
X139882619Y-108258928D01*
X139882619Y-108087500D01*
X139930238Y-108030357D01*
X139977857Y-108001785D01*
X177280000Y-115428071D02*
X176813333Y-115428071D01*
X177546666Y-115285214D02*
X177046666Y-115142357D01*
X177046666Y-115513785D01*
X176313333Y-115428071D02*
X176313333Y-115313785D01*
X176280000Y-115256642D01*
X176246666Y-115228071D01*
X176146666Y-115170928D01*
X176013333Y-115142357D01*
X175746666Y-115142357D01*
X175680000Y-115170928D01*
X175646666Y-115199500D01*
X175613333Y-115256642D01*
X175613333Y-115370928D01*
X175646666Y-115428071D01*
X175680000Y-115456642D01*
X175746666Y-115485214D01*
X175913333Y-115485214D01*
X175980000Y-115456642D01*
X176013333Y-115428071D01*
X176046666Y-115370928D01*
X176046666Y-115256642D01*
X176013333Y-115199500D01*
X175980000Y-115170928D01*
X175913333Y-115142357D01*
X174740000Y-115428071D02*
X174273333Y-115428071D01*
X175006666Y-115285214D02*
X174506666Y-115142357D01*
X174506666Y-115513785D01*
X173773333Y-115456642D02*
X173773333Y-115170928D01*
X173440000Y-115142357D01*
X173473333Y-115170928D01*
X173506666Y-115228071D01*
X173506666Y-115370928D01*
X173473333Y-115428071D01*
X173440000Y-115456642D01*
X173373333Y-115485214D01*
X173206666Y-115485214D01*
X173140000Y-115456642D01*
X173106666Y-115428071D01*
X173073333Y-115370928D01*
X173073333Y-115228071D01*
X173106666Y-115170928D01*
X173140000Y-115142357D01*
X172200000Y-115428071D02*
X171733333Y-115428071D01*
X172466666Y-115285214D02*
X171966666Y-115142357D01*
X171966666Y-115513785D01*
X171000000Y-115428071D02*
X170533333Y-115428071D01*
X171266666Y-115285214D02*
X170766666Y-115142357D01*
X170766666Y-115513785D01*
X169660000Y-115428071D02*
X169193333Y-115428071D01*
X169926666Y-115285214D02*
X169426666Y-115142357D01*
X169426666Y-115513785D01*
X168693333Y-115113785D02*
X168693333Y-115485214D01*
X168426666Y-115285214D01*
X168426666Y-115370928D01*
X168393333Y-115428071D01*
X168360000Y-115456642D01*
X168293333Y-115485214D01*
X168126666Y-115485214D01*
X168060000Y-115456642D01*
X168026666Y-115428071D01*
X167993333Y-115370928D01*
X167993333Y-115199500D01*
X168026666Y-115142357D01*
X168060000Y-115113785D01*
X167120000Y-115428071D02*
X166653333Y-115428071D01*
X167386666Y-115285214D02*
X166886666Y-115142357D01*
X166886666Y-115513785D01*
X166086666Y-115142357D02*
X166120000Y-115170928D01*
X166153333Y-115228071D01*
X166153333Y-115370928D01*
X166120000Y-115428071D01*
X166086666Y-115456642D01*
X166020000Y-115485214D01*
X165953333Y-115485214D01*
X165853333Y-115456642D01*
X165453333Y-115113785D01*
X165453333Y-115485214D01*
X164580000Y-115428071D02*
X164113333Y-115428071D01*
X164846666Y-115285214D02*
X164346666Y-115142357D01*
X164346666Y-115513785D01*
X162913333Y-115485214D02*
X162913333Y-115142357D01*
X162913333Y-115313785D02*
X163613333Y-115313785D01*
X163513333Y-115256642D01*
X163446666Y-115199500D01*
X163413333Y-115142357D01*
X162040000Y-115428071D02*
X161573333Y-115428071D01*
X162306666Y-115285214D02*
X161806666Y-115142357D01*
X161806666Y-115513785D01*
X161073333Y-115285214D02*
X161073333Y-115342357D01*
X161040000Y-115399500D01*
X161006666Y-115428071D01*
X160940000Y-115456642D01*
X160806666Y-115485214D01*
X160640000Y-115485214D01*
X160506666Y-115456642D01*
X160440000Y-115428071D01*
X160406666Y-115399500D01*
X160373333Y-115342357D01*
X160373333Y-115285214D01*
X160406666Y-115228071D01*
X160440000Y-115199500D01*
X160506666Y-115170928D01*
X160640000Y-115142357D01*
X160806666Y-115142357D01*
X160940000Y-115170928D01*
X161006666Y-115199500D01*
X161040000Y-115228071D01*
X161073333Y-115285214D01*
X159733333Y-115113785D02*
X159733333Y-115485214D01*
X159466666Y-115285214D01*
X159466666Y-115370928D01*
X159433333Y-115428071D01*
X159400000Y-115456642D01*
X159333333Y-115485214D01*
X159166666Y-115485214D01*
X159100000Y-115456642D01*
X159066666Y-115428071D01*
X159033333Y-115370928D01*
X159033333Y-115199500D01*
X159066666Y-115142357D01*
X159100000Y-115113785D01*
X157833333Y-115199500D02*
X157833333Y-115313785D01*
X157866666Y-115370928D01*
X157900000Y-115399500D01*
X158000000Y-115456642D01*
X158133333Y-115485214D01*
X158400000Y-115485214D01*
X158466666Y-115456642D01*
X158500000Y-115428071D01*
X158533333Y-115370928D01*
X158533333Y-115256642D01*
X158500000Y-115199500D01*
X158466666Y-115170928D01*
X158400000Y-115142357D01*
X158233333Y-115142357D01*
X158166666Y-115170928D01*
X158133333Y-115199500D01*
X158100000Y-115256642D01*
X158100000Y-115370928D01*
X158133333Y-115428071D01*
X158166666Y-115456642D01*
X158233333Y-115485214D01*
X151614119Y-114478857D02*
X151614119Y-114850285D01*
X151233166Y-114650285D01*
X151233166Y-114736000D01*
X151185547Y-114793142D01*
X151137928Y-114821714D01*
X151042690Y-114850285D01*
X150804595Y-114850285D01*
X150709357Y-114821714D01*
X150661738Y-114793142D01*
X150614119Y-114736000D01*
X150614119Y-114564571D01*
X150661738Y-114507428D01*
X150709357Y-114478857D01*
X151614119Y-115364571D02*
X151614119Y-115250285D01*
X151566500Y-115193142D01*
X151518880Y-115164571D01*
X151376023Y-115107428D01*
X151185547Y-115078857D01*
X150804595Y-115078857D01*
X150709357Y-115107428D01*
X150661738Y-115136000D01*
X150614119Y-115193142D01*
X150614119Y-115307428D01*
X150661738Y-115364571D01*
X150709357Y-115393142D01*
X150804595Y-115421714D01*
X151042690Y-115421714D01*
X151137928Y-115393142D01*
X151185547Y-115364571D01*
X151233166Y-115307428D01*
X151233166Y-115193142D01*
X151185547Y-115136000D01*
X151137928Y-115107428D01*
X151042690Y-115078857D01*
X131310000Y-114101071D02*
X131357619Y-114043928D01*
X131357619Y-113958214D01*
X131310000Y-113872500D01*
X131214761Y-113815357D01*
X131119523Y-113786785D01*
X130929047Y-113758214D01*
X130786190Y-113758214D01*
X130595714Y-113786785D01*
X130500476Y-113815357D01*
X130405238Y-113872500D01*
X130357619Y-113958214D01*
X130357619Y-114015357D01*
X130405238Y-114101071D01*
X130452857Y-114129642D01*
X130786190Y-114129642D01*
X130786190Y-114015357D01*
X130357619Y-114386785D02*
X131357619Y-114386785D01*
X130357619Y-114729642D01*
X131357619Y-114729642D01*
X130357619Y-115015357D02*
X131357619Y-115015357D01*
X131357619Y-115158214D01*
X131310000Y-115243928D01*
X131214761Y-115301071D01*
X131119523Y-115329642D01*
X130929047Y-115358214D01*
X130786190Y-115358214D01*
X130595714Y-115329642D01*
X130500476Y-115301071D01*
X130405238Y-115243928D01*
X130357619Y-115158214D01*
X130357619Y-115015357D01*
X131357619Y-100730142D02*
X131357619Y-101101571D01*
X130976666Y-100901571D01*
X130976666Y-100987285D01*
X130929047Y-101044428D01*
X130881428Y-101073000D01*
X130786190Y-101101571D01*
X130548095Y-101101571D01*
X130452857Y-101073000D01*
X130405238Y-101044428D01*
X130357619Y-100987285D01*
X130357619Y-100815857D01*
X130405238Y-100758714D01*
X130452857Y-100730142D01*
X131357619Y-101273000D02*
X130357619Y-101473000D01*
X131357619Y-101673000D01*
X131357619Y-101815857D02*
X131357619Y-102187285D01*
X130976666Y-101987285D01*
X130976666Y-102073000D01*
X130929047Y-102130142D01*
X130881428Y-102158714D01*
X130786190Y-102187285D01*
X130548095Y-102187285D01*
X130452857Y-102158714D01*
X130405238Y-102130142D01*
X130357619Y-102073000D01*
X130357619Y-101901571D01*
X130405238Y-101844428D01*
X130452857Y-101815857D01*
X128770000Y-101015857D02*
X128817619Y-100958714D01*
X128817619Y-100873000D01*
X128770000Y-100787285D01*
X128674761Y-100730142D01*
X128579523Y-100701571D01*
X128389047Y-100673000D01*
X128246190Y-100673000D01*
X128055714Y-100701571D01*
X127960476Y-100730142D01*
X127865238Y-100787285D01*
X127817619Y-100873000D01*
X127817619Y-100930142D01*
X127865238Y-101015857D01*
X127912857Y-101044428D01*
X128246190Y-101044428D01*
X128246190Y-100930142D01*
X127817619Y-101301571D02*
X128817619Y-101301571D01*
X127817619Y-101644428D01*
X128817619Y-101644428D01*
X127817619Y-101930142D02*
X128817619Y-101930142D01*
X128817619Y-102073000D01*
X128770000Y-102158714D01*
X128674761Y-102215857D01*
X128579523Y-102244428D01*
X128389047Y-102273000D01*
X128246190Y-102273000D01*
X128055714Y-102244428D01*
X127960476Y-102215857D01*
X127865238Y-102158714D01*
X127817619Y-102073000D01*
X127817619Y-101930142D01*
X128770000Y-96062857D02*
X128817619Y-96005714D01*
X128817619Y-95920000D01*
X128770000Y-95834285D01*
X128674761Y-95777142D01*
X128579523Y-95748571D01*
X128389047Y-95720000D01*
X128246190Y-95720000D01*
X128055714Y-95748571D01*
X127960476Y-95777142D01*
X127865238Y-95834285D01*
X127817619Y-95920000D01*
X127817619Y-95977142D01*
X127865238Y-96062857D01*
X127912857Y-96091428D01*
X128246190Y-96091428D01*
X128246190Y-95977142D01*
X127817619Y-96348571D02*
X128817619Y-96348571D01*
X127817619Y-96691428D01*
X128817619Y-96691428D01*
X127817619Y-96977142D02*
X128817619Y-96977142D01*
X128817619Y-97120000D01*
X128770000Y-97205714D01*
X128674761Y-97262857D01*
X128579523Y-97291428D01*
X128389047Y-97320000D01*
X128246190Y-97320000D01*
X128055714Y-97291428D01*
X127960476Y-97262857D01*
X127865238Y-97205714D01*
X127817619Y-97120000D01*
X127817619Y-96977142D01*
X131357619Y-95777142D02*
X131357619Y-96148571D01*
X130976666Y-95948571D01*
X130976666Y-96034285D01*
X130929047Y-96091428D01*
X130881428Y-96120000D01*
X130786190Y-96148571D01*
X130548095Y-96148571D01*
X130452857Y-96120000D01*
X130405238Y-96091428D01*
X130357619Y-96034285D01*
X130357619Y-95862857D01*
X130405238Y-95805714D01*
X130452857Y-95777142D01*
X131357619Y-96320000D02*
X130357619Y-96520000D01*
X131357619Y-96720000D01*
X131357619Y-96862857D02*
X131357619Y-97234285D01*
X130976666Y-97034285D01*
X130976666Y-97120000D01*
X130929047Y-97177142D01*
X130881428Y-97205714D01*
X130786190Y-97234285D01*
X130548095Y-97234285D01*
X130452857Y-97205714D01*
X130405238Y-97177142D01*
X130357619Y-97120000D01*
X130357619Y-96948571D01*
X130405238Y-96891428D01*
X130452857Y-96862857D01*
X140718333Y-104976666D02*
X140718333Y-105110000D01*
X140685000Y-105176666D01*
X140618333Y-105243333D01*
X140485000Y-105276666D01*
X140251666Y-105276666D01*
X140118333Y-105243333D01*
X140051666Y-105176666D01*
X140018333Y-105110000D01*
X140018333Y-104976666D01*
X140051666Y-104910000D01*
X140118333Y-104843333D01*
X140251666Y-104810000D01*
X140485000Y-104810000D01*
X140618333Y-104843333D01*
X140685000Y-104910000D01*
X140718333Y-104976666D01*
X140018333Y-105576666D02*
X140718333Y-105576666D01*
X140018333Y-105976666D01*
X140718333Y-105976666D01*
D11*
X125547428Y-93690285D02*
X125499809Y-93833142D01*
X125452190Y-93880761D01*
X125356952Y-93928380D01*
X125214095Y-93928380D01*
X125118857Y-93880761D01*
X125071238Y-93833142D01*
X125023619Y-93737904D01*
X125023619Y-93356952D01*
X126023619Y-93356952D01*
X126023619Y-93690285D01*
X125976000Y-93785523D01*
X125928380Y-93833142D01*
X125833142Y-93880761D01*
X125737904Y-93880761D01*
X125642666Y-93833142D01*
X125595047Y-93785523D01*
X125547428Y-93690285D01*
X125547428Y-93356952D01*
X126023619Y-94547428D02*
X126023619Y-94737904D01*
X125976000Y-94833142D01*
X125880761Y-94928380D01*
X125690285Y-94976000D01*
X125356952Y-94976000D01*
X125166476Y-94928380D01*
X125071238Y-94833142D01*
X125023619Y-94737904D01*
X125023619Y-94547428D01*
X125071238Y-94452190D01*
X125166476Y-94356952D01*
X125356952Y-94309333D01*
X125690285Y-94309333D01*
X125880761Y-94356952D01*
X125976000Y-94452190D01*
X126023619Y-94547428D01*
X126023619Y-95595047D02*
X126023619Y-95785523D01*
X125976000Y-95880761D01*
X125880761Y-95976000D01*
X125690285Y-96023619D01*
X125356952Y-96023619D01*
X125166476Y-95976000D01*
X125071238Y-95880761D01*
X125023619Y-95785523D01*
X125023619Y-95595047D01*
X125071238Y-95499809D01*
X125166476Y-95404571D01*
X125356952Y-95356952D01*
X125690285Y-95356952D01*
X125880761Y-95404571D01*
X125976000Y-95499809D01*
X126023619Y-95595047D01*
X126023619Y-96309333D02*
X126023619Y-96880761D01*
X125023619Y-96595047D02*
X126023619Y-96595047D01*
D10*
X127000000Y-101600000D02*
X127000000Y-92900500D01*
X137160000Y-98425000D02*
X137160000Y-101600000D01*
X135485238Y-100744428D02*
X135437619Y-100830142D01*
X135437619Y-100973000D01*
X135485238Y-101030142D01*
X135532857Y-101058714D01*
X135628095Y-101087285D01*
X135723333Y-101087285D01*
X135818571Y-101058714D01*
X135866190Y-101030142D01*
X135913809Y-100973000D01*
X135961428Y-100858714D01*
X136009047Y-100801571D01*
X136056666Y-100773000D01*
X136151904Y-100744428D01*
X136247142Y-100744428D01*
X136342380Y-100773000D01*
X136390000Y-100801571D01*
X136437619Y-100858714D01*
X136437619Y-101001571D01*
X136390000Y-101087285D01*
X135437619Y-101344428D02*
X136437619Y-101344428D01*
X136437619Y-101487285D01*
X136390000Y-101573000D01*
X136294761Y-101630142D01*
X136199523Y-101658714D01*
X136009047Y-101687285D01*
X135866190Y-101687285D01*
X135675714Y-101658714D01*
X135580476Y-101630142D01*
X135485238Y-101573000D01*
X135437619Y-101487285D01*
X135437619Y-101344428D01*
X135723333Y-101915857D02*
X135723333Y-102201571D01*
X135437619Y-101858714D02*
X136437619Y-102058714D01*
X135437619Y-102258714D01*
X132945238Y-100758714D02*
X132897619Y-100844428D01*
X132897619Y-100987285D01*
X132945238Y-101044428D01*
X132992857Y-101073000D01*
X133088095Y-101101571D01*
X133183333Y-101101571D01*
X133278571Y-101073000D01*
X133326190Y-101044428D01*
X133373809Y-100987285D01*
X133421428Y-100873000D01*
X133469047Y-100815857D01*
X133516666Y-100787285D01*
X133611904Y-100758714D01*
X133707142Y-100758714D01*
X133802380Y-100787285D01*
X133850000Y-100815857D01*
X133897619Y-100873000D01*
X133897619Y-101015857D01*
X133850000Y-101101571D01*
X132992857Y-101701571D02*
X132945238Y-101673000D01*
X132897619Y-101587285D01*
X132897619Y-101530142D01*
X132945238Y-101444428D01*
X133040476Y-101387285D01*
X133135714Y-101358714D01*
X133326190Y-101330142D01*
X133469047Y-101330142D01*
X133659523Y-101358714D01*
X133754761Y-101387285D01*
X133850000Y-101444428D01*
X133897619Y-101530142D01*
X133897619Y-101587285D01*
X133850000Y-101673000D01*
X133802380Y-101701571D01*
X132897619Y-102244428D02*
X132897619Y-101958714D01*
X133897619Y-101958714D01*
X137160000Y-92900500D02*
X137160000Y-98425000D01*
X124690000Y-116205000D02*
G75*
G03*
X124690000Y-116205000I-1500000J0D01*
G01*
X124690000Y-94615000D02*
G75*
G03*
X124690000Y-94615000I-1500000J0D01*
G01*
D12*
X125023619Y-114772738D02*
X125499809Y-114439404D01*
X125023619Y-114201309D02*
X126023619Y-114201309D01*
X126023619Y-114582261D01*
X125976000Y-114677500D01*
X125928380Y-114725119D01*
X125833142Y-114772738D01*
X125690285Y-114772738D01*
X125595047Y-114725119D01*
X125547428Y-114677500D01*
X125499809Y-114582261D01*
X125499809Y-114201309D01*
X125071238Y-115153690D02*
X125023619Y-115296547D01*
X125023619Y-115534642D01*
X125071238Y-115629880D01*
X125118857Y-115677500D01*
X125214095Y-115725119D01*
X125309333Y-115725119D01*
X125404571Y-115677500D01*
X125452190Y-115629880D01*
X125499809Y-115534642D01*
X125547428Y-115344166D01*
X125595047Y-115248928D01*
X125642666Y-115201309D01*
X125737904Y-115153690D01*
X125833142Y-115153690D01*
X125928380Y-115201309D01*
X125976000Y-115248928D01*
X126023619Y-115344166D01*
X126023619Y-115582261D01*
X125976000Y-115725119D01*
X126023619Y-116010833D02*
X126023619Y-116582261D01*
X125023619Y-116296547D02*
X126023619Y-116296547D01*
D10*
X133897619Y-114815357D02*
X133897619Y-114529642D01*
X133421428Y-114501071D01*
X133469047Y-114529642D01*
X133516666Y-114586785D01*
X133516666Y-114729642D01*
X133469047Y-114786785D01*
X133421428Y-114815357D01*
X133326190Y-114843928D01*
X133088095Y-114843928D01*
X132992857Y-114815357D01*
X132945238Y-114786785D01*
X132897619Y-114729642D01*
X132897619Y-114586785D01*
X132945238Y-114529642D01*
X132992857Y-114501071D01*
X133897619Y-115015357D02*
X132897619Y-115215357D01*
X133897619Y-115415357D01*
X128770000Y-114101071D02*
X128817619Y-114043928D01*
X128817619Y-113958214D01*
X128770000Y-113872500D01*
X128674761Y-113815357D01*
X128579523Y-113786785D01*
X128389047Y-113758214D01*
X128246190Y-113758214D01*
X128055714Y-113786785D01*
X127960476Y-113815357D01*
X127865238Y-113872500D01*
X127817619Y-113958214D01*
X127817619Y-114015357D01*
X127865238Y-114101071D01*
X127912857Y-114129642D01*
X128246190Y-114129642D01*
X128246190Y-114015357D01*
X127817619Y-114386785D02*
X128817619Y-114386785D01*
X127817619Y-114729642D01*
X128817619Y-114729642D01*
X127817619Y-115015357D02*
X128817619Y-115015357D01*
X128817619Y-115158214D01*
X128770000Y-115243928D01*
X128674761Y-115301071D01*
X128579523Y-115329642D01*
X128389047Y-115358214D01*
X128246190Y-115358214D01*
X128055714Y-115329642D01*
X127960476Y-115301071D01*
X127865238Y-115243928D01*
X127817619Y-115158214D01*
X127817619Y-115015357D01*
X135437619Y-114786785D02*
X135437619Y-114443928D01*
X135437619Y-114615357D02*
X136437619Y-114615357D01*
X136294761Y-114558214D01*
X136199523Y-114501071D01*
X136151904Y-114443928D01*
X136009047Y-115129642D02*
X136056666Y-115072500D01*
X136104285Y-115043928D01*
X136199523Y-115015357D01*
X136247142Y-115015357D01*
X136342380Y-115043928D01*
X136390000Y-115072500D01*
X136437619Y-115129642D01*
X136437619Y-115243928D01*
X136390000Y-115301071D01*
X136342380Y-115329642D01*
X136247142Y-115358214D01*
X136199523Y-115358214D01*
X136104285Y-115329642D01*
X136056666Y-115301071D01*
X136009047Y-115243928D01*
X136009047Y-115129642D01*
X135961428Y-115072500D01*
X135913809Y-115043928D01*
X135818571Y-115015357D01*
X135628095Y-115015357D01*
X135532857Y-115043928D01*
X135485238Y-115072500D01*
X135437619Y-115129642D01*
X135437619Y-115243928D01*
X135485238Y-115301071D01*
X135532857Y-115329642D01*
X135628095Y-115358214D01*
X135818571Y-115358214D01*
X135913809Y-115329642D01*
X135961428Y-115301071D01*
X136009047Y-115243928D01*
X138882380Y-114443928D02*
X138930000Y-114472500D01*
X138977619Y-114529642D01*
X138977619Y-114672500D01*
X138930000Y-114729642D01*
X138882380Y-114758214D01*
X138787142Y-114786785D01*
X138691904Y-114786785D01*
X138549047Y-114758214D01*
X137977619Y-114415357D01*
X137977619Y-114786785D01*
X137977619Y-115358214D02*
X137977619Y-115015357D01*
X137977619Y-115186785D02*
X138977619Y-115186785D01*
X138834761Y-115129642D01*
X138739523Y-115072500D01*
X138691904Y-115015357D01*
X141422380Y-114380428D02*
X141470000Y-114409000D01*
X141517619Y-114466142D01*
X141517619Y-114609000D01*
X141470000Y-114666142D01*
X141422380Y-114694714D01*
X141327142Y-114723285D01*
X141231904Y-114723285D01*
X141089047Y-114694714D01*
X140517619Y-114351857D01*
X140517619Y-114723285D01*
X141517619Y-115237571D02*
X141517619Y-115123285D01*
X141470000Y-115066142D01*
X141422380Y-115037571D01*
X141279523Y-114980428D01*
X141089047Y-114951857D01*
X140708095Y-114951857D01*
X140612857Y-114980428D01*
X140565238Y-115009000D01*
X140517619Y-115066142D01*
X140517619Y-115180428D01*
X140565238Y-115237571D01*
X140612857Y-115266142D01*
X140708095Y-115294714D01*
X140946190Y-115294714D01*
X141041428Y-115266142D01*
X141089047Y-115237571D01*
X141136666Y-115180428D01*
X141136666Y-115066142D01*
X141089047Y-115009000D01*
X141041428Y-114980428D01*
X140946190Y-114951857D01*
X144057619Y-114415357D02*
X144057619Y-114786785D01*
X143676666Y-114586785D01*
X143676666Y-114672500D01*
X143629047Y-114729642D01*
X143581428Y-114758214D01*
X143486190Y-114786785D01*
X143248095Y-114786785D01*
X143152857Y-114758214D01*
X143105238Y-114729642D01*
X143057619Y-114672500D01*
X143057619Y-114501071D01*
X143105238Y-114443928D01*
X143152857Y-114415357D01*
X144057619Y-114986785D02*
X144057619Y-115358214D01*
X143676666Y-115158214D01*
X143676666Y-115243928D01*
X143629047Y-115301071D01*
X143581428Y-115329642D01*
X143486190Y-115358214D01*
X143248095Y-115358214D01*
X143152857Y-115329642D01*
X143105238Y-115301071D01*
X143057619Y-115243928D01*
X143057619Y-115072500D01*
X143105238Y-115015357D01*
X143152857Y-114986785D01*
X146597619Y-114415357D02*
X146597619Y-114786785D01*
X146216666Y-114586785D01*
X146216666Y-114672500D01*
X146169047Y-114729642D01*
X146121428Y-114758214D01*
X146026190Y-114786785D01*
X145788095Y-114786785D01*
X145692857Y-114758214D01*
X145645238Y-114729642D01*
X145597619Y-114672500D01*
X145597619Y-114501071D01*
X145645238Y-114443928D01*
X145692857Y-114415357D01*
X146264285Y-115301071D02*
X145597619Y-115301071D01*
X146645238Y-115158214D02*
X145930952Y-115015357D01*
X145930952Y-115386785D01*
D13*
X149082857Y-114495107D02*
X149082857Y-114866535D01*
X148740000Y-114666535D01*
X148740000Y-114752250D01*
X148697142Y-114809392D01*
X148654285Y-114837964D01*
X148568571Y-114866535D01*
X148354285Y-114866535D01*
X148268571Y-114837964D01*
X148225714Y-114809392D01*
X148182857Y-114752250D01*
X148182857Y-114580821D01*
X148225714Y-114523678D01*
X148268571Y-114495107D01*
X149082857Y-115409392D02*
X149082857Y-115123678D01*
X148654285Y-115095107D01*
X148697142Y-115123678D01*
X148740000Y-115180821D01*
X148740000Y-115323678D01*
X148697142Y-115380821D01*
X148654285Y-115409392D01*
X148568571Y-115437964D01*
X148354285Y-115437964D01*
X148268571Y-115409392D01*
X148225714Y-115380821D01*
X148182857Y-115323678D01*
X148182857Y-115180821D01*
X148225714Y-115123678D01*
X148268571Y-115095107D01*
D10*
X153790595Y-114605857D02*
X153790595Y-114977285D01*
X153485833Y-114777285D01*
X153485833Y-114863000D01*
X153447738Y-114920142D01*
X153409642Y-114948714D01*
X153333452Y-114977285D01*
X153142976Y-114977285D01*
X153066785Y-114948714D01*
X153028690Y-114920142D01*
X152990595Y-114863000D01*
X152990595Y-114691571D01*
X153028690Y-114634428D01*
X153066785Y-114605857D01*
X153790595Y-115177285D02*
X153790595Y-115577285D01*
X152990595Y-115320142D01*
X157256833Y-115113785D02*
X157256833Y-115485214D01*
X156990166Y-115285214D01*
X156990166Y-115370928D01*
X156956833Y-115428071D01*
X156923500Y-115456642D01*
X156856833Y-115485214D01*
X156690166Y-115485214D01*
X156623500Y-115456642D01*
X156590166Y-115428071D01*
X156556833Y-115370928D01*
X156556833Y-115199500D01*
X156590166Y-115142357D01*
X156623500Y-115113785D01*
X155756833Y-115256642D02*
X155790166Y-115199500D01*
X155823500Y-115170928D01*
X155890166Y-115142357D01*
X155923500Y-115142357D01*
X155990166Y-115170928D01*
X156023500Y-115199500D01*
X156056833Y-115256642D01*
X156056833Y-115370928D01*
X156023500Y-115428071D01*
X155990166Y-115456642D01*
X155923500Y-115485214D01*
X155890166Y-115485214D01*
X155823500Y-115456642D01*
X155790166Y-115428071D01*
X155756833Y-115370928D01*
X155756833Y-115256642D01*
X155723500Y-115199500D01*
X155690166Y-115170928D01*
X155623500Y-115142357D01*
X155490166Y-115142357D01*
X155423500Y-115170928D01*
X155390166Y-115199500D01*
X155356833Y-115256642D01*
X155356833Y-115370928D01*
X155390166Y-115428071D01*
X155423500Y-115456642D01*
X155490166Y-115485214D01*
X155623500Y-115485214D01*
X155690166Y-115456642D01*
X155723500Y-115428071D01*
X155756833Y-115370928D01*
X137977619Y-95804642D02*
X137977619Y-95461785D01*
X137977619Y-95633214D02*
X138977619Y-95633214D01*
X138834761Y-95576071D01*
X138739523Y-95518928D01*
X138691904Y-95461785D01*
X138977619Y-96004642D02*
X138977619Y-96404642D01*
X137977619Y-96147500D01*
X140517619Y-95804642D02*
X140517619Y-95461785D01*
X140517619Y-95633214D02*
X141517619Y-95633214D01*
X141374761Y-95576071D01*
X141279523Y-95518928D01*
X141231904Y-95461785D01*
X141517619Y-96318928D02*
X141517619Y-96204642D01*
X141470000Y-96147500D01*
X141422380Y-96118928D01*
X141279523Y-96061785D01*
X141089047Y-96033214D01*
X140708095Y-96033214D01*
X140612857Y-96061785D01*
X140565238Y-96090357D01*
X140517619Y-96147500D01*
X140517619Y-96261785D01*
X140565238Y-96318928D01*
X140612857Y-96347500D01*
X140708095Y-96376071D01*
X140946190Y-96376071D01*
X141041428Y-96347500D01*
X141089047Y-96318928D01*
X141136666Y-96261785D01*
X141136666Y-96147500D01*
X141089047Y-96090357D01*
X141041428Y-96061785D01*
X140946190Y-96033214D01*
X143057619Y-95804642D02*
X143057619Y-95461785D01*
X143057619Y-95633214D02*
X144057619Y-95633214D01*
X143914761Y-95576071D01*
X143819523Y-95518928D01*
X143771904Y-95461785D01*
X144057619Y-96347500D02*
X144057619Y-96061785D01*
X143581428Y-96033214D01*
X143629047Y-96061785D01*
X143676666Y-96118928D01*
X143676666Y-96261785D01*
X143629047Y-96318928D01*
X143581428Y-96347500D01*
X143486190Y-96376071D01*
X143248095Y-96376071D01*
X143152857Y-96347500D01*
X143105238Y-96318928D01*
X143057619Y-96261785D01*
X143057619Y-96118928D01*
X143105238Y-96061785D01*
X143152857Y-96033214D01*
X145597619Y-95804642D02*
X145597619Y-95461785D01*
X145597619Y-95633214D02*
X146597619Y-95633214D01*
X146454761Y-95576071D01*
X146359523Y-95518928D01*
X146311904Y-95461785D01*
X146264285Y-96318928D02*
X145597619Y-96318928D01*
X146645238Y-96176071D02*
X145930952Y-96033214D01*
X145930952Y-96404642D01*
X148137619Y-95804642D02*
X148137619Y-95461785D01*
X148137619Y-95633214D02*
X149137619Y-95633214D01*
X148994761Y-95576071D01*
X148899523Y-95518928D01*
X148851904Y-95461785D01*
X149137619Y-96004642D02*
X149137619Y-96376071D01*
X148756666Y-96176071D01*
X148756666Y-96261785D01*
X148709047Y-96318928D01*
X148661428Y-96347500D01*
X148566190Y-96376071D01*
X148328095Y-96376071D01*
X148232857Y-96347500D01*
X148185238Y-96318928D01*
X148137619Y-96261785D01*
X148137619Y-96090357D01*
X148185238Y-96033214D01*
X148232857Y-96004642D01*
X150677619Y-95804642D02*
X150677619Y-95461785D01*
X150677619Y-95633214D02*
X151677619Y-95633214D01*
X151534761Y-95576071D01*
X151439523Y-95518928D01*
X151391904Y-95461785D01*
X151582380Y-96033214D02*
X151630000Y-96061785D01*
X151677619Y-96118928D01*
X151677619Y-96261785D01*
X151630000Y-96318928D01*
X151582380Y-96347500D01*
X151487142Y-96376071D01*
X151391904Y-96376071D01*
X151249047Y-96347500D01*
X150677619Y-96004642D01*
X150677619Y-96376071D01*
X154016833Y-95677642D02*
X154016833Y-95334785D01*
X154016833Y-95506214D02*
X154716833Y-95506214D01*
X154616833Y-95449071D01*
X154550166Y-95391928D01*
X154516833Y-95334785D01*
X152816833Y-95677642D02*
X152816833Y-95334785D01*
X152816833Y-95506214D02*
X153516833Y-95506214D01*
X153416833Y-95449071D01*
X153350166Y-95391928D01*
X153316833Y-95334785D01*
X156620333Y-95677642D02*
X156620333Y-95334785D01*
X156620333Y-95506214D02*
X157320333Y-95506214D01*
X157220333Y-95449071D01*
X157153666Y-95391928D01*
X157120333Y-95334785D01*
X156120333Y-95477642D02*
X156120333Y-95534785D01*
X156087000Y-95591928D01*
X156053666Y-95620500D01*
X155987000Y-95649071D01*
X155853666Y-95677642D01*
X155687000Y-95677642D01*
X155553666Y-95649071D01*
X155487000Y-95620500D01*
X155453666Y-95591928D01*
X155420333Y-95534785D01*
X155420333Y-95477642D01*
X155453666Y-95420500D01*
X155487000Y-95391928D01*
X155553666Y-95363357D01*
X155687000Y-95334785D01*
X155853666Y-95334785D01*
X155987000Y-95363357D01*
X156053666Y-95391928D01*
X156087000Y-95420500D01*
X156120333Y-95477642D01*
X132897619Y-95770714D02*
X132897619Y-95885000D01*
X132945238Y-95942142D01*
X132992857Y-95970714D01*
X133135714Y-96027857D01*
X133326190Y-96056428D01*
X133707142Y-96056428D01*
X133802380Y-96027857D01*
X133850000Y-95999285D01*
X133897619Y-95942142D01*
X133897619Y-95827857D01*
X133850000Y-95770714D01*
X133802380Y-95742142D01*
X133707142Y-95713571D01*
X133469047Y-95713571D01*
X133373809Y-95742142D01*
X133326190Y-95770714D01*
X133278571Y-95827857D01*
X133278571Y-95942142D01*
X133326190Y-95999285D01*
X133373809Y-96027857D01*
X133469047Y-96056428D01*
X136009047Y-95827857D02*
X136056666Y-95770714D01*
X136104285Y-95742142D01*
X136199523Y-95713571D01*
X136247142Y-95713571D01*
X136342380Y-95742142D01*
X136390000Y-95770714D01*
X136437619Y-95827857D01*
X136437619Y-95942142D01*
X136390000Y-95999285D01*
X136342380Y-96027857D01*
X136247142Y-96056428D01*
X136199523Y-96056428D01*
X136104285Y-96027857D01*
X136056666Y-95999285D01*
X136009047Y-95942142D01*
X136009047Y-95827857D01*
X135961428Y-95770714D01*
X135913809Y-95742142D01*
X135818571Y-95713571D01*
X135628095Y-95713571D01*
X135532857Y-95742142D01*
X135485238Y-95770714D01*
X135437619Y-95827857D01*
X135437619Y-95942142D01*
X135485238Y-95999285D01*
X135532857Y-96027857D01*
X135628095Y-96056428D01*
X135818571Y-96056428D01*
X135913809Y-96027857D01*
X135961428Y-95999285D01*
X136009047Y-95942142D01*
X159297619Y-95433214D02*
X159297619Y-95833214D01*
X158297619Y-95576071D01*
X161837619Y-95747500D02*
X161837619Y-95633214D01*
X161790000Y-95576071D01*
X161742380Y-95547500D01*
X161599523Y-95490357D01*
X161409047Y-95461785D01*
X161028095Y-95461785D01*
X160932857Y-95490357D01*
X160885238Y-95518928D01*
X160837619Y-95576071D01*
X160837619Y-95690357D01*
X160885238Y-95747500D01*
X160932857Y-95776071D01*
X161028095Y-95804642D01*
X161266190Y-95804642D01*
X161361428Y-95776071D01*
X161409047Y-95747500D01*
X161456666Y-95690357D01*
X161456666Y-95576071D01*
X161409047Y-95518928D01*
X161361428Y-95490357D01*
X161266190Y-95461785D01*
X164377619Y-95776071D02*
X164377619Y-95490357D01*
X163901428Y-95461785D01*
X163949047Y-95490357D01*
X163996666Y-95547500D01*
X163996666Y-95690357D01*
X163949047Y-95747500D01*
X163901428Y-95776071D01*
X163806190Y-95804642D01*
X163568095Y-95804642D01*
X163472857Y-95776071D01*
X163425238Y-95747500D01*
X163377619Y-95690357D01*
X163377619Y-95547500D01*
X163425238Y-95490357D01*
X163472857Y-95461785D01*
X166584285Y-95747500D02*
X165917619Y-95747500D01*
X166965238Y-95604642D02*
X166250952Y-95461785D01*
X166250952Y-95833214D01*
X169457619Y-95433214D02*
X169457619Y-95804642D01*
X169076666Y-95604642D01*
X169076666Y-95690357D01*
X169029047Y-95747500D01*
X168981428Y-95776071D01*
X168886190Y-95804642D01*
X168648095Y-95804642D01*
X168552857Y-95776071D01*
X168505238Y-95747500D01*
X168457619Y-95690357D01*
X168457619Y-95518928D01*
X168505238Y-95461785D01*
X168552857Y-95433214D01*
X171902380Y-95461785D02*
X171950000Y-95490357D01*
X171997619Y-95547500D01*
X171997619Y-95690357D01*
X171950000Y-95747500D01*
X171902380Y-95776071D01*
X171807142Y-95804642D01*
X171711904Y-95804642D01*
X171569047Y-95776071D01*
X170997619Y-95433214D01*
X170997619Y-95804642D01*
X173537619Y-95804642D02*
X173537619Y-95461785D01*
X173537619Y-95633214D02*
X174537619Y-95633214D01*
X174394761Y-95576071D01*
X174299523Y-95518928D01*
X174251904Y-95461785D01*
D13*
X177077619Y-95588392D02*
X177077619Y-95645535D01*
X177030000Y-95702678D01*
X176982380Y-95731250D01*
X176887142Y-95759821D01*
X176696666Y-95788392D01*
X176458571Y-95788392D01*
X176268095Y-95759821D01*
X176172857Y-95731250D01*
X176125238Y-95702678D01*
X176077619Y-95645535D01*
X176077619Y-95588392D01*
X176125238Y-95531250D01*
X176172857Y-95502678D01*
X176268095Y-95474107D01*
X176458571Y-95445535D01*
X176696666Y-95445535D01*
X176887142Y-95474107D01*
X176982380Y-95502678D01*
X177030000Y-95531250D01*
X177077619Y-95588392D01*
D12*
X127848214Y-109747142D02*
X127448214Y-109747142D01*
X127448214Y-110428095D02*
X127448214Y-109128095D01*
X128019642Y-109128095D01*
X129162500Y-110428095D02*
X128762500Y-109809047D01*
X128476785Y-110428095D02*
X128476785Y-109128095D01*
X128933928Y-109128095D01*
X129048214Y-109190000D01*
X129105357Y-109251904D01*
X129162500Y-109375714D01*
X129162500Y-109561428D01*
X129105357Y-109685238D01*
X129048214Y-109747142D01*
X128933928Y-109809047D01*
X128476785Y-109809047D01*
X129619642Y-110056666D02*
X130191071Y-110056666D01*
X129505357Y-110428095D02*
X129905357Y-109128095D01*
X130305357Y-110428095D01*
X130705357Y-110428095D02*
X130705357Y-109128095D01*
X131391071Y-110428095D01*
X131391071Y-109128095D01*
X131848214Y-109128095D02*
X132648214Y-109128095D01*
X131848214Y-110428095D01*
X132648214Y-110428095D01*
X133105357Y-110428095D02*
X133105357Y-109128095D01*
X133676785Y-110428095D02*
X133676785Y-109128095D01*
X134362500Y-110428095D01*
X134362500Y-109128095D01*
X134933928Y-110428095D02*
X134933928Y-109128095D01*
X135505357Y-110428095D02*
X135505357Y-109128095D01*
X136191071Y-110428095D01*
X136191071Y-109128095D01*
X136762500Y-110428095D02*
X136762500Y-109128095D01*
X136762500Y-109747142D02*
X137448214Y-109747142D01*
X137448214Y-110428095D02*
X137448214Y-109128095D01*
X138248214Y-109128095D02*
X138476785Y-109128095D01*
X138591071Y-109190000D01*
X138705357Y-109313809D01*
X138762500Y-109561428D01*
X138762500Y-109994761D01*
X138705357Y-110242380D01*
X138591071Y-110366190D01*
X138476785Y-110428095D01*
X138248214Y-110428095D01*
X138133928Y-110366190D01*
X138019642Y-110242380D01*
X137962500Y-109994761D01*
X137962500Y-109561428D01*
X138019642Y-109313809D01*
X138133928Y-109190000D01*
X138248214Y-109128095D01*
X140076785Y-109128095D02*
X140362500Y-110428095D01*
X140591071Y-109499523D01*
X140819642Y-110428095D01*
X141105357Y-109128095D01*
X141562500Y-110428095D02*
X141562500Y-109128095D01*
X142533928Y-109747142D02*
X142133928Y-109747142D01*
X142133928Y-110428095D02*
X142133928Y-109128095D01*
X142705357Y-109128095D01*
X143162500Y-110428095D02*
X143162500Y-109128095D01*
D14*
G36*
X183484766Y-117136183D02*
G01*
X183360715Y-117232674D01*
X183229093Y-117319567D01*
X183106947Y-117387836D01*
X182991973Y-117441996D01*
X182870537Y-117490011D01*
X182745398Y-117531070D01*
X182619316Y-117564361D01*
X182495050Y-117589073D01*
X182375360Y-117604394D01*
X182368523Y-117604986D01*
X182319791Y-117608960D01*
X182282102Y-117611669D01*
X182253860Y-117613101D01*
X182233473Y-117613249D01*
X182219345Y-117612105D01*
X182209881Y-117609658D01*
X182203489Y-117605902D01*
X182201471Y-117604068D01*
X182192581Y-117588090D01*
X182186335Y-117562484D01*
X182182653Y-117530026D01*
X182181456Y-117493493D01*
X182182666Y-117455662D01*
X182186203Y-117419308D01*
X182191989Y-117387208D01*
X182199944Y-117362139D01*
X182208752Y-117348024D01*
X182216964Y-117345441D01*
X182235511Y-117342413D01*
X182262053Y-117339240D01*
X182294245Y-117336218D01*
X182313193Y-117334752D01*
X182434787Y-117320809D01*
X182559959Y-117296575D01*
X182686089Y-117262842D01*
X182810552Y-117220400D01*
X182930727Y-117170042D01*
X183037920Y-117115930D01*
X183156502Y-117043508D01*
X183270398Y-116960114D01*
X183378270Y-116867024D01*
X183478781Y-116765517D01*
X183570595Y-116656872D01*
X183652374Y-116542363D01*
X183674280Y-116507824D01*
X183740927Y-116388966D01*
X183799020Y-116263177D01*
X183847873Y-116132563D01*
X183886794Y-115999229D01*
X183915099Y-115865281D01*
X183932097Y-115732824D01*
X183933524Y-115714669D01*
X183937174Y-115672894D01*
X183941356Y-115640081D01*
X183945878Y-115617463D01*
X183950543Y-115606274D01*
X183950694Y-115606116D01*
X183963282Y-115598147D01*
X183981671Y-115591134D01*
X183985906Y-115590005D01*
X184018352Y-115584223D01*
X184054638Y-115581153D01*
X184092138Y-115580636D01*
X184128227Y-115582512D01*
X184160277Y-115586622D01*
X184185662Y-115592806D01*
X184201759Y-115600905D01*
X184204052Y-115603249D01*
X184209007Y-115617216D01*
X184211297Y-115642039D01*
X184211107Y-115676198D01*
X184208618Y-115718171D01*
X184204018Y-115766438D01*
X184197487Y-115819480D01*
X184189210Y-115875773D01*
X184179372Y-115933800D01*
X184168153Y-115992038D01*
X184155740Y-116048966D01*
X184144876Y-116093303D01*
X184099314Y-116244213D01*
X184042199Y-116390493D01*
X183974028Y-116531523D01*
X183895300Y-116666681D01*
X183806512Y-116795346D01*
X183708161Y-116916899D01*
X183600747Y-117030718D01*
X183484766Y-117136183D01*
G37*
X183484766Y-117136183D02*
X183360715Y-117232674D01*
X183229093Y-117319567D01*
X183106947Y-117387836D01*
X182991973Y-117441996D01*
X182870537Y-117490011D01*
X182745398Y-117531070D01*
X182619316Y-117564361D01*
X182495050Y-117589073D01*
X182375360Y-117604394D01*
X182368523Y-117604986D01*
X182319791Y-117608960D01*
X182282102Y-117611669D01*
X182253860Y-117613101D01*
X182233473Y-117613249D01*
X182219345Y-117612105D01*
X182209881Y-117609658D01*
X182203489Y-117605902D01*
X182201471Y-117604068D01*
X182192581Y-117588090D01*
X182186335Y-117562484D01*
X182182653Y-117530026D01*
X182181456Y-117493493D01*
X182182666Y-117455662D01*
X182186203Y-117419308D01*
X182191989Y-117387208D01*
X182199944Y-117362139D01*
X182208752Y-117348024D01*
X182216964Y-117345441D01*
X182235511Y-117342413D01*
X182262053Y-117339240D01*
X182294245Y-117336218D01*
X182313193Y-117334752D01*
X182434787Y-117320809D01*
X182559959Y-117296575D01*
X182686089Y-117262842D01*
X182810552Y-117220400D01*
X182930727Y-117170042D01*
X183037920Y-117115930D01*
X183156502Y-117043508D01*
X183270398Y-116960114D01*
X183378270Y-116867024D01*
X183478781Y-116765517D01*
X183570595Y-116656872D01*
X183652374Y-116542363D01*
X183674280Y-116507824D01*
X183740927Y-116388966D01*
X183799020Y-116263177D01*
X183847873Y-116132563D01*
X183886794Y-115999229D01*
X183915099Y-115865281D01*
X183932097Y-115732824D01*
X183933524Y-115714669D01*
X183937174Y-115672894D01*
X183941356Y-115640081D01*
X183945878Y-115617463D01*
X183950543Y-115606274D01*
X183950694Y-115606116D01*
X183963282Y-115598147D01*
X183981671Y-115591134D01*
X183985906Y-115590005D01*
X184018352Y-115584223D01*
X184054638Y-115581153D01*
X184092138Y-115580636D01*
X184128227Y-115582512D01*
X184160277Y-115586622D01*
X184185662Y-115592806D01*
X184201759Y-115600905D01*
X184204052Y-115603249D01*
X184209007Y-115617216D01*
X184211297Y-115642039D01*
X184211107Y-115676198D01*
X184208618Y-115718171D01*
X184204018Y-115766438D01*
X184197487Y-115819480D01*
X184189210Y-115875773D01*
X184179372Y-115933800D01*
X184168153Y-115992038D01*
X184155740Y-116048966D01*
X184144876Y-116093303D01*
X184099314Y-116244213D01*
X184042199Y-116390493D01*
X183974028Y-116531523D01*
X183895300Y-116666681D01*
X183806512Y-116795346D01*
X183708161Y-116916899D01*
X183600747Y-117030718D01*
X183484766Y-117136183D01*
G36*
X183147572Y-116614313D02*
G01*
X183106222Y-116652534D01*
X183067610Y-116686077D01*
X183043581Y-116705429D01*
X182985896Y-116747035D01*
X182921047Y-116788929D01*
X182853882Y-116828169D01*
X182789248Y-116861817D01*
X182773361Y-116869331D01*
X182680650Y-116907588D01*
X182580955Y-116940516D01*
X182478282Y-116967062D01*
X182376632Y-116986175D01*
X182291597Y-116995979D01*
X182256412Y-116998318D01*
X182231589Y-116998922D01*
X182214895Y-116997643D01*
X182204091Y-116994331D01*
X182197835Y-116989775D01*
X182189617Y-116974753D01*
X182183268Y-116949660D01*
X182178775Y-116916983D01*
X182176129Y-116879211D01*
X182175318Y-116838831D01*
X182176330Y-116798334D01*
X182179155Y-116760205D01*
X182183782Y-116726935D01*
X182190199Y-116701010D01*
X182198394Y-116684919D01*
X182199208Y-116684049D01*
X182209050Y-116679766D01*
X182228245Y-116675471D01*
X182253465Y-116671826D01*
X182267419Y-116670446D01*
X182383351Y-116654402D01*
X182497051Y-116626018D01*
X182607713Y-116585573D01*
X182714533Y-116533344D01*
X182784830Y-116491069D01*
X182809434Y-116474791D01*
X182830369Y-116460033D01*
X182849788Y-116444962D01*
X182869850Y-116427746D01*
X182892709Y-116406550D01*
X182920520Y-116379542D01*
X182947907Y-116352397D01*
X182995072Y-116304134D01*
X183034169Y-116260844D01*
X183067223Y-116219794D01*
X183096264Y-116178248D01*
X183123313Y-116133473D01*
X183150401Y-116082735D01*
X183155968Y-116071699D01*
X183191809Y-115990871D01*
X183222387Y-115903343D01*
X183246563Y-115813185D01*
X183263200Y-115724472D01*
X183269851Y-115664062D01*
X183272747Y-115638040D01*
X183276980Y-115616236D01*
X183281783Y-115602283D01*
X183283380Y-115600002D01*
X183294164Y-115594345D01*
X183313521Y-115588590D01*
X183337386Y-115583931D01*
X183338925Y-115583705D01*
X183376192Y-115579742D01*
X183416601Y-115577815D01*
X183457781Y-115577785D01*
X183497364Y-115579511D01*
X183532980Y-115582853D01*
X183562258Y-115587670D01*
X183582831Y-115593823D01*
X183590526Y-115598587D01*
X183594632Y-115609814D01*
X183596408Y-115631607D01*
X183595991Y-115662071D01*
X183593512Y-115699313D01*
X183589108Y-115741438D01*
X183582910Y-115786552D01*
X183575054Y-115832763D01*
X183573326Y-115841814D01*
X183541147Y-115974218D01*
X183497063Y-116102433D01*
X183441356Y-116225840D01*
X183374310Y-116343815D01*
X183296207Y-116455740D01*
X183289344Y-116464601D01*
X183262545Y-116496556D01*
X183228283Y-116533824D01*
X183189109Y-116573909D01*
X183147572Y-116614313D01*
G37*
X183147572Y-116614313D02*
X183106222Y-116652534D01*
X183067610Y-116686077D01*
X183043581Y-116705429D01*
X182985896Y-116747035D01*
X182921047Y-116788929D01*
X182853882Y-116828169D01*
X182789248Y-116861817D01*
X182773361Y-116869331D01*
X182680650Y-116907588D01*
X182580955Y-116940516D01*
X182478282Y-116967062D01*
X182376632Y-116986175D01*
X182291597Y-116995979D01*
X182256412Y-116998318D01*
X182231589Y-116998922D01*
X182214895Y-116997643D01*
X182204091Y-116994331D01*
X182197835Y-116989775D01*
X182189617Y-116974753D01*
X182183268Y-116949660D01*
X182178775Y-116916983D01*
X182176129Y-116879211D01*
X182175318Y-116838831D01*
X182176330Y-116798334D01*
X182179155Y-116760205D01*
X182183782Y-116726935D01*
X182190199Y-116701010D01*
X182198394Y-116684919D01*
X182199208Y-116684049D01*
X182209050Y-116679766D01*
X182228245Y-116675471D01*
X182253465Y-116671826D01*
X182267419Y-116670446D01*
X182383351Y-116654402D01*
X182497051Y-116626018D01*
X182607713Y-116585573D01*
X182714533Y-116533344D01*
X182784830Y-116491069D01*
X182809434Y-116474791D01*
X182830369Y-116460033D01*
X182849788Y-116444962D01*
X182869850Y-116427746D01*
X182892709Y-116406550D01*
X182920520Y-116379542D01*
X182947907Y-116352397D01*
X182995072Y-116304134D01*
X183034169Y-116260844D01*
X183067223Y-116219794D01*
X183096264Y-116178248D01*
X183123313Y-116133473D01*
X183150401Y-116082735D01*
X183155968Y-116071699D01*
X183191809Y-115990871D01*
X183222387Y-115903343D01*
X183246563Y-115813185D01*
X183263200Y-115724472D01*
X183269851Y-115664062D01*
X183272747Y-115638040D01*
X183276980Y-115616236D01*
X183281783Y-115602283D01*
X183283380Y-115600002D01*
X183294164Y-115594345D01*
X183313521Y-115588590D01*
X183337386Y-115583931D01*
X183338925Y-115583705D01*
X183376192Y-115579742D01*
X183416601Y-115577815D01*
X183457781Y-115577785D01*
X183497364Y-115579511D01*
X183532980Y-115582853D01*
X183562258Y-115587670D01*
X183582831Y-115593823D01*
X183590526Y-115598587D01*
X183594632Y-115609814D01*
X183596408Y-115631607D01*
X183595991Y-115662071D01*
X183593512Y-115699313D01*
X183589108Y-115741438D01*
X183582910Y-115786552D01*
X183575054Y-115832763D01*
X183573326Y-115841814D01*
X183541147Y-115974218D01*
X183497063Y-116102433D01*
X183441356Y-116225840D01*
X183374310Y-116343815D01*
X183296207Y-116455740D01*
X183289344Y-116464601D01*
X183262545Y-116496556D01*
X183228283Y-116533824D01*
X183189109Y-116573909D01*
X183147572Y-116614313D01*
G36*
X182640873Y-116172424D02*
G01*
X182568136Y-116223287D01*
X182489022Y-116264772D01*
X182413746Y-116294189D01*
X182384689Y-116302916D01*
X182351193Y-116311203D01*
X182315915Y-116318597D01*
X182281508Y-116324643D01*
X182250628Y-116328891D01*
X182225928Y-116330887D01*
X182210064Y-116330177D01*
X182207476Y-116329393D01*
X182196277Y-116317813D01*
X182187798Y-116294187D01*
X182182011Y-116258390D01*
X182178887Y-116210298D01*
X182178824Y-116208336D01*
X182178297Y-116160127D01*
X182179809Y-116118765D01*
X182183215Y-116085740D01*
X182188368Y-116062537D01*
X182194198Y-116051461D01*
X182204888Y-116045997D01*
X182223575Y-116040803D01*
X182239833Y-116037944D01*
X182290463Y-116027371D01*
X182344633Y-116009525D01*
X182397041Y-115986253D01*
X182413295Y-115977556D01*
X182452740Y-115951254D01*
X182492969Y-115917236D01*
X182530390Y-115879012D01*
X182561410Y-115840086D01*
X182573664Y-115820999D01*
X182593023Y-115782641D01*
X182610823Y-115738247D01*
X182625396Y-115692666D01*
X182635074Y-115650753D01*
X182637189Y-115636205D01*
X182640272Y-115614270D01*
X182643723Y-115597574D01*
X182646590Y-115590089D01*
X182654580Y-115587420D01*
X182672203Y-115584096D01*
X182696450Y-115580634D01*
X182712337Y-115578770D01*
X182752366Y-115576025D01*
X182795016Y-115575785D01*
X182836631Y-115577851D01*
X182873554Y-115582026D01*
X182902130Y-115588111D01*
X182905681Y-115589248D01*
X182918693Y-115594297D01*
X182925176Y-115600530D01*
X182927505Y-115612059D01*
X182927975Y-115627863D01*
X182925187Y-115672657D01*
X182916184Y-115724790D01*
X182901886Y-115781089D01*
X182883213Y-115838388D01*
X182861084Y-115893513D01*
X182836506Y-115943140D01*
X182810575Y-115987485D01*
X182785396Y-116024852D01*
X182757712Y-116059537D01*
X182724268Y-116095841D01*
X182709630Y-116110698D01*
X182640873Y-116172424D01*
G37*
X182640873Y-116172424D02*
X182568136Y-116223287D01*
X182489022Y-116264772D01*
X182413746Y-116294189D01*
X182384689Y-116302916D01*
X182351193Y-116311203D01*
X182315915Y-116318597D01*
X182281508Y-116324643D01*
X182250628Y-116328891D01*
X182225928Y-116330887D01*
X182210064Y-116330177D01*
X182207476Y-116329393D01*
X182196277Y-116317813D01*
X182187798Y-116294187D01*
X182182011Y-116258390D01*
X182178887Y-116210298D01*
X182178824Y-116208336D01*
X182178297Y-116160127D01*
X182179809Y-116118765D01*
X182183215Y-116085740D01*
X182188368Y-116062537D01*
X182194198Y-116051461D01*
X182204888Y-116045997D01*
X182223575Y-116040803D01*
X182239833Y-116037944D01*
X182290463Y-116027371D01*
X182344633Y-116009525D01*
X182397041Y-115986253D01*
X182413295Y-115977556D01*
X182452740Y-115951254D01*
X182492969Y-115917236D01*
X182530390Y-115879012D01*
X182561410Y-115840086D01*
X182573664Y-115820999D01*
X182593023Y-115782641D01*
X182610823Y-115738247D01*
X182625396Y-115692666D01*
X182635074Y-115650753D01*
X182637189Y-115636205D01*
X182640272Y-115614270D01*
X182643723Y-115597574D01*
X182646590Y-115590089D01*
X182654580Y-115587420D01*
X182672203Y-115584096D01*
X182696450Y-115580634D01*
X182712337Y-115578770D01*
X182752366Y-115576025D01*
X182795016Y-115575785D01*
X182836631Y-115577851D01*
X182873554Y-115582026D01*
X182902130Y-115588111D01*
X182905681Y-115589248D01*
X182918693Y-115594297D01*
X182925176Y-115600530D01*
X182927505Y-115612059D01*
X182927975Y-115627863D01*
X182925187Y-115672657D01*
X182916184Y-115724790D01*
X182901886Y-115781089D01*
X182883213Y-115838388D01*
X182861084Y-115893513D01*
X182836506Y-115943140D01*
X182810575Y-115987485D01*
X182785396Y-116024852D01*
X182757712Y-116059537D01*
X182724268Y-116095841D01*
X182709630Y-116110698D01*
X182640873Y-116172424D01*
G36*
X182341822Y-115746313D02*
G01*
X182306397Y-115776982D01*
X182271228Y-115797124D01*
X182232832Y-115808081D01*
X182187723Y-115811197D01*
X182174314Y-115810882D01*
X182128864Y-115806137D01*
X182090802Y-115794686D01*
X182056686Y-115774899D01*
X182023073Y-115745146D01*
X182012883Y-115734372D01*
X181993104Y-115711973D01*
X181979917Y-115694145D01*
X181970760Y-115676658D01*
X181963075Y-115655277D01*
X181961027Y-115648643D01*
X181951153Y-115594987D01*
X181953324Y-115540841D01*
X181963347Y-115499993D01*
X181971730Y-115480219D01*
X181983884Y-115461091D01*
X182002246Y-115439051D01*
X182013467Y-115426938D01*
X182032890Y-115407294D01*
X182050811Y-115390711D01*
X182064285Y-115379866D01*
X182067614Y-115377812D01*
X182118370Y-115358790D01*
X182171746Y-115352083D01*
X182227070Y-115357734D01*
X182254161Y-115364864D01*
X182275298Y-115372013D01*
X182291358Y-115379387D01*
X182305985Y-115389376D01*
X182322819Y-115404372D01*
X182339829Y-115421085D01*
X182360577Y-115442345D01*
X182374508Y-115458715D01*
X182384117Y-115473947D01*
X182391895Y-115491787D01*
X182397656Y-115508042D01*
X182409404Y-115561804D01*
X182408669Y-115616296D01*
X182395956Y-115668658D01*
X182387717Y-115689002D01*
X182378167Y-115705737D01*
X182364631Y-115722697D01*
X182344434Y-115743717D01*
X182341822Y-115746313D01*
G37*
X182341822Y-115746313D02*
X182306397Y-115776982D01*
X182271228Y-115797124D01*
X182232832Y-115808081D01*
X182187723Y-115811197D01*
X182174314Y-115810882D01*
X182128864Y-115806137D01*
X182090802Y-115794686D01*
X182056686Y-115774899D01*
X182023073Y-115745146D01*
X182012883Y-115734372D01*
X181993104Y-115711973D01*
X181979917Y-115694145D01*
X181970760Y-115676658D01*
X181963075Y-115655277D01*
X181961027Y-115648643D01*
X181951153Y-115594987D01*
X181953324Y-115540841D01*
X181963347Y-115499993D01*
X181971730Y-115480219D01*
X181983884Y-115461091D01*
X182002246Y-115439051D01*
X182013467Y-115426938D01*
X182032890Y-115407294D01*
X182050811Y-115390711D01*
X182064285Y-115379866D01*
X182067614Y-115377812D01*
X182118370Y-115358790D01*
X182171746Y-115352083D01*
X182227070Y-115357734D01*
X182254161Y-115364864D01*
X182275298Y-115372013D01*
X182291358Y-115379387D01*
X182305985Y-115389376D01*
X182322819Y-115404372D01*
X182339829Y-115421085D01*
X182360577Y-115442345D01*
X182374508Y-115458715D01*
X182384117Y-115473947D01*
X182391895Y-115491787D01*
X182397656Y-115508042D01*
X182409404Y-115561804D01*
X182408669Y-115616296D01*
X182395956Y-115668658D01*
X182387717Y-115689002D01*
X182378167Y-115705737D01*
X182364631Y-115722697D01*
X182344434Y-115743717D01*
X182341822Y-115746313D01*
G36*
X182546313Y-95058178D02*
G01*
X182576982Y-95093603D01*
X182597124Y-95128772D01*
X182608081Y-95167168D01*
X182611197Y-95212277D01*
X182610882Y-95225686D01*
X182606137Y-95271136D01*
X182594686Y-95309198D01*
X182574899Y-95343314D01*
X182545146Y-95376927D01*
X182534372Y-95387117D01*
X182511973Y-95406896D01*
X182494145Y-95420083D01*
X182476658Y-95429240D01*
X182455277Y-95436925D01*
X182448643Y-95438973D01*
X182394987Y-95448847D01*
X182340841Y-95446676D01*
X182299993Y-95436653D01*
X182280219Y-95428270D01*
X182261091Y-95416116D01*
X182239051Y-95397754D01*
X182226938Y-95386533D01*
X182207294Y-95367110D01*
X182190711Y-95349189D01*
X182179866Y-95335715D01*
X182177812Y-95332386D01*
X182158790Y-95281630D01*
X182152083Y-95228254D01*
X182157734Y-95172930D01*
X182164864Y-95145839D01*
X182172013Y-95124702D01*
X182179387Y-95108642D01*
X182189376Y-95094015D01*
X182204372Y-95077181D01*
X182221085Y-95060171D01*
X182242345Y-95039423D01*
X182258715Y-95025492D01*
X182273947Y-95015883D01*
X182291787Y-95008105D01*
X182308042Y-95002344D01*
X182361804Y-94990596D01*
X182416296Y-94991331D01*
X182468658Y-95004044D01*
X182489002Y-95012283D01*
X182505737Y-95021833D01*
X182522697Y-95035369D01*
X182543717Y-95055566D01*
X182546313Y-95058178D01*
G37*
X182546313Y-95058178D02*
X182576982Y-95093603D01*
X182597124Y-95128772D01*
X182608081Y-95167168D01*
X182611197Y-95212277D01*
X182610882Y-95225686D01*
X182606137Y-95271136D01*
X182594686Y-95309198D01*
X182574899Y-95343314D01*
X182545146Y-95376927D01*
X182534372Y-95387117D01*
X182511973Y-95406896D01*
X182494145Y-95420083D01*
X182476658Y-95429240D01*
X182455277Y-95436925D01*
X182448643Y-95438973D01*
X182394987Y-95448847D01*
X182340841Y-95446676D01*
X182299993Y-95436653D01*
X182280219Y-95428270D01*
X182261091Y-95416116D01*
X182239051Y-95397754D01*
X182226938Y-95386533D01*
X182207294Y-95367110D01*
X182190711Y-95349189D01*
X182179866Y-95335715D01*
X182177812Y-95332386D01*
X182158790Y-95281630D01*
X182152083Y-95228254D01*
X182157734Y-95172930D01*
X182164864Y-95145839D01*
X182172013Y-95124702D01*
X182179387Y-95108642D01*
X182189376Y-95094015D01*
X182204372Y-95077181D01*
X182221085Y-95060171D01*
X182242345Y-95039423D01*
X182258715Y-95025492D01*
X182273947Y-95015883D01*
X182291787Y-95008105D01*
X182308042Y-95002344D01*
X182361804Y-94990596D01*
X182416296Y-94991331D01*
X182468658Y-95004044D01*
X182489002Y-95012283D01*
X182505737Y-95021833D01*
X182522697Y-95035369D01*
X182543717Y-95055566D01*
X182546313Y-95058178D01*
G36*
X182972424Y-94759127D02*
G01*
X183023287Y-94831864D01*
X183064772Y-94910978D01*
X183094189Y-94986254D01*
X183102916Y-95015311D01*
X183111203Y-95048807D01*
X183118597Y-95084085D01*
X183124643Y-95118492D01*
X183128891Y-95149372D01*
X183130887Y-95174072D01*
X183130177Y-95189936D01*
X183129393Y-95192524D01*
X183117813Y-95203723D01*
X183094187Y-95212202D01*
X183058390Y-95217989D01*
X183010298Y-95221113D01*
X183008336Y-95221176D01*
X182960127Y-95221703D01*
X182918765Y-95220191D01*
X182885740Y-95216785D01*
X182862537Y-95211632D01*
X182851461Y-95205802D01*
X182845997Y-95195112D01*
X182840803Y-95176425D01*
X182837944Y-95160167D01*
X182827371Y-95109537D01*
X182809525Y-95055367D01*
X182786253Y-95002959D01*
X182777556Y-94986705D01*
X182751254Y-94947260D01*
X182717236Y-94907031D01*
X182679012Y-94869610D01*
X182640086Y-94838590D01*
X182620999Y-94826336D01*
X182582641Y-94806977D01*
X182538247Y-94789177D01*
X182492666Y-94774604D01*
X182450753Y-94764926D01*
X182436205Y-94762811D01*
X182414270Y-94759728D01*
X182397574Y-94756277D01*
X182390089Y-94753410D01*
X182387420Y-94745420D01*
X182384096Y-94727797D01*
X182380634Y-94703550D01*
X182378770Y-94687663D01*
X182376025Y-94647634D01*
X182375785Y-94604984D01*
X182377851Y-94563369D01*
X182382026Y-94526446D01*
X182388111Y-94497870D01*
X182389248Y-94494319D01*
X182394297Y-94481307D01*
X182400530Y-94474824D01*
X182412059Y-94472495D01*
X182427863Y-94472025D01*
X182472657Y-94474813D01*
X182524790Y-94483816D01*
X182581089Y-94498114D01*
X182638388Y-94516787D01*
X182693513Y-94538916D01*
X182743140Y-94563494D01*
X182787485Y-94589425D01*
X182824852Y-94614604D01*
X182859537Y-94642288D01*
X182895841Y-94675732D01*
X182910698Y-94690370D01*
X182972424Y-94759127D01*
G37*
X182972424Y-94759127D02*
X183023287Y-94831864D01*
X183064772Y-94910978D01*
X183094189Y-94986254D01*
X183102916Y-95015311D01*
X183111203Y-95048807D01*
X183118597Y-95084085D01*
X183124643Y-95118492D01*
X183128891Y-95149372D01*
X183130887Y-95174072D01*
X183130177Y-95189936D01*
X183129393Y-95192524D01*
X183117813Y-95203723D01*
X183094187Y-95212202D01*
X183058390Y-95217989D01*
X183010298Y-95221113D01*
X183008336Y-95221176D01*
X182960127Y-95221703D01*
X182918765Y-95220191D01*
X182885740Y-95216785D01*
X182862537Y-95211632D01*
X182851461Y-95205802D01*
X182845997Y-95195112D01*
X182840803Y-95176425D01*
X182837944Y-95160167D01*
X182827371Y-95109537D01*
X182809525Y-95055367D01*
X182786253Y-95002959D01*
X182777556Y-94986705D01*
X182751254Y-94947260D01*
X182717236Y-94907031D01*
X182679012Y-94869610D01*
X182640086Y-94838590D01*
X182620999Y-94826336D01*
X182582641Y-94806977D01*
X182538247Y-94789177D01*
X182492666Y-94774604D01*
X182450753Y-94764926D01*
X182436205Y-94762811D01*
X182414270Y-94759728D01*
X182397574Y-94756277D01*
X182390089Y-94753410D01*
X182387420Y-94745420D01*
X182384096Y-94727797D01*
X182380634Y-94703550D01*
X182378770Y-94687663D01*
X182376025Y-94647634D01*
X182375785Y-94604984D01*
X182377851Y-94563369D01*
X182382026Y-94526446D01*
X182388111Y-94497870D01*
X182389248Y-94494319D01*
X182394297Y-94481307D01*
X182400530Y-94474824D01*
X182412059Y-94472495D01*
X182427863Y-94472025D01*
X182472657Y-94474813D01*
X182524790Y-94483816D01*
X182581089Y-94498114D01*
X182638388Y-94516787D01*
X182693513Y-94538916D01*
X182743140Y-94563494D01*
X182787485Y-94589425D01*
X182824852Y-94614604D01*
X182859537Y-94642288D01*
X182895841Y-94675732D01*
X182910698Y-94690370D01*
X182972424Y-94759127D01*
G36*
X183414313Y-94252428D02*
G01*
X183452534Y-94293778D01*
X183486077Y-94332390D01*
X183505429Y-94356419D01*
X183547035Y-94414104D01*
X183588929Y-94478953D01*
X183628169Y-94546118D01*
X183661817Y-94610752D01*
X183669331Y-94626639D01*
X183707588Y-94719350D01*
X183740516Y-94819045D01*
X183767062Y-94921718D01*
X183786175Y-95023368D01*
X183795979Y-95108403D01*
X183798318Y-95143588D01*
X183798922Y-95168411D01*
X183797643Y-95185105D01*
X183794331Y-95195909D01*
X183789775Y-95202165D01*
X183774753Y-95210383D01*
X183749660Y-95216732D01*
X183716983Y-95221225D01*
X183679211Y-95223871D01*
X183638831Y-95224682D01*
X183598334Y-95223670D01*
X183560205Y-95220845D01*
X183526935Y-95216218D01*
X183501010Y-95209801D01*
X183484919Y-95201606D01*
X183484049Y-95200792D01*
X183479766Y-95190950D01*
X183475471Y-95171755D01*
X183471826Y-95146535D01*
X183470446Y-95132581D01*
X183454402Y-95016649D01*
X183426018Y-94902949D01*
X183385573Y-94792287D01*
X183333344Y-94685467D01*
X183291069Y-94615170D01*
X183274791Y-94590566D01*
X183260033Y-94569631D01*
X183244962Y-94550212D01*
X183227746Y-94530150D01*
X183206550Y-94507291D01*
X183179542Y-94479480D01*
X183152397Y-94452093D01*
X183104134Y-94404928D01*
X183060844Y-94365831D01*
X183019794Y-94332777D01*
X182978248Y-94303736D01*
X182933473Y-94276687D01*
X182882735Y-94249599D01*
X182871699Y-94244032D01*
X182790871Y-94208191D01*
X182703343Y-94177613D01*
X182613185Y-94153437D01*
X182524472Y-94136800D01*
X182464062Y-94130149D01*
X182438040Y-94127253D01*
X182416236Y-94123020D01*
X182402283Y-94118217D01*
X182400002Y-94116620D01*
X182394345Y-94105836D01*
X182388590Y-94086479D01*
X182383931Y-94062614D01*
X182383705Y-94061075D01*
X182379742Y-94023808D01*
X182377815Y-93983399D01*
X182377785Y-93942219D01*
X182379511Y-93902636D01*
X182382853Y-93867020D01*
X182387670Y-93837742D01*
X182393823Y-93817169D01*
X182398587Y-93809474D01*
X182409814Y-93805368D01*
X182431607Y-93803592D01*
X182462071Y-93804009D01*
X182499313Y-93806488D01*
X182541438Y-93810892D01*
X182586552Y-93817090D01*
X182632763Y-93824946D01*
X182641814Y-93826674D01*
X182774218Y-93858853D01*
X182902433Y-93902937D01*
X183025840Y-93958644D01*
X183143815Y-94025690D01*
X183255740Y-94103793D01*
X183264601Y-94110656D01*
X183296556Y-94137455D01*
X183333824Y-94171717D01*
X183373909Y-94210891D01*
X183414313Y-94252428D01*
G37*
X183414313Y-94252428D02*
X183452534Y-94293778D01*
X183486077Y-94332390D01*
X183505429Y-94356419D01*
X183547035Y-94414104D01*
X183588929Y-94478953D01*
X183628169Y-94546118D01*
X183661817Y-94610752D01*
X183669331Y-94626639D01*
X183707588Y-94719350D01*
X183740516Y-94819045D01*
X183767062Y-94921718D01*
X183786175Y-95023368D01*
X183795979Y-95108403D01*
X183798318Y-95143588D01*
X183798922Y-95168411D01*
X183797643Y-95185105D01*
X183794331Y-95195909D01*
X183789775Y-95202165D01*
X183774753Y-95210383D01*
X183749660Y-95216732D01*
X183716983Y-95221225D01*
X183679211Y-95223871D01*
X183638831Y-95224682D01*
X183598334Y-95223670D01*
X183560205Y-95220845D01*
X183526935Y-95216218D01*
X183501010Y-95209801D01*
X183484919Y-95201606D01*
X183484049Y-95200792D01*
X183479766Y-95190950D01*
X183475471Y-95171755D01*
X183471826Y-95146535D01*
X183470446Y-95132581D01*
X183454402Y-95016649D01*
X183426018Y-94902949D01*
X183385573Y-94792287D01*
X183333344Y-94685467D01*
X183291069Y-94615170D01*
X183274791Y-94590566D01*
X183260033Y-94569631D01*
X183244962Y-94550212D01*
X183227746Y-94530150D01*
X183206550Y-94507291D01*
X183179542Y-94479480D01*
X183152397Y-94452093D01*
X183104134Y-94404928D01*
X183060844Y-94365831D01*
X183019794Y-94332777D01*
X182978248Y-94303736D01*
X182933473Y-94276687D01*
X182882735Y-94249599D01*
X182871699Y-94244032D01*
X182790871Y-94208191D01*
X182703343Y-94177613D01*
X182613185Y-94153437D01*
X182524472Y-94136800D01*
X182464062Y-94130149D01*
X182438040Y-94127253D01*
X182416236Y-94123020D01*
X182402283Y-94118217D01*
X182400002Y-94116620D01*
X182394345Y-94105836D01*
X182388590Y-94086479D01*
X182383931Y-94062614D01*
X182383705Y-94061075D01*
X182379742Y-94023808D01*
X182377815Y-93983399D01*
X182377785Y-93942219D01*
X182379511Y-93902636D01*
X182382853Y-93867020D01*
X182387670Y-93837742D01*
X182393823Y-93817169D01*
X182398587Y-93809474D01*
X182409814Y-93805368D01*
X182431607Y-93803592D01*
X182462071Y-93804009D01*
X182499313Y-93806488D01*
X182541438Y-93810892D01*
X182586552Y-93817090D01*
X182632763Y-93824946D01*
X182641814Y-93826674D01*
X182774218Y-93858853D01*
X182902433Y-93902937D01*
X183025840Y-93958644D01*
X183143815Y-94025690D01*
X183255740Y-94103793D01*
X183264601Y-94110656D01*
X183296556Y-94137455D01*
X183333824Y-94171717D01*
X183373909Y-94210891D01*
X183414313Y-94252428D01*
G36*
X183936183Y-93915234D02*
G01*
X184032674Y-94039285D01*
X184119567Y-94170907D01*
X184187836Y-94293053D01*
X184241996Y-94408027D01*
X184290011Y-94529463D01*
X184331070Y-94654602D01*
X184364361Y-94780684D01*
X184389073Y-94904950D01*
X184404394Y-95024640D01*
X184404986Y-95031477D01*
X184408960Y-95080209D01*
X184411669Y-95117898D01*
X184413101Y-95146140D01*
X184413249Y-95166527D01*
X184412105Y-95180655D01*
X184409658Y-95190119D01*
X184405902Y-95196511D01*
X184404068Y-95198529D01*
X184388090Y-95207419D01*
X184362484Y-95213665D01*
X184330026Y-95217347D01*
X184293493Y-95218544D01*
X184255662Y-95217334D01*
X184219308Y-95213797D01*
X184187208Y-95208011D01*
X184162139Y-95200056D01*
X184148024Y-95191248D01*
X184145441Y-95183036D01*
X184142413Y-95164489D01*
X184139240Y-95137947D01*
X184136218Y-95105755D01*
X184134752Y-95086807D01*
X184120809Y-94965213D01*
X184096575Y-94840041D01*
X184062842Y-94713911D01*
X184020400Y-94589448D01*
X183970042Y-94469273D01*
X183915930Y-94362080D01*
X183843508Y-94243498D01*
X183760114Y-94129602D01*
X183667024Y-94021730D01*
X183565517Y-93921219D01*
X183456872Y-93829405D01*
X183342363Y-93747626D01*
X183307824Y-93725720D01*
X183188966Y-93659073D01*
X183063177Y-93600980D01*
X182932563Y-93552127D01*
X182799229Y-93513206D01*
X182665281Y-93484901D01*
X182532824Y-93467903D01*
X182514669Y-93466476D01*
X182472894Y-93462826D01*
X182440081Y-93458644D01*
X182417463Y-93454122D01*
X182406274Y-93449457D01*
X182406116Y-93449306D01*
X182398147Y-93436718D01*
X182391134Y-93418329D01*
X182390005Y-93414094D01*
X182384223Y-93381648D01*
X182381153Y-93345362D01*
X182380636Y-93307862D01*
X182382512Y-93271773D01*
X182386622Y-93239723D01*
X182392806Y-93214338D01*
X182400905Y-93198241D01*
X182403249Y-93195948D01*
X182417216Y-93190993D01*
X182442039Y-93188703D01*
X182476198Y-93188893D01*
X182518171Y-93191382D01*
X182566438Y-93195982D01*
X182619480Y-93202513D01*
X182675773Y-93210790D01*
X182733800Y-93220628D01*
X182792038Y-93231847D01*
X182848966Y-93244260D01*
X182893303Y-93255124D01*
X183044213Y-93300686D01*
X183190493Y-93357801D01*
X183331523Y-93425972D01*
X183466681Y-93504700D01*
X183595346Y-93593488D01*
X183716899Y-93691839D01*
X183830718Y-93799253D01*
X183936183Y-93915234D01*
G37*
X183936183Y-93915234D02*
X184032674Y-94039285D01*
X184119567Y-94170907D01*
X184187836Y-94293053D01*
X184241996Y-94408027D01*
X184290011Y-94529463D01*
X184331070Y-94654602D01*
X184364361Y-94780684D01*
X184389073Y-94904950D01*
X184404394Y-95024640D01*
X184404986Y-95031477D01*
X184408960Y-95080209D01*
X184411669Y-95117898D01*
X184413101Y-95146140D01*
X184413249Y-95166527D01*
X184412105Y-95180655D01*
X184409658Y-95190119D01*
X184405902Y-95196511D01*
X184404068Y-95198529D01*
X184388090Y-95207419D01*
X184362484Y-95213665D01*
X184330026Y-95217347D01*
X184293493Y-95218544D01*
X184255662Y-95217334D01*
X184219308Y-95213797D01*
X184187208Y-95208011D01*
X184162139Y-95200056D01*
X184148024Y-95191248D01*
X184145441Y-95183036D01*
X184142413Y-95164489D01*
X184139240Y-95137947D01*
X184136218Y-95105755D01*
X184134752Y-95086807D01*
X184120809Y-94965213D01*
X184096575Y-94840041D01*
X184062842Y-94713911D01*
X184020400Y-94589448D01*
X183970042Y-94469273D01*
X183915930Y-94362080D01*
X183843508Y-94243498D01*
X183760114Y-94129602D01*
X183667024Y-94021730D01*
X183565517Y-93921219D01*
X183456872Y-93829405D01*
X183342363Y-93747626D01*
X183307824Y-93725720D01*
X183188966Y-93659073D01*
X183063177Y-93600980D01*
X182932563Y-93552127D01*
X182799229Y-93513206D01*
X182665281Y-93484901D01*
X182532824Y-93467903D01*
X182514669Y-93466476D01*
X182472894Y-93462826D01*
X182440081Y-93458644D01*
X182417463Y-93454122D01*
X182406274Y-93449457D01*
X182406116Y-93449306D01*
X182398147Y-93436718D01*
X182391134Y-93418329D01*
X182390005Y-93414094D01*
X182384223Y-93381648D01*
X182381153Y-93345362D01*
X182380636Y-93307862D01*
X182382512Y-93271773D01*
X182386622Y-93239723D01*
X182392806Y-93214338D01*
X182400905Y-93198241D01*
X182403249Y-93195948D01*
X182417216Y-93190993D01*
X182442039Y-93188703D01*
X182476198Y-93188893D01*
X182518171Y-93191382D01*
X182566438Y-93195982D01*
X182619480Y-93202513D01*
X182675773Y-93210790D01*
X182733800Y-93220628D01*
X182792038Y-93231847D01*
X182848966Y-93244260D01*
X182893303Y-93255124D01*
X183044213Y-93300686D01*
X183190493Y-93357801D01*
X183331523Y-93425972D01*
X183466681Y-93504700D01*
X183595346Y-93593488D01*
X183716899Y-93691839D01*
X183830718Y-93799253D01*
X183936183Y-93915234D01*
D15*
X143675000Y-107215000D02*
X141390000Y-107215000D01*
X141390000Y-107215000D02*
X141390000Y-108685000D01*
X141390000Y-108685000D02*
X143675000Y-108685000D01*
X148987742Y-111266500D02*
X149462258Y-111266500D01*
X148987742Y-110221500D02*
X149462258Y-110221500D01*
X149365580Y-111821500D02*
X149084420Y-111821500D01*
X149365580Y-112841500D02*
X149084420Y-112841500D01*
X149368742Y-108091500D02*
X149843258Y-108091500D01*
X149368742Y-107046500D02*
X149843258Y-107046500D01*
X149843258Y-106504000D02*
X149368742Y-106504000D01*
X149843258Y-105459000D02*
X149368742Y-105459000D01*
X184385000Y-96410000D02*
X177635000Y-96410000D01*
X177635000Y-114410000D02*
X184385000Y-114410000D01*
X153385000Y-114410000D02*
X153385000Y-112910000D01*
X153635000Y-114410000D02*
X153385000Y-114410000D01*
X153385000Y-96410000D02*
X153385000Y-97910000D01*
X153635000Y-96410000D02*
X153385000Y-96410000D01*
X184385000Y-96410000D02*
X184385000Y-114410000D01*
X178085000Y-114410000D02*
X178085000Y-96410000D01*
X149465420Y-101792500D02*
X149746580Y-101792500D01*
X149465420Y-100772500D02*
X149746580Y-100772500D01*
X146950000Y-100625000D02*
X144500000Y-100625000D01*
X145150000Y-103845000D02*
X146950000Y-103845000D01*
X125502500Y-103710000D02*
X125052500Y-103710000D01*
X125502500Y-103710000D02*
X125502500Y-104160000D01*
X124952500Y-109310000D02*
X124952500Y-108860000D01*
X123102500Y-109310000D02*
X124952500Y-109310000D01*
X120552500Y-101510000D02*
X120802500Y-101510000D01*
X120552500Y-109310000D02*
X120802500Y-109310000D01*
X123102500Y-101510000D02*
X124952500Y-101510000D01*
X124952500Y-101510000D02*
X124952500Y-101960000D01*
X149465420Y-99185000D02*
X149746580Y-99185000D01*
X149465420Y-100205000D02*
X149746580Y-100205000D01*
X149368742Y-102347500D02*
X149843258Y-102347500D01*
X149368742Y-103392500D02*
X149843258Y-103392500D01*
X142634580Y-100264500D02*
X142353420Y-100264500D01*
X142634580Y-101284500D02*
X142353420Y-101284500D01*
X149746580Y-109666500D02*
X149465420Y-109666500D01*
X149746580Y-108646500D02*
X149465420Y-108646500D01*
X149465420Y-103884000D02*
X149746580Y-103884000D01*
X149465420Y-104904000D02*
X149746580Y-104904000D01*
X143979000Y-104802000D02*
X141694000Y-104802000D01*
X143979000Y-106272000D02*
X143979000Y-104802000D01*
X141694000Y-106272000D02*
X143979000Y-106272000D01*
X142731258Y-103427000D02*
X142256742Y-103427000D01*
X142731258Y-104472000D02*
X142256742Y-104472000D01*
X121371000Y-113714000D02*
X125771000Y-113714000D01*
X125771000Y-113714000D02*
X125771000Y-113594000D01*
X125771000Y-112584000D02*
X125771000Y-111444000D01*
X125771000Y-110434000D02*
X125771000Y-110314000D01*
X125771000Y-110314000D02*
X121371000Y-110314000D01*
X121371000Y-110314000D02*
X121371000Y-110434000D01*
X121371000Y-111444000D02*
X121371000Y-112584000D01*
X121371000Y-113594000D02*
X121371000Y-113714000D01*
X121371000Y-100386000D02*
X121371000Y-100506000D01*
X121371000Y-98236000D02*
X121371000Y-99376000D01*
X121371000Y-97106000D02*
X121371000Y-97226000D01*
X125771000Y-97106000D02*
X121371000Y-97106000D01*
X125771000Y-97226000D02*
X125771000Y-97106000D01*
X125771000Y-99376000D02*
X125771000Y-98236000D01*
X125771000Y-100506000D02*
X125771000Y-100386000D01*
X121371000Y-100506000D02*
X125771000Y-100506000D01*
X142634580Y-98677000D02*
X142353420Y-98677000D01*
X142634580Y-99697000D02*
X142353420Y-99697000D01*
X145782420Y-98677000D02*
X146063580Y-98677000D01*
X145782420Y-99697000D02*
X146063580Y-99697000D01*
X145782420Y-106047000D02*
X146063580Y-106047000D01*
X145782420Y-105027000D02*
X146063580Y-105027000D01*
X142256742Y-102884500D02*
X142731258Y-102884500D01*
X142256742Y-101839500D02*
X142731258Y-101839500D01*
X131710000Y-105070000D02*
X129260000Y-105070000D01*
X129910000Y-108290000D02*
X131710000Y-108290000D01*
X133010000Y-104378000D02*
X129160000Y-104378000D01*
X133010000Y-102378000D02*
X129160000Y-102378000D01*
X133010000Y-104378000D02*
X133010000Y-102378000D01*
X149462258Y-113396500D02*
X148987742Y-113396500D01*
X149462258Y-114441500D02*
X148987742Y-114441500D01*
X146287258Y-108472500D02*
X145812742Y-108472500D01*
X146287258Y-107427500D02*
X145812742Y-107427500D01*
X146596000Y-111660000D02*
X144311000Y-111660000D01*
X144311000Y-111660000D02*
X144311000Y-113130000D01*
X144311000Y-113130000D02*
X146596000Y-113130000D01*
D10*
X181551666Y-110171904D02*
X181551666Y-109695714D01*
X181837380Y-110267142D02*
X180837380Y-109933809D01*
X181837380Y-109600476D01*
X181170714Y-109267142D02*
X181837380Y-109267142D01*
X181265952Y-109267142D02*
X181218333Y-109219523D01*
X181170714Y-109124285D01*
X181170714Y-108981428D01*
X181218333Y-108886190D01*
X181313571Y-108838571D01*
X181837380Y-108838571D01*
X181170714Y-108505238D02*
X181170714Y-108124285D01*
X180837380Y-108362380D02*
X181694523Y-108362380D01*
X181789761Y-108314761D01*
X181837380Y-108219523D01*
X181837380Y-108124285D01*
X181789761Y-107410000D02*
X181837380Y-107505238D01*
X181837380Y-107695714D01*
X181789761Y-107790952D01*
X181694523Y-107838571D01*
X181313571Y-107838571D01*
X181218333Y-107790952D01*
X181170714Y-107695714D01*
X181170714Y-107505238D01*
X181218333Y-107410000D01*
X181313571Y-107362380D01*
X181408809Y-107362380D01*
X181504047Y-107838571D01*
X181170714Y-106933809D02*
X181837380Y-106933809D01*
X181265952Y-106933809D02*
X181218333Y-106886190D01*
X181170714Y-106790952D01*
X181170714Y-106648095D01*
X181218333Y-106552857D01*
X181313571Y-106505238D01*
X181837380Y-106505238D01*
X181170714Y-106029047D02*
X181837380Y-106029047D01*
X181265952Y-106029047D02*
X181218333Y-105981428D01*
X181170714Y-105886190D01*
X181170714Y-105743333D01*
X181218333Y-105648095D01*
X181313571Y-105600476D01*
X181837380Y-105600476D01*
X181837380Y-104695714D02*
X181313571Y-104695714D01*
X181218333Y-104743333D01*
X181170714Y-104838571D01*
X181170714Y-105029047D01*
X181218333Y-105124285D01*
X181789761Y-104695714D02*
X181837380Y-104790952D01*
X181837380Y-105029047D01*
X181789761Y-105124285D01*
X181694523Y-105171904D01*
X181599285Y-105171904D01*
X181504047Y-105124285D01*
X181456428Y-105029047D01*
X181456428Y-104790952D01*
X181408809Y-104695714D01*
X181551666Y-103505238D02*
X181551666Y-103029047D01*
X181837380Y-103600476D02*
X180837380Y-103267142D01*
X181837380Y-102933809D01*
X181837380Y-102600476D02*
X181170714Y-102600476D01*
X181361190Y-102600476D02*
X181265952Y-102552857D01*
X181218333Y-102505238D01*
X181170714Y-102410000D01*
X181170714Y-102314761D01*
X181789761Y-101600476D02*
X181837380Y-101695714D01*
X181837380Y-101886190D01*
X181789761Y-101981428D01*
X181694523Y-102029047D01*
X181313571Y-102029047D01*
X181218333Y-101981428D01*
X181170714Y-101886190D01*
X181170714Y-101695714D01*
X181218333Y-101600476D01*
X181313571Y-101552857D01*
X181408809Y-101552857D01*
X181504047Y-102029047D01*
X181837380Y-100695714D02*
X181313571Y-100695714D01*
X181218333Y-100743333D01*
X181170714Y-100838571D01*
X181170714Y-101029047D01*
X181218333Y-101124285D01*
X181789761Y-100695714D02*
X181837380Y-100790952D01*
X181837380Y-101029047D01*
X181789761Y-101124285D01*
X181694523Y-101171904D01*
X181599285Y-101171904D01*
X181504047Y-101124285D01*
X181456428Y-101029047D01*
X181456428Y-100790952D01*
X181408809Y-100695714D01*
M02*
