G04 #@! TF.GenerationSoftware,KiCad,Pcbnew,5.1.12-84ad8e8a86~92~ubuntu21.04.1*
G04 #@! TF.CreationDate,2021-11-28T19:11:15-03:00*
G04 #@! TF.ProjectId,Franzininho WIFI,4672616e-7a69-46e6-996e-686f20574946,rev?*
G04 #@! TF.SameCoordinates,Original*
G04 #@! TF.FileFunction,Legend,Bot*
G04 #@! TF.FilePolarity,Positive*
%FSLAX46Y46*%
G04 Gerber Fmt 4.6, Leading zero omitted, Abs format (unit mm)*
G04 Created by KiCad (PCBNEW 5.1.12-84ad8e8a86~92~ubuntu21.04.1) date 2021-11-28 19:11:15*
%MOMM*%
%LPD*%
G01*
G04 APERTURE LIST*
%ADD10C,0.150000*%
%ADD11C,0.200000*%
%ADD12C,0.250000*%
%ADD13C,0.175000*%
%ADD14C,0.152400*%
%ADD15C,0.010000*%
G04 APERTURE END LIST*
D10*
X131260000Y-115269357D02*
X131302857Y-115326500D01*
X131302857Y-115412214D01*
X131260000Y-115497928D01*
X131174285Y-115555071D01*
X131088571Y-115583642D01*
X130917142Y-115612214D01*
X130788571Y-115612214D01*
X130617142Y-115583642D01*
X130531428Y-115555071D01*
X130445714Y-115497928D01*
X130402857Y-115412214D01*
X130402857Y-115355071D01*
X130445714Y-115269357D01*
X130488571Y-115240785D01*
X130788571Y-115240785D01*
X130788571Y-115355071D01*
X130402857Y-114983642D02*
X131302857Y-114983642D01*
X130402857Y-114640785D01*
X131302857Y-114640785D01*
X130402857Y-114355071D02*
X131302857Y-114355071D01*
X131302857Y-114212214D01*
X131260000Y-114126500D01*
X131174285Y-114069357D01*
X131088571Y-114040785D01*
X130917142Y-114012214D01*
X130788571Y-114012214D01*
X130617142Y-114040785D01*
X130531428Y-114069357D01*
X130445714Y-114126500D01*
X130402857Y-114212214D01*
X130402857Y-114355071D01*
D11*
X131357619Y-102555238D02*
X131357619Y-102060000D01*
X130976666Y-102326666D01*
X130976666Y-102212380D01*
X130929047Y-102136190D01*
X130881428Y-102098095D01*
X130786190Y-102060000D01*
X130548095Y-102060000D01*
X130452857Y-102098095D01*
X130405238Y-102136190D01*
X130357619Y-102212380D01*
X130357619Y-102440952D01*
X130405238Y-102517142D01*
X130452857Y-102555238D01*
X131357619Y-101831428D02*
X130357619Y-101564761D01*
X131357619Y-101298095D01*
X131357619Y-101107619D02*
X131357619Y-100612380D01*
X130976666Y-100879047D01*
X130976666Y-100764761D01*
X130929047Y-100688571D01*
X130881428Y-100650476D01*
X130786190Y-100612380D01*
X130548095Y-100612380D01*
X130452857Y-100650476D01*
X130405238Y-100688571D01*
X130357619Y-100764761D01*
X130357619Y-100993333D01*
X130405238Y-101069523D01*
X130452857Y-101107619D01*
X128770000Y-102288571D02*
X128817619Y-102364761D01*
X128817619Y-102479047D01*
X128770000Y-102593333D01*
X128674761Y-102669523D01*
X128579523Y-102707619D01*
X128389047Y-102745714D01*
X128246190Y-102745714D01*
X128055714Y-102707619D01*
X127960476Y-102669523D01*
X127865238Y-102593333D01*
X127817619Y-102479047D01*
X127817619Y-102402857D01*
X127865238Y-102288571D01*
X127912857Y-102250476D01*
X128246190Y-102250476D01*
X128246190Y-102402857D01*
X127817619Y-101907619D02*
X128817619Y-101907619D01*
X127817619Y-101450476D01*
X128817619Y-101450476D01*
X127817619Y-101069523D02*
X128817619Y-101069523D01*
X128817619Y-100879047D01*
X128770000Y-100764761D01*
X128674761Y-100688571D01*
X128579523Y-100650476D01*
X128389047Y-100612380D01*
X128246190Y-100612380D01*
X128055714Y-100650476D01*
X127960476Y-100688571D01*
X127865238Y-100764761D01*
X127817619Y-100879047D01*
X127817619Y-101069523D01*
D12*
X143057619Y-96555357D02*
X143057619Y-97126785D01*
X143057619Y-96841071D02*
X144057619Y-96841071D01*
X143914761Y-96936309D01*
X143819523Y-97031547D01*
X143771904Y-97126785D01*
X144057619Y-95650595D02*
X144057619Y-96126785D01*
X143581428Y-96174404D01*
X143629047Y-96126785D01*
X143676666Y-96031547D01*
X143676666Y-95793452D01*
X143629047Y-95698214D01*
X143581428Y-95650595D01*
X143486190Y-95602976D01*
X143248095Y-95602976D01*
X143152857Y-95650595D01*
X143105238Y-95698214D01*
X143057619Y-95793452D01*
X143057619Y-96031547D01*
X143105238Y-96126785D01*
X143152857Y-96174404D01*
D10*
X137160000Y-92964000D02*
X127000000Y-92964000D01*
X143510000Y-108966000D02*
X143510000Y-113665000D01*
X135382000Y-108966000D02*
X143510000Y-108966000D01*
X127000000Y-108966000D02*
X127000000Y-113665000D01*
X135382000Y-108966000D02*
X127000000Y-108966000D01*
X135382000Y-113665000D02*
X135382000Y-108966000D01*
X134620000Y-92964000D02*
X134620000Y-102870000D01*
X132080000Y-92964000D02*
X132080000Y-102870000D01*
X129540000Y-92964000D02*
X129540000Y-102870000D01*
X127000000Y-102870000D02*
X127000000Y-92964000D01*
X137160000Y-102870000D02*
X127000000Y-102870000D01*
X137160000Y-92964000D02*
X137160000Y-102870000D01*
D11*
X135485238Y-102555238D02*
X135437619Y-102440952D01*
X135437619Y-102250476D01*
X135485238Y-102174285D01*
X135532857Y-102136190D01*
X135628095Y-102098095D01*
X135723333Y-102098095D01*
X135818571Y-102136190D01*
X135866190Y-102174285D01*
X135913809Y-102250476D01*
X135961428Y-102402857D01*
X136009047Y-102479047D01*
X136056666Y-102517142D01*
X136151904Y-102555238D01*
X136247142Y-102555238D01*
X136342380Y-102517142D01*
X136390000Y-102479047D01*
X136437619Y-102402857D01*
X136437619Y-102212380D01*
X136390000Y-102098095D01*
X135437619Y-101755238D02*
X136437619Y-101755238D01*
X136437619Y-101564761D01*
X136390000Y-101450476D01*
X136294761Y-101374285D01*
X136199523Y-101336190D01*
X136009047Y-101298095D01*
X135866190Y-101298095D01*
X135675714Y-101336190D01*
X135580476Y-101374285D01*
X135485238Y-101450476D01*
X135437619Y-101564761D01*
X135437619Y-101755238D01*
X135723333Y-100993333D02*
X135723333Y-100612380D01*
X135437619Y-101069523D02*
X136437619Y-100802857D01*
X135437619Y-100536190D01*
X132945238Y-102517142D02*
X132897619Y-102402857D01*
X132897619Y-102212380D01*
X132945238Y-102136190D01*
X132992857Y-102098095D01*
X133088095Y-102060000D01*
X133183333Y-102060000D01*
X133278571Y-102098095D01*
X133326190Y-102136190D01*
X133373809Y-102212380D01*
X133421428Y-102364761D01*
X133469047Y-102440952D01*
X133516666Y-102479047D01*
X133611904Y-102517142D01*
X133707142Y-102517142D01*
X133802380Y-102479047D01*
X133850000Y-102440952D01*
X133897619Y-102364761D01*
X133897619Y-102174285D01*
X133850000Y-102060000D01*
X132992857Y-101260000D02*
X132945238Y-101298095D01*
X132897619Y-101412380D01*
X132897619Y-101488571D01*
X132945238Y-101602857D01*
X133040476Y-101679047D01*
X133135714Y-101717142D01*
X133326190Y-101755238D01*
X133469047Y-101755238D01*
X133659523Y-101717142D01*
X133754761Y-101679047D01*
X133850000Y-101602857D01*
X133897619Y-101488571D01*
X133897619Y-101412380D01*
X133850000Y-101298095D01*
X133802380Y-101260000D01*
X132897619Y-100536190D02*
X132897619Y-100917142D01*
X133897619Y-100917142D01*
D12*
X142692380Y-110899023D02*
X142740000Y-110851404D01*
X142787619Y-110756166D01*
X142787619Y-110518071D01*
X142740000Y-110422833D01*
X142692380Y-110375214D01*
X142597142Y-110327595D01*
X142501904Y-110327595D01*
X142359047Y-110375214D01*
X141787619Y-110946642D01*
X141787619Y-110327595D01*
X141787619Y-109375214D02*
X141787619Y-109946642D01*
X141787619Y-109660928D02*
X142787619Y-109660928D01*
X142644761Y-109756166D01*
X142549523Y-109851404D01*
X142501904Y-109946642D01*
X132897619Y-110327595D02*
X132897619Y-110899023D01*
X132897619Y-110613309D02*
X133897619Y-110613309D01*
X133754761Y-110708547D01*
X133659523Y-110803785D01*
X133611904Y-110899023D01*
X133469047Y-109756166D02*
X133516666Y-109851404D01*
X133564285Y-109899023D01*
X133659523Y-109946642D01*
X133707142Y-109946642D01*
X133802380Y-109899023D01*
X133850000Y-109851404D01*
X133897619Y-109756166D01*
X133897619Y-109565690D01*
X133850000Y-109470452D01*
X133802380Y-109422833D01*
X133707142Y-109375214D01*
X133659523Y-109375214D01*
X133564285Y-109422833D01*
X133516666Y-109470452D01*
X133469047Y-109565690D01*
X133469047Y-109756166D01*
X133421428Y-109851404D01*
X133373809Y-109899023D01*
X133278571Y-109946642D01*
X133088095Y-109946642D01*
X132992857Y-109899023D01*
X132945238Y-109851404D01*
X132897619Y-109756166D01*
X132897619Y-109565690D01*
X132945238Y-109470452D01*
X132992857Y-109422833D01*
X133088095Y-109375214D01*
X133278571Y-109375214D01*
X133373809Y-109422833D01*
X133421428Y-109470452D01*
X133469047Y-109565690D01*
D13*
X140247619Y-110423964D02*
X140247619Y-110900154D01*
X139771428Y-110947773D01*
X139819047Y-110900154D01*
X139866666Y-110804916D01*
X139866666Y-110566821D01*
X139819047Y-110471583D01*
X139771428Y-110423964D01*
X139676190Y-110376345D01*
X139438095Y-110376345D01*
X139342857Y-110423964D01*
X139295238Y-110471583D01*
X139247619Y-110566821D01*
X139247619Y-110804916D01*
X139295238Y-110900154D01*
X139342857Y-110947773D01*
X140247619Y-110090630D02*
X139247619Y-109757297D01*
X140247619Y-109423964D01*
X131357619Y-110423964D02*
X131357619Y-110900154D01*
X130881428Y-110947773D01*
X130929047Y-110900154D01*
X130976666Y-110804916D01*
X130976666Y-110566821D01*
X130929047Y-110471583D01*
X130881428Y-110423964D01*
X130786190Y-110376345D01*
X130548095Y-110376345D01*
X130452857Y-110423964D01*
X130405238Y-110471583D01*
X130357619Y-110566821D01*
X130357619Y-110804916D01*
X130405238Y-110900154D01*
X130452857Y-110947773D01*
X131357619Y-110090630D02*
X130357619Y-109757297D01*
X131357619Y-109423964D01*
X137560000Y-110668416D02*
X137598095Y-110735083D01*
X137598095Y-110835083D01*
X137560000Y-110935083D01*
X137483809Y-111001750D01*
X137407619Y-111035083D01*
X137255238Y-111068416D01*
X137140952Y-111068416D01*
X136988571Y-111035083D01*
X136912380Y-111001750D01*
X136836190Y-110935083D01*
X136798095Y-110835083D01*
X136798095Y-110768416D01*
X136836190Y-110668416D01*
X136874285Y-110635083D01*
X137140952Y-110635083D01*
X137140952Y-110768416D01*
X136798095Y-110335083D02*
X137598095Y-110335083D01*
X136798095Y-109935083D01*
X137598095Y-109935083D01*
X136798095Y-109601750D02*
X137598095Y-109601750D01*
X137598095Y-109435083D01*
X137560000Y-109335083D01*
X137483809Y-109268416D01*
X137407619Y-109235083D01*
X137255238Y-109201750D01*
X137140952Y-109201750D01*
X136988571Y-109235083D01*
X136912380Y-109268416D01*
X136836190Y-109335083D01*
X136798095Y-109435083D01*
X136798095Y-109601750D01*
X128670000Y-110668416D02*
X128708095Y-110735083D01*
X128708095Y-110835083D01*
X128670000Y-110935083D01*
X128593809Y-111001750D01*
X128517619Y-111035083D01*
X128365238Y-111068416D01*
X128250952Y-111068416D01*
X128098571Y-111035083D01*
X128022380Y-111001750D01*
X127946190Y-110935083D01*
X127908095Y-110835083D01*
X127908095Y-110768416D01*
X127946190Y-110668416D01*
X127984285Y-110635083D01*
X128250952Y-110635083D01*
X128250952Y-110768416D01*
X127908095Y-110335083D02*
X128708095Y-110335083D01*
X127908095Y-109935083D01*
X128708095Y-109935083D01*
X127908095Y-109601750D02*
X128708095Y-109601750D01*
X128708095Y-109435083D01*
X128670000Y-109335083D01*
X128593809Y-109268416D01*
X128517619Y-109235083D01*
X128365238Y-109201750D01*
X128250952Y-109201750D01*
X128098571Y-109235083D01*
X128022380Y-109268416D01*
X127946190Y-109335083D01*
X127908095Y-109435083D01*
X127908095Y-109601750D01*
D10*
X143510000Y-113665000D02*
X127000000Y-113665000D01*
X128720000Y-115269357D02*
X128762857Y-115326500D01*
X128762857Y-115412214D01*
X128720000Y-115497928D01*
X128634285Y-115555071D01*
X128548571Y-115583642D01*
X128377142Y-115612214D01*
X128248571Y-115612214D01*
X128077142Y-115583642D01*
X127991428Y-115555071D01*
X127905714Y-115497928D01*
X127862857Y-115412214D01*
X127862857Y-115355071D01*
X127905714Y-115269357D01*
X127948571Y-115240785D01*
X128248571Y-115240785D01*
X128248571Y-115355071D01*
X127862857Y-114983642D02*
X128762857Y-114983642D01*
X127862857Y-114640785D01*
X128762857Y-114640785D01*
X127862857Y-114355071D02*
X128762857Y-114355071D01*
X128762857Y-114212214D01*
X128720000Y-114126500D01*
X128634285Y-114069357D01*
X128548571Y-114040785D01*
X128377142Y-114012214D01*
X128248571Y-114012214D01*
X128077142Y-114040785D01*
X127991428Y-114069357D01*
X127905714Y-114126500D01*
X127862857Y-114212214D01*
X127862857Y-114355071D01*
D12*
X137977619Y-96555357D02*
X137977619Y-97126785D01*
X137977619Y-96841071D02*
X138977619Y-96841071D01*
X138834761Y-96936309D01*
X138739523Y-97031547D01*
X138691904Y-97126785D01*
X138977619Y-96222023D02*
X138977619Y-95555357D01*
X137977619Y-95983928D01*
X144348571Y-106552857D02*
X143848571Y-106552857D01*
X143848571Y-105505238D02*
X143848571Y-107505238D01*
X144562857Y-107505238D01*
X145991428Y-105505238D02*
X145491428Y-106457619D01*
X145134285Y-105505238D02*
X145134285Y-107505238D01*
X145705714Y-107505238D01*
X145848571Y-107410000D01*
X145920000Y-107314761D01*
X145991428Y-107124285D01*
X145991428Y-106838571D01*
X145920000Y-106648095D01*
X145848571Y-106552857D01*
X145705714Y-106457619D01*
X145134285Y-106457619D01*
X146562857Y-106076666D02*
X147277142Y-106076666D01*
X146420000Y-105505238D02*
X146920000Y-107505238D01*
X147420000Y-105505238D01*
X147920000Y-105505238D02*
X147920000Y-107505238D01*
X148777142Y-105505238D01*
X148777142Y-107505238D01*
X149348571Y-107505238D02*
X150348571Y-107505238D01*
X149348571Y-105505238D01*
X150348571Y-105505238D01*
X150920000Y-105505238D02*
X150920000Y-107505238D01*
X151634285Y-105505238D02*
X151634285Y-107505238D01*
X152491428Y-105505238D01*
X152491428Y-107505238D01*
X153205714Y-105505238D02*
X153205714Y-107505238D01*
X153920000Y-105505238D02*
X153920000Y-107505238D01*
X154777142Y-105505238D01*
X154777142Y-107505238D01*
X155491428Y-105505238D02*
X155491428Y-107505238D01*
X155491428Y-106552857D02*
X156348571Y-106552857D01*
X156348571Y-105505238D02*
X156348571Y-107505238D01*
X157348571Y-107505238D02*
X157634285Y-107505238D01*
X157777142Y-107410000D01*
X157920000Y-107219523D01*
X157991428Y-106838571D01*
X157991428Y-106171904D01*
X157920000Y-105790952D01*
X157777142Y-105600476D01*
X157634285Y-105505238D01*
X157348571Y-105505238D01*
X157205714Y-105600476D01*
X157062857Y-105790952D01*
X156991428Y-106171904D01*
X156991428Y-106838571D01*
X157062857Y-107219523D01*
X157205714Y-107410000D01*
X157348571Y-107505238D01*
X159634285Y-107505238D02*
X159991428Y-105505238D01*
X160277142Y-106933809D01*
X160562857Y-105505238D01*
X160920000Y-107505238D01*
X161491428Y-105505238D02*
X161491428Y-107505238D01*
X162705714Y-106552857D02*
X162205714Y-106552857D01*
X162205714Y-105505238D02*
X162205714Y-107505238D01*
X162920000Y-107505238D01*
X163491428Y-105505238D02*
X163491428Y-107505238D01*
D10*
X151898571Y-104370119D02*
X152165238Y-103370119D01*
X152431904Y-104370119D01*
X153117619Y-103370119D02*
X152660476Y-103370119D01*
X152889047Y-103370119D02*
X152889047Y-104370119D01*
X152812857Y-104227261D01*
X152736666Y-104132023D01*
X152660476Y-104084404D01*
X153917619Y-103370119D02*
X153650952Y-103846309D01*
X153460476Y-103370119D02*
X153460476Y-104370119D01*
X153765238Y-104370119D01*
X153841428Y-104322500D01*
X153879523Y-104274880D01*
X153917619Y-104179642D01*
X153917619Y-104036785D01*
X153879523Y-103941547D01*
X153841428Y-103893928D01*
X153765238Y-103846309D01*
X153460476Y-103846309D01*
X154146190Y-104370119D02*
X154412857Y-103370119D01*
X154679523Y-104370119D01*
X155365238Y-103370119D02*
X154908095Y-103370119D01*
X155136666Y-103370119D02*
X155136666Y-104370119D01*
X155060476Y-104227261D01*
X154984285Y-104132023D01*
X154908095Y-104084404D01*
D12*
X151677619Y-115264642D02*
X151677619Y-114645595D01*
X151296666Y-114978928D01*
X151296666Y-114836071D01*
X151249047Y-114740833D01*
X151201428Y-114693214D01*
X151106190Y-114645595D01*
X150868095Y-114645595D01*
X150772857Y-114693214D01*
X150725238Y-114740833D01*
X150677619Y-114836071D01*
X150677619Y-115121785D01*
X150725238Y-115217023D01*
X150772857Y-115264642D01*
X151677619Y-113788452D02*
X151677619Y-113978928D01*
X151630000Y-114074166D01*
X151582380Y-114121785D01*
X151439523Y-114217023D01*
X151249047Y-114264642D01*
X150868095Y-114264642D01*
X150772857Y-114217023D01*
X150725238Y-114169404D01*
X150677619Y-114074166D01*
X150677619Y-113883690D01*
X150725238Y-113788452D01*
X150772857Y-113740833D01*
X150868095Y-113693214D01*
X151106190Y-113693214D01*
X151201428Y-113740833D01*
X151249047Y-113788452D01*
X151296666Y-113883690D01*
X151296666Y-114074166D01*
X151249047Y-114169404D01*
X151201428Y-114217023D01*
X151106190Y-114264642D01*
X141422380Y-115471023D02*
X141470000Y-115423404D01*
X141517619Y-115328166D01*
X141517619Y-115090071D01*
X141470000Y-114994833D01*
X141422380Y-114947214D01*
X141327142Y-114899595D01*
X141231904Y-114899595D01*
X141089047Y-114947214D01*
X140517619Y-115518642D01*
X140517619Y-114899595D01*
X141517619Y-114042452D02*
X141517619Y-114232928D01*
X141470000Y-114328166D01*
X141422380Y-114375785D01*
X141279523Y-114471023D01*
X141089047Y-114518642D01*
X140708095Y-114518642D01*
X140612857Y-114471023D01*
X140565238Y-114423404D01*
X140517619Y-114328166D01*
X140517619Y-114137690D01*
X140565238Y-114042452D01*
X140612857Y-113994833D01*
X140708095Y-113947214D01*
X140946190Y-113947214D01*
X141041428Y-113994833D01*
X141089047Y-114042452D01*
X141136666Y-114137690D01*
X141136666Y-114328166D01*
X141089047Y-114423404D01*
X141041428Y-114471023D01*
X140946190Y-114518642D01*
D13*
X133897619Y-114995964D02*
X133897619Y-115472154D01*
X133421428Y-115519773D01*
X133469047Y-115472154D01*
X133516666Y-115376916D01*
X133516666Y-115138821D01*
X133469047Y-115043583D01*
X133421428Y-114995964D01*
X133326190Y-114948345D01*
X133088095Y-114948345D01*
X132992857Y-114995964D01*
X132945238Y-115043583D01*
X132897619Y-115138821D01*
X132897619Y-115376916D01*
X132945238Y-115472154D01*
X132992857Y-115519773D01*
X133897619Y-114662630D02*
X132897619Y-114329297D01*
X133897619Y-113995964D01*
D12*
X138882380Y-115471023D02*
X138930000Y-115423404D01*
X138977619Y-115328166D01*
X138977619Y-115090071D01*
X138930000Y-114994833D01*
X138882380Y-114947214D01*
X138787142Y-114899595D01*
X138691904Y-114899595D01*
X138549047Y-114947214D01*
X137977619Y-115518642D01*
X137977619Y-114899595D01*
X137977619Y-113947214D02*
X137977619Y-114518642D01*
X137977619Y-114232928D02*
X138977619Y-114232928D01*
X138834761Y-114328166D01*
X138739523Y-114423404D01*
X138691904Y-114518642D01*
X169124285Y-114740833D02*
X168457619Y-114740833D01*
X169505238Y-114978928D02*
X168790952Y-115217023D01*
X168790952Y-114597976D01*
X169457619Y-114312261D02*
X169457619Y-113693214D01*
X169076666Y-114026547D01*
X169076666Y-113883690D01*
X169029047Y-113788452D01*
X168981428Y-113740833D01*
X168886190Y-113693214D01*
X168648095Y-113693214D01*
X168552857Y-113740833D01*
X168505238Y-113788452D01*
X168457619Y-113883690D01*
X168457619Y-114169404D01*
X168505238Y-114264642D01*
X168552857Y-114312261D01*
X169505238Y-112550357D02*
X168219523Y-113407500D01*
X169457619Y-112359880D02*
X169457619Y-111788452D01*
X168457619Y-112074166D02*
X169457619Y-112074166D01*
X169457619Y-111550357D02*
X168457619Y-110883690D01*
X169457619Y-110883690D02*
X168457619Y-111550357D01*
X161504285Y-114740833D02*
X160837619Y-114740833D01*
X161885238Y-114978928D02*
X161170952Y-115217023D01*
X161170952Y-114597976D01*
X161837619Y-114026547D02*
X161837619Y-113931309D01*
X161790000Y-113836071D01*
X161742380Y-113788452D01*
X161647142Y-113740833D01*
X161456666Y-113693214D01*
X161218571Y-113693214D01*
X161028095Y-113740833D01*
X160932857Y-113788452D01*
X160885238Y-113836071D01*
X160837619Y-113931309D01*
X160837619Y-114026547D01*
X160885238Y-114121785D01*
X160932857Y-114169404D01*
X161028095Y-114217023D01*
X161218571Y-114264642D01*
X161456666Y-114264642D01*
X161647142Y-114217023D01*
X161742380Y-114169404D01*
X161790000Y-114121785D01*
X161837619Y-114026547D01*
X135437619Y-114899595D02*
X135437619Y-115471023D01*
X135437619Y-115185309D02*
X136437619Y-115185309D01*
X136294761Y-115280547D01*
X136199523Y-115375785D01*
X136151904Y-115471023D01*
X136009047Y-114328166D02*
X136056666Y-114423404D01*
X136104285Y-114471023D01*
X136199523Y-114518642D01*
X136247142Y-114518642D01*
X136342380Y-114471023D01*
X136390000Y-114423404D01*
X136437619Y-114328166D01*
X136437619Y-114137690D01*
X136390000Y-114042452D01*
X136342380Y-113994833D01*
X136247142Y-113947214D01*
X136199523Y-113947214D01*
X136104285Y-113994833D01*
X136056666Y-114042452D01*
X136009047Y-114137690D01*
X136009047Y-114328166D01*
X135961428Y-114423404D01*
X135913809Y-114471023D01*
X135818571Y-114518642D01*
X135628095Y-114518642D01*
X135532857Y-114471023D01*
X135485238Y-114423404D01*
X135437619Y-114328166D01*
X135437619Y-114137690D01*
X135485238Y-114042452D01*
X135532857Y-113994833D01*
X135628095Y-113947214D01*
X135818571Y-113947214D01*
X135913809Y-113994833D01*
X135961428Y-114042452D01*
X136009047Y-114137690D01*
X176744285Y-114740833D02*
X176077619Y-114740833D01*
X177125238Y-114978928D02*
X176410952Y-115217023D01*
X176410952Y-114597976D01*
X177077619Y-113788452D02*
X177077619Y-113978928D01*
X177030000Y-114074166D01*
X176982380Y-114121785D01*
X176839523Y-114217023D01*
X176649047Y-114264642D01*
X176268095Y-114264642D01*
X176172857Y-114217023D01*
X176125238Y-114169404D01*
X176077619Y-114074166D01*
X176077619Y-113883690D01*
X176125238Y-113788452D01*
X176172857Y-113740833D01*
X176268095Y-113693214D01*
X176506190Y-113693214D01*
X176601428Y-113740833D01*
X176649047Y-113788452D01*
X176696666Y-113883690D01*
X176696666Y-114074166D01*
X176649047Y-114169404D01*
X176601428Y-114217023D01*
X176506190Y-114264642D01*
X146597619Y-115264642D02*
X146597619Y-114645595D01*
X146216666Y-114978928D01*
X146216666Y-114836071D01*
X146169047Y-114740833D01*
X146121428Y-114693214D01*
X146026190Y-114645595D01*
X145788095Y-114645595D01*
X145692857Y-114693214D01*
X145645238Y-114740833D01*
X145597619Y-114836071D01*
X145597619Y-115121785D01*
X145645238Y-115217023D01*
X145692857Y-115264642D01*
X146264285Y-113788452D02*
X145597619Y-113788452D01*
X146645238Y-114026547D02*
X145930952Y-114264642D01*
X145930952Y-113645595D01*
X166584285Y-114740833D02*
X165917619Y-114740833D01*
X166965238Y-114978928D02*
X166250952Y-115217023D01*
X166250952Y-114597976D01*
X166822380Y-114264642D02*
X166870000Y-114217023D01*
X166917619Y-114121785D01*
X166917619Y-113883690D01*
X166870000Y-113788452D01*
X166822380Y-113740833D01*
X166727142Y-113693214D01*
X166631904Y-113693214D01*
X166489047Y-113740833D01*
X165917619Y-114312261D01*
X165917619Y-113693214D01*
X149137619Y-115264642D02*
X149137619Y-114645595D01*
X148756666Y-114978928D01*
X148756666Y-114836071D01*
X148709047Y-114740833D01*
X148661428Y-114693214D01*
X148566190Y-114645595D01*
X148328095Y-114645595D01*
X148232857Y-114693214D01*
X148185238Y-114740833D01*
X148137619Y-114836071D01*
X148137619Y-115121785D01*
X148185238Y-115217023D01*
X148232857Y-115264642D01*
X149137619Y-113740833D02*
X149137619Y-114217023D01*
X148661428Y-114264642D01*
X148709047Y-114217023D01*
X148756666Y-114121785D01*
X148756666Y-113883690D01*
X148709047Y-113788452D01*
X148661428Y-113740833D01*
X148566190Y-113693214D01*
X148328095Y-113693214D01*
X148232857Y-113740833D01*
X148185238Y-113788452D01*
X148137619Y-113883690D01*
X148137619Y-114121785D01*
X148185238Y-114217023D01*
X148232857Y-114264642D01*
X174204285Y-114740833D02*
X173537619Y-114740833D01*
X174585238Y-114978928D02*
X173870952Y-115217023D01*
X173870952Y-114597976D01*
X174537619Y-113740833D02*
X174537619Y-114217023D01*
X174061428Y-114264642D01*
X174109047Y-114217023D01*
X174156666Y-114121785D01*
X174156666Y-113883690D01*
X174109047Y-113788452D01*
X174061428Y-113740833D01*
X173966190Y-113693214D01*
X173728095Y-113693214D01*
X173632857Y-113740833D01*
X173585238Y-113788452D01*
X173537619Y-113883690D01*
X173537619Y-114121785D01*
X173585238Y-114217023D01*
X173632857Y-114264642D01*
X171664285Y-114740833D02*
X170997619Y-114740833D01*
X172045238Y-114978928D02*
X171330952Y-115217023D01*
X171330952Y-114597976D01*
X171664285Y-113788452D02*
X170997619Y-113788452D01*
X172045238Y-114026547D02*
X171330952Y-114264642D01*
X171330952Y-113645595D01*
X172045238Y-112550357D02*
X170759523Y-113407500D01*
X170997619Y-111645595D02*
X171473809Y-111978928D01*
X170997619Y-112217023D02*
X171997619Y-112217023D01*
X171997619Y-111836071D01*
X171950000Y-111740833D01*
X171902380Y-111693214D01*
X171807142Y-111645595D01*
X171664285Y-111645595D01*
X171569047Y-111693214D01*
X171521428Y-111740833D01*
X171473809Y-111836071D01*
X171473809Y-112217023D01*
X171997619Y-111312261D02*
X170997619Y-110645595D01*
X171997619Y-110645595D02*
X170997619Y-111312261D01*
X159297619Y-115264642D02*
X159297619Y-114645595D01*
X158916666Y-114978928D01*
X158916666Y-114836071D01*
X158869047Y-114740833D01*
X158821428Y-114693214D01*
X158726190Y-114645595D01*
X158488095Y-114645595D01*
X158392857Y-114693214D01*
X158345238Y-114740833D01*
X158297619Y-114836071D01*
X158297619Y-115121785D01*
X158345238Y-115217023D01*
X158392857Y-115264642D01*
X158297619Y-114169404D02*
X158297619Y-113978928D01*
X158345238Y-113883690D01*
X158392857Y-113836071D01*
X158535714Y-113740833D01*
X158726190Y-113693214D01*
X159107142Y-113693214D01*
X159202380Y-113740833D01*
X159250000Y-113788452D01*
X159297619Y-113883690D01*
X159297619Y-114074166D01*
X159250000Y-114169404D01*
X159202380Y-114217023D01*
X159107142Y-114264642D01*
X158869047Y-114264642D01*
X158773809Y-114217023D01*
X158726190Y-114169404D01*
X158678571Y-114074166D01*
X158678571Y-113883690D01*
X158726190Y-113788452D01*
X158773809Y-113740833D01*
X158869047Y-113693214D01*
X154217619Y-115264642D02*
X154217619Y-114645595D01*
X153836666Y-114978928D01*
X153836666Y-114836071D01*
X153789047Y-114740833D01*
X153741428Y-114693214D01*
X153646190Y-114645595D01*
X153408095Y-114645595D01*
X153312857Y-114693214D01*
X153265238Y-114740833D01*
X153217619Y-114836071D01*
X153217619Y-115121785D01*
X153265238Y-115217023D01*
X153312857Y-115264642D01*
X154217619Y-114312261D02*
X154217619Y-113645595D01*
X153217619Y-114074166D01*
X164044285Y-114740833D02*
X163377619Y-114740833D01*
X164425238Y-114978928D02*
X163710952Y-115217023D01*
X163710952Y-114597976D01*
X163377619Y-113693214D02*
X163377619Y-114264642D01*
X163377619Y-113978928D02*
X164377619Y-113978928D01*
X164234761Y-114074166D01*
X164139523Y-114169404D01*
X164091904Y-114264642D01*
X156757619Y-115264642D02*
X156757619Y-114645595D01*
X156376666Y-114978928D01*
X156376666Y-114836071D01*
X156329047Y-114740833D01*
X156281428Y-114693214D01*
X156186190Y-114645595D01*
X155948095Y-114645595D01*
X155852857Y-114693214D01*
X155805238Y-114740833D01*
X155757619Y-114836071D01*
X155757619Y-115121785D01*
X155805238Y-115217023D01*
X155852857Y-115264642D01*
X156329047Y-114074166D02*
X156376666Y-114169404D01*
X156424285Y-114217023D01*
X156519523Y-114264642D01*
X156567142Y-114264642D01*
X156662380Y-114217023D01*
X156710000Y-114169404D01*
X156757619Y-114074166D01*
X156757619Y-113883690D01*
X156710000Y-113788452D01*
X156662380Y-113740833D01*
X156567142Y-113693214D01*
X156519523Y-113693214D01*
X156424285Y-113740833D01*
X156376666Y-113788452D01*
X156329047Y-113883690D01*
X156329047Y-114074166D01*
X156281428Y-114169404D01*
X156233809Y-114217023D01*
X156138571Y-114264642D01*
X155948095Y-114264642D01*
X155852857Y-114217023D01*
X155805238Y-114169404D01*
X155757619Y-114074166D01*
X155757619Y-113883690D01*
X155805238Y-113788452D01*
X155852857Y-113740833D01*
X155948095Y-113693214D01*
X156138571Y-113693214D01*
X156233809Y-113740833D01*
X156281428Y-113788452D01*
X156329047Y-113883690D01*
X144057619Y-115518642D02*
X144057619Y-114899595D01*
X143676666Y-115232928D01*
X143676666Y-115090071D01*
X143629047Y-114994833D01*
X143581428Y-114947214D01*
X143486190Y-114899595D01*
X143248095Y-114899595D01*
X143152857Y-114947214D01*
X143105238Y-114994833D01*
X143057619Y-115090071D01*
X143057619Y-115375785D01*
X143105238Y-115471023D01*
X143152857Y-115518642D01*
X144057619Y-114566261D02*
X144057619Y-113947214D01*
X143676666Y-114280547D01*
X143676666Y-114137690D01*
X143629047Y-114042452D01*
X143581428Y-113994833D01*
X143486190Y-113947214D01*
X143248095Y-113947214D01*
X143152857Y-113994833D01*
X143105238Y-114042452D01*
X143057619Y-114137690D01*
X143057619Y-114423404D01*
X143105238Y-114518642D01*
X143152857Y-114566261D01*
X140517619Y-96555357D02*
X140517619Y-97126785D01*
X140517619Y-96841071D02*
X141517619Y-96841071D01*
X141374761Y-96936309D01*
X141279523Y-97031547D01*
X141231904Y-97126785D01*
X141517619Y-95698214D02*
X141517619Y-95888690D01*
X141470000Y-95983928D01*
X141422380Y-96031547D01*
X141279523Y-96126785D01*
X141089047Y-96174404D01*
X140708095Y-96174404D01*
X140612857Y-96126785D01*
X140565238Y-96079166D01*
X140517619Y-95983928D01*
X140517619Y-95793452D01*
X140565238Y-95698214D01*
X140612857Y-95650595D01*
X140708095Y-95602976D01*
X140946190Y-95602976D01*
X141041428Y-95650595D01*
X141089047Y-95698214D01*
X141136666Y-95793452D01*
X141136666Y-95983928D01*
X141089047Y-96079166D01*
X141041428Y-96126785D01*
X140946190Y-96174404D01*
X155757619Y-96555357D02*
X155757619Y-97126785D01*
X155757619Y-96841071D02*
X156757619Y-96841071D01*
X156614761Y-96936309D01*
X156519523Y-97031547D01*
X156471904Y-97126785D01*
X156757619Y-95936309D02*
X156757619Y-95841071D01*
X156710000Y-95745833D01*
X156662380Y-95698214D01*
X156567142Y-95650595D01*
X156376666Y-95602976D01*
X156138571Y-95602976D01*
X155948095Y-95650595D01*
X155852857Y-95698214D01*
X155805238Y-95745833D01*
X155757619Y-95841071D01*
X155757619Y-95936309D01*
X155805238Y-96031547D01*
X155852857Y-96079166D01*
X155948095Y-96126785D01*
X156138571Y-96174404D01*
X156376666Y-96174404D01*
X156567142Y-96126785D01*
X156662380Y-96079166D01*
X156710000Y-96031547D01*
X156757619Y-95936309D01*
X145597619Y-96555357D02*
X145597619Y-97126785D01*
X145597619Y-96841071D02*
X146597619Y-96841071D01*
X146454761Y-96936309D01*
X146359523Y-97031547D01*
X146311904Y-97126785D01*
X146264285Y-95698214D02*
X145597619Y-95698214D01*
X146645238Y-95936309D02*
X145930952Y-96174404D01*
X145930952Y-95555357D01*
X132897619Y-96079166D02*
X132897619Y-95888690D01*
X132945238Y-95793452D01*
X132992857Y-95745833D01*
X133135714Y-95650595D01*
X133326190Y-95602976D01*
X133707142Y-95602976D01*
X133802380Y-95650595D01*
X133850000Y-95698214D01*
X133897619Y-95793452D01*
X133897619Y-95983928D01*
X133850000Y-96079166D01*
X133802380Y-96126785D01*
X133707142Y-96174404D01*
X133469047Y-96174404D01*
X133373809Y-96126785D01*
X133326190Y-96079166D01*
X133278571Y-95983928D01*
X133278571Y-95793452D01*
X133326190Y-95698214D01*
X133373809Y-95650595D01*
X133469047Y-95602976D01*
X166584285Y-95698214D02*
X165917619Y-95698214D01*
X166965238Y-95936309D02*
X166250952Y-96174404D01*
X166250952Y-95555357D01*
D11*
X131357619Y-97475238D02*
X131357619Y-96980000D01*
X130976666Y-97246666D01*
X130976666Y-97132380D01*
X130929047Y-97056190D01*
X130881428Y-97018095D01*
X130786190Y-96980000D01*
X130548095Y-96980000D01*
X130452857Y-97018095D01*
X130405238Y-97056190D01*
X130357619Y-97132380D01*
X130357619Y-97360952D01*
X130405238Y-97437142D01*
X130452857Y-97475238D01*
X131357619Y-96751428D02*
X130357619Y-96484761D01*
X131357619Y-96218095D01*
X131357619Y-96027619D02*
X131357619Y-95532380D01*
X130976666Y-95799047D01*
X130976666Y-95684761D01*
X130929047Y-95608571D01*
X130881428Y-95570476D01*
X130786190Y-95532380D01*
X130548095Y-95532380D01*
X130452857Y-95570476D01*
X130405238Y-95608571D01*
X130357619Y-95684761D01*
X130357619Y-95913333D01*
X130405238Y-95989523D01*
X130452857Y-96027619D01*
D12*
X150677619Y-96555357D02*
X150677619Y-97126785D01*
X150677619Y-96841071D02*
X151677619Y-96841071D01*
X151534761Y-96936309D01*
X151439523Y-97031547D01*
X151391904Y-97126785D01*
X151582380Y-96174404D02*
X151630000Y-96126785D01*
X151677619Y-96031547D01*
X151677619Y-95793452D01*
X151630000Y-95698214D01*
X151582380Y-95650595D01*
X151487142Y-95602976D01*
X151391904Y-95602976D01*
X151249047Y-95650595D01*
X150677619Y-96222023D01*
X150677619Y-95602976D01*
D11*
X128770000Y-97208571D02*
X128817619Y-97284761D01*
X128817619Y-97399047D01*
X128770000Y-97513333D01*
X128674761Y-97589523D01*
X128579523Y-97627619D01*
X128389047Y-97665714D01*
X128246190Y-97665714D01*
X128055714Y-97627619D01*
X127960476Y-97589523D01*
X127865238Y-97513333D01*
X127817619Y-97399047D01*
X127817619Y-97322857D01*
X127865238Y-97208571D01*
X127912857Y-97170476D01*
X128246190Y-97170476D01*
X128246190Y-97322857D01*
X127817619Y-96827619D02*
X128817619Y-96827619D01*
X127817619Y-96370476D01*
X128817619Y-96370476D01*
X127817619Y-95989523D02*
X128817619Y-95989523D01*
X128817619Y-95799047D01*
X128770000Y-95684761D01*
X128674761Y-95608571D01*
X128579523Y-95570476D01*
X128389047Y-95532380D01*
X128246190Y-95532380D01*
X128055714Y-95570476D01*
X127960476Y-95608571D01*
X127865238Y-95684761D01*
X127817619Y-95799047D01*
X127817619Y-95989523D01*
D12*
X148137619Y-96555357D02*
X148137619Y-97126785D01*
X148137619Y-96841071D02*
X149137619Y-96841071D01*
X148994761Y-96936309D01*
X148899523Y-97031547D01*
X148851904Y-97126785D01*
X149137619Y-96222023D02*
X149137619Y-95602976D01*
X148756666Y-95936309D01*
X148756666Y-95793452D01*
X148709047Y-95698214D01*
X148661428Y-95650595D01*
X148566190Y-95602976D01*
X148328095Y-95602976D01*
X148232857Y-95650595D01*
X148185238Y-95698214D01*
X148137619Y-95793452D01*
X148137619Y-96079166D01*
X148185238Y-96174404D01*
X148232857Y-96222023D01*
X136009047Y-95983928D02*
X136056666Y-96079166D01*
X136104285Y-96126785D01*
X136199523Y-96174404D01*
X136247142Y-96174404D01*
X136342380Y-96126785D01*
X136390000Y-96079166D01*
X136437619Y-95983928D01*
X136437619Y-95793452D01*
X136390000Y-95698214D01*
X136342380Y-95650595D01*
X136247142Y-95602976D01*
X136199523Y-95602976D01*
X136104285Y-95650595D01*
X136056666Y-95698214D01*
X136009047Y-95793452D01*
X136009047Y-95983928D01*
X135961428Y-96079166D01*
X135913809Y-96126785D01*
X135818571Y-96174404D01*
X135628095Y-96174404D01*
X135532857Y-96126785D01*
X135485238Y-96079166D01*
X135437619Y-95983928D01*
X135437619Y-95793452D01*
X135485238Y-95698214D01*
X135532857Y-95650595D01*
X135628095Y-95602976D01*
X135818571Y-95602976D01*
X135913809Y-95650595D01*
X135961428Y-95698214D01*
X136009047Y-95793452D01*
X153217619Y-96555357D02*
X153217619Y-97126785D01*
X153217619Y-96841071D02*
X154217619Y-96841071D01*
X154074761Y-96936309D01*
X153979523Y-97031547D01*
X153931904Y-97126785D01*
X153217619Y-95602976D02*
X153217619Y-96174404D01*
X153217619Y-95888690D02*
X154217619Y-95888690D01*
X154074761Y-95983928D01*
X153979523Y-96079166D01*
X153931904Y-96174404D01*
X164377619Y-95650595D02*
X164377619Y-96126785D01*
X163901428Y-96174404D01*
X163949047Y-96126785D01*
X163996666Y-96031547D01*
X163996666Y-95793452D01*
X163949047Y-95698214D01*
X163901428Y-95650595D01*
X163806190Y-95602976D01*
X163568095Y-95602976D01*
X163472857Y-95650595D01*
X163425238Y-95698214D01*
X163377619Y-95793452D01*
X163377619Y-96031547D01*
X163425238Y-96126785D01*
X163472857Y-96174404D01*
X161837619Y-95698214D02*
X161837619Y-95888690D01*
X161790000Y-95983928D01*
X161742380Y-96031547D01*
X161599523Y-96126785D01*
X161409047Y-96174404D01*
X161028095Y-96174404D01*
X160932857Y-96126785D01*
X160885238Y-96079166D01*
X160837619Y-95983928D01*
X160837619Y-95793452D01*
X160885238Y-95698214D01*
X160932857Y-95650595D01*
X161028095Y-95602976D01*
X161266190Y-95602976D01*
X161361428Y-95650595D01*
X161409047Y-95698214D01*
X161456666Y-95793452D01*
X161456666Y-95983928D01*
X161409047Y-96079166D01*
X161361428Y-96126785D01*
X161266190Y-96174404D01*
X169457619Y-96222023D02*
X169457619Y-95602976D01*
X169076666Y-95936309D01*
X169076666Y-95793452D01*
X169029047Y-95698214D01*
X168981428Y-95650595D01*
X168886190Y-95602976D01*
X168648095Y-95602976D01*
X168552857Y-95650595D01*
X168505238Y-95698214D01*
X168457619Y-95793452D01*
X168457619Y-96079166D01*
X168505238Y-96174404D01*
X168552857Y-96222023D01*
X159297619Y-96222023D02*
X159297619Y-95555357D01*
X158297619Y-95983928D01*
X171902380Y-96174404D02*
X171950000Y-96126785D01*
X171997619Y-96031547D01*
X171997619Y-95793452D01*
X171950000Y-95698214D01*
X171902380Y-95650595D01*
X171807142Y-95602976D01*
X171711904Y-95602976D01*
X171569047Y-95650595D01*
X170997619Y-96222023D01*
X170997619Y-95602976D01*
X173537619Y-95602976D02*
X173537619Y-96174404D01*
X173537619Y-95888690D02*
X174537619Y-95888690D01*
X174394761Y-95983928D01*
X174299523Y-96079166D01*
X174251904Y-96174404D01*
X177077619Y-95936309D02*
X177077619Y-95841071D01*
X177030000Y-95745833D01*
X176982380Y-95698214D01*
X176887142Y-95650595D01*
X176696666Y-95602976D01*
X176458571Y-95602976D01*
X176268095Y-95650595D01*
X176172857Y-95698214D01*
X176125238Y-95745833D01*
X176077619Y-95841071D01*
X176077619Y-95936309D01*
X176125238Y-96031547D01*
X176172857Y-96079166D01*
X176268095Y-96126785D01*
X176458571Y-96174404D01*
X176696666Y-96174404D01*
X176887142Y-96126785D01*
X176982380Y-96079166D01*
X177030000Y-96031547D01*
X177077619Y-95936309D01*
D14*
X142663571Y-102250928D02*
X142892142Y-101250928D01*
X143120714Y-101965214D01*
X143349285Y-101250928D01*
X143577857Y-102250928D01*
X143920714Y-102250928D02*
X144149285Y-101250928D01*
X144377857Y-101965214D01*
X144606428Y-101250928D01*
X144835000Y-102250928D01*
X145177857Y-102250928D02*
X145406428Y-101250928D01*
X145635000Y-101965214D01*
X145863571Y-101250928D01*
X146092142Y-102250928D01*
X146549285Y-101393785D02*
X146606428Y-101322357D01*
X146549285Y-101250928D01*
X146492142Y-101322357D01*
X146549285Y-101393785D01*
X146549285Y-101250928D01*
X146949285Y-102250928D02*
X147406428Y-102250928D01*
X147120714Y-101250928D02*
X147120714Y-102536642D01*
X147177857Y-102679500D01*
X147292142Y-102750928D01*
X147406428Y-102750928D01*
X147806428Y-101250928D02*
X147806428Y-102250928D01*
X147806428Y-101965214D02*
X147863571Y-102108071D01*
X147920714Y-102179500D01*
X148035000Y-102250928D01*
X148149285Y-102250928D01*
X149063571Y-101250928D02*
X149063571Y-102036642D01*
X149006428Y-102179500D01*
X148892142Y-102250928D01*
X148663571Y-102250928D01*
X148549285Y-102179500D01*
X149063571Y-101322357D02*
X148949285Y-101250928D01*
X148663571Y-101250928D01*
X148549285Y-101322357D01*
X148492142Y-101465214D01*
X148492142Y-101608071D01*
X148549285Y-101750928D01*
X148663571Y-101822357D01*
X148949285Y-101822357D01*
X149063571Y-101893785D01*
X149635000Y-102250928D02*
X149635000Y-101250928D01*
X149635000Y-102108071D02*
X149692142Y-102179500D01*
X149806428Y-102250928D01*
X149977857Y-102250928D01*
X150092142Y-102179500D01*
X150149285Y-102036642D01*
X150149285Y-101250928D01*
X150606428Y-102250928D02*
X151235000Y-102250928D01*
X150606428Y-101250928D01*
X151235000Y-101250928D01*
X151692142Y-101250928D02*
X151692142Y-102250928D01*
X151692142Y-102750928D02*
X151635000Y-102679500D01*
X151692142Y-102608071D01*
X151749285Y-102679500D01*
X151692142Y-102750928D01*
X151692142Y-102608071D01*
X152263571Y-102250928D02*
X152263571Y-101250928D01*
X152263571Y-102108071D02*
X152320714Y-102179500D01*
X152435000Y-102250928D01*
X152606428Y-102250928D01*
X152720714Y-102179500D01*
X152777857Y-102036642D01*
X152777857Y-101250928D01*
X153349285Y-101250928D02*
X153349285Y-102250928D01*
X153349285Y-102750928D02*
X153292142Y-102679500D01*
X153349285Y-102608071D01*
X153406428Y-102679500D01*
X153349285Y-102750928D01*
X153349285Y-102608071D01*
X153920714Y-102250928D02*
X153920714Y-101250928D01*
X153920714Y-102108071D02*
X153977857Y-102179500D01*
X154092142Y-102250928D01*
X154263571Y-102250928D01*
X154377857Y-102179500D01*
X154435000Y-102036642D01*
X154435000Y-101250928D01*
X155006428Y-101250928D02*
X155006428Y-102750928D01*
X155520714Y-101250928D02*
X155520714Y-102036642D01*
X155463571Y-102179500D01*
X155349285Y-102250928D01*
X155177857Y-102250928D01*
X155063571Y-102179500D01*
X155006428Y-102108071D01*
X156263571Y-101250928D02*
X156149285Y-101322357D01*
X156092142Y-101393785D01*
X156035000Y-101536642D01*
X156035000Y-101965214D01*
X156092142Y-102108071D01*
X156149285Y-102179500D01*
X156263571Y-102250928D01*
X156435000Y-102250928D01*
X156549285Y-102179500D01*
X156606428Y-102108071D01*
X156663571Y-101965214D01*
X156663571Y-101536642D01*
X156606428Y-101393785D01*
X156549285Y-101322357D01*
X156435000Y-101250928D01*
X156263571Y-101250928D01*
X157177857Y-101393785D02*
X157235000Y-101322357D01*
X157177857Y-101250928D01*
X157120714Y-101322357D01*
X157177857Y-101393785D01*
X157177857Y-101250928D01*
X158263571Y-101322357D02*
X158149285Y-101250928D01*
X157920714Y-101250928D01*
X157806428Y-101322357D01*
X157749285Y-101393785D01*
X157692142Y-101536642D01*
X157692142Y-101965214D01*
X157749285Y-102108071D01*
X157806428Y-102179500D01*
X157920714Y-102250928D01*
X158149285Y-102250928D01*
X158263571Y-102179500D01*
X158949285Y-101250928D02*
X158835000Y-101322357D01*
X158777857Y-101393785D01*
X158720714Y-101536642D01*
X158720714Y-101965214D01*
X158777857Y-102108071D01*
X158835000Y-102179500D01*
X158949285Y-102250928D01*
X159120714Y-102250928D01*
X159235000Y-102179500D01*
X159292142Y-102108071D01*
X159349285Y-101965214D01*
X159349285Y-101536642D01*
X159292142Y-101393785D01*
X159235000Y-101322357D01*
X159120714Y-101250928D01*
X158949285Y-101250928D01*
X159863571Y-101250928D02*
X159863571Y-102250928D01*
X159863571Y-102108071D02*
X159920714Y-102179500D01*
X160035000Y-102250928D01*
X160206428Y-102250928D01*
X160320714Y-102179500D01*
X160377857Y-102036642D01*
X160377857Y-101250928D01*
X160377857Y-102036642D02*
X160435000Y-102179500D01*
X160549285Y-102250928D01*
X160720714Y-102250928D01*
X160835000Y-102179500D01*
X160892142Y-102036642D01*
X160892142Y-101250928D01*
X161463571Y-101393785D02*
X161520714Y-101322357D01*
X161463571Y-101250928D01*
X161406428Y-101322357D01*
X161463571Y-101393785D01*
X161463571Y-101250928D01*
X162035000Y-101250928D02*
X162035000Y-102750928D01*
X162035000Y-102179500D02*
X162149285Y-102250928D01*
X162377857Y-102250928D01*
X162492142Y-102179500D01*
X162549285Y-102108071D01*
X162606428Y-101965214D01*
X162606428Y-101536642D01*
X162549285Y-101393785D01*
X162492142Y-101322357D01*
X162377857Y-101250928D01*
X162149285Y-101250928D01*
X162035000Y-101322357D01*
X163120714Y-101250928D02*
X163120714Y-102250928D01*
X163120714Y-101965214D02*
X163177857Y-102108071D01*
X163235000Y-102179500D01*
X163349285Y-102250928D01*
X163463571Y-102250928D01*
D15*
G36*
X175363571Y-105276881D02*
G01*
X175352467Y-105219051D01*
X175335120Y-105155625D01*
X175313132Y-105090935D01*
X175288107Y-105029315D01*
X175261649Y-104975098D01*
X175237038Y-104934944D01*
X175225989Y-104918085D01*
X175220459Y-104907018D01*
X175220312Y-104906104D01*
X175214838Y-104894180D01*
X175199829Y-104873712D01*
X175177409Y-104846930D01*
X175149701Y-104816066D01*
X175118829Y-104783351D01*
X175086915Y-104751017D01*
X175056084Y-104721295D01*
X175028457Y-104696416D01*
X175006159Y-104678611D01*
X174999730Y-104674292D01*
X174978407Y-104659680D01*
X174962069Y-104646758D01*
X174941566Y-104632366D01*
X174909682Y-104614254D01*
X174869966Y-104594095D01*
X174825966Y-104573564D01*
X174781231Y-104554335D01*
X174739310Y-104538082D01*
X174712766Y-104529134D01*
X174655322Y-104512793D01*
X174602992Y-104501296D01*
X174551194Y-104494109D01*
X174495345Y-104490699D01*
X174430863Y-104490530D01*
X174390844Y-104491598D01*
X174324588Y-104495046D01*
X174268141Y-104500424D01*
X174223007Y-104507497D01*
X174190687Y-104516027D01*
X174172685Y-104525778D01*
X174172525Y-104525940D01*
X174175023Y-104534040D01*
X174187318Y-104550698D01*
X174207581Y-104573659D01*
X174229664Y-104596407D01*
X174260910Y-104628401D01*
X174297571Y-104667451D01*
X174334895Y-104708419D01*
X174365609Y-104743250D01*
X174392891Y-104774709D01*
X174417323Y-104802638D01*
X174436598Y-104824418D01*
X174448412Y-104837431D01*
X174449934Y-104839012D01*
X174461409Y-104852154D01*
X174477878Y-104872843D01*
X174490062Y-104888933D01*
X174509490Y-104914761D01*
X174533515Y-104946154D01*
X174556484Y-104975734D01*
X174584451Y-105013251D01*
X174618104Y-105061304D01*
X174655327Y-105116608D01*
X174694000Y-105175876D01*
X174732005Y-105235819D01*
X174767226Y-105293152D01*
X174797543Y-105344587D01*
X174818408Y-105382219D01*
X174831468Y-105406415D01*
X174842478Y-105426066D01*
X174847104Y-105433813D01*
X174852480Y-105443995D01*
X174863222Y-105465675D01*
X174877955Y-105495977D01*
X174895303Y-105532029D01*
X174913890Y-105570955D01*
X174932340Y-105609881D01*
X174949276Y-105645932D01*
X174963324Y-105676236D01*
X174966801Y-105683844D01*
X174989901Y-105737773D01*
X175016188Y-105804721D01*
X175044773Y-105882363D01*
X175067034Y-105945782D01*
X175081663Y-105987898D01*
X175094627Y-106024540D01*
X175105009Y-106053168D01*
X175111892Y-106071242D01*
X175114219Y-106076361D01*
X175122047Y-106074085D01*
X175136458Y-106060502D01*
X175155782Y-106037865D01*
X175178349Y-106008427D01*
X175202490Y-105974443D01*
X175226533Y-105938166D01*
X175248809Y-105901848D01*
X175264838Y-105873140D01*
X175314774Y-105761725D01*
X175349625Y-105645571D01*
X175369323Y-105525087D01*
X175373800Y-105400680D01*
X175363571Y-105276881D01*
G37*
X175363571Y-105276881D02*
X175352467Y-105219051D01*
X175335120Y-105155625D01*
X175313132Y-105090935D01*
X175288107Y-105029315D01*
X175261649Y-104975098D01*
X175237038Y-104934944D01*
X175225989Y-104918085D01*
X175220459Y-104907018D01*
X175220312Y-104906104D01*
X175214838Y-104894180D01*
X175199829Y-104873712D01*
X175177409Y-104846930D01*
X175149701Y-104816066D01*
X175118829Y-104783351D01*
X175086915Y-104751017D01*
X175056084Y-104721295D01*
X175028457Y-104696416D01*
X175006159Y-104678611D01*
X174999730Y-104674292D01*
X174978407Y-104659680D01*
X174962069Y-104646758D01*
X174941566Y-104632366D01*
X174909682Y-104614254D01*
X174869966Y-104594095D01*
X174825966Y-104573564D01*
X174781231Y-104554335D01*
X174739310Y-104538082D01*
X174712766Y-104529134D01*
X174655322Y-104512793D01*
X174602992Y-104501296D01*
X174551194Y-104494109D01*
X174495345Y-104490699D01*
X174430863Y-104490530D01*
X174390844Y-104491598D01*
X174324588Y-104495046D01*
X174268141Y-104500424D01*
X174223007Y-104507497D01*
X174190687Y-104516027D01*
X174172685Y-104525778D01*
X174172525Y-104525940D01*
X174175023Y-104534040D01*
X174187318Y-104550698D01*
X174207581Y-104573659D01*
X174229664Y-104596407D01*
X174260910Y-104628401D01*
X174297571Y-104667451D01*
X174334895Y-104708419D01*
X174365609Y-104743250D01*
X174392891Y-104774709D01*
X174417323Y-104802638D01*
X174436598Y-104824418D01*
X174448412Y-104837431D01*
X174449934Y-104839012D01*
X174461409Y-104852154D01*
X174477878Y-104872843D01*
X174490062Y-104888933D01*
X174509490Y-104914761D01*
X174533515Y-104946154D01*
X174556484Y-104975734D01*
X174584451Y-105013251D01*
X174618104Y-105061304D01*
X174655327Y-105116608D01*
X174694000Y-105175876D01*
X174732005Y-105235819D01*
X174767226Y-105293152D01*
X174797543Y-105344587D01*
X174818408Y-105382219D01*
X174831468Y-105406415D01*
X174842478Y-105426066D01*
X174847104Y-105433813D01*
X174852480Y-105443995D01*
X174863222Y-105465675D01*
X174877955Y-105495977D01*
X174895303Y-105532029D01*
X174913890Y-105570955D01*
X174932340Y-105609881D01*
X174949276Y-105645932D01*
X174963324Y-105676236D01*
X174966801Y-105683844D01*
X174989901Y-105737773D01*
X175016188Y-105804721D01*
X175044773Y-105882363D01*
X175067034Y-105945782D01*
X175081663Y-105987898D01*
X175094627Y-106024540D01*
X175105009Y-106053168D01*
X175111892Y-106071242D01*
X175114219Y-106076361D01*
X175122047Y-106074085D01*
X175136458Y-106060502D01*
X175155782Y-106037865D01*
X175178349Y-106008427D01*
X175202490Y-105974443D01*
X175226533Y-105938166D01*
X175248809Y-105901848D01*
X175264838Y-105873140D01*
X175314774Y-105761725D01*
X175349625Y-105645571D01*
X175369323Y-105525087D01*
X175373800Y-105400680D01*
X175363571Y-105276881D01*
G36*
X174913551Y-106220800D02*
G01*
X174913298Y-106219708D01*
X174907587Y-106201412D01*
X174902959Y-106191844D01*
X174898170Y-106180519D01*
X174891103Y-106158634D01*
X174883668Y-106132313D01*
X174874681Y-106101241D01*
X174862060Y-106061180D01*
X174847454Y-106017026D01*
X174832516Y-105973671D01*
X174818894Y-105936011D01*
X174808718Y-105910063D01*
X174801716Y-105892849D01*
X174791248Y-105866376D01*
X174779516Y-105836217D01*
X174778914Y-105834657D01*
X174768873Y-105810109D01*
X174754394Y-105776652D01*
X174736893Y-105737356D01*
X174717783Y-105695293D01*
X174698480Y-105653533D01*
X174680400Y-105615147D01*
X174664957Y-105583208D01*
X174653566Y-105560784D01*
X174649075Y-105552875D01*
X174636118Y-105531527D01*
X174618880Y-105501719D01*
X174600507Y-105469027D01*
X174584142Y-105439023D01*
X174575381Y-105422240D01*
X174561930Y-105397286D01*
X174548445Y-105374795D01*
X174545693Y-105370647D01*
X174536774Y-105357492D01*
X174520800Y-105333781D01*
X174499544Y-105302151D01*
X174474779Y-105265242D01*
X174454765Y-105235375D01*
X174388038Y-105138513D01*
X174324994Y-105052957D01*
X174263126Y-104975394D01*
X174220187Y-104925231D01*
X174195407Y-104897047D01*
X174172311Y-104870710D01*
X174154451Y-104850271D01*
X174148750Y-104843710D01*
X174133128Y-104826619D01*
X174110483Y-104803075D01*
X174082953Y-104775174D01*
X174052676Y-104745006D01*
X174021791Y-104714667D01*
X173992435Y-104686248D01*
X173966747Y-104661843D01*
X173946864Y-104643545D01*
X173934924Y-104633446D01*
X173932620Y-104632125D01*
X173921538Y-104637015D01*
X173901482Y-104650188D01*
X173875357Y-104669403D01*
X173846073Y-104692416D01*
X173816536Y-104716984D01*
X173789655Y-104740865D01*
X173780852Y-104749187D01*
X173745536Y-104785549D01*
X173708753Y-104827224D01*
X173674255Y-104869687D01*
X173645793Y-104908410D01*
X173634472Y-104925813D01*
X173595592Y-104996704D01*
X173561133Y-105073351D01*
X173533146Y-105150545D01*
X173513683Y-105223076D01*
X173510091Y-105241549D01*
X173505198Y-105275926D01*
X173500826Y-105318578D01*
X173497212Y-105365389D01*
X173494594Y-105412238D01*
X173493210Y-105455009D01*
X173493296Y-105489583D01*
X173494670Y-105509219D01*
X173497327Y-105528549D01*
X173501315Y-105557804D01*
X173505844Y-105591176D01*
X173506569Y-105596532D01*
X173513764Y-105636348D01*
X173524648Y-105681598D01*
X173536967Y-105722995D01*
X173537963Y-105725909D01*
X173550840Y-105760574D01*
X173566392Y-105798664D01*
X173582886Y-105836322D01*
X173598589Y-105869689D01*
X173611768Y-105894908D01*
X173618906Y-105906094D01*
X173626844Y-105917283D01*
X173639409Y-105935935D01*
X173644574Y-105943771D01*
X173661762Y-105969567D01*
X173679239Y-105995141D01*
X173682165Y-105999334D01*
X173696008Y-106016573D01*
X173717921Y-106041110D01*
X173744974Y-106069948D01*
X173774238Y-106100087D01*
X173802783Y-106128528D01*
X173827681Y-106152274D01*
X173846003Y-106168324D01*
X173850572Y-106171742D01*
X173898422Y-106203869D01*
X173936787Y-106228676D01*
X173968994Y-106248219D01*
X173998368Y-106264551D01*
X174013566Y-106272426D01*
X174039623Y-106285262D01*
X174060114Y-106294667D01*
X174071004Y-106298798D01*
X174071446Y-106298852D01*
X174081699Y-106302050D01*
X174100711Y-106309973D01*
X174111133Y-106314716D01*
X174132412Y-106322638D01*
X174164717Y-106332252D01*
X174203478Y-106342286D01*
X174240031Y-106350607D01*
X174359595Y-106367929D01*
X174479711Y-106369628D01*
X174599210Y-106355866D01*
X174716924Y-106326801D01*
X174831684Y-106282595D01*
X174868752Y-106264688D01*
X174894678Y-106250885D01*
X174908932Y-106240842D01*
X174914296Y-106231750D01*
X174913551Y-106220800D01*
G37*
X174913551Y-106220800D02*
X174913298Y-106219708D01*
X174907587Y-106201412D01*
X174902959Y-106191844D01*
X174898170Y-106180519D01*
X174891103Y-106158634D01*
X174883668Y-106132313D01*
X174874681Y-106101241D01*
X174862060Y-106061180D01*
X174847454Y-106017026D01*
X174832516Y-105973671D01*
X174818894Y-105936011D01*
X174808718Y-105910063D01*
X174801716Y-105892849D01*
X174791248Y-105866376D01*
X174779516Y-105836217D01*
X174778914Y-105834657D01*
X174768873Y-105810109D01*
X174754394Y-105776652D01*
X174736893Y-105737356D01*
X174717783Y-105695293D01*
X174698480Y-105653533D01*
X174680400Y-105615147D01*
X174664957Y-105583208D01*
X174653566Y-105560784D01*
X174649075Y-105552875D01*
X174636118Y-105531527D01*
X174618880Y-105501719D01*
X174600507Y-105469027D01*
X174584142Y-105439023D01*
X174575381Y-105422240D01*
X174561930Y-105397286D01*
X174548445Y-105374795D01*
X174545693Y-105370647D01*
X174536774Y-105357492D01*
X174520800Y-105333781D01*
X174499544Y-105302151D01*
X174474779Y-105265242D01*
X174454765Y-105235375D01*
X174388038Y-105138513D01*
X174324994Y-105052957D01*
X174263126Y-104975394D01*
X174220187Y-104925231D01*
X174195407Y-104897047D01*
X174172311Y-104870710D01*
X174154451Y-104850271D01*
X174148750Y-104843710D01*
X174133128Y-104826619D01*
X174110483Y-104803075D01*
X174082953Y-104775174D01*
X174052676Y-104745006D01*
X174021791Y-104714667D01*
X173992435Y-104686248D01*
X173966747Y-104661843D01*
X173946864Y-104643545D01*
X173934924Y-104633446D01*
X173932620Y-104632125D01*
X173921538Y-104637015D01*
X173901482Y-104650188D01*
X173875357Y-104669403D01*
X173846073Y-104692416D01*
X173816536Y-104716984D01*
X173789655Y-104740865D01*
X173780852Y-104749187D01*
X173745536Y-104785549D01*
X173708753Y-104827224D01*
X173674255Y-104869687D01*
X173645793Y-104908410D01*
X173634472Y-104925813D01*
X173595592Y-104996704D01*
X173561133Y-105073351D01*
X173533146Y-105150545D01*
X173513683Y-105223076D01*
X173510091Y-105241549D01*
X173505198Y-105275926D01*
X173500826Y-105318578D01*
X173497212Y-105365389D01*
X173494594Y-105412238D01*
X173493210Y-105455009D01*
X173493296Y-105489583D01*
X173494670Y-105509219D01*
X173497327Y-105528549D01*
X173501315Y-105557804D01*
X173505844Y-105591176D01*
X173506569Y-105596532D01*
X173513764Y-105636348D01*
X173524648Y-105681598D01*
X173536967Y-105722995D01*
X173537963Y-105725909D01*
X173550840Y-105760574D01*
X173566392Y-105798664D01*
X173582886Y-105836322D01*
X173598589Y-105869689D01*
X173611768Y-105894908D01*
X173618906Y-105906094D01*
X173626844Y-105917283D01*
X173639409Y-105935935D01*
X173644574Y-105943771D01*
X173661762Y-105969567D01*
X173679239Y-105995141D01*
X173682165Y-105999334D01*
X173696008Y-106016573D01*
X173717921Y-106041110D01*
X173744974Y-106069948D01*
X173774238Y-106100087D01*
X173802783Y-106128528D01*
X173827681Y-106152274D01*
X173846003Y-106168324D01*
X173850572Y-106171742D01*
X173898422Y-106203869D01*
X173936787Y-106228676D01*
X173968994Y-106248219D01*
X173998368Y-106264551D01*
X174013566Y-106272426D01*
X174039623Y-106285262D01*
X174060114Y-106294667D01*
X174071004Y-106298798D01*
X174071446Y-106298852D01*
X174081699Y-106302050D01*
X174100711Y-106309973D01*
X174111133Y-106314716D01*
X174132412Y-106322638D01*
X174164717Y-106332252D01*
X174203478Y-106342286D01*
X174240031Y-106350607D01*
X174359595Y-106367929D01*
X174479711Y-106369628D01*
X174599210Y-106355866D01*
X174716924Y-106326801D01*
X174831684Y-106282595D01*
X174868752Y-106264688D01*
X174894678Y-106250885D01*
X174908932Y-106240842D01*
X174914296Y-106231750D01*
X174913551Y-106220800D01*
G36*
X172862875Y-102941438D02*
G01*
X172862875Y-107870625D01*
X174434548Y-107870625D01*
X174434548Y-107430094D01*
X174416665Y-107408950D01*
X174403970Y-107392979D01*
X174385332Y-107368375D01*
X174363996Y-107339448D01*
X174355125Y-107327204D01*
X174333202Y-107296831D01*
X174312333Y-107268017D01*
X174295965Y-107245520D01*
X174291625Y-107239594D01*
X174277659Y-107220487D01*
X174258001Y-107193471D01*
X174236260Y-107163506D01*
X174229848Y-107154653D01*
X174205982Y-107121788D01*
X174177382Y-107082568D01*
X174148736Y-107043413D01*
X174136583Y-107026850D01*
X174115752Y-106997903D01*
X174098984Y-106973473D01*
X174088225Y-106956466D01*
X174085250Y-106950120D01*
X174079607Y-106940816D01*
X174079184Y-106940615D01*
X174071975Y-106933231D01*
X174057729Y-106915506D01*
X174038471Y-106890133D01*
X174016227Y-106859806D01*
X173993020Y-106827219D01*
X173981723Y-106810969D01*
X173971101Y-106796008D01*
X173953248Y-106771348D01*
X173930389Y-106740043D01*
X173904747Y-106705145D01*
X173896299Y-106693694D01*
X173864134Y-106650012D01*
X173828156Y-106600955D01*
X173792851Y-106552649D01*
X173763781Y-106512703D01*
X173742972Y-106484029D01*
X173722472Y-106455803D01*
X173700901Y-106426128D01*
X173676881Y-106393112D01*
X173649034Y-106354860D01*
X173615980Y-106309477D01*
X173576340Y-106255068D01*
X173528737Y-106189740D01*
X173528364Y-106189229D01*
X173507178Y-106160325D01*
X173487568Y-106133863D01*
X173472823Y-106114274D01*
X173469415Y-106109854D01*
X173456933Y-106093006D01*
X173439148Y-106067947D01*
X173419589Y-106039661D01*
X173416610Y-106035285D01*
X173398188Y-106008627D01*
X173382030Y-105986067D01*
X173371085Y-105971704D01*
X173369664Y-105970044D01*
X173359529Y-105957269D01*
X173344292Y-105936403D01*
X173331187Y-105917663D01*
X173312268Y-105890472D01*
X173293436Y-105864033D01*
X173283562Y-105850536D01*
X173271499Y-105834229D01*
X173252493Y-105808390D01*
X173228961Y-105776309D01*
X173203319Y-105741278D01*
X173198027Y-105734039D01*
X173168699Y-105693948D01*
X173133808Y-105646307D01*
X173097194Y-105596358D01*
X173062697Y-105549341D01*
X173053635Y-105537000D01*
X173027422Y-105500747D01*
X173004852Y-105468460D01*
X172987504Y-105442488D01*
X172976960Y-105425177D01*
X172974468Y-105419393D01*
X172978586Y-105406672D01*
X172989379Y-105388289D01*
X172992659Y-105383674D01*
X173004709Y-105367276D01*
X173023480Y-105341641D01*
X173046343Y-105310363D01*
X173069212Y-105279032D01*
X173094323Y-105244633D01*
X173118594Y-105211437D01*
X173139080Y-105183467D01*
X173151756Y-105166213D01*
X173161801Y-105152555D01*
X173173343Y-105136790D01*
X173187609Y-105117229D01*
X173205830Y-105092183D01*
X173229234Y-105059961D01*
X173259051Y-105018873D01*
X173296508Y-104967230D01*
X173312153Y-104945657D01*
X173334372Y-104915017D01*
X173354127Y-104887780D01*
X173368949Y-104867348D01*
X173375484Y-104858344D01*
X173383813Y-104846841D01*
X173399656Y-104824936D01*
X173421227Y-104795097D01*
X173446743Y-104759789D01*
X173468240Y-104730036D01*
X173545157Y-104623612D01*
X173613020Y-104529804D01*
X173672035Y-104448331D01*
X173722406Y-104378911D01*
X173764336Y-104321263D01*
X173798030Y-104275107D01*
X173823693Y-104240162D01*
X173841529Y-104216147D01*
X173851094Y-104203600D01*
X173866666Y-104183132D01*
X173887645Y-104154669D01*
X173910348Y-104123230D01*
X173918562Y-104111686D01*
X173941826Y-104079164D01*
X173970502Y-104039554D01*
X174000502Y-103998484D01*
X174021489Y-103970006D01*
X174048557Y-103933115D01*
X174076156Y-103894929D01*
X174100717Y-103860413D01*
X174116060Y-103838375D01*
X174135829Y-103809896D01*
X174154760Y-103783318D01*
X174168994Y-103764052D01*
X174169829Y-103762969D01*
X174195667Y-103728873D01*
X174227944Y-103685043D01*
X174264178Y-103634877D01*
X174293143Y-103594168D01*
X174315059Y-103563536D01*
X174339862Y-103529458D01*
X174365090Y-103495250D01*
X174388284Y-103464228D01*
X174406985Y-103439706D01*
X174418199Y-103425625D01*
X174434945Y-103405782D01*
X174450429Y-103425625D01*
X174462783Y-103441954D01*
X174482216Y-103468217D01*
X174506568Y-103501440D01*
X174533675Y-103538651D01*
X174561376Y-103576876D01*
X174587508Y-103613143D01*
X174609909Y-103644477D01*
X174621031Y-103660203D01*
X174638246Y-103684274D01*
X174652724Y-103703755D01*
X174661247Y-103714334D01*
X174671189Y-103726900D01*
X174683976Y-103745423D01*
X174685060Y-103747094D01*
X174697841Y-103765897D01*
X174716805Y-103792629D01*
X174738714Y-103822851D01*
X174760328Y-103852123D01*
X174778408Y-103876006D01*
X174787388Y-103887336D01*
X174796580Y-103899307D01*
X174812350Y-103920697D01*
X174832105Y-103947969D01*
X174844632Y-103965459D01*
X174866322Y-103995871D01*
X174886272Y-104023844D01*
X174901536Y-104045247D01*
X174906781Y-104052602D01*
X174918334Y-104068640D01*
X174936320Y-104093422D01*
X174957789Y-104122890D01*
X174970281Y-104139991D01*
X174991811Y-104169517D01*
X175010918Y-104195873D01*
X175024920Y-104215350D01*
X175029739Y-104222169D01*
X175039983Y-104236469D01*
X175056576Y-104259151D01*
X175076347Y-104285891D01*
X175081332Y-104292592D01*
X175102592Y-104321301D01*
X175122594Y-104348606D01*
X175137548Y-104369325D01*
X175139420Y-104371967D01*
X175170560Y-104416065D01*
X175193875Y-104448859D01*
X175210608Y-104472075D01*
X175222006Y-104487436D01*
X175229312Y-104496668D01*
X175229864Y-104497319D01*
X175241328Y-104512325D01*
X175254881Y-104532042D01*
X175255395Y-104532831D01*
X175267693Y-104551075D01*
X175277084Y-104563834D01*
X175277599Y-104564450D01*
X175286067Y-104575298D01*
X175301077Y-104595350D01*
X175319912Y-104620914D01*
X175339855Y-104648301D01*
X175358186Y-104673821D01*
X175359219Y-104675273D01*
X175379141Y-104703045D01*
X175405747Y-104739760D01*
X175436265Y-104781611D01*
X175467920Y-104824790D01*
X175486790Y-104850407D01*
X175507907Y-104879227D01*
X175534725Y-104916138D01*
X175563737Y-104956299D01*
X175590356Y-104993358D01*
X175617763Y-105031528D01*
X175645924Y-105070543D01*
X175671499Y-105105786D01*
X175690869Y-105132265D01*
X175743978Y-105204443D01*
X175787935Y-105264416D01*
X175823103Y-105312684D01*
X175849847Y-105349748D01*
X175868531Y-105376109D01*
X175874251Y-105384387D01*
X175897159Y-105417938D01*
X175874251Y-105451556D01*
X175860064Y-105471831D01*
X175839413Y-105500659D01*
X175815311Y-105533857D01*
X175795612Y-105560697D01*
X175772464Y-105592175D01*
X175751828Y-105620439D01*
X175736100Y-105642193D01*
X175728143Y-105653452D01*
X175719873Y-105665095D01*
X175703870Y-105687198D01*
X175681824Y-105717447D01*
X175655423Y-105753523D01*
X175626356Y-105793110D01*
X175625125Y-105794783D01*
X175595631Y-105834929D01*
X175568394Y-105872096D01*
X175545197Y-105903843D01*
X175527822Y-105927729D01*
X175518053Y-105941315D01*
X175517969Y-105941435D01*
X175506259Y-105957844D01*
X175488249Y-105982822D01*
X175467008Y-106012121D01*
X175456673Y-106026322D01*
X175436225Y-106054447D01*
X175409248Y-106091637D01*
X175378504Y-106134085D01*
X175346750Y-106177982D01*
X175328131Y-106203750D01*
X175297465Y-106246184D01*
X175266471Y-106289024D01*
X175237797Y-106328612D01*
X175214093Y-106361290D01*
X175202895Y-106376694D01*
X175181405Y-106406249D01*
X175161193Y-106434101D01*
X175145749Y-106455444D01*
X175142437Y-106460038D01*
X175129429Y-106477941D01*
X175110287Y-106504075D01*
X175088327Y-106533917D01*
X175078937Y-106546636D01*
X175056511Y-106577141D01*
X175035252Y-106606329D01*
X175018609Y-106629457D01*
X175013937Y-106636062D01*
X175000196Y-106655335D01*
X174980434Y-106682633D01*
X174958084Y-106713225D01*
X174948859Y-106725770D01*
X174926817Y-106755715D01*
X174907680Y-106781809D01*
X174888870Y-106807595D01*
X174867807Y-106836614D01*
X174841913Y-106872409D01*
X174818697Y-106904550D01*
X174793322Y-106939431D01*
X174764722Y-106978359D01*
X174739983Y-107011706D01*
X174719232Y-107039884D01*
X174700340Y-107066245D01*
X174686821Y-107085869D01*
X174685057Y-107088575D01*
X174672814Y-107106895D01*
X174663386Y-107119698D01*
X174662854Y-107120325D01*
X174655681Y-107129649D01*
X174641333Y-107149070D01*
X174621872Y-107175776D01*
X174599360Y-107206954D01*
X174598717Y-107207848D01*
X174558744Y-107263279D01*
X174522794Y-107312788D01*
X174492079Y-107354718D01*
X174467815Y-107387416D01*
X174451213Y-107409227D01*
X174448415Y-107412768D01*
X174434548Y-107430094D01*
X174434548Y-107870625D01*
X176006125Y-107870625D01*
X176006125Y-102941438D01*
X172862875Y-102941438D01*
G37*
X172862875Y-102941438D02*
X172862875Y-107870625D01*
X174434548Y-107870625D01*
X174434548Y-107430094D01*
X174416665Y-107408950D01*
X174403970Y-107392979D01*
X174385332Y-107368375D01*
X174363996Y-107339448D01*
X174355125Y-107327204D01*
X174333202Y-107296831D01*
X174312333Y-107268017D01*
X174295965Y-107245520D01*
X174291625Y-107239594D01*
X174277659Y-107220487D01*
X174258001Y-107193471D01*
X174236260Y-107163506D01*
X174229848Y-107154653D01*
X174205982Y-107121788D01*
X174177382Y-107082568D01*
X174148736Y-107043413D01*
X174136583Y-107026850D01*
X174115752Y-106997903D01*
X174098984Y-106973473D01*
X174088225Y-106956466D01*
X174085250Y-106950120D01*
X174079607Y-106940816D01*
X174079184Y-106940615D01*
X174071975Y-106933231D01*
X174057729Y-106915506D01*
X174038471Y-106890133D01*
X174016227Y-106859806D01*
X173993020Y-106827219D01*
X173981723Y-106810969D01*
X173971101Y-106796008D01*
X173953248Y-106771348D01*
X173930389Y-106740043D01*
X173904747Y-106705145D01*
X173896299Y-106693694D01*
X173864134Y-106650012D01*
X173828156Y-106600955D01*
X173792851Y-106552649D01*
X173763781Y-106512703D01*
X173742972Y-106484029D01*
X173722472Y-106455803D01*
X173700901Y-106426128D01*
X173676881Y-106393112D01*
X173649034Y-106354860D01*
X173615980Y-106309477D01*
X173576340Y-106255068D01*
X173528737Y-106189740D01*
X173528364Y-106189229D01*
X173507178Y-106160325D01*
X173487568Y-106133863D01*
X173472823Y-106114274D01*
X173469415Y-106109854D01*
X173456933Y-106093006D01*
X173439148Y-106067947D01*
X173419589Y-106039661D01*
X173416610Y-106035285D01*
X173398188Y-106008627D01*
X173382030Y-105986067D01*
X173371085Y-105971704D01*
X173369664Y-105970044D01*
X173359529Y-105957269D01*
X173344292Y-105936403D01*
X173331187Y-105917663D01*
X173312268Y-105890472D01*
X173293436Y-105864033D01*
X173283562Y-105850536D01*
X173271499Y-105834229D01*
X173252493Y-105808390D01*
X173228961Y-105776309D01*
X173203319Y-105741278D01*
X173198027Y-105734039D01*
X173168699Y-105693948D01*
X173133808Y-105646307D01*
X173097194Y-105596358D01*
X173062697Y-105549341D01*
X173053635Y-105537000D01*
X173027422Y-105500747D01*
X173004852Y-105468460D01*
X172987504Y-105442488D01*
X172976960Y-105425177D01*
X172974468Y-105419393D01*
X172978586Y-105406672D01*
X172989379Y-105388289D01*
X172992659Y-105383674D01*
X173004709Y-105367276D01*
X173023480Y-105341641D01*
X173046343Y-105310363D01*
X173069212Y-105279032D01*
X173094323Y-105244633D01*
X173118594Y-105211437D01*
X173139080Y-105183467D01*
X173151756Y-105166213D01*
X173161801Y-105152555D01*
X173173343Y-105136790D01*
X173187609Y-105117229D01*
X173205830Y-105092183D01*
X173229234Y-105059961D01*
X173259051Y-105018873D01*
X173296508Y-104967230D01*
X173312153Y-104945657D01*
X173334372Y-104915017D01*
X173354127Y-104887780D01*
X173368949Y-104867348D01*
X173375484Y-104858344D01*
X173383813Y-104846841D01*
X173399656Y-104824936D01*
X173421227Y-104795097D01*
X173446743Y-104759789D01*
X173468240Y-104730036D01*
X173545157Y-104623612D01*
X173613020Y-104529804D01*
X173672035Y-104448331D01*
X173722406Y-104378911D01*
X173764336Y-104321263D01*
X173798030Y-104275107D01*
X173823693Y-104240162D01*
X173841529Y-104216147D01*
X173851094Y-104203600D01*
X173866666Y-104183132D01*
X173887645Y-104154669D01*
X173910348Y-104123230D01*
X173918562Y-104111686D01*
X173941826Y-104079164D01*
X173970502Y-104039554D01*
X174000502Y-103998484D01*
X174021489Y-103970006D01*
X174048557Y-103933115D01*
X174076156Y-103894929D01*
X174100717Y-103860413D01*
X174116060Y-103838375D01*
X174135829Y-103809896D01*
X174154760Y-103783318D01*
X174168994Y-103764052D01*
X174169829Y-103762969D01*
X174195667Y-103728873D01*
X174227944Y-103685043D01*
X174264178Y-103634877D01*
X174293143Y-103594168D01*
X174315059Y-103563536D01*
X174339862Y-103529458D01*
X174365090Y-103495250D01*
X174388284Y-103464228D01*
X174406985Y-103439706D01*
X174418199Y-103425625D01*
X174434945Y-103405782D01*
X174450429Y-103425625D01*
X174462783Y-103441954D01*
X174482216Y-103468217D01*
X174506568Y-103501440D01*
X174533675Y-103538651D01*
X174561376Y-103576876D01*
X174587508Y-103613143D01*
X174609909Y-103644477D01*
X174621031Y-103660203D01*
X174638246Y-103684274D01*
X174652724Y-103703755D01*
X174661247Y-103714334D01*
X174671189Y-103726900D01*
X174683976Y-103745423D01*
X174685060Y-103747094D01*
X174697841Y-103765897D01*
X174716805Y-103792629D01*
X174738714Y-103822851D01*
X174760328Y-103852123D01*
X174778408Y-103876006D01*
X174787388Y-103887336D01*
X174796580Y-103899307D01*
X174812350Y-103920697D01*
X174832105Y-103947969D01*
X174844632Y-103965459D01*
X174866322Y-103995871D01*
X174886272Y-104023844D01*
X174901536Y-104045247D01*
X174906781Y-104052602D01*
X174918334Y-104068640D01*
X174936320Y-104093422D01*
X174957789Y-104122890D01*
X174970281Y-104139991D01*
X174991811Y-104169517D01*
X175010918Y-104195873D01*
X175024920Y-104215350D01*
X175029739Y-104222169D01*
X175039983Y-104236469D01*
X175056576Y-104259151D01*
X175076347Y-104285891D01*
X175081332Y-104292592D01*
X175102592Y-104321301D01*
X175122594Y-104348606D01*
X175137548Y-104369325D01*
X175139420Y-104371967D01*
X175170560Y-104416065D01*
X175193875Y-104448859D01*
X175210608Y-104472075D01*
X175222006Y-104487436D01*
X175229312Y-104496668D01*
X175229864Y-104497319D01*
X175241328Y-104512325D01*
X175254881Y-104532042D01*
X175255395Y-104532831D01*
X175267693Y-104551075D01*
X175277084Y-104563834D01*
X175277599Y-104564450D01*
X175286067Y-104575298D01*
X175301077Y-104595350D01*
X175319912Y-104620914D01*
X175339855Y-104648301D01*
X175358186Y-104673821D01*
X175359219Y-104675273D01*
X175379141Y-104703045D01*
X175405747Y-104739760D01*
X175436265Y-104781611D01*
X175467920Y-104824790D01*
X175486790Y-104850407D01*
X175507907Y-104879227D01*
X175534725Y-104916138D01*
X175563737Y-104956299D01*
X175590356Y-104993358D01*
X175617763Y-105031528D01*
X175645924Y-105070543D01*
X175671499Y-105105786D01*
X175690869Y-105132265D01*
X175743978Y-105204443D01*
X175787935Y-105264416D01*
X175823103Y-105312684D01*
X175849847Y-105349748D01*
X175868531Y-105376109D01*
X175874251Y-105384387D01*
X175897159Y-105417938D01*
X175874251Y-105451556D01*
X175860064Y-105471831D01*
X175839413Y-105500659D01*
X175815311Y-105533857D01*
X175795612Y-105560697D01*
X175772464Y-105592175D01*
X175751828Y-105620439D01*
X175736100Y-105642193D01*
X175728143Y-105653452D01*
X175719873Y-105665095D01*
X175703870Y-105687198D01*
X175681824Y-105717447D01*
X175655423Y-105753523D01*
X175626356Y-105793110D01*
X175625125Y-105794783D01*
X175595631Y-105834929D01*
X175568394Y-105872096D01*
X175545197Y-105903843D01*
X175527822Y-105927729D01*
X175518053Y-105941315D01*
X175517969Y-105941435D01*
X175506259Y-105957844D01*
X175488249Y-105982822D01*
X175467008Y-106012121D01*
X175456673Y-106026322D01*
X175436225Y-106054447D01*
X175409248Y-106091637D01*
X175378504Y-106134085D01*
X175346750Y-106177982D01*
X175328131Y-106203750D01*
X175297465Y-106246184D01*
X175266471Y-106289024D01*
X175237797Y-106328612D01*
X175214093Y-106361290D01*
X175202895Y-106376694D01*
X175181405Y-106406249D01*
X175161193Y-106434101D01*
X175145749Y-106455444D01*
X175142437Y-106460038D01*
X175129429Y-106477941D01*
X175110287Y-106504075D01*
X175088327Y-106533917D01*
X175078937Y-106546636D01*
X175056511Y-106577141D01*
X175035252Y-106606329D01*
X175018609Y-106629457D01*
X175013937Y-106636062D01*
X175000196Y-106655335D01*
X174980434Y-106682633D01*
X174958084Y-106713225D01*
X174948859Y-106725770D01*
X174926817Y-106755715D01*
X174907680Y-106781809D01*
X174888870Y-106807595D01*
X174867807Y-106836614D01*
X174841913Y-106872409D01*
X174818697Y-106904550D01*
X174793322Y-106939431D01*
X174764722Y-106978359D01*
X174739983Y-107011706D01*
X174719232Y-107039884D01*
X174700340Y-107066245D01*
X174686821Y-107085869D01*
X174685057Y-107088575D01*
X174672814Y-107106895D01*
X174663386Y-107119698D01*
X174662854Y-107120325D01*
X174655681Y-107129649D01*
X174641333Y-107149070D01*
X174621872Y-107175776D01*
X174599360Y-107206954D01*
X174598717Y-107207848D01*
X174558744Y-107263279D01*
X174522794Y-107312788D01*
X174492079Y-107354718D01*
X174467815Y-107387416D01*
X174451213Y-107409227D01*
X174448415Y-107412768D01*
X174434548Y-107430094D01*
X174434548Y-107870625D01*
X176006125Y-107870625D01*
X176006125Y-102941438D01*
X172862875Y-102941438D01*
G36*
X183521174Y-104136042D02*
G01*
X183520168Y-104135008D01*
X183492572Y-104124186D01*
X183452687Y-104144580D01*
X183400750Y-104190753D01*
X183334321Y-104265918D01*
X183312619Y-104319946D01*
X183333073Y-104353349D01*
X183360921Y-104343987D01*
X183410380Y-104306024D01*
X183452491Y-104265986D01*
X183508665Y-104203291D01*
X183529963Y-104163066D01*
X183521174Y-104136042D01*
G37*
X183521174Y-104136042D02*
X183520168Y-104135008D01*
X183492572Y-104124186D01*
X183452687Y-104144580D01*
X183400750Y-104190753D01*
X183334321Y-104265918D01*
X183312619Y-104319946D01*
X183333073Y-104353349D01*
X183360921Y-104343987D01*
X183410380Y-104306024D01*
X183452491Y-104265986D01*
X183508665Y-104203291D01*
X183529963Y-104163066D01*
X183521174Y-104136042D01*
G36*
X183228794Y-104431111D02*
G01*
X183225631Y-104429634D01*
X183199888Y-104431335D01*
X183159360Y-104454198D01*
X183099469Y-104501979D01*
X183015637Y-104578433D01*
X182903286Y-104687316D01*
X182863272Y-104726930D01*
X182734886Y-104855306D01*
X182639501Y-104953157D01*
X182573418Y-105025085D01*
X182532939Y-105075691D01*
X182514365Y-105109579D01*
X182514000Y-105131350D01*
X182527261Y-105145068D01*
X182554008Y-105133524D01*
X182611078Y-105089201D01*
X182693839Y-105016180D01*
X182797657Y-104918545D01*
X182913414Y-104804864D01*
X183037240Y-104680015D01*
X183127814Y-104585894D01*
X183188696Y-104518222D01*
X183223446Y-104472720D01*
X183235625Y-104445110D01*
X183228794Y-104431111D01*
G37*
X183228794Y-104431111D02*
X183225631Y-104429634D01*
X183199888Y-104431335D01*
X183159360Y-104454198D01*
X183099469Y-104501979D01*
X183015637Y-104578433D01*
X182903286Y-104687316D01*
X182863272Y-104726930D01*
X182734886Y-104855306D01*
X182639501Y-104953157D01*
X182573418Y-105025085D01*
X182532939Y-105075691D01*
X182514365Y-105109579D01*
X182514000Y-105131350D01*
X182527261Y-105145068D01*
X182554008Y-105133524D01*
X182611078Y-105089201D01*
X182693839Y-105016180D01*
X182797657Y-104918545D01*
X182913414Y-104804864D01*
X183037240Y-104680015D01*
X183127814Y-104585894D01*
X183188696Y-104518222D01*
X183223446Y-104472720D01*
X183235625Y-104445110D01*
X183228794Y-104431111D01*
G36*
X183954746Y-104002018D02*
G01*
X183907923Y-103942632D01*
X183840044Y-103867979D01*
X183759421Y-103786082D01*
X183674366Y-103704964D01*
X183593192Y-103632647D01*
X183524210Y-103577153D01*
X183475733Y-103546505D01*
X183459694Y-103543471D01*
X183433478Y-103564625D01*
X183376196Y-103618187D01*
X183292042Y-103699997D01*
X183185214Y-103805897D01*
X183059906Y-103931725D01*
X182920314Y-104073322D01*
X182770633Y-104226527D01*
X182766525Y-104230752D01*
X182584341Y-104418989D01*
X182436212Y-104574157D01*
X182319912Y-104698746D01*
X182233220Y-104795250D01*
X182173913Y-104866159D01*
X182139767Y-104913966D01*
X182128561Y-104941162D01*
X182129165Y-104945258D01*
X182124182Y-104980764D01*
X182087098Y-105037727D01*
X182014868Y-105120397D01*
X181970124Y-105167079D01*
X181881931Y-105261346D01*
X181818661Y-105342301D01*
X181768504Y-105428309D01*
X181719649Y-105537736D01*
X181699552Y-105587800D01*
X181658240Y-105692439D01*
X181623299Y-105780926D01*
X181599348Y-105841566D01*
X181591810Y-105860636D01*
X181600030Y-105895573D01*
X181616331Y-105906371D01*
X181653775Y-105903172D01*
X181726882Y-105883608D01*
X181749393Y-105876096D01*
X181749393Y-105763716D01*
X181738637Y-105755704D01*
X181741234Y-105746181D01*
X181754199Y-105714716D01*
X181780783Y-105649176D01*
X181815685Y-105562634D01*
X181822511Y-105545663D01*
X181875595Y-105431028D01*
X181939577Y-105333602D01*
X182028287Y-105233264D01*
X182057349Y-105203977D01*
X182219377Y-105043390D01*
X182346625Y-105168724D01*
X182473873Y-105294059D01*
X182316696Y-105452645D01*
X182214428Y-105547995D01*
X182118863Y-105616055D01*
X182008171Y-105671564D01*
X181967310Y-105688553D01*
X181857069Y-105731838D01*
X181786650Y-105756327D01*
X181749393Y-105763716D01*
X181749393Y-105876096D01*
X181824498Y-105851029D01*
X181917416Y-105815997D01*
X182041846Y-105764672D01*
X182133963Y-105719519D01*
X182209595Y-105670492D01*
X182284571Y-105607547D01*
X182360235Y-105534977D01*
X182446625Y-105452321D01*
X182505693Y-105403153D01*
X182543881Y-105383006D01*
X182567629Y-105387409D01*
X182569944Y-105389504D01*
X182579583Y-105397482D01*
X182591455Y-105400246D01*
X182608808Y-105394868D01*
X182614123Y-105391516D01*
X182614123Y-105282631D01*
X182429562Y-105099301D01*
X182352639Y-105021650D01*
X182291422Y-104957491D01*
X182253543Y-104914965D01*
X182245000Y-104902409D01*
X182262277Y-104881710D01*
X182311133Y-104829778D01*
X182387111Y-104751183D01*
X182485751Y-104650494D01*
X182602595Y-104532283D01*
X182733183Y-104401118D01*
X182772480Y-104361816D01*
X183299959Y-103834785D01*
X183679237Y-104216611D01*
X182614123Y-105282631D01*
X182614123Y-105391516D01*
X182634894Y-105378416D01*
X182672961Y-105347958D01*
X182726261Y-105300565D01*
X182798043Y-105233306D01*
X182891558Y-105143249D01*
X183010056Y-105027465D01*
X183156786Y-104883022D01*
X183334999Y-104706989D01*
X183419750Y-104623196D01*
X183557376Y-104485884D01*
X183682488Y-104358700D01*
X183743530Y-104295288D01*
X183743530Y-104151359D01*
X183363574Y-103773939D01*
X183418315Y-103715670D01*
X183461321Y-103674972D01*
X183489337Y-103657417D01*
X183489744Y-103657400D01*
X183512656Y-103675136D01*
X183561193Y-103722982D01*
X183627436Y-103792902D01*
X183679431Y-103849931D01*
X183852428Y-104042461D01*
X183743530Y-104151359D01*
X183743530Y-104295288D01*
X183790662Y-104246326D01*
X183877475Y-104153449D01*
X183938503Y-104084754D01*
X183969322Y-104044924D01*
X183972200Y-104038115D01*
X183954746Y-104002018D01*
G37*
X183954746Y-104002018D02*
X183907923Y-103942632D01*
X183840044Y-103867979D01*
X183759421Y-103786082D01*
X183674366Y-103704964D01*
X183593192Y-103632647D01*
X183524210Y-103577153D01*
X183475733Y-103546505D01*
X183459694Y-103543471D01*
X183433478Y-103564625D01*
X183376196Y-103618187D01*
X183292042Y-103699997D01*
X183185214Y-103805897D01*
X183059906Y-103931725D01*
X182920314Y-104073322D01*
X182770633Y-104226527D01*
X182766525Y-104230752D01*
X182584341Y-104418989D01*
X182436212Y-104574157D01*
X182319912Y-104698746D01*
X182233220Y-104795250D01*
X182173913Y-104866159D01*
X182139767Y-104913966D01*
X182128561Y-104941162D01*
X182129165Y-104945258D01*
X182124182Y-104980764D01*
X182087098Y-105037727D01*
X182014868Y-105120397D01*
X181970124Y-105167079D01*
X181881931Y-105261346D01*
X181818661Y-105342301D01*
X181768504Y-105428309D01*
X181719649Y-105537736D01*
X181699552Y-105587800D01*
X181658240Y-105692439D01*
X181623299Y-105780926D01*
X181599348Y-105841566D01*
X181591810Y-105860636D01*
X181600030Y-105895573D01*
X181616331Y-105906371D01*
X181653775Y-105903172D01*
X181726882Y-105883608D01*
X181749393Y-105876096D01*
X181749393Y-105763716D01*
X181738637Y-105755704D01*
X181741234Y-105746181D01*
X181754199Y-105714716D01*
X181780783Y-105649176D01*
X181815685Y-105562634D01*
X181822511Y-105545663D01*
X181875595Y-105431028D01*
X181939577Y-105333602D01*
X182028287Y-105233264D01*
X182057349Y-105203977D01*
X182219377Y-105043390D01*
X182346625Y-105168724D01*
X182473873Y-105294059D01*
X182316696Y-105452645D01*
X182214428Y-105547995D01*
X182118863Y-105616055D01*
X182008171Y-105671564D01*
X181967310Y-105688553D01*
X181857069Y-105731838D01*
X181786650Y-105756327D01*
X181749393Y-105763716D01*
X181749393Y-105876096D01*
X181824498Y-105851029D01*
X181917416Y-105815997D01*
X182041846Y-105764672D01*
X182133963Y-105719519D01*
X182209595Y-105670492D01*
X182284571Y-105607547D01*
X182360235Y-105534977D01*
X182446625Y-105452321D01*
X182505693Y-105403153D01*
X182543881Y-105383006D01*
X182567629Y-105387409D01*
X182569944Y-105389504D01*
X182579583Y-105397482D01*
X182591455Y-105400246D01*
X182608808Y-105394868D01*
X182614123Y-105391516D01*
X182614123Y-105282631D01*
X182429562Y-105099301D01*
X182352639Y-105021650D01*
X182291422Y-104957491D01*
X182253543Y-104914965D01*
X182245000Y-104902409D01*
X182262277Y-104881710D01*
X182311133Y-104829778D01*
X182387111Y-104751183D01*
X182485751Y-104650494D01*
X182602595Y-104532283D01*
X182733183Y-104401118D01*
X182772480Y-104361816D01*
X183299959Y-103834785D01*
X183679237Y-104216611D01*
X182614123Y-105282631D01*
X182614123Y-105391516D01*
X182634894Y-105378416D01*
X182672961Y-105347958D01*
X182726261Y-105300565D01*
X182798043Y-105233306D01*
X182891558Y-105143249D01*
X183010056Y-105027465D01*
X183156786Y-104883022D01*
X183334999Y-104706989D01*
X183419750Y-104623196D01*
X183557376Y-104485884D01*
X183682488Y-104358700D01*
X183743530Y-104295288D01*
X183743530Y-104151359D01*
X183363574Y-103773939D01*
X183418315Y-103715670D01*
X183461321Y-103674972D01*
X183489337Y-103657417D01*
X183489744Y-103657400D01*
X183512656Y-103675136D01*
X183561193Y-103722982D01*
X183627436Y-103792902D01*
X183679431Y-103849931D01*
X183852428Y-104042461D01*
X183743530Y-104151359D01*
X183743530Y-104295288D01*
X183790662Y-104246326D01*
X183877475Y-104153449D01*
X183938503Y-104084754D01*
X183969322Y-104044924D01*
X183972200Y-104038115D01*
X183954746Y-104002018D01*
G36*
X184003820Y-105725506D02*
G01*
X183950229Y-105678793D01*
X183868150Y-105610944D01*
X183763509Y-105526832D01*
X183642230Y-105431329D01*
X183604081Y-105401646D01*
X183451699Y-105284861D01*
X183334249Y-105198616D01*
X183247853Y-105140673D01*
X183188633Y-105108793D01*
X183152710Y-105100739D01*
X183136206Y-105114275D01*
X183134000Y-105130432D01*
X183153036Y-105152426D01*
X183205996Y-105200275D01*
X183286661Y-105268705D01*
X183388809Y-105352440D01*
X183506222Y-105446207D01*
X183508650Y-105448122D01*
X183626665Y-105541826D01*
X183730082Y-105625149D01*
X183812570Y-105692892D01*
X183867798Y-105739854D01*
X183889435Y-105760835D01*
X183889477Y-105760939D01*
X183876003Y-105784420D01*
X183835373Y-105841500D01*
X183772274Y-105926202D01*
X183691397Y-106032547D01*
X183597431Y-106154557D01*
X183495063Y-106286252D01*
X183388985Y-106421654D01*
X183283884Y-106554785D01*
X183184450Y-106679666D01*
X183095372Y-106790318D01*
X183021339Y-106880763D01*
X182967039Y-106945022D01*
X182937163Y-106977117D01*
X182933686Y-106979573D01*
X182907811Y-106966313D01*
X182851101Y-106924830D01*
X182770647Y-106860696D01*
X182673538Y-106779487D01*
X182615579Y-106729545D01*
X182503258Y-106631240D01*
X182424111Y-106559527D01*
X182372786Y-106507883D01*
X182343933Y-106469786D01*
X182332201Y-106438714D01*
X182332238Y-106408146D01*
X182335521Y-106388197D01*
X182334442Y-106284399D01*
X182295874Y-106200312D01*
X182230139Y-106139357D01*
X182147558Y-106104957D01*
X182058456Y-106100533D01*
X181973153Y-106129507D01*
X181901974Y-106195301D01*
X181877925Y-106236509D01*
X181844125Y-106332935D01*
X181849438Y-106411401D01*
X181895916Y-106488688D01*
X181910868Y-106506080D01*
X182000760Y-106571770D01*
X182056740Y-106581937D01*
X182056740Y-106494164D01*
X181996606Y-106463398D01*
X181954543Y-106409950D01*
X181939803Y-106342880D01*
X181961641Y-106271250D01*
X181982237Y-106243851D01*
X182046664Y-106204290D01*
X182120436Y-106202421D01*
X182188054Y-106232510D01*
X182234015Y-106288823D01*
X182245000Y-106341037D01*
X182227467Y-106403494D01*
X182194200Y-106451400D01*
X182125689Y-106493185D01*
X182056740Y-106494164D01*
X182056740Y-106581937D01*
X182108679Y-106591371D01*
X182208843Y-106571292D01*
X182236423Y-106569556D01*
X182274570Y-106584613D01*
X182329438Y-106620662D01*
X182407179Y-106681902D01*
X182513943Y-106772533D01*
X182551743Y-106805377D01*
X182652698Y-106895042D01*
X182738378Y-106974261D01*
X182802101Y-107036609D01*
X182837186Y-107075658D01*
X182841900Y-107084448D01*
X182827137Y-107113428D01*
X182787440Y-107172233D01*
X182729694Y-107251943D01*
X182660787Y-107343634D01*
X182587606Y-107438384D01*
X182517038Y-107527270D01*
X182455970Y-107601371D01*
X182411288Y-107651764D01*
X182390276Y-107669552D01*
X182365626Y-107654545D01*
X182307548Y-107611924D01*
X182221934Y-107546241D01*
X182114678Y-107462046D01*
X181991672Y-107363890D01*
X181929079Y-107313406D01*
X181756558Y-107171343D01*
X181624285Y-107056994D01*
X181532665Y-106970730D01*
X181482103Y-106912922D01*
X181471916Y-106893296D01*
X181470233Y-106845065D01*
X181496991Y-106796636D01*
X181545763Y-106745841D01*
X181602865Y-106684184D01*
X181629059Y-106626762D01*
X181635400Y-106549182D01*
X181635400Y-106548079D01*
X181626142Y-106458709D01*
X181593828Y-106397630D01*
X181578250Y-106381511D01*
X181483994Y-106322242D01*
X181385569Y-106307115D01*
X181293142Y-106331535D01*
X181216882Y-106390910D01*
X181166957Y-106480646D01*
X181152800Y-106573714D01*
X181174155Y-106661098D01*
X181228805Y-106738637D01*
X181302630Y-106787479D01*
X181315971Y-106791547D01*
X181359928Y-106813240D01*
X181380784Y-106859693D01*
X181386223Y-106901901D01*
X181390907Y-106934160D01*
X181402448Y-106965217D01*
X181416288Y-106985920D01*
X181416288Y-106700984D01*
X181349777Y-106689208D01*
X181294737Y-106647875D01*
X181259786Y-106587442D01*
X181253539Y-106518366D01*
X181284611Y-106451106D01*
X181294315Y-106440515D01*
X181348647Y-106410813D01*
X181408029Y-106400600D01*
X181481818Y-106421204D01*
X181529913Y-106473482D01*
X181548237Y-106543137D01*
X181532712Y-106615873D01*
X181485654Y-106672745D01*
X181416288Y-106700984D01*
X181416288Y-106985920D01*
X181425692Y-106999988D01*
X181465483Y-107043390D01*
X181526666Y-107100342D01*
X181614086Y-107175761D01*
X181732588Y-107274564D01*
X181842960Y-107365476D01*
X181972203Y-107471813D01*
X182088331Y-107567595D01*
X182185573Y-107648043D01*
X182258156Y-107708376D01*
X182300307Y-107743814D01*
X182308346Y-107750879D01*
X182301894Y-107776805D01*
X182270817Y-107828958D01*
X182224137Y-107895505D01*
X182170878Y-107964618D01*
X182120064Y-108024463D01*
X182080719Y-108063212D01*
X182063983Y-108071253D01*
X182040714Y-108054330D01*
X181982067Y-108008746D01*
X181892165Y-107937783D01*
X181775129Y-107844724D01*
X181635079Y-107732851D01*
X181476140Y-107605449D01*
X181302431Y-107465799D01*
X181181522Y-107368377D01*
X180318592Y-106672453D01*
X180523386Y-106422227D01*
X180728179Y-106172000D01*
X180816522Y-106172000D01*
X180816522Y-106065557D01*
X180749463Y-106030665D01*
X180734387Y-106013250D01*
X180702620Y-105936792D01*
X180720716Y-105866335D01*
X180779315Y-105806770D01*
X180831596Y-105773049D01*
X180871237Y-105770031D01*
X180919015Y-105792314D01*
X180974258Y-105847340D01*
X180997551Y-105921332D01*
X180985416Y-105995084D01*
X180961858Y-106029115D01*
X180894418Y-106065535D01*
X180816522Y-106065557D01*
X180816522Y-106172000D01*
X180849332Y-106172000D01*
X180930521Y-106166848D01*
X180984330Y-106145003D01*
X181033682Y-106096880D01*
X181036243Y-106093852D01*
X181092772Y-105994640D01*
X181099985Y-105894231D01*
X181058040Y-105798811D01*
X181027754Y-105763647D01*
X180939514Y-105706737D01*
X180836858Y-105687603D01*
X180737461Y-105708208D01*
X180703196Y-105727579D01*
X180644092Y-105796248D01*
X180611380Y-105888970D01*
X180612039Y-105982854D01*
X180618638Y-106004895D01*
X180637730Y-106062125D01*
X180644800Y-106095765D01*
X180629961Y-106120995D01*
X180590310Y-106176199D01*
X180533145Y-106251987D01*
X180465765Y-106338970D01*
X180395469Y-106427757D01*
X180329555Y-106508960D01*
X180275322Y-106573187D01*
X180262176Y-106588013D01*
X180236315Y-106582013D01*
X180183245Y-106549875D01*
X180113212Y-106499784D01*
X180036463Y-106439921D01*
X179963242Y-106378469D01*
X179903795Y-106323610D01*
X179868369Y-106283529D01*
X179863076Y-106269275D01*
X179879884Y-106244152D01*
X179923635Y-106184254D01*
X179990239Y-106095025D01*
X180075607Y-105981910D01*
X180175648Y-105850353D01*
X180286274Y-105705799D01*
X180289292Y-105701868D01*
X180414863Y-105538756D01*
X180513890Y-105411698D01*
X180590464Y-105316226D01*
X180648676Y-105247873D01*
X180692619Y-105202170D01*
X180726383Y-105174649D01*
X180754061Y-105160842D01*
X180779744Y-105156281D01*
X180789139Y-105156043D01*
X180854030Y-105166985D01*
X180885352Y-105204651D01*
X180886559Y-105208247D01*
X180928662Y-105265412D01*
X181004118Y-105307238D01*
X181096177Y-105326790D01*
X181096717Y-105326761D01*
X181096717Y-105233504D01*
X181024597Y-105211557D01*
X180996051Y-105190164D01*
X180956296Y-105124824D01*
X180953931Y-105048774D01*
X180988040Y-104982453D01*
X181006052Y-104966941D01*
X181086790Y-104930881D01*
X181159406Y-104944134D01*
X181203600Y-104978200D01*
X181246064Y-105047283D01*
X181247604Y-105116550D01*
X181217224Y-105176806D01*
X181163927Y-105218855D01*
X181096717Y-105233504D01*
X181096717Y-105326761D01*
X181163886Y-105323079D01*
X181249378Y-105289272D01*
X181306317Y-105224472D01*
X181349879Y-105119490D01*
X181344387Y-105023344D01*
X181289365Y-104930013D01*
X181282400Y-104922028D01*
X181221534Y-104865941D01*
X181158619Y-104842771D01*
X181106629Y-104839655D01*
X180997363Y-104861753D01*
X180913405Y-104924085D01*
X180872469Y-104993687D01*
X180833170Y-105038087D01*
X180752818Y-105063127D01*
X180751671Y-105063311D01*
X180720705Y-105069867D01*
X180691063Y-105081990D01*
X180658539Y-105104215D01*
X180618923Y-105141074D01*
X180568009Y-105197102D01*
X180501587Y-105276830D01*
X180415450Y-105384793D01*
X180305390Y-105525524D01*
X180217196Y-105639080D01*
X180103691Y-105784458D01*
X179999841Y-105915657D01*
X179909795Y-106027581D01*
X179837703Y-106115131D01*
X179787714Y-106173212D01*
X179763977Y-106196725D01*
X179763059Y-106196980D01*
X179726533Y-106179557D01*
X179669419Y-106138157D01*
X179603072Y-106082902D01*
X179538849Y-106023917D01*
X179488106Y-105971328D01*
X179462198Y-105935259D01*
X179461260Y-105927902D01*
X179478503Y-105901656D01*
X179522680Y-105839789D01*
X179590462Y-105746747D01*
X179678523Y-105626976D01*
X179783535Y-105484924D01*
X179902171Y-105325037D01*
X180031104Y-105151761D01*
X180167005Y-104969544D01*
X180306549Y-104782833D01*
X180446407Y-104596073D01*
X180583253Y-104413712D01*
X180713759Y-104240197D01*
X180834597Y-104079973D01*
X180942441Y-103937488D01*
X181033963Y-103817189D01*
X181105836Y-103723522D01*
X181154732Y-103660934D01*
X181177324Y-103633872D01*
X181178363Y-103633114D01*
X181200939Y-103647883D01*
X181258038Y-103690089D01*
X181344337Y-103755656D01*
X181454514Y-103840509D01*
X181583246Y-103940573D01*
X181724463Y-104051185D01*
X181896221Y-104185268D01*
X182032849Y-104289423D01*
X182138337Y-104366132D01*
X182216672Y-104417876D01*
X182271845Y-104447138D01*
X182307843Y-104456400D01*
X182328656Y-104448143D01*
X182336657Y-104432100D01*
X182319285Y-104410590D01*
X182267357Y-104363422D01*
X182186992Y-104295375D01*
X182084310Y-104211227D01*
X181965427Y-104115756D01*
X181836463Y-104013740D01*
X181703536Y-103909957D01*
X181572764Y-103809184D01*
X181450267Y-103716201D01*
X181342162Y-103635785D01*
X181254568Y-103572713D01*
X181193604Y-103531764D01*
X181165716Y-103517700D01*
X181146189Y-103537399D01*
X181099687Y-103593624D01*
X181029452Y-103682068D01*
X180938728Y-103798421D01*
X180830759Y-103938378D01*
X180708788Y-104097629D01*
X180576060Y-104271868D01*
X180435818Y-104456786D01*
X180291306Y-104648075D01*
X180145767Y-104841429D01*
X180002445Y-105032538D01*
X179864583Y-105217096D01*
X179735426Y-105390794D01*
X179618217Y-105549326D01*
X179516200Y-105688382D01*
X179432618Y-105803655D01*
X179370716Y-105890838D01*
X179333736Y-105945622D01*
X179324277Y-105963220D01*
X179343552Y-105981869D01*
X179399160Y-106029813D01*
X179487914Y-106104428D01*
X179606628Y-106203088D01*
X179752116Y-106323169D01*
X179921192Y-106462045D01*
X180110671Y-106617091D01*
X180317365Y-106785682D01*
X180538089Y-106965192D01*
X180687467Y-107086400D01*
X180916213Y-107271484D01*
X181133805Y-107446848D01*
X181336977Y-107609903D01*
X181522463Y-107758062D01*
X181686995Y-107888736D01*
X181827308Y-107999335D01*
X181940135Y-108087272D01*
X182022210Y-108149958D01*
X182070267Y-108184805D01*
X182081671Y-108191300D01*
X182101586Y-108171982D01*
X182149456Y-108116813D01*
X182221960Y-108029977D01*
X182315779Y-107915655D01*
X182427591Y-107778029D01*
X182554078Y-107621281D01*
X182691918Y-107449593D01*
X182837791Y-107267145D01*
X182988377Y-107078121D01*
X183140356Y-106886702D01*
X183290407Y-106697070D01*
X183435211Y-106513407D01*
X183571447Y-106339894D01*
X183695794Y-106180714D01*
X183804933Y-106040048D01*
X183895543Y-105922078D01*
X183964305Y-105830986D01*
X184007897Y-105770954D01*
X184023000Y-105746210D01*
X184003820Y-105725506D01*
G37*
X184003820Y-105725506D02*
X183950229Y-105678793D01*
X183868150Y-105610944D01*
X183763509Y-105526832D01*
X183642230Y-105431329D01*
X183604081Y-105401646D01*
X183451699Y-105284861D01*
X183334249Y-105198616D01*
X183247853Y-105140673D01*
X183188633Y-105108793D01*
X183152710Y-105100739D01*
X183136206Y-105114275D01*
X183134000Y-105130432D01*
X183153036Y-105152426D01*
X183205996Y-105200275D01*
X183286661Y-105268705D01*
X183388809Y-105352440D01*
X183506222Y-105446207D01*
X183508650Y-105448122D01*
X183626665Y-105541826D01*
X183730082Y-105625149D01*
X183812570Y-105692892D01*
X183867798Y-105739854D01*
X183889435Y-105760835D01*
X183889477Y-105760939D01*
X183876003Y-105784420D01*
X183835373Y-105841500D01*
X183772274Y-105926202D01*
X183691397Y-106032547D01*
X183597431Y-106154557D01*
X183495063Y-106286252D01*
X183388985Y-106421654D01*
X183283884Y-106554785D01*
X183184450Y-106679666D01*
X183095372Y-106790318D01*
X183021339Y-106880763D01*
X182967039Y-106945022D01*
X182937163Y-106977117D01*
X182933686Y-106979573D01*
X182907811Y-106966313D01*
X182851101Y-106924830D01*
X182770647Y-106860696D01*
X182673538Y-106779487D01*
X182615579Y-106729545D01*
X182503258Y-106631240D01*
X182424111Y-106559527D01*
X182372786Y-106507883D01*
X182343933Y-106469786D01*
X182332201Y-106438714D01*
X182332238Y-106408146D01*
X182335521Y-106388197D01*
X182334442Y-106284399D01*
X182295874Y-106200312D01*
X182230139Y-106139357D01*
X182147558Y-106104957D01*
X182058456Y-106100533D01*
X181973153Y-106129507D01*
X181901974Y-106195301D01*
X181877925Y-106236509D01*
X181844125Y-106332935D01*
X181849438Y-106411401D01*
X181895916Y-106488688D01*
X181910868Y-106506080D01*
X182000760Y-106571770D01*
X182056740Y-106581937D01*
X182056740Y-106494164D01*
X181996606Y-106463398D01*
X181954543Y-106409950D01*
X181939803Y-106342880D01*
X181961641Y-106271250D01*
X181982237Y-106243851D01*
X182046664Y-106204290D01*
X182120436Y-106202421D01*
X182188054Y-106232510D01*
X182234015Y-106288823D01*
X182245000Y-106341037D01*
X182227467Y-106403494D01*
X182194200Y-106451400D01*
X182125689Y-106493185D01*
X182056740Y-106494164D01*
X182056740Y-106581937D01*
X182108679Y-106591371D01*
X182208843Y-106571292D01*
X182236423Y-106569556D01*
X182274570Y-106584613D01*
X182329438Y-106620662D01*
X182407179Y-106681902D01*
X182513943Y-106772533D01*
X182551743Y-106805377D01*
X182652698Y-106895042D01*
X182738378Y-106974261D01*
X182802101Y-107036609D01*
X182837186Y-107075658D01*
X182841900Y-107084448D01*
X182827137Y-107113428D01*
X182787440Y-107172233D01*
X182729694Y-107251943D01*
X182660787Y-107343634D01*
X182587606Y-107438384D01*
X182517038Y-107527270D01*
X182455970Y-107601371D01*
X182411288Y-107651764D01*
X182390276Y-107669552D01*
X182365626Y-107654545D01*
X182307548Y-107611924D01*
X182221934Y-107546241D01*
X182114678Y-107462046D01*
X181991672Y-107363890D01*
X181929079Y-107313406D01*
X181756558Y-107171343D01*
X181624285Y-107056994D01*
X181532665Y-106970730D01*
X181482103Y-106912922D01*
X181471916Y-106893296D01*
X181470233Y-106845065D01*
X181496991Y-106796636D01*
X181545763Y-106745841D01*
X181602865Y-106684184D01*
X181629059Y-106626762D01*
X181635400Y-106549182D01*
X181635400Y-106548079D01*
X181626142Y-106458709D01*
X181593828Y-106397630D01*
X181578250Y-106381511D01*
X181483994Y-106322242D01*
X181385569Y-106307115D01*
X181293142Y-106331535D01*
X181216882Y-106390910D01*
X181166957Y-106480646D01*
X181152800Y-106573714D01*
X181174155Y-106661098D01*
X181228805Y-106738637D01*
X181302630Y-106787479D01*
X181315971Y-106791547D01*
X181359928Y-106813240D01*
X181380784Y-106859693D01*
X181386223Y-106901901D01*
X181390907Y-106934160D01*
X181402448Y-106965217D01*
X181416288Y-106985920D01*
X181416288Y-106700984D01*
X181349777Y-106689208D01*
X181294737Y-106647875D01*
X181259786Y-106587442D01*
X181253539Y-106518366D01*
X181284611Y-106451106D01*
X181294315Y-106440515D01*
X181348647Y-106410813D01*
X181408029Y-106400600D01*
X181481818Y-106421204D01*
X181529913Y-106473482D01*
X181548237Y-106543137D01*
X181532712Y-106615873D01*
X181485654Y-106672745D01*
X181416288Y-106700984D01*
X181416288Y-106985920D01*
X181425692Y-106999988D01*
X181465483Y-107043390D01*
X181526666Y-107100342D01*
X181614086Y-107175761D01*
X181732588Y-107274564D01*
X181842960Y-107365476D01*
X181972203Y-107471813D01*
X182088331Y-107567595D01*
X182185573Y-107648043D01*
X182258156Y-107708376D01*
X182300307Y-107743814D01*
X182308346Y-107750879D01*
X182301894Y-107776805D01*
X182270817Y-107828958D01*
X182224137Y-107895505D01*
X182170878Y-107964618D01*
X182120064Y-108024463D01*
X182080719Y-108063212D01*
X182063983Y-108071253D01*
X182040714Y-108054330D01*
X181982067Y-108008746D01*
X181892165Y-107937783D01*
X181775129Y-107844724D01*
X181635079Y-107732851D01*
X181476140Y-107605449D01*
X181302431Y-107465799D01*
X181181522Y-107368377D01*
X180318592Y-106672453D01*
X180523386Y-106422227D01*
X180728179Y-106172000D01*
X180816522Y-106172000D01*
X180816522Y-106065557D01*
X180749463Y-106030665D01*
X180734387Y-106013250D01*
X180702620Y-105936792D01*
X180720716Y-105866335D01*
X180779315Y-105806770D01*
X180831596Y-105773049D01*
X180871237Y-105770031D01*
X180919015Y-105792314D01*
X180974258Y-105847340D01*
X180997551Y-105921332D01*
X180985416Y-105995084D01*
X180961858Y-106029115D01*
X180894418Y-106065535D01*
X180816522Y-106065557D01*
X180816522Y-106172000D01*
X180849332Y-106172000D01*
X180930521Y-106166848D01*
X180984330Y-106145003D01*
X181033682Y-106096880D01*
X181036243Y-106093852D01*
X181092772Y-105994640D01*
X181099985Y-105894231D01*
X181058040Y-105798811D01*
X181027754Y-105763647D01*
X180939514Y-105706737D01*
X180836858Y-105687603D01*
X180737461Y-105708208D01*
X180703196Y-105727579D01*
X180644092Y-105796248D01*
X180611380Y-105888970D01*
X180612039Y-105982854D01*
X180618638Y-106004895D01*
X180637730Y-106062125D01*
X180644800Y-106095765D01*
X180629961Y-106120995D01*
X180590310Y-106176199D01*
X180533145Y-106251987D01*
X180465765Y-106338970D01*
X180395469Y-106427757D01*
X180329555Y-106508960D01*
X180275322Y-106573187D01*
X180262176Y-106588013D01*
X180236315Y-106582013D01*
X180183245Y-106549875D01*
X180113212Y-106499784D01*
X180036463Y-106439921D01*
X179963242Y-106378469D01*
X179903795Y-106323610D01*
X179868369Y-106283529D01*
X179863076Y-106269275D01*
X179879884Y-106244152D01*
X179923635Y-106184254D01*
X179990239Y-106095025D01*
X180075607Y-105981910D01*
X180175648Y-105850353D01*
X180286274Y-105705799D01*
X180289292Y-105701868D01*
X180414863Y-105538756D01*
X180513890Y-105411698D01*
X180590464Y-105316226D01*
X180648676Y-105247873D01*
X180692619Y-105202170D01*
X180726383Y-105174649D01*
X180754061Y-105160842D01*
X180779744Y-105156281D01*
X180789139Y-105156043D01*
X180854030Y-105166985D01*
X180885352Y-105204651D01*
X180886559Y-105208247D01*
X180928662Y-105265412D01*
X181004118Y-105307238D01*
X181096177Y-105326790D01*
X181096717Y-105326761D01*
X181096717Y-105233504D01*
X181024597Y-105211557D01*
X180996051Y-105190164D01*
X180956296Y-105124824D01*
X180953931Y-105048774D01*
X180988040Y-104982453D01*
X181006052Y-104966941D01*
X181086790Y-104930881D01*
X181159406Y-104944134D01*
X181203600Y-104978200D01*
X181246064Y-105047283D01*
X181247604Y-105116550D01*
X181217224Y-105176806D01*
X181163927Y-105218855D01*
X181096717Y-105233504D01*
X181096717Y-105326761D01*
X181163886Y-105323079D01*
X181249378Y-105289272D01*
X181306317Y-105224472D01*
X181349879Y-105119490D01*
X181344387Y-105023344D01*
X181289365Y-104930013D01*
X181282400Y-104922028D01*
X181221534Y-104865941D01*
X181158619Y-104842771D01*
X181106629Y-104839655D01*
X180997363Y-104861753D01*
X180913405Y-104924085D01*
X180872469Y-104993687D01*
X180833170Y-105038087D01*
X180752818Y-105063127D01*
X180751671Y-105063311D01*
X180720705Y-105069867D01*
X180691063Y-105081990D01*
X180658539Y-105104215D01*
X180618923Y-105141074D01*
X180568009Y-105197102D01*
X180501587Y-105276830D01*
X180415450Y-105384793D01*
X180305390Y-105525524D01*
X180217196Y-105639080D01*
X180103691Y-105784458D01*
X179999841Y-105915657D01*
X179909795Y-106027581D01*
X179837703Y-106115131D01*
X179787714Y-106173212D01*
X179763977Y-106196725D01*
X179763059Y-106196980D01*
X179726533Y-106179557D01*
X179669419Y-106138157D01*
X179603072Y-106082902D01*
X179538849Y-106023917D01*
X179488106Y-105971328D01*
X179462198Y-105935259D01*
X179461260Y-105927902D01*
X179478503Y-105901656D01*
X179522680Y-105839789D01*
X179590462Y-105746747D01*
X179678523Y-105626976D01*
X179783535Y-105484924D01*
X179902171Y-105325037D01*
X180031104Y-105151761D01*
X180167005Y-104969544D01*
X180306549Y-104782833D01*
X180446407Y-104596073D01*
X180583253Y-104413712D01*
X180713759Y-104240197D01*
X180834597Y-104079973D01*
X180942441Y-103937488D01*
X181033963Y-103817189D01*
X181105836Y-103723522D01*
X181154732Y-103660934D01*
X181177324Y-103633872D01*
X181178363Y-103633114D01*
X181200939Y-103647883D01*
X181258038Y-103690089D01*
X181344337Y-103755656D01*
X181454514Y-103840509D01*
X181583246Y-103940573D01*
X181724463Y-104051185D01*
X181896221Y-104185268D01*
X182032849Y-104289423D01*
X182138337Y-104366132D01*
X182216672Y-104417876D01*
X182271845Y-104447138D01*
X182307843Y-104456400D01*
X182328656Y-104448143D01*
X182336657Y-104432100D01*
X182319285Y-104410590D01*
X182267357Y-104363422D01*
X182186992Y-104295375D01*
X182084310Y-104211227D01*
X181965427Y-104115756D01*
X181836463Y-104013740D01*
X181703536Y-103909957D01*
X181572764Y-103809184D01*
X181450267Y-103716201D01*
X181342162Y-103635785D01*
X181254568Y-103572713D01*
X181193604Y-103531764D01*
X181165716Y-103517700D01*
X181146189Y-103537399D01*
X181099687Y-103593624D01*
X181029452Y-103682068D01*
X180938728Y-103798421D01*
X180830759Y-103938378D01*
X180708788Y-104097629D01*
X180576060Y-104271868D01*
X180435818Y-104456786D01*
X180291306Y-104648075D01*
X180145767Y-104841429D01*
X180002445Y-105032538D01*
X179864583Y-105217096D01*
X179735426Y-105390794D01*
X179618217Y-105549326D01*
X179516200Y-105688382D01*
X179432618Y-105803655D01*
X179370716Y-105890838D01*
X179333736Y-105945622D01*
X179324277Y-105963220D01*
X179343552Y-105981869D01*
X179399160Y-106029813D01*
X179487914Y-106104428D01*
X179606628Y-106203088D01*
X179752116Y-106323169D01*
X179921192Y-106462045D01*
X180110671Y-106617091D01*
X180317365Y-106785682D01*
X180538089Y-106965192D01*
X180687467Y-107086400D01*
X180916213Y-107271484D01*
X181133805Y-107446848D01*
X181336977Y-107609903D01*
X181522463Y-107758062D01*
X181686995Y-107888736D01*
X181827308Y-107999335D01*
X181940135Y-108087272D01*
X182022210Y-108149958D01*
X182070267Y-108184805D01*
X182081671Y-108191300D01*
X182101586Y-108171982D01*
X182149456Y-108116813D01*
X182221960Y-108029977D01*
X182315779Y-107915655D01*
X182427591Y-107778029D01*
X182554078Y-107621281D01*
X182691918Y-107449593D01*
X182837791Y-107267145D01*
X182988377Y-107078121D01*
X183140356Y-106886702D01*
X183290407Y-106697070D01*
X183435211Y-106513407D01*
X183571447Y-106339894D01*
X183695794Y-106180714D01*
X183804933Y-106040048D01*
X183895543Y-105922078D01*
X183964305Y-105830986D01*
X184007897Y-105770954D01*
X184023000Y-105746210D01*
X184003820Y-105725506D01*
G36*
X178358800Y-110515400D02*
G01*
X178358800Y-111074200D01*
X178536600Y-111074200D01*
X178536600Y-110515400D01*
X178358800Y-110515400D01*
G37*
X178358800Y-110515400D02*
X178358800Y-111074200D01*
X178536600Y-111074200D01*
X178536600Y-110515400D01*
X178358800Y-110515400D01*
G36*
X178949464Y-100681007D02*
G01*
X178927829Y-100563910D01*
X178886408Y-100477013D01*
X178820814Y-100410621D01*
X178740187Y-100361750D01*
X178608023Y-100317454D01*
X178455729Y-100301601D01*
X178303217Y-100314168D01*
X178170397Y-100355135D01*
X178155921Y-100362384D01*
X178072561Y-100416233D01*
X178014511Y-100481197D01*
X177977791Y-100566825D01*
X177958422Y-100682668D01*
X177952423Y-100838275D01*
X177952400Y-100850758D01*
X177953672Y-100971463D01*
X177959035Y-101054527D01*
X177970816Y-101113082D01*
X177991340Y-101160256D01*
X178013441Y-101195438D01*
X178090265Y-101280777D01*
X178188422Y-101336026D01*
X178316089Y-101364145D01*
X178459398Y-101367565D01*
X178459398Y-101193600D01*
X178313415Y-101183395D01*
X178210588Y-101151640D01*
X178147309Y-101096629D01*
X178122660Y-101034344D01*
X178110106Y-100922865D01*
X178110295Y-100801587D01*
X178122305Y-100691518D01*
X178140750Y-100623329D01*
X178177843Y-100556433D01*
X178228972Y-100513965D01*
X178305117Y-100491037D01*
X178417260Y-100482759D01*
X178457314Y-100482400D01*
X178558204Y-100485093D01*
X178625035Y-100495888D01*
X178674388Y-100518862D01*
X178706634Y-100543701D01*
X178740563Y-100575718D01*
X178761562Y-100608893D01*
X178772724Y-100655810D01*
X178777139Y-100729052D01*
X178777900Y-100833755D01*
X178776625Y-100945518D01*
X178770988Y-101019477D01*
X178758277Y-101068602D01*
X178735778Y-101105862D01*
X178716323Y-101128054D01*
X178679843Y-101161734D01*
X178639525Y-101181421D01*
X178580956Y-101190792D01*
X178489727Y-101193524D01*
X178459398Y-101193600D01*
X178459398Y-101367565D01*
X178481442Y-101368092D01*
X178489608Y-101367761D01*
X178605820Y-101360048D01*
X178686334Y-101346473D01*
X178746195Y-101323556D01*
X178784634Y-101299548D01*
X178859158Y-101236006D01*
X178909359Y-101163579D01*
X178939364Y-101071135D01*
X178953299Y-100947542D01*
X178955700Y-100838000D01*
X178949464Y-100681007D01*
G37*
X178949464Y-100681007D02*
X178927829Y-100563910D01*
X178886408Y-100477013D01*
X178820814Y-100410621D01*
X178740187Y-100361750D01*
X178608023Y-100317454D01*
X178455729Y-100301601D01*
X178303217Y-100314168D01*
X178170397Y-100355135D01*
X178155921Y-100362384D01*
X178072561Y-100416233D01*
X178014511Y-100481197D01*
X177977791Y-100566825D01*
X177958422Y-100682668D01*
X177952423Y-100838275D01*
X177952400Y-100850758D01*
X177953672Y-100971463D01*
X177959035Y-101054527D01*
X177970816Y-101113082D01*
X177991340Y-101160256D01*
X178013441Y-101195438D01*
X178090265Y-101280777D01*
X178188422Y-101336026D01*
X178316089Y-101364145D01*
X178459398Y-101367565D01*
X178459398Y-101193600D01*
X178313415Y-101183395D01*
X178210588Y-101151640D01*
X178147309Y-101096629D01*
X178122660Y-101034344D01*
X178110106Y-100922865D01*
X178110295Y-100801587D01*
X178122305Y-100691518D01*
X178140750Y-100623329D01*
X178177843Y-100556433D01*
X178228972Y-100513965D01*
X178305117Y-100491037D01*
X178417260Y-100482759D01*
X178457314Y-100482400D01*
X178558204Y-100485093D01*
X178625035Y-100495888D01*
X178674388Y-100518862D01*
X178706634Y-100543701D01*
X178740563Y-100575718D01*
X178761562Y-100608893D01*
X178772724Y-100655810D01*
X178777139Y-100729052D01*
X178777900Y-100833755D01*
X178776625Y-100945518D01*
X178770988Y-101019477D01*
X178758277Y-101068602D01*
X178735778Y-101105862D01*
X178716323Y-101128054D01*
X178679843Y-101161734D01*
X178639525Y-101181421D01*
X178580956Y-101190792D01*
X178489727Y-101193524D01*
X178459398Y-101193600D01*
X178459398Y-101367565D01*
X178481442Y-101368092D01*
X178489608Y-101367761D01*
X178605820Y-101360048D01*
X178686334Y-101346473D01*
X178746195Y-101323556D01*
X178784634Y-101299548D01*
X178859158Y-101236006D01*
X178909359Y-101163579D01*
X178939364Y-101071135D01*
X178953299Y-100947542D01*
X178955700Y-100838000D01*
X178949464Y-100681007D01*
G36*
X178536600Y-102362000D02*
G01*
X178536600Y-101727000D01*
X178943000Y-101727000D01*
X178943000Y-101549200D01*
X177952400Y-101549200D01*
X177952400Y-101727000D01*
X178358800Y-101727000D01*
X178358800Y-102362000D01*
X177952400Y-102362000D01*
X177952400Y-102539800D01*
X178943000Y-102539800D01*
X178943000Y-102362000D01*
X178536600Y-102362000D01*
G37*
X178536600Y-102362000D02*
X178536600Y-101727000D01*
X178943000Y-101727000D01*
X178943000Y-101549200D01*
X177952400Y-101549200D01*
X177952400Y-101727000D01*
X178358800Y-101727000D01*
X178358800Y-102362000D01*
X177952400Y-102362000D01*
X177952400Y-102539800D01*
X178943000Y-102539800D01*
X178943000Y-102362000D01*
X178536600Y-102362000D01*
G36*
X178915877Y-103605515D02*
G01*
X178846269Y-103524525D01*
X178738554Y-103415151D01*
X178618022Y-103296329D01*
X178508083Y-103187397D01*
X178411647Y-103090953D01*
X178334159Y-103012515D01*
X178281062Y-102957600D01*
X178257799Y-102931728D01*
X178257200Y-102930573D01*
X178281058Y-102927001D01*
X178346459Y-102924014D01*
X178444149Y-102921877D01*
X178564873Y-102920852D01*
X178600100Y-102920800D01*
X178943000Y-102920800D01*
X178943000Y-102767304D01*
X178454050Y-102774202D01*
X178261806Y-102777116D01*
X178117789Y-102782574D01*
X178020455Y-102794829D01*
X177968259Y-102818135D01*
X177959655Y-102856745D01*
X177993098Y-102914913D01*
X178067043Y-102996892D01*
X178179944Y-103106935D01*
X178293951Y-103214888D01*
X178402397Y-103318574D01*
X178496818Y-103410827D01*
X178571441Y-103485843D01*
X178620493Y-103537819D01*
X178638200Y-103560951D01*
X178638200Y-103560971D01*
X178614345Y-103568366D01*
X178548948Y-103574548D01*
X178451263Y-103578973D01*
X178330545Y-103581094D01*
X178295300Y-103581200D01*
X177952400Y-103581200D01*
X177952400Y-103733600D01*
X178431890Y-103733600D01*
X178628945Y-103733587D01*
X178777030Y-103730712D01*
X178877955Y-103720720D01*
X178933531Y-103699359D01*
X178945568Y-103662375D01*
X178915877Y-103605515D01*
G37*
X178915877Y-103605515D02*
X178846269Y-103524525D01*
X178738554Y-103415151D01*
X178618022Y-103296329D01*
X178508083Y-103187397D01*
X178411647Y-103090953D01*
X178334159Y-103012515D01*
X178281062Y-102957600D01*
X178257799Y-102931728D01*
X178257200Y-102930573D01*
X178281058Y-102927001D01*
X178346459Y-102924014D01*
X178444149Y-102921877D01*
X178564873Y-102920852D01*
X178600100Y-102920800D01*
X178943000Y-102920800D01*
X178943000Y-102767304D01*
X178454050Y-102774202D01*
X178261806Y-102777116D01*
X178117789Y-102782574D01*
X178020455Y-102794829D01*
X177968259Y-102818135D01*
X177959655Y-102856745D01*
X177993098Y-102914913D01*
X178067043Y-102996892D01*
X178179944Y-103106935D01*
X178293951Y-103214888D01*
X178402397Y-103318574D01*
X178496818Y-103410827D01*
X178571441Y-103485843D01*
X178620493Y-103537819D01*
X178638200Y-103560951D01*
X178638200Y-103560971D01*
X178614345Y-103568366D01*
X178548948Y-103574548D01*
X178451263Y-103578973D01*
X178330545Y-103581094D01*
X178295300Y-103581200D01*
X177952400Y-103581200D01*
X177952400Y-103733600D01*
X178431890Y-103733600D01*
X178628945Y-103733587D01*
X178777030Y-103730712D01*
X178877955Y-103720720D01*
X178933531Y-103699359D01*
X178945568Y-103662375D01*
X178915877Y-103605515D01*
G36*
X177952400Y-103962200D02*
G01*
X177952400Y-104140000D01*
X178943000Y-104140000D01*
X178943000Y-103962200D01*
X177952400Y-103962200D01*
G37*
X177952400Y-103962200D02*
X177952400Y-104140000D01*
X178943000Y-104140000D01*
X178943000Y-103962200D01*
X177952400Y-103962200D01*
G36*
X178949053Y-105233584D02*
G01*
X178930426Y-105200831D01*
X178892298Y-105154467D01*
X178830353Y-105089277D01*
X178740273Y-105000042D01*
X178617742Y-104881547D01*
X178609418Y-104873542D01*
X178244500Y-104522634D01*
X178943000Y-104521000D01*
X178943000Y-104342104D01*
X178454050Y-104349002D01*
X178263587Y-104351866D01*
X178120009Y-104357232D01*
X178021903Y-104369340D01*
X177967859Y-104392428D01*
X177956466Y-104430733D01*
X177986312Y-104488494D01*
X178055985Y-104569949D01*
X178164075Y-104679336D01*
X178299908Y-104811866D01*
X178650900Y-105153906D01*
X177952400Y-105156000D01*
X177952400Y-105333800D01*
X178434107Y-105333800D01*
X178601769Y-105333580D01*
X178725785Y-105332407D01*
X178813310Y-105329516D01*
X178871498Y-105324142D01*
X178907501Y-105315520D01*
X178928475Y-105302884D01*
X178941573Y-105285467D01*
X178945075Y-105279125D01*
X178952497Y-105257943D01*
X178949053Y-105233584D01*
G37*
X178949053Y-105233584D02*
X178930426Y-105200831D01*
X178892298Y-105154467D01*
X178830353Y-105089277D01*
X178740273Y-105000042D01*
X178617742Y-104881547D01*
X178609418Y-104873542D01*
X178244500Y-104522634D01*
X178943000Y-104521000D01*
X178943000Y-104342104D01*
X178454050Y-104349002D01*
X178263587Y-104351866D01*
X178120009Y-104357232D01*
X178021903Y-104369340D01*
X177967859Y-104392428D01*
X177956466Y-104430733D01*
X177986312Y-104488494D01*
X178055985Y-104569949D01*
X178164075Y-104679336D01*
X178299908Y-104811866D01*
X178650900Y-105153906D01*
X177952400Y-105156000D01*
X177952400Y-105333800D01*
X178434107Y-105333800D01*
X178601769Y-105333580D01*
X178725785Y-105332407D01*
X178813310Y-105329516D01*
X178871498Y-105324142D01*
X178907501Y-105315520D01*
X178928475Y-105302884D01*
X178941573Y-105285467D01*
X178945075Y-105279125D01*
X178952497Y-105257943D01*
X178949053Y-105233584D01*
G36*
X177952400Y-105537000D02*
G01*
X177952400Y-105714800D01*
X178943000Y-105714800D01*
X178943000Y-105537000D01*
X177952400Y-105537000D01*
G37*
X177952400Y-105537000D02*
X177952400Y-105714800D01*
X178943000Y-105714800D01*
X178943000Y-105537000D01*
X177952400Y-105537000D01*
G36*
X178942169Y-106188334D02*
G01*
X178939311Y-106067709D01*
X178933879Y-105984209D01*
X178925327Y-105931006D01*
X178913108Y-105901275D01*
X178906230Y-105893704D01*
X178887322Y-105880524D01*
X178866739Y-105876590D01*
X178838946Y-105885734D01*
X178798412Y-105911786D01*
X178739604Y-105958576D01*
X178656989Y-106029934D01*
X178545034Y-106129692D01*
X178476733Y-106191050D01*
X178370856Y-106285529D01*
X178278198Y-106366828D01*
X178205257Y-106429356D01*
X178158530Y-106467524D01*
X178144584Y-106476800D01*
X178138921Y-106453073D01*
X178134308Y-106388576D01*
X178131238Y-106293335D01*
X178130200Y-106184700D01*
X178130200Y-105892600D01*
X177952400Y-105892600D01*
X177952400Y-106306620D01*
X177953971Y-106484933D01*
X177958821Y-106615583D01*
X177967159Y-106701613D01*
X177979194Y-106746070D01*
X177982880Y-106751120D01*
X178027280Y-106778184D01*
X178045383Y-106781600D01*
X178073782Y-106765316D01*
X178132908Y-106720112D01*
X178216105Y-106651465D01*
X178316715Y-106564851D01*
X178414953Y-106477591D01*
X178752500Y-106173582D01*
X178766764Y-106781600D01*
X178943000Y-106781600D01*
X178943000Y-106352911D01*
X178942169Y-106188334D01*
G37*
X178942169Y-106188334D02*
X178939311Y-106067709D01*
X178933879Y-105984209D01*
X178925327Y-105931006D01*
X178913108Y-105901275D01*
X178906230Y-105893704D01*
X178887322Y-105880524D01*
X178866739Y-105876590D01*
X178838946Y-105885734D01*
X178798412Y-105911786D01*
X178739604Y-105958576D01*
X178656989Y-106029934D01*
X178545034Y-106129692D01*
X178476733Y-106191050D01*
X178370856Y-106285529D01*
X178278198Y-106366828D01*
X178205257Y-106429356D01*
X178158530Y-106467524D01*
X178144584Y-106476800D01*
X178138921Y-106453073D01*
X178134308Y-106388576D01*
X178131238Y-106293335D01*
X178130200Y-106184700D01*
X178130200Y-105892600D01*
X177952400Y-105892600D01*
X177952400Y-106306620D01*
X177953971Y-106484933D01*
X177958821Y-106615583D01*
X177967159Y-106701613D01*
X177979194Y-106746070D01*
X177982880Y-106751120D01*
X178027280Y-106778184D01*
X178045383Y-106781600D01*
X178073782Y-106765316D01*
X178132908Y-106720112D01*
X178216105Y-106651465D01*
X178316715Y-106564851D01*
X178414953Y-106477591D01*
X178752500Y-106173582D01*
X178766764Y-106781600D01*
X178943000Y-106781600D01*
X178943000Y-106352911D01*
X178942169Y-106188334D01*
G36*
X178951075Y-107820627D02*
G01*
X178902753Y-107767869D01*
X178828916Y-107691119D01*
X178735046Y-107596059D01*
X178626623Y-107488370D01*
X178606450Y-107468540D01*
X178244500Y-107113299D01*
X178593750Y-107112550D01*
X178943000Y-107111800D01*
X178943000Y-106934000D01*
X178487878Y-106934000D01*
X178338646Y-106934831D01*
X178205360Y-106937137D01*
X178097026Y-106940638D01*
X178022651Y-106945052D01*
X177992578Y-106949418D01*
X177957952Y-106971479D01*
X177948437Y-107004634D01*
X177966566Y-107052686D01*
X178014874Y-107119436D01*
X178095897Y-107208686D01*
X178212169Y-107324238D01*
X178295300Y-107403435D01*
X178403658Y-107506775D01*
X178497934Y-107598919D01*
X178572320Y-107674008D01*
X178621011Y-107726181D01*
X178638200Y-107749478D01*
X178614346Y-107757784D01*
X178548950Y-107764728D01*
X178451267Y-107769698D01*
X178330551Y-107772080D01*
X178295300Y-107772200D01*
X177952400Y-107772200D01*
X177952400Y-107924600D01*
X178429920Y-107924600D01*
X178610947Y-107923684D01*
X178747219Y-107920331D01*
X178844760Y-107913636D01*
X178909592Y-107902695D01*
X178947739Y-107886604D01*
X178965223Y-107864457D01*
X178968400Y-107843711D01*
X178951075Y-107820627D01*
G37*
X178951075Y-107820627D02*
X178902753Y-107767869D01*
X178828916Y-107691119D01*
X178735046Y-107596059D01*
X178626623Y-107488370D01*
X178606450Y-107468540D01*
X178244500Y-107113299D01*
X178593750Y-107112550D01*
X178943000Y-107111800D01*
X178943000Y-106934000D01*
X178487878Y-106934000D01*
X178338646Y-106934831D01*
X178205360Y-106937137D01*
X178097026Y-106940638D01*
X178022651Y-106945052D01*
X177992578Y-106949418D01*
X177957952Y-106971479D01*
X177948437Y-107004634D01*
X177966566Y-107052686D01*
X178014874Y-107119436D01*
X178095897Y-107208686D01*
X178212169Y-107324238D01*
X178295300Y-107403435D01*
X178403658Y-107506775D01*
X178497934Y-107598919D01*
X178572320Y-107674008D01*
X178621011Y-107726181D01*
X178638200Y-107749478D01*
X178614346Y-107757784D01*
X178548950Y-107764728D01*
X178451267Y-107769698D01*
X178330551Y-107772080D01*
X178295300Y-107772200D01*
X177952400Y-107772200D01*
X177952400Y-107924600D01*
X178429920Y-107924600D01*
X178610947Y-107923684D01*
X178747219Y-107920331D01*
X178844760Y-107913636D01*
X178909592Y-107902695D01*
X178947739Y-107886604D01*
X178965223Y-107864457D01*
X178968400Y-107843711D01*
X178951075Y-107820627D01*
G36*
X178936395Y-108245277D02*
G01*
X178925529Y-108182455D01*
X178916644Y-108164748D01*
X178896330Y-108151197D01*
X178856751Y-108141259D01*
X178791305Y-108134444D01*
X178693391Y-108130261D01*
X178556410Y-108128220D01*
X178419190Y-108127800D01*
X177952400Y-108127800D01*
X177952400Y-108305600D01*
X178206400Y-108305600D01*
X178206400Y-108940600D01*
X177952400Y-108940600D01*
X177952400Y-109118400D01*
X178261881Y-109118400D01*
X178441080Y-109113607D01*
X178480149Y-109108949D01*
X178480149Y-108940600D01*
X178384200Y-108940600D01*
X178384200Y-108305600D01*
X178765200Y-108305600D01*
X178765200Y-108510062D01*
X178753652Y-108677422D01*
X178717947Y-108801667D01*
X178656501Y-108885194D01*
X178567726Y-108930399D01*
X178480149Y-108940600D01*
X178480149Y-109108949D01*
X178579062Y-109097155D01*
X178684689Y-109065934D01*
X178766818Y-109016836D01*
X178834310Y-108946751D01*
X178862126Y-108907749D01*
X178891614Y-108859419D01*
X178911616Y-108812120D01*
X178924379Y-108754009D01*
X178932148Y-108673240D01*
X178937168Y-108557971D01*
X178938804Y-108503274D01*
X178940737Y-108350952D01*
X178936395Y-108245277D01*
G37*
X178936395Y-108245277D02*
X178925529Y-108182455D01*
X178916644Y-108164748D01*
X178896330Y-108151197D01*
X178856751Y-108141259D01*
X178791305Y-108134444D01*
X178693391Y-108130261D01*
X178556410Y-108128220D01*
X178419190Y-108127800D01*
X177952400Y-108127800D01*
X177952400Y-108305600D01*
X178206400Y-108305600D01*
X178206400Y-108940600D01*
X177952400Y-108940600D01*
X177952400Y-109118400D01*
X178261881Y-109118400D01*
X178441080Y-109113607D01*
X178480149Y-109108949D01*
X178480149Y-108940600D01*
X178384200Y-108940600D01*
X178384200Y-108305600D01*
X178765200Y-108305600D01*
X178765200Y-108510062D01*
X178753652Y-108677422D01*
X178717947Y-108801667D01*
X178656501Y-108885194D01*
X178567726Y-108930399D01*
X178480149Y-108940600D01*
X178480149Y-109108949D01*
X178579062Y-109097155D01*
X178684689Y-109065934D01*
X178766818Y-109016836D01*
X178834310Y-108946751D01*
X178862126Y-108907749D01*
X178891614Y-108859419D01*
X178911616Y-108812120D01*
X178924379Y-108754009D01*
X178932148Y-108673240D01*
X178937168Y-108557971D01*
X178938804Y-108503274D01*
X178940737Y-108350952D01*
X178936395Y-108245277D01*
G36*
X178942756Y-109672044D02*
G01*
X178941224Y-109562939D01*
X178937212Y-109487472D01*
X178929522Y-109437059D01*
X178916961Y-109403120D01*
X178898333Y-109377073D01*
X178877880Y-109355771D01*
X178839127Y-109321575D01*
X178799019Y-109303171D01*
X178742000Y-109297058D01*
X178652515Y-109299734D01*
X178633605Y-109300774D01*
X178536500Y-109308256D01*
X178473802Y-109321184D01*
X178429121Y-109345581D01*
X178386067Y-109387472D01*
X178380303Y-109393881D01*
X178329437Y-109464406D01*
X178295322Y-109536363D01*
X178291064Y-109552332D01*
X178275971Y-109627799D01*
X178184036Y-109519574D01*
X178116897Y-109441444D01*
X178050233Y-109365264D01*
X178022995Y-109334725D01*
X177953890Y-109258100D01*
X177953145Y-109387017D01*
X177954792Y-109448474D01*
X177964677Y-109497879D01*
X177988982Y-109547324D01*
X178033886Y-109608904D01*
X178105568Y-109694713D01*
X178117500Y-109708657D01*
X178211501Y-109825980D01*
X178266277Y-109912883D01*
X178282600Y-109967090D01*
X178288875Y-110011454D01*
X178317739Y-110029628D01*
X178371500Y-110032800D01*
X178460400Y-110032800D01*
X178460400Y-109793315D01*
X178463419Y-109660327D01*
X178475683Y-109569960D01*
X178501999Y-109514229D01*
X178547179Y-109485147D01*
X178616031Y-109474731D01*
X178652715Y-109474000D01*
X178765200Y-109474000D01*
X178765200Y-110109000D01*
X177952400Y-110109000D01*
X177952400Y-110286800D01*
X178417220Y-110286800D01*
X178604596Y-110285508D01*
X178744663Y-110281491D01*
X178840851Y-110274537D01*
X178896589Y-110264436D01*
X178912520Y-110256321D01*
X178925743Y-110221315D01*
X178935087Y-110144821D01*
X178940757Y-110023927D01*
X178942957Y-109855725D01*
X178943000Y-109823366D01*
X178942756Y-109672044D01*
G37*
X178942756Y-109672044D02*
X178941224Y-109562939D01*
X178937212Y-109487472D01*
X178929522Y-109437059D01*
X178916961Y-109403120D01*
X178898333Y-109377073D01*
X178877880Y-109355771D01*
X178839127Y-109321575D01*
X178799019Y-109303171D01*
X178742000Y-109297058D01*
X178652515Y-109299734D01*
X178633605Y-109300774D01*
X178536500Y-109308256D01*
X178473802Y-109321184D01*
X178429121Y-109345581D01*
X178386067Y-109387472D01*
X178380303Y-109393881D01*
X178329437Y-109464406D01*
X178295322Y-109536363D01*
X178291064Y-109552332D01*
X178275971Y-109627799D01*
X178184036Y-109519574D01*
X178116897Y-109441444D01*
X178050233Y-109365264D01*
X178022995Y-109334725D01*
X177953890Y-109258100D01*
X177953145Y-109387017D01*
X177954792Y-109448474D01*
X177964677Y-109497879D01*
X177988982Y-109547324D01*
X178033886Y-109608904D01*
X178105568Y-109694713D01*
X178117500Y-109708657D01*
X178211501Y-109825980D01*
X178266277Y-109912883D01*
X178282600Y-109967090D01*
X178288875Y-110011454D01*
X178317739Y-110029628D01*
X178371500Y-110032800D01*
X178460400Y-110032800D01*
X178460400Y-109793315D01*
X178463419Y-109660327D01*
X178475683Y-109569960D01*
X178501999Y-109514229D01*
X178547179Y-109485147D01*
X178616031Y-109474731D01*
X178652715Y-109474000D01*
X178765200Y-109474000D01*
X178765200Y-110109000D01*
X177952400Y-110109000D01*
X177952400Y-110286800D01*
X178417220Y-110286800D01*
X178604596Y-110285508D01*
X178744663Y-110281491D01*
X178840851Y-110274537D01*
X178896589Y-110264436D01*
X178912520Y-110256321D01*
X178925743Y-110221315D01*
X178935087Y-110144821D01*
X178940757Y-110023927D01*
X178942957Y-109855725D01*
X178943000Y-109823366D01*
X178942756Y-109672044D01*
G36*
X178765200Y-110439200D02*
G01*
X178765200Y-111150400D01*
X177952400Y-111150400D01*
X177952400Y-111328200D01*
X178417220Y-111328200D01*
X178604596Y-111326908D01*
X178744663Y-111322891D01*
X178840851Y-111315937D01*
X178896589Y-111305836D01*
X178912520Y-111297721D01*
X178925532Y-111263380D01*
X178934794Y-111188241D01*
X178940513Y-111069260D01*
X178942900Y-110903392D01*
X178943000Y-110853221D01*
X178943000Y-110439200D01*
X178765200Y-110439200D01*
G37*
X178765200Y-110439200D02*
X178765200Y-111150400D01*
X177952400Y-111150400D01*
X177952400Y-111328200D01*
X178417220Y-111328200D01*
X178604596Y-111326908D01*
X178744663Y-111322891D01*
X178840851Y-111315937D01*
X178896589Y-111305836D01*
X178912520Y-111297721D01*
X178925532Y-111263380D01*
X178934794Y-111188241D01*
X178940513Y-111069260D01*
X178942900Y-110903392D01*
X178943000Y-110853221D01*
X178943000Y-110439200D01*
X178765200Y-110439200D01*
M02*
