G04 #@! TF.GenerationSoftware,KiCad,Pcbnew,5.1.12-84ad8e8a86~92~ubuntu21.04.1*
G04 #@! TF.CreationDate,2021-11-28T19:25:36-03:00*
G04 #@! TF.ProjectId,Franzininho WIFI,4672616e-7a69-46e6-996e-686f20574946,rev?*
G04 #@! TF.SameCoordinates,Original*
G04 #@! TF.FileFunction,Copper,L2,Bot*
G04 #@! TF.FilePolarity,Positive*
%FSLAX46Y46*%
G04 Gerber Fmt 4.6, Leading zero omitted, Abs format (unit mm)*
G04 Created by KiCad (PCBNEW 5.1.12-84ad8e8a86~92~ubuntu21.04.1) date 2021-11-28 19:25:36*
%MOMM*%
%LPD*%
G01*
G04 APERTURE LIST*
G04 #@! TA.AperFunction,ComponentPad*
%ADD10O,1.700000X1.700000*%
G04 #@! TD*
G04 #@! TA.AperFunction,ComponentPad*
%ADD11R,1.700000X1.700000*%
G04 #@! TD*
G04 #@! TA.AperFunction,ComponentPad*
%ADD12C,1.450000*%
G04 #@! TD*
G04 #@! TA.AperFunction,ComponentPad*
%ADD13O,1.900000X1.200000*%
G04 #@! TD*
G04 #@! TA.AperFunction,ViaPad*
%ADD14C,0.482600*%
G04 #@! TD*
G04 #@! TA.AperFunction,ViaPad*
%ADD15C,0.800000*%
G04 #@! TD*
G04 #@! TA.AperFunction,ViaPad*
%ADD16C,0.500000*%
G04 #@! TD*
G04 #@! TA.AperFunction,Conductor*
%ADD17C,0.381000*%
G04 #@! TD*
G04 #@! TA.AperFunction,Conductor*
%ADD18C,0.254000*%
G04 #@! TD*
G04 #@! TA.AperFunction,Conductor*
%ADD19C,0.100000*%
G04 #@! TD*
G04 APERTURE END LIST*
D10*
X142240000Y-112395000D03*
X139700000Y-112395000D03*
D11*
X137160000Y-112395000D03*
D10*
X135890000Y-99060000D03*
X133350000Y-99060000D03*
X130810000Y-99060000D03*
D11*
X128270000Y-99060000D03*
D10*
X176530000Y-116840000D03*
X173990000Y-116840000D03*
X171450000Y-116840000D03*
X168910000Y-116840000D03*
X166370000Y-116840000D03*
X163830000Y-116840000D03*
X161290000Y-116840000D03*
X158750000Y-116840000D03*
X156210000Y-116840000D03*
X153670000Y-116840000D03*
X151130000Y-116840000D03*
X148590000Y-116840000D03*
X146050000Y-116840000D03*
X143510000Y-116840000D03*
X140970000Y-116840000D03*
X138430000Y-116840000D03*
X135890000Y-116840000D03*
X133350000Y-116840000D03*
X130810000Y-116840000D03*
D11*
X128270000Y-116840000D03*
D10*
X176530000Y-93980000D03*
X173990000Y-93980000D03*
X171450000Y-93980000D03*
X168910000Y-93980000D03*
X166370000Y-93980000D03*
X163830000Y-93980000D03*
X161290000Y-93980000D03*
X158750000Y-93980000D03*
X156210000Y-93980000D03*
X153670000Y-93980000D03*
X151130000Y-93980000D03*
X148590000Y-93980000D03*
X146050000Y-93980000D03*
X143510000Y-93980000D03*
X140970000Y-93980000D03*
X138430000Y-93980000D03*
X135890000Y-93980000D03*
X133350000Y-93980000D03*
X130810000Y-93980000D03*
D11*
X128270000Y-93980000D03*
X128270000Y-112395000D03*
D10*
X130810000Y-112395000D03*
X133350000Y-112395000D03*
D12*
X124652500Y-102910000D03*
X124652500Y-107910000D03*
D13*
X121952500Y-101910000D03*
X121952500Y-108910000D03*
D14*
X154940000Y-111125000D03*
D15*
X146050000Y-100330000D03*
D16*
X144272000Y-104394000D03*
D15*
X176847500Y-98742500D03*
X176530000Y-110109000D03*
X160591500Y-102362000D03*
X160591500Y-108648500D03*
X166116000Y-111506000D03*
D16*
X146050000Y-102235000D03*
X151765000Y-105410000D03*
X165735000Y-103505000D03*
X165735000Y-105410000D03*
X172085000Y-103505000D03*
X172085000Y-105410000D03*
X168910000Y-107315000D03*
D15*
X147851490Y-98321490D03*
X156210000Y-98425000D03*
X145415000Y-104140000D03*
X147320000Y-100330000D03*
X147324550Y-109987755D03*
X158115000Y-109312000D03*
X133285950Y-106711400D03*
X129540000Y-102235000D03*
X144780000Y-100330000D03*
X130810000Y-103505000D03*
X151765000Y-103505000D03*
X173990000Y-98425000D03*
X126365000Y-99060000D03*
X161925000Y-98425000D03*
X160020000Y-98425000D03*
X145415000Y-109220000D03*
X156210000Y-112395000D03*
X157353000Y-112395000D03*
X158877000Y-112395000D03*
X161925000Y-112395000D03*
X172720000Y-112395000D03*
X173990000Y-112395000D03*
X175260000Y-112395000D03*
X151257000Y-111125000D03*
X146050000Y-111125000D03*
D17*
X147955000Y-98425000D02*
X147851490Y-98321490D01*
X156210000Y-98425000D02*
X147955000Y-98425000D01*
X147747980Y-98425000D02*
X147851490Y-98321490D01*
X147320000Y-102235000D02*
X147320000Y-100330000D01*
X145415000Y-104140000D02*
X147320000Y-102235000D01*
X130810000Y-93980000D02*
X130810000Y-97155000D01*
D18*
X157439245Y-109987755D02*
X158115000Y-109312000D01*
X147324550Y-109987755D02*
X157439245Y-109987755D01*
D17*
X130810000Y-97155000D02*
X130810000Y-99060000D01*
X130810000Y-99060000D02*
X130810000Y-99695000D01*
X131445000Y-100965000D02*
X130810000Y-100330000D01*
X130810000Y-100330000D02*
X130810000Y-99060000D01*
X137160000Y-100965000D02*
X131445000Y-100965000D01*
X140335000Y-97790000D02*
X137160000Y-100965000D01*
X147320000Y-97790000D02*
X140335000Y-97790000D01*
X147851490Y-98321490D02*
X147320000Y-97790000D01*
X133285950Y-106711400D02*
X131349550Y-104775000D01*
X131349550Y-104775000D02*
X130175000Y-104775000D01*
X129540000Y-104140000D02*
X129540000Y-102235000D01*
X130175000Y-104775000D02*
X129540000Y-104140000D01*
X141605000Y-103505000D02*
X130810000Y-103505000D01*
X144780000Y-100330000D02*
X141605000Y-103505000D01*
X132715000Y-103505000D02*
X134076451Y-104866451D01*
X130810000Y-103505000D02*
X132715000Y-103505000D01*
X130810000Y-112395000D02*
X133350000Y-114935000D01*
X133350000Y-114935000D02*
X133350000Y-116840000D01*
X134076451Y-104866451D02*
X134076451Y-109128549D01*
X134076451Y-109128549D02*
X132080000Y-111125000D01*
X132080000Y-111125000D02*
X130810000Y-112395000D01*
D18*
X151130000Y-104140000D02*
X151765000Y-103505000D01*
X149419038Y-104140000D02*
X151130000Y-104140000D01*
X142875000Y-109220000D02*
X144339038Y-109220000D01*
X140970000Y-111125000D02*
X142875000Y-109220000D01*
X144339038Y-109220000D02*
X149419038Y-104140000D01*
X140970000Y-114300000D02*
X140970000Y-111125000D01*
X140335000Y-114935000D02*
X140970000Y-114300000D01*
X137795000Y-114935000D02*
X140335000Y-114935000D01*
X135890000Y-116840000D02*
X137795000Y-114935000D01*
X133350000Y-112395000D02*
X135890000Y-114935000D01*
X135890000Y-114935000D02*
X135890000Y-116840000D01*
X173990000Y-98425000D02*
X173990000Y-95885000D01*
X174625000Y-95250000D02*
X173990000Y-95885000D01*
X175260000Y-95250000D02*
X174625000Y-95250000D01*
X176530000Y-93980000D02*
X175260000Y-95250000D01*
X126365000Y-100965000D02*
X126365000Y-99060000D01*
X137374360Y-101482508D02*
X126882508Y-101482508D01*
X140431868Y-98425000D02*
X137374360Y-101482508D01*
X148043989Y-99606011D02*
X146862978Y-98425000D01*
X126882508Y-101482508D02*
X126365000Y-100965000D01*
X146862978Y-98425000D02*
X140431868Y-98425000D01*
X162013989Y-99606011D02*
X148043989Y-99606011D01*
X163195000Y-98425000D02*
X162013989Y-99606011D01*
X173990000Y-98425000D02*
X163195000Y-98425000D01*
X161197999Y-99152001D02*
X161925000Y-98425000D01*
X159477001Y-99152001D02*
X161197999Y-99152001D01*
X156664010Y-96339010D02*
X159477001Y-99152001D01*
X139700000Y-97155000D02*
X140515990Y-96339010D01*
X140515990Y-96339010D02*
X156664010Y-96339010D01*
X138430000Y-97155000D02*
X139700000Y-97155000D01*
X135890000Y-97790000D02*
X136525000Y-97155000D01*
X135890000Y-99060000D02*
X135890000Y-97790000D01*
X138430000Y-97155000D02*
X136525000Y-97155000D01*
X135255000Y-95885000D02*
X133350000Y-93980000D01*
X157480000Y-95885000D02*
X135255000Y-95885000D01*
X160020000Y-98425000D02*
X157480000Y-95885000D01*
X143510000Y-116840000D02*
X143510000Y-113030000D01*
X143510000Y-113030000D02*
X144145000Y-112395000D01*
X144145000Y-110490000D02*
X145415000Y-109220000D01*
X144145000Y-112395000D02*
X144145000Y-110490000D01*
X156210000Y-112395000D02*
X156210000Y-114285868D01*
X156210000Y-114285868D02*
X155833888Y-114661980D01*
X152023886Y-114661980D02*
X151476877Y-115208989D01*
X155833888Y-114661980D02*
X152023886Y-114661980D01*
X149578944Y-115208989D02*
X149217933Y-115570000D01*
X151476877Y-115208989D02*
X149578944Y-115208989D01*
X147320000Y-115570000D02*
X146050000Y-116840000D01*
X149217933Y-115570000D02*
X147320000Y-115570000D01*
X157353000Y-112395000D02*
X157353000Y-113784934D01*
X157353000Y-113784934D02*
X156021944Y-115115990D01*
X149767001Y-115662999D02*
X148590000Y-116840000D01*
X151664934Y-115662999D02*
X149767001Y-115662999D01*
X152211943Y-115115990D02*
X151664934Y-115662999D01*
X156021944Y-115115990D02*
X152211943Y-115115990D01*
X158877000Y-112395000D02*
X158877000Y-114173000D01*
X158877000Y-114173000D02*
X157607000Y-114173000D01*
X157607000Y-114173000D02*
X156210000Y-115570000D01*
X156210000Y-115570000D02*
X152400000Y-115570000D01*
X152400000Y-115570000D02*
X151130000Y-116840000D01*
X161925000Y-112395000D02*
X161290000Y-113030000D01*
X161290000Y-113030000D02*
X161290000Y-114300000D01*
X161290000Y-114300000D02*
X160020000Y-115570000D01*
X157480000Y-115570000D02*
X156210000Y-116840000D01*
X160020000Y-115570000D02*
X157480000Y-115570000D01*
X172720000Y-112395000D02*
X172720000Y-113030000D01*
X173990000Y-114300000D02*
X173990000Y-116840000D01*
X172720000Y-113030000D02*
X173990000Y-114300000D01*
X176530000Y-116205000D02*
X176530000Y-116840000D01*
X176530000Y-114935000D02*
X176530000Y-116840000D01*
X173990000Y-112395000D02*
X176530000Y-114935000D01*
X151038000Y-111125000D02*
X153670000Y-111125000D01*
X153670000Y-111125000D02*
X154305000Y-110490000D01*
X173355000Y-110490000D02*
X175260000Y-112395000D01*
X154305000Y-110490000D02*
X173355000Y-110490000D01*
X151038000Y-111125000D02*
X146050000Y-111125000D01*
X122758008Y-93190914D02*
X122488483Y-93302555D01*
X122245917Y-93464632D01*
X122039632Y-93670917D01*
X121877555Y-93913483D01*
X121765914Y-94183008D01*
X121709000Y-94469134D01*
X121709000Y-94760866D01*
X121765914Y-95046992D01*
X121877555Y-95316517D01*
X122039632Y-95559083D01*
X122245917Y-95765368D01*
X122488483Y-95927445D01*
X122758008Y-96039086D01*
X123044134Y-96096000D01*
X123335866Y-96096000D01*
X123621992Y-96039086D01*
X123891517Y-95927445D01*
X124134083Y-95765368D01*
X124340368Y-95559083D01*
X124502445Y-95316517D01*
X124614086Y-95046992D01*
X124657248Y-94830000D01*
X127037157Y-94830000D01*
X127044513Y-94904689D01*
X127066299Y-94976508D01*
X127101678Y-95042696D01*
X127149289Y-95100711D01*
X127207304Y-95148322D01*
X127273492Y-95183701D01*
X127345311Y-95205487D01*
X127420000Y-95212843D01*
X128162050Y-95211000D01*
X128257300Y-95115750D01*
X128257300Y-93992700D01*
X128282700Y-93992700D01*
X128282700Y-95115750D01*
X128377950Y-95211000D01*
X129120000Y-95212843D01*
X129194689Y-95205487D01*
X129266508Y-95183701D01*
X129332696Y-95148322D01*
X129390711Y-95100711D01*
X129438322Y-95042696D01*
X129473701Y-94976508D01*
X129495487Y-94904689D01*
X129502843Y-94830000D01*
X129501000Y-94087950D01*
X129405750Y-93992700D01*
X128282700Y-93992700D01*
X128257300Y-93992700D01*
X127134250Y-93992700D01*
X127039000Y-94087950D01*
X127037157Y-94830000D01*
X124657248Y-94830000D01*
X124671000Y-94760866D01*
X124671000Y-94469134D01*
X124614086Y-94183008D01*
X124502445Y-93913483D01*
X124340368Y-93670917D01*
X124134083Y-93464632D01*
X123891517Y-93302555D01*
X123621992Y-93190914D01*
X123496741Y-93166000D01*
X127037246Y-93166000D01*
X127039000Y-93872050D01*
X127134250Y-93967300D01*
X128257300Y-93967300D01*
X128257300Y-93947300D01*
X128282700Y-93947300D01*
X128282700Y-93967300D01*
X129405750Y-93967300D01*
X129501000Y-93872050D01*
X129502754Y-93166000D01*
X129883103Y-93166000D01*
X129853820Y-93195283D01*
X129719102Y-93396903D01*
X129626307Y-93620931D01*
X129579000Y-93858757D01*
X129579000Y-94101243D01*
X129626307Y-94339069D01*
X129719102Y-94563097D01*
X129853820Y-94764717D01*
X130025283Y-94936180D01*
X130226903Y-95070898D01*
X130238500Y-95075702D01*
X130238501Y-97126917D01*
X130238500Y-97126927D01*
X130238500Y-97964298D01*
X130226903Y-97969102D01*
X130025283Y-98103820D01*
X129853820Y-98275283D01*
X129719102Y-98476903D01*
X129626307Y-98700931D01*
X129579000Y-98938757D01*
X129579000Y-99181243D01*
X129626307Y-99419069D01*
X129719102Y-99643097D01*
X129853820Y-99844717D01*
X130025283Y-100016180D01*
X130226903Y-100150898D01*
X130238500Y-100155702D01*
X130238500Y-100301925D01*
X130235735Y-100330000D01*
X130243311Y-100406922D01*
X130246769Y-100442033D01*
X130279448Y-100549761D01*
X130332516Y-100649044D01*
X130403933Y-100736067D01*
X130425748Y-100753970D01*
X130646286Y-100974508D01*
X127092928Y-100974508D01*
X126873000Y-100754580D01*
X126873000Y-99656501D01*
X126971642Y-99557859D01*
X127038279Y-99458129D01*
X127037157Y-99910000D01*
X127044513Y-99984689D01*
X127066299Y-100056508D01*
X127101678Y-100122696D01*
X127149289Y-100180711D01*
X127207304Y-100228322D01*
X127273492Y-100263701D01*
X127345311Y-100285487D01*
X127420000Y-100292843D01*
X128162050Y-100291000D01*
X128257300Y-100195750D01*
X128257300Y-99072700D01*
X128282700Y-99072700D01*
X128282700Y-100195750D01*
X128377950Y-100291000D01*
X129120000Y-100292843D01*
X129194689Y-100285487D01*
X129266508Y-100263701D01*
X129332696Y-100228322D01*
X129390711Y-100180711D01*
X129438322Y-100122696D01*
X129473701Y-100056508D01*
X129495487Y-99984689D01*
X129502843Y-99910000D01*
X129501000Y-99167950D01*
X129405750Y-99072700D01*
X128282700Y-99072700D01*
X128257300Y-99072700D01*
X128237300Y-99072700D01*
X128237300Y-99047300D01*
X128257300Y-99047300D01*
X128257300Y-97924250D01*
X128282700Y-97924250D01*
X128282700Y-99047300D01*
X129405750Y-99047300D01*
X129501000Y-98952050D01*
X129502843Y-98210000D01*
X129495487Y-98135311D01*
X129473701Y-98063492D01*
X129438322Y-97997304D01*
X129390711Y-97939289D01*
X129332696Y-97891678D01*
X129266508Y-97856299D01*
X129194689Y-97834513D01*
X129120000Y-97827157D01*
X128377950Y-97829000D01*
X128282700Y-97924250D01*
X128257300Y-97924250D01*
X128162050Y-97829000D01*
X127420000Y-97827157D01*
X127345311Y-97834513D01*
X127273492Y-97856299D01*
X127207304Y-97891678D01*
X127149289Y-97939289D01*
X127101678Y-97997304D01*
X127066299Y-98063492D01*
X127044513Y-98135311D01*
X127037157Y-98210000D01*
X127038279Y-98661871D01*
X126971642Y-98562141D01*
X126862859Y-98453358D01*
X126734942Y-98367887D01*
X126592809Y-98309013D01*
X126441922Y-98279000D01*
X126288078Y-98279000D01*
X126137191Y-98309013D01*
X125995058Y-98367887D01*
X125867141Y-98453358D01*
X125758358Y-98562141D01*
X125672887Y-98690058D01*
X125614013Y-98832191D01*
X125584000Y-98983078D01*
X125584000Y-99136922D01*
X125614013Y-99287809D01*
X125672887Y-99429942D01*
X125758358Y-99557859D01*
X125857001Y-99656502D01*
X125857000Y-100940056D01*
X125854543Y-100965000D01*
X125857000Y-100989944D01*
X125857000Y-100989946D01*
X125864351Y-101064584D01*
X125893399Y-101160342D01*
X125940571Y-101248595D01*
X126004052Y-101325948D01*
X126023435Y-101341855D01*
X126505653Y-101824073D01*
X126521560Y-101843456D01*
X126598913Y-101906937D01*
X126687165Y-101954109D01*
X126782923Y-101983157D01*
X126857561Y-101990508D01*
X126857564Y-101990508D01*
X126882508Y-101992965D01*
X126907452Y-101990508D01*
X128795923Y-101990508D01*
X128789013Y-102007191D01*
X128759000Y-102158078D01*
X128759000Y-102311922D01*
X128789013Y-102462809D01*
X128847887Y-102604942D01*
X128933358Y-102732859D01*
X128968501Y-102768002D01*
X128968500Y-104111925D01*
X128965735Y-104140000D01*
X128973311Y-104216922D01*
X128976769Y-104252033D01*
X129009448Y-104359761D01*
X129062516Y-104459044D01*
X129133933Y-104546067D01*
X129155748Y-104563970D01*
X129751034Y-105159257D01*
X129768933Y-105181067D01*
X129855955Y-105252484D01*
X129955238Y-105305552D01*
X130062966Y-105338231D01*
X130175000Y-105349265D01*
X130203074Y-105346500D01*
X131112828Y-105346500D01*
X132504950Y-106738623D01*
X132504950Y-106788322D01*
X132534963Y-106939209D01*
X132593837Y-107081342D01*
X132679308Y-107209259D01*
X132788091Y-107318042D01*
X132916008Y-107403513D01*
X133058141Y-107462387D01*
X133209028Y-107492400D01*
X133362872Y-107492400D01*
X133504952Y-107464139D01*
X133504952Y-108891825D01*
X131695744Y-110701034D01*
X131695739Y-110701038D01*
X131180667Y-111216111D01*
X131169069Y-111211307D01*
X130931243Y-111164000D01*
X130688757Y-111164000D01*
X130450931Y-111211307D01*
X130226903Y-111304102D01*
X130025283Y-111438820D01*
X129853820Y-111610283D01*
X129719102Y-111811903D01*
X129626307Y-112035931D01*
X129579000Y-112273757D01*
X129579000Y-112516243D01*
X129626307Y-112754069D01*
X129719102Y-112978097D01*
X129853820Y-113179717D01*
X130025283Y-113351180D01*
X130226903Y-113485898D01*
X130450931Y-113578693D01*
X130688757Y-113626000D01*
X130931243Y-113626000D01*
X131169069Y-113578693D01*
X131180667Y-113573889D01*
X132778500Y-115171723D01*
X132778500Y-115744298D01*
X132766903Y-115749102D01*
X132565283Y-115883820D01*
X132393820Y-116055283D01*
X132259102Y-116256903D01*
X132166307Y-116480931D01*
X132119000Y-116718757D01*
X132119000Y-116961243D01*
X132166307Y-117199069D01*
X132259102Y-117423097D01*
X132393820Y-117624717D01*
X132423103Y-117654000D01*
X131729167Y-117654000D01*
X131852909Y-117493990D01*
X131960457Y-117277962D01*
X132023793Y-117045104D01*
X131945685Y-116852700D01*
X130822700Y-116852700D01*
X130822700Y-116872700D01*
X130797300Y-116872700D01*
X130797300Y-116852700D01*
X129674315Y-116852700D01*
X129596207Y-117045104D01*
X129659543Y-117277962D01*
X129767091Y-117493990D01*
X129890833Y-117654000D01*
X129502754Y-117654000D01*
X129501000Y-116947950D01*
X129405750Y-116852700D01*
X128282700Y-116852700D01*
X128282700Y-116872700D01*
X128257300Y-116872700D01*
X128257300Y-116852700D01*
X127134250Y-116852700D01*
X127039000Y-116947950D01*
X127037246Y-117654000D01*
X123496741Y-117654000D01*
X123621992Y-117629086D01*
X123891517Y-117517445D01*
X124134083Y-117355368D01*
X124340368Y-117149083D01*
X124502445Y-116906517D01*
X124614086Y-116636992D01*
X124671000Y-116350866D01*
X124671000Y-116059134D01*
X124657249Y-115990000D01*
X127037157Y-115990000D01*
X127039000Y-116732050D01*
X127134250Y-116827300D01*
X128257300Y-116827300D01*
X128257300Y-115704250D01*
X128282700Y-115704250D01*
X128282700Y-116827300D01*
X129405750Y-116827300D01*
X129501000Y-116732050D01*
X129501241Y-116634896D01*
X129596207Y-116634896D01*
X129674315Y-116827300D01*
X130797300Y-116827300D01*
X130797300Y-115704321D01*
X130822700Y-115704321D01*
X130822700Y-116827300D01*
X131945685Y-116827300D01*
X132023793Y-116634896D01*
X131960457Y-116402038D01*
X131852909Y-116186010D01*
X131705283Y-115995115D01*
X131523252Y-115836688D01*
X131313811Y-115716818D01*
X131085008Y-115640111D01*
X131015104Y-115626208D01*
X130822700Y-115704321D01*
X130797300Y-115704321D01*
X130604896Y-115626208D01*
X130534992Y-115640111D01*
X130306189Y-115716818D01*
X130096748Y-115836688D01*
X129914717Y-115995115D01*
X129767091Y-116186010D01*
X129659543Y-116402038D01*
X129596207Y-116634896D01*
X129501241Y-116634896D01*
X129502843Y-115990000D01*
X129495487Y-115915311D01*
X129473701Y-115843492D01*
X129438322Y-115777304D01*
X129390711Y-115719289D01*
X129332696Y-115671678D01*
X129266508Y-115636299D01*
X129194689Y-115614513D01*
X129120000Y-115607157D01*
X128377950Y-115609000D01*
X128282700Y-115704250D01*
X128257300Y-115704250D01*
X128162050Y-115609000D01*
X127420000Y-115607157D01*
X127345311Y-115614513D01*
X127273492Y-115636299D01*
X127207304Y-115671678D01*
X127149289Y-115719289D01*
X127101678Y-115777304D01*
X127066299Y-115843492D01*
X127044513Y-115915311D01*
X127037157Y-115990000D01*
X124657249Y-115990000D01*
X124614086Y-115773008D01*
X124502445Y-115503483D01*
X124340368Y-115260917D01*
X124134083Y-115054632D01*
X123891517Y-114892555D01*
X123621992Y-114780914D01*
X123335866Y-114724000D01*
X123044134Y-114724000D01*
X122758008Y-114780914D01*
X122488483Y-114892555D01*
X122245917Y-115054632D01*
X122039632Y-115260917D01*
X121877555Y-115503483D01*
X121765914Y-115773008D01*
X121709000Y-116059134D01*
X121709000Y-116350866D01*
X121765914Y-116636992D01*
X121877555Y-116906517D01*
X122039632Y-117149083D01*
X122245917Y-117355368D01*
X122488483Y-117517445D01*
X122758008Y-117629086D01*
X122883259Y-117654000D01*
X121815305Y-117654000D01*
X121635315Y-117636352D01*
X121483645Y-117590559D01*
X121343748Y-117516175D01*
X121220967Y-117416038D01*
X121119977Y-117293961D01*
X121044620Y-117154593D01*
X120997767Y-117003235D01*
X120979000Y-116824674D01*
X120979000Y-113245000D01*
X127037157Y-113245000D01*
X127044513Y-113319689D01*
X127066299Y-113391508D01*
X127101678Y-113457696D01*
X127149289Y-113515711D01*
X127207304Y-113563322D01*
X127273492Y-113598701D01*
X127345311Y-113620487D01*
X127420000Y-113627843D01*
X128162050Y-113626000D01*
X128257300Y-113530750D01*
X128257300Y-112407700D01*
X128282700Y-112407700D01*
X128282700Y-113530750D01*
X128377950Y-113626000D01*
X129120000Y-113627843D01*
X129194689Y-113620487D01*
X129266508Y-113598701D01*
X129332696Y-113563322D01*
X129390711Y-113515711D01*
X129438322Y-113457696D01*
X129473701Y-113391508D01*
X129495487Y-113319689D01*
X129502843Y-113245000D01*
X129501000Y-112502950D01*
X129405750Y-112407700D01*
X128282700Y-112407700D01*
X128257300Y-112407700D01*
X127134250Y-112407700D01*
X127039000Y-112502950D01*
X127037157Y-113245000D01*
X120979000Y-113245000D01*
X120979000Y-111545000D01*
X127037157Y-111545000D01*
X127039000Y-112287050D01*
X127134250Y-112382300D01*
X128257300Y-112382300D01*
X128257300Y-111259250D01*
X128282700Y-111259250D01*
X128282700Y-112382300D01*
X129405750Y-112382300D01*
X129501000Y-112287050D01*
X129502843Y-111545000D01*
X129495487Y-111470311D01*
X129473701Y-111398492D01*
X129438322Y-111332304D01*
X129390711Y-111274289D01*
X129332696Y-111226678D01*
X129266508Y-111191299D01*
X129194689Y-111169513D01*
X129120000Y-111162157D01*
X128377950Y-111164000D01*
X128282700Y-111259250D01*
X128257300Y-111259250D01*
X128162050Y-111164000D01*
X127420000Y-111162157D01*
X127345311Y-111169513D01*
X127273492Y-111191299D01*
X127207304Y-111226678D01*
X127149289Y-111274289D01*
X127101678Y-111332304D01*
X127066299Y-111398492D01*
X127044513Y-111470311D01*
X127037157Y-111545000D01*
X120979000Y-111545000D01*
X120979000Y-109661383D01*
X121046926Y-109718616D01*
X121215354Y-109811466D01*
X121398660Y-109869673D01*
X121589800Y-109891000D01*
X121939800Y-109891000D01*
X121939800Y-108922700D01*
X121965200Y-108922700D01*
X121965200Y-109891000D01*
X122315200Y-109891000D01*
X122506340Y-109869673D01*
X122689646Y-109811466D01*
X122858074Y-109718616D01*
X123005152Y-109594692D01*
X123125228Y-109444455D01*
X123213687Y-109273679D01*
X123267129Y-109088927D01*
X123269355Y-109075993D01*
X123188159Y-108922700D01*
X121965200Y-108922700D01*
X121939800Y-108922700D01*
X121919800Y-108922700D01*
X121919800Y-108897300D01*
X121939800Y-108897300D01*
X121939800Y-107929000D01*
X121965200Y-107929000D01*
X121965200Y-108897300D01*
X123188159Y-108897300D01*
X123269355Y-108744007D01*
X123267129Y-108731073D01*
X123240038Y-108637416D01*
X123943044Y-108637416D01*
X124009582Y-108816508D01*
X124198786Y-108924517D01*
X124405426Y-108993539D01*
X124621562Y-109020921D01*
X124838886Y-109005610D01*
X125049048Y-108948196D01*
X125243970Y-108850885D01*
X125295418Y-108816508D01*
X125361956Y-108637416D01*
X124652500Y-107927961D01*
X123943044Y-108637416D01*
X123240038Y-108637416D01*
X123213687Y-108546321D01*
X123125228Y-108375545D01*
X123005152Y-108225308D01*
X122858074Y-108101384D01*
X122689646Y-108008534D01*
X122506340Y-107950327D01*
X122315200Y-107929000D01*
X121965200Y-107929000D01*
X121939800Y-107929000D01*
X121589800Y-107929000D01*
X121398660Y-107950327D01*
X121215354Y-108008534D01*
X121046926Y-108101384D01*
X120979000Y-108158617D01*
X120979000Y-107879062D01*
X123541579Y-107879062D01*
X123556890Y-108096386D01*
X123614304Y-108306548D01*
X123711615Y-108501470D01*
X123745992Y-108552918D01*
X123925084Y-108619456D01*
X124634539Y-107910000D01*
X124670461Y-107910000D01*
X125379916Y-108619456D01*
X125559008Y-108552918D01*
X125667017Y-108363714D01*
X125736039Y-108157074D01*
X125763421Y-107940938D01*
X125748110Y-107723614D01*
X125690696Y-107513452D01*
X125593385Y-107318530D01*
X125559008Y-107267082D01*
X125379916Y-107200544D01*
X124670461Y-107910000D01*
X124634539Y-107910000D01*
X123925084Y-107200544D01*
X123745992Y-107267082D01*
X123637983Y-107456286D01*
X123568961Y-107662926D01*
X123541579Y-107879062D01*
X120979000Y-107879062D01*
X120979000Y-107182584D01*
X123943044Y-107182584D01*
X124652500Y-107892039D01*
X125361956Y-107182584D01*
X125295418Y-107003492D01*
X125106214Y-106895483D01*
X124899574Y-106826461D01*
X124683438Y-106799079D01*
X124466114Y-106814390D01*
X124255952Y-106871804D01*
X124061030Y-106969115D01*
X124009582Y-107003492D01*
X123943044Y-107182584D01*
X120979000Y-107182584D01*
X120979000Y-103637416D01*
X123943044Y-103637416D01*
X124009582Y-103816508D01*
X124198786Y-103924517D01*
X124405426Y-103993539D01*
X124621562Y-104020921D01*
X124838886Y-104005610D01*
X125049048Y-103948196D01*
X125243970Y-103850885D01*
X125295418Y-103816508D01*
X125361956Y-103637416D01*
X124652500Y-102927961D01*
X123943044Y-103637416D01*
X120979000Y-103637416D01*
X120979000Y-102661383D01*
X121046926Y-102718616D01*
X121215354Y-102811466D01*
X121398660Y-102869673D01*
X121589800Y-102891000D01*
X121939800Y-102891000D01*
X121939800Y-101922700D01*
X121965200Y-101922700D01*
X121965200Y-102891000D01*
X122315200Y-102891000D01*
X122422192Y-102879062D01*
X123541579Y-102879062D01*
X123556890Y-103096386D01*
X123614304Y-103306548D01*
X123711615Y-103501470D01*
X123745992Y-103552918D01*
X123925084Y-103619456D01*
X124634539Y-102910000D01*
X124670461Y-102910000D01*
X125379916Y-103619456D01*
X125559008Y-103552918D01*
X125667017Y-103363714D01*
X125736039Y-103157074D01*
X125763421Y-102940938D01*
X125748110Y-102723614D01*
X125690696Y-102513452D01*
X125593385Y-102318530D01*
X125559008Y-102267082D01*
X125379916Y-102200544D01*
X124670461Y-102910000D01*
X124634539Y-102910000D01*
X123925084Y-102200544D01*
X123745992Y-102267082D01*
X123637983Y-102456286D01*
X123568961Y-102662926D01*
X123541579Y-102879062D01*
X122422192Y-102879062D01*
X122506340Y-102869673D01*
X122689646Y-102811466D01*
X122858074Y-102718616D01*
X123005152Y-102594692D01*
X123125228Y-102444455D01*
X123213687Y-102273679D01*
X123240037Y-102182584D01*
X123943044Y-102182584D01*
X124652500Y-102892039D01*
X125361956Y-102182584D01*
X125295418Y-102003492D01*
X125106214Y-101895483D01*
X124899574Y-101826461D01*
X124683438Y-101799079D01*
X124466114Y-101814390D01*
X124255952Y-101871804D01*
X124061030Y-101969115D01*
X124009582Y-102003492D01*
X123943044Y-102182584D01*
X123240037Y-102182584D01*
X123267129Y-102088927D01*
X123269355Y-102075993D01*
X123188159Y-101922700D01*
X121965200Y-101922700D01*
X121939800Y-101922700D01*
X121919800Y-101922700D01*
X121919800Y-101897300D01*
X121939800Y-101897300D01*
X121939800Y-100929000D01*
X121965200Y-100929000D01*
X121965200Y-101897300D01*
X123188159Y-101897300D01*
X123269355Y-101744007D01*
X123267129Y-101731073D01*
X123213687Y-101546321D01*
X123125228Y-101375545D01*
X123005152Y-101225308D01*
X122858074Y-101101384D01*
X122689646Y-101008534D01*
X122506340Y-100950327D01*
X122315200Y-100929000D01*
X121965200Y-100929000D01*
X121939800Y-100929000D01*
X121589800Y-100929000D01*
X121398660Y-100950327D01*
X121215354Y-101008534D01*
X121046926Y-101101384D01*
X120979000Y-101158617D01*
X120979000Y-94002305D01*
X120996648Y-93822315D01*
X121042441Y-93670645D01*
X121116824Y-93530749D01*
X121216962Y-93407968D01*
X121339041Y-93306975D01*
X121478407Y-93231620D01*
X121629765Y-93184767D01*
X121808326Y-93166000D01*
X122883259Y-93166000D01*
X122758008Y-93190914D01*
G04 #@! TA.AperFunction,Conductor*
D19*
G36*
X122758008Y-93190914D02*
G01*
X122488483Y-93302555D01*
X122245917Y-93464632D01*
X122039632Y-93670917D01*
X121877555Y-93913483D01*
X121765914Y-94183008D01*
X121709000Y-94469134D01*
X121709000Y-94760866D01*
X121765914Y-95046992D01*
X121877555Y-95316517D01*
X122039632Y-95559083D01*
X122245917Y-95765368D01*
X122488483Y-95927445D01*
X122758008Y-96039086D01*
X123044134Y-96096000D01*
X123335866Y-96096000D01*
X123621992Y-96039086D01*
X123891517Y-95927445D01*
X124134083Y-95765368D01*
X124340368Y-95559083D01*
X124502445Y-95316517D01*
X124614086Y-95046992D01*
X124657248Y-94830000D01*
X127037157Y-94830000D01*
X127044513Y-94904689D01*
X127066299Y-94976508D01*
X127101678Y-95042696D01*
X127149289Y-95100711D01*
X127207304Y-95148322D01*
X127273492Y-95183701D01*
X127345311Y-95205487D01*
X127420000Y-95212843D01*
X128162050Y-95211000D01*
X128257300Y-95115750D01*
X128257300Y-93992700D01*
X128282700Y-93992700D01*
X128282700Y-95115750D01*
X128377950Y-95211000D01*
X129120000Y-95212843D01*
X129194689Y-95205487D01*
X129266508Y-95183701D01*
X129332696Y-95148322D01*
X129390711Y-95100711D01*
X129438322Y-95042696D01*
X129473701Y-94976508D01*
X129495487Y-94904689D01*
X129502843Y-94830000D01*
X129501000Y-94087950D01*
X129405750Y-93992700D01*
X128282700Y-93992700D01*
X128257300Y-93992700D01*
X127134250Y-93992700D01*
X127039000Y-94087950D01*
X127037157Y-94830000D01*
X124657248Y-94830000D01*
X124671000Y-94760866D01*
X124671000Y-94469134D01*
X124614086Y-94183008D01*
X124502445Y-93913483D01*
X124340368Y-93670917D01*
X124134083Y-93464632D01*
X123891517Y-93302555D01*
X123621992Y-93190914D01*
X123496741Y-93166000D01*
X127037246Y-93166000D01*
X127039000Y-93872050D01*
X127134250Y-93967300D01*
X128257300Y-93967300D01*
X128257300Y-93947300D01*
X128282700Y-93947300D01*
X128282700Y-93967300D01*
X129405750Y-93967300D01*
X129501000Y-93872050D01*
X129502754Y-93166000D01*
X129883103Y-93166000D01*
X129853820Y-93195283D01*
X129719102Y-93396903D01*
X129626307Y-93620931D01*
X129579000Y-93858757D01*
X129579000Y-94101243D01*
X129626307Y-94339069D01*
X129719102Y-94563097D01*
X129853820Y-94764717D01*
X130025283Y-94936180D01*
X130226903Y-95070898D01*
X130238500Y-95075702D01*
X130238501Y-97126917D01*
X130238500Y-97126927D01*
X130238500Y-97964298D01*
X130226903Y-97969102D01*
X130025283Y-98103820D01*
X129853820Y-98275283D01*
X129719102Y-98476903D01*
X129626307Y-98700931D01*
X129579000Y-98938757D01*
X129579000Y-99181243D01*
X129626307Y-99419069D01*
X129719102Y-99643097D01*
X129853820Y-99844717D01*
X130025283Y-100016180D01*
X130226903Y-100150898D01*
X130238500Y-100155702D01*
X130238500Y-100301925D01*
X130235735Y-100330000D01*
X130243311Y-100406922D01*
X130246769Y-100442033D01*
X130279448Y-100549761D01*
X130332516Y-100649044D01*
X130403933Y-100736067D01*
X130425748Y-100753970D01*
X130646286Y-100974508D01*
X127092928Y-100974508D01*
X126873000Y-100754580D01*
X126873000Y-99656501D01*
X126971642Y-99557859D01*
X127038279Y-99458129D01*
X127037157Y-99910000D01*
X127044513Y-99984689D01*
X127066299Y-100056508D01*
X127101678Y-100122696D01*
X127149289Y-100180711D01*
X127207304Y-100228322D01*
X127273492Y-100263701D01*
X127345311Y-100285487D01*
X127420000Y-100292843D01*
X128162050Y-100291000D01*
X128257300Y-100195750D01*
X128257300Y-99072700D01*
X128282700Y-99072700D01*
X128282700Y-100195750D01*
X128377950Y-100291000D01*
X129120000Y-100292843D01*
X129194689Y-100285487D01*
X129266508Y-100263701D01*
X129332696Y-100228322D01*
X129390711Y-100180711D01*
X129438322Y-100122696D01*
X129473701Y-100056508D01*
X129495487Y-99984689D01*
X129502843Y-99910000D01*
X129501000Y-99167950D01*
X129405750Y-99072700D01*
X128282700Y-99072700D01*
X128257300Y-99072700D01*
X128237300Y-99072700D01*
X128237300Y-99047300D01*
X128257300Y-99047300D01*
X128257300Y-97924250D01*
X128282700Y-97924250D01*
X128282700Y-99047300D01*
X129405750Y-99047300D01*
X129501000Y-98952050D01*
X129502843Y-98210000D01*
X129495487Y-98135311D01*
X129473701Y-98063492D01*
X129438322Y-97997304D01*
X129390711Y-97939289D01*
X129332696Y-97891678D01*
X129266508Y-97856299D01*
X129194689Y-97834513D01*
X129120000Y-97827157D01*
X128377950Y-97829000D01*
X128282700Y-97924250D01*
X128257300Y-97924250D01*
X128162050Y-97829000D01*
X127420000Y-97827157D01*
X127345311Y-97834513D01*
X127273492Y-97856299D01*
X127207304Y-97891678D01*
X127149289Y-97939289D01*
X127101678Y-97997304D01*
X127066299Y-98063492D01*
X127044513Y-98135311D01*
X127037157Y-98210000D01*
X127038279Y-98661871D01*
X126971642Y-98562141D01*
X126862859Y-98453358D01*
X126734942Y-98367887D01*
X126592809Y-98309013D01*
X126441922Y-98279000D01*
X126288078Y-98279000D01*
X126137191Y-98309013D01*
X125995058Y-98367887D01*
X125867141Y-98453358D01*
X125758358Y-98562141D01*
X125672887Y-98690058D01*
X125614013Y-98832191D01*
X125584000Y-98983078D01*
X125584000Y-99136922D01*
X125614013Y-99287809D01*
X125672887Y-99429942D01*
X125758358Y-99557859D01*
X125857001Y-99656502D01*
X125857000Y-100940056D01*
X125854543Y-100965000D01*
X125857000Y-100989944D01*
X125857000Y-100989946D01*
X125864351Y-101064584D01*
X125893399Y-101160342D01*
X125940571Y-101248595D01*
X126004052Y-101325948D01*
X126023435Y-101341855D01*
X126505653Y-101824073D01*
X126521560Y-101843456D01*
X126598913Y-101906937D01*
X126687165Y-101954109D01*
X126782923Y-101983157D01*
X126857561Y-101990508D01*
X126857564Y-101990508D01*
X126882508Y-101992965D01*
X126907452Y-101990508D01*
X128795923Y-101990508D01*
X128789013Y-102007191D01*
X128759000Y-102158078D01*
X128759000Y-102311922D01*
X128789013Y-102462809D01*
X128847887Y-102604942D01*
X128933358Y-102732859D01*
X128968501Y-102768002D01*
X128968500Y-104111925D01*
X128965735Y-104140000D01*
X128973311Y-104216922D01*
X128976769Y-104252033D01*
X129009448Y-104359761D01*
X129062516Y-104459044D01*
X129133933Y-104546067D01*
X129155748Y-104563970D01*
X129751034Y-105159257D01*
X129768933Y-105181067D01*
X129855955Y-105252484D01*
X129955238Y-105305552D01*
X130062966Y-105338231D01*
X130175000Y-105349265D01*
X130203074Y-105346500D01*
X131112828Y-105346500D01*
X132504950Y-106738623D01*
X132504950Y-106788322D01*
X132534963Y-106939209D01*
X132593837Y-107081342D01*
X132679308Y-107209259D01*
X132788091Y-107318042D01*
X132916008Y-107403513D01*
X133058141Y-107462387D01*
X133209028Y-107492400D01*
X133362872Y-107492400D01*
X133504952Y-107464139D01*
X133504952Y-108891825D01*
X131695744Y-110701034D01*
X131695739Y-110701038D01*
X131180667Y-111216111D01*
X131169069Y-111211307D01*
X130931243Y-111164000D01*
X130688757Y-111164000D01*
X130450931Y-111211307D01*
X130226903Y-111304102D01*
X130025283Y-111438820D01*
X129853820Y-111610283D01*
X129719102Y-111811903D01*
X129626307Y-112035931D01*
X129579000Y-112273757D01*
X129579000Y-112516243D01*
X129626307Y-112754069D01*
X129719102Y-112978097D01*
X129853820Y-113179717D01*
X130025283Y-113351180D01*
X130226903Y-113485898D01*
X130450931Y-113578693D01*
X130688757Y-113626000D01*
X130931243Y-113626000D01*
X131169069Y-113578693D01*
X131180667Y-113573889D01*
X132778500Y-115171723D01*
X132778500Y-115744298D01*
X132766903Y-115749102D01*
X132565283Y-115883820D01*
X132393820Y-116055283D01*
X132259102Y-116256903D01*
X132166307Y-116480931D01*
X132119000Y-116718757D01*
X132119000Y-116961243D01*
X132166307Y-117199069D01*
X132259102Y-117423097D01*
X132393820Y-117624717D01*
X132423103Y-117654000D01*
X131729167Y-117654000D01*
X131852909Y-117493990D01*
X131960457Y-117277962D01*
X132023793Y-117045104D01*
X131945685Y-116852700D01*
X130822700Y-116852700D01*
X130822700Y-116872700D01*
X130797300Y-116872700D01*
X130797300Y-116852700D01*
X129674315Y-116852700D01*
X129596207Y-117045104D01*
X129659543Y-117277962D01*
X129767091Y-117493990D01*
X129890833Y-117654000D01*
X129502754Y-117654000D01*
X129501000Y-116947950D01*
X129405750Y-116852700D01*
X128282700Y-116852700D01*
X128282700Y-116872700D01*
X128257300Y-116872700D01*
X128257300Y-116852700D01*
X127134250Y-116852700D01*
X127039000Y-116947950D01*
X127037246Y-117654000D01*
X123496741Y-117654000D01*
X123621992Y-117629086D01*
X123891517Y-117517445D01*
X124134083Y-117355368D01*
X124340368Y-117149083D01*
X124502445Y-116906517D01*
X124614086Y-116636992D01*
X124671000Y-116350866D01*
X124671000Y-116059134D01*
X124657249Y-115990000D01*
X127037157Y-115990000D01*
X127039000Y-116732050D01*
X127134250Y-116827300D01*
X128257300Y-116827300D01*
X128257300Y-115704250D01*
X128282700Y-115704250D01*
X128282700Y-116827300D01*
X129405750Y-116827300D01*
X129501000Y-116732050D01*
X129501241Y-116634896D01*
X129596207Y-116634896D01*
X129674315Y-116827300D01*
X130797300Y-116827300D01*
X130797300Y-115704321D01*
X130822700Y-115704321D01*
X130822700Y-116827300D01*
X131945685Y-116827300D01*
X132023793Y-116634896D01*
X131960457Y-116402038D01*
X131852909Y-116186010D01*
X131705283Y-115995115D01*
X131523252Y-115836688D01*
X131313811Y-115716818D01*
X131085008Y-115640111D01*
X131015104Y-115626208D01*
X130822700Y-115704321D01*
X130797300Y-115704321D01*
X130604896Y-115626208D01*
X130534992Y-115640111D01*
X130306189Y-115716818D01*
X130096748Y-115836688D01*
X129914717Y-115995115D01*
X129767091Y-116186010D01*
X129659543Y-116402038D01*
X129596207Y-116634896D01*
X129501241Y-116634896D01*
X129502843Y-115990000D01*
X129495487Y-115915311D01*
X129473701Y-115843492D01*
X129438322Y-115777304D01*
X129390711Y-115719289D01*
X129332696Y-115671678D01*
X129266508Y-115636299D01*
X129194689Y-115614513D01*
X129120000Y-115607157D01*
X128377950Y-115609000D01*
X128282700Y-115704250D01*
X128257300Y-115704250D01*
X128162050Y-115609000D01*
X127420000Y-115607157D01*
X127345311Y-115614513D01*
X127273492Y-115636299D01*
X127207304Y-115671678D01*
X127149289Y-115719289D01*
X127101678Y-115777304D01*
X127066299Y-115843492D01*
X127044513Y-115915311D01*
X127037157Y-115990000D01*
X124657249Y-115990000D01*
X124614086Y-115773008D01*
X124502445Y-115503483D01*
X124340368Y-115260917D01*
X124134083Y-115054632D01*
X123891517Y-114892555D01*
X123621992Y-114780914D01*
X123335866Y-114724000D01*
X123044134Y-114724000D01*
X122758008Y-114780914D01*
X122488483Y-114892555D01*
X122245917Y-115054632D01*
X122039632Y-115260917D01*
X121877555Y-115503483D01*
X121765914Y-115773008D01*
X121709000Y-116059134D01*
X121709000Y-116350866D01*
X121765914Y-116636992D01*
X121877555Y-116906517D01*
X122039632Y-117149083D01*
X122245917Y-117355368D01*
X122488483Y-117517445D01*
X122758008Y-117629086D01*
X122883259Y-117654000D01*
X121815305Y-117654000D01*
X121635315Y-117636352D01*
X121483645Y-117590559D01*
X121343748Y-117516175D01*
X121220967Y-117416038D01*
X121119977Y-117293961D01*
X121044620Y-117154593D01*
X120997767Y-117003235D01*
X120979000Y-116824674D01*
X120979000Y-113245000D01*
X127037157Y-113245000D01*
X127044513Y-113319689D01*
X127066299Y-113391508D01*
X127101678Y-113457696D01*
X127149289Y-113515711D01*
X127207304Y-113563322D01*
X127273492Y-113598701D01*
X127345311Y-113620487D01*
X127420000Y-113627843D01*
X128162050Y-113626000D01*
X128257300Y-113530750D01*
X128257300Y-112407700D01*
X128282700Y-112407700D01*
X128282700Y-113530750D01*
X128377950Y-113626000D01*
X129120000Y-113627843D01*
X129194689Y-113620487D01*
X129266508Y-113598701D01*
X129332696Y-113563322D01*
X129390711Y-113515711D01*
X129438322Y-113457696D01*
X129473701Y-113391508D01*
X129495487Y-113319689D01*
X129502843Y-113245000D01*
X129501000Y-112502950D01*
X129405750Y-112407700D01*
X128282700Y-112407700D01*
X128257300Y-112407700D01*
X127134250Y-112407700D01*
X127039000Y-112502950D01*
X127037157Y-113245000D01*
X120979000Y-113245000D01*
X120979000Y-111545000D01*
X127037157Y-111545000D01*
X127039000Y-112287050D01*
X127134250Y-112382300D01*
X128257300Y-112382300D01*
X128257300Y-111259250D01*
X128282700Y-111259250D01*
X128282700Y-112382300D01*
X129405750Y-112382300D01*
X129501000Y-112287050D01*
X129502843Y-111545000D01*
X129495487Y-111470311D01*
X129473701Y-111398492D01*
X129438322Y-111332304D01*
X129390711Y-111274289D01*
X129332696Y-111226678D01*
X129266508Y-111191299D01*
X129194689Y-111169513D01*
X129120000Y-111162157D01*
X128377950Y-111164000D01*
X128282700Y-111259250D01*
X128257300Y-111259250D01*
X128162050Y-111164000D01*
X127420000Y-111162157D01*
X127345311Y-111169513D01*
X127273492Y-111191299D01*
X127207304Y-111226678D01*
X127149289Y-111274289D01*
X127101678Y-111332304D01*
X127066299Y-111398492D01*
X127044513Y-111470311D01*
X127037157Y-111545000D01*
X120979000Y-111545000D01*
X120979000Y-109661383D01*
X121046926Y-109718616D01*
X121215354Y-109811466D01*
X121398660Y-109869673D01*
X121589800Y-109891000D01*
X121939800Y-109891000D01*
X121939800Y-108922700D01*
X121965200Y-108922700D01*
X121965200Y-109891000D01*
X122315200Y-109891000D01*
X122506340Y-109869673D01*
X122689646Y-109811466D01*
X122858074Y-109718616D01*
X123005152Y-109594692D01*
X123125228Y-109444455D01*
X123213687Y-109273679D01*
X123267129Y-109088927D01*
X123269355Y-109075993D01*
X123188159Y-108922700D01*
X121965200Y-108922700D01*
X121939800Y-108922700D01*
X121919800Y-108922700D01*
X121919800Y-108897300D01*
X121939800Y-108897300D01*
X121939800Y-107929000D01*
X121965200Y-107929000D01*
X121965200Y-108897300D01*
X123188159Y-108897300D01*
X123269355Y-108744007D01*
X123267129Y-108731073D01*
X123240038Y-108637416D01*
X123943044Y-108637416D01*
X124009582Y-108816508D01*
X124198786Y-108924517D01*
X124405426Y-108993539D01*
X124621562Y-109020921D01*
X124838886Y-109005610D01*
X125049048Y-108948196D01*
X125243970Y-108850885D01*
X125295418Y-108816508D01*
X125361956Y-108637416D01*
X124652500Y-107927961D01*
X123943044Y-108637416D01*
X123240038Y-108637416D01*
X123213687Y-108546321D01*
X123125228Y-108375545D01*
X123005152Y-108225308D01*
X122858074Y-108101384D01*
X122689646Y-108008534D01*
X122506340Y-107950327D01*
X122315200Y-107929000D01*
X121965200Y-107929000D01*
X121939800Y-107929000D01*
X121589800Y-107929000D01*
X121398660Y-107950327D01*
X121215354Y-108008534D01*
X121046926Y-108101384D01*
X120979000Y-108158617D01*
X120979000Y-107879062D01*
X123541579Y-107879062D01*
X123556890Y-108096386D01*
X123614304Y-108306548D01*
X123711615Y-108501470D01*
X123745992Y-108552918D01*
X123925084Y-108619456D01*
X124634539Y-107910000D01*
X124670461Y-107910000D01*
X125379916Y-108619456D01*
X125559008Y-108552918D01*
X125667017Y-108363714D01*
X125736039Y-108157074D01*
X125763421Y-107940938D01*
X125748110Y-107723614D01*
X125690696Y-107513452D01*
X125593385Y-107318530D01*
X125559008Y-107267082D01*
X125379916Y-107200544D01*
X124670461Y-107910000D01*
X124634539Y-107910000D01*
X123925084Y-107200544D01*
X123745992Y-107267082D01*
X123637983Y-107456286D01*
X123568961Y-107662926D01*
X123541579Y-107879062D01*
X120979000Y-107879062D01*
X120979000Y-107182584D01*
X123943044Y-107182584D01*
X124652500Y-107892039D01*
X125361956Y-107182584D01*
X125295418Y-107003492D01*
X125106214Y-106895483D01*
X124899574Y-106826461D01*
X124683438Y-106799079D01*
X124466114Y-106814390D01*
X124255952Y-106871804D01*
X124061030Y-106969115D01*
X124009582Y-107003492D01*
X123943044Y-107182584D01*
X120979000Y-107182584D01*
X120979000Y-103637416D01*
X123943044Y-103637416D01*
X124009582Y-103816508D01*
X124198786Y-103924517D01*
X124405426Y-103993539D01*
X124621562Y-104020921D01*
X124838886Y-104005610D01*
X125049048Y-103948196D01*
X125243970Y-103850885D01*
X125295418Y-103816508D01*
X125361956Y-103637416D01*
X124652500Y-102927961D01*
X123943044Y-103637416D01*
X120979000Y-103637416D01*
X120979000Y-102661383D01*
X121046926Y-102718616D01*
X121215354Y-102811466D01*
X121398660Y-102869673D01*
X121589800Y-102891000D01*
X121939800Y-102891000D01*
X121939800Y-101922700D01*
X121965200Y-101922700D01*
X121965200Y-102891000D01*
X122315200Y-102891000D01*
X122422192Y-102879062D01*
X123541579Y-102879062D01*
X123556890Y-103096386D01*
X123614304Y-103306548D01*
X123711615Y-103501470D01*
X123745992Y-103552918D01*
X123925084Y-103619456D01*
X124634539Y-102910000D01*
X124670461Y-102910000D01*
X125379916Y-103619456D01*
X125559008Y-103552918D01*
X125667017Y-103363714D01*
X125736039Y-103157074D01*
X125763421Y-102940938D01*
X125748110Y-102723614D01*
X125690696Y-102513452D01*
X125593385Y-102318530D01*
X125559008Y-102267082D01*
X125379916Y-102200544D01*
X124670461Y-102910000D01*
X124634539Y-102910000D01*
X123925084Y-102200544D01*
X123745992Y-102267082D01*
X123637983Y-102456286D01*
X123568961Y-102662926D01*
X123541579Y-102879062D01*
X122422192Y-102879062D01*
X122506340Y-102869673D01*
X122689646Y-102811466D01*
X122858074Y-102718616D01*
X123005152Y-102594692D01*
X123125228Y-102444455D01*
X123213687Y-102273679D01*
X123240037Y-102182584D01*
X123943044Y-102182584D01*
X124652500Y-102892039D01*
X125361956Y-102182584D01*
X125295418Y-102003492D01*
X125106214Y-101895483D01*
X124899574Y-101826461D01*
X124683438Y-101799079D01*
X124466114Y-101814390D01*
X124255952Y-101871804D01*
X124061030Y-101969115D01*
X124009582Y-102003492D01*
X123943044Y-102182584D01*
X123240037Y-102182584D01*
X123267129Y-102088927D01*
X123269355Y-102075993D01*
X123188159Y-101922700D01*
X121965200Y-101922700D01*
X121939800Y-101922700D01*
X121919800Y-101922700D01*
X121919800Y-101897300D01*
X121939800Y-101897300D01*
X121939800Y-100929000D01*
X121965200Y-100929000D01*
X121965200Y-101897300D01*
X123188159Y-101897300D01*
X123269355Y-101744007D01*
X123267129Y-101731073D01*
X123213687Y-101546321D01*
X123125228Y-101375545D01*
X123005152Y-101225308D01*
X122858074Y-101101384D01*
X122689646Y-101008534D01*
X122506340Y-100950327D01*
X122315200Y-100929000D01*
X121965200Y-100929000D01*
X121939800Y-100929000D01*
X121589800Y-100929000D01*
X121398660Y-100950327D01*
X121215354Y-101008534D01*
X121046926Y-101101384D01*
X120979000Y-101158617D01*
X120979000Y-94002305D01*
X120996648Y-93822315D01*
X121042441Y-93670645D01*
X121116824Y-93530749D01*
X121216962Y-93407968D01*
X121339041Y-93306975D01*
X121478407Y-93231620D01*
X121629765Y-93184767D01*
X121808326Y-93166000D01*
X122883259Y-93166000D01*
X122758008Y-93190914D01*
G37*
G04 #@! TD.AperFunction*
D18*
X177165000Y-115783782D02*
X177113097Y-115749102D01*
X177038000Y-115717996D01*
X177038000Y-114959943D01*
X177040457Y-114934999D01*
X177037692Y-114906926D01*
X177030649Y-114835415D01*
X177001601Y-114739657D01*
X177000388Y-114737388D01*
X176954429Y-114651404D01*
X176906850Y-114593429D01*
X176890948Y-114574052D01*
X176871571Y-114558150D01*
X175464120Y-113150699D01*
X175487809Y-113145987D01*
X175629942Y-113087113D01*
X175757859Y-113001642D01*
X175866642Y-112892859D01*
X175952113Y-112764942D01*
X176010987Y-112622809D01*
X176041000Y-112471922D01*
X176041000Y-112318078D01*
X176010987Y-112167191D01*
X175952113Y-112025058D01*
X175866642Y-111897141D01*
X175757859Y-111788358D01*
X175629942Y-111702887D01*
X175487809Y-111644013D01*
X175336922Y-111614000D01*
X175197420Y-111614000D01*
X173731855Y-110148435D01*
X173715948Y-110129052D01*
X173638595Y-110065571D01*
X173550343Y-110018399D01*
X173454585Y-109989351D01*
X173379947Y-109982000D01*
X173379944Y-109982000D01*
X173355000Y-109979543D01*
X173330056Y-109982000D01*
X158518037Y-109982000D01*
X158612859Y-109918642D01*
X158721642Y-109809859D01*
X158807113Y-109681942D01*
X158865987Y-109539809D01*
X158896000Y-109388922D01*
X158896000Y-109235078D01*
X158865987Y-109084191D01*
X158807113Y-108942058D01*
X158721642Y-108814141D01*
X158612859Y-108705358D01*
X158484942Y-108619887D01*
X158342809Y-108561013D01*
X158191922Y-108531000D01*
X158038078Y-108531000D01*
X157887191Y-108561013D01*
X157745058Y-108619887D01*
X157617141Y-108705358D01*
X157508358Y-108814141D01*
X157422887Y-108942058D01*
X157364013Y-109084191D01*
X157334000Y-109235078D01*
X157334000Y-109374580D01*
X157228825Y-109479755D01*
X147921051Y-109479755D01*
X147822409Y-109381113D01*
X147694492Y-109295642D01*
X147552359Y-109236768D01*
X147401472Y-109206755D01*
X147247628Y-109206755D01*
X147096741Y-109236768D01*
X146954608Y-109295642D01*
X146826691Y-109381113D01*
X146717908Y-109489896D01*
X146632437Y-109617813D01*
X146573563Y-109759946D01*
X146543550Y-109910833D01*
X146543550Y-110064677D01*
X146573563Y-110215564D01*
X146632437Y-110357697D01*
X146717908Y-110485614D01*
X146826691Y-110594397D01*
X146860519Y-110617000D01*
X146646501Y-110617000D01*
X146547859Y-110518358D01*
X146419942Y-110432887D01*
X146277809Y-110374013D01*
X146126922Y-110344000D01*
X145973078Y-110344000D01*
X145822191Y-110374013D01*
X145680058Y-110432887D01*
X145552141Y-110518358D01*
X145443358Y-110627141D01*
X145357887Y-110755058D01*
X145299013Y-110897191D01*
X145269000Y-111048078D01*
X145269000Y-111201922D01*
X145299013Y-111352809D01*
X145357887Y-111494942D01*
X145443358Y-111622859D01*
X145552141Y-111731642D01*
X145680058Y-111817113D01*
X145822191Y-111875987D01*
X145973078Y-111906000D01*
X146126922Y-111906000D01*
X146277809Y-111875987D01*
X146419942Y-111817113D01*
X146547859Y-111731642D01*
X146646501Y-111633000D01*
X150660499Y-111633000D01*
X150759141Y-111731642D01*
X150887058Y-111817113D01*
X151029191Y-111875987D01*
X151180078Y-111906000D01*
X151333922Y-111906000D01*
X151484809Y-111875987D01*
X151626942Y-111817113D01*
X151754859Y-111731642D01*
X151853501Y-111633000D01*
X153645056Y-111633000D01*
X153670000Y-111635457D01*
X153694944Y-111633000D01*
X153694947Y-111633000D01*
X153769585Y-111625649D01*
X153865343Y-111596601D01*
X153953595Y-111549429D01*
X154030948Y-111485948D01*
X154046855Y-111466565D01*
X154515420Y-110998000D01*
X173144580Y-110998000D01*
X173785881Y-111639301D01*
X173762191Y-111644013D01*
X173620058Y-111702887D01*
X173492141Y-111788358D01*
X173383358Y-111897141D01*
X173355000Y-111939582D01*
X173326642Y-111897141D01*
X173217859Y-111788358D01*
X173089942Y-111702887D01*
X172947809Y-111644013D01*
X172796922Y-111614000D01*
X172643078Y-111614000D01*
X172492191Y-111644013D01*
X172350058Y-111702887D01*
X172222141Y-111788358D01*
X172113358Y-111897141D01*
X172027887Y-112025058D01*
X171969013Y-112167191D01*
X171939000Y-112318078D01*
X171939000Y-112471922D01*
X171969013Y-112622809D01*
X172027887Y-112764942D01*
X172113358Y-112892859D01*
X172212001Y-112991502D01*
X172212001Y-113005046D01*
X172209543Y-113030000D01*
X172215169Y-113087113D01*
X172219352Y-113129585D01*
X172248400Y-113225343D01*
X172295571Y-113313595D01*
X172334069Y-113360505D01*
X172359053Y-113390948D01*
X172378430Y-113406850D01*
X173482000Y-114510421D01*
X173482001Y-115717996D01*
X173406903Y-115749102D01*
X173205283Y-115883820D01*
X173033820Y-116055283D01*
X172899102Y-116256903D01*
X172806307Y-116480931D01*
X172759000Y-116718757D01*
X172759000Y-116961243D01*
X172806307Y-117199069D01*
X172899102Y-117423097D01*
X173033820Y-117624717D01*
X173063103Y-117654000D01*
X172376897Y-117654000D01*
X172406180Y-117624717D01*
X172540898Y-117423097D01*
X172633693Y-117199069D01*
X172681000Y-116961243D01*
X172681000Y-116718757D01*
X172633693Y-116480931D01*
X172540898Y-116256903D01*
X172406180Y-116055283D01*
X172234717Y-115883820D01*
X172033097Y-115749102D01*
X171809069Y-115656307D01*
X171571243Y-115609000D01*
X171328757Y-115609000D01*
X171090931Y-115656307D01*
X170866903Y-115749102D01*
X170665283Y-115883820D01*
X170493820Y-116055283D01*
X170359102Y-116256903D01*
X170266307Y-116480931D01*
X170219000Y-116718757D01*
X170219000Y-116961243D01*
X170266307Y-117199069D01*
X170359102Y-117423097D01*
X170493820Y-117624717D01*
X170523103Y-117654000D01*
X169836897Y-117654000D01*
X169866180Y-117624717D01*
X170000898Y-117423097D01*
X170093693Y-117199069D01*
X170141000Y-116961243D01*
X170141000Y-116718757D01*
X170093693Y-116480931D01*
X170000898Y-116256903D01*
X169866180Y-116055283D01*
X169694717Y-115883820D01*
X169493097Y-115749102D01*
X169269069Y-115656307D01*
X169031243Y-115609000D01*
X168788757Y-115609000D01*
X168550931Y-115656307D01*
X168326903Y-115749102D01*
X168125283Y-115883820D01*
X167953820Y-116055283D01*
X167819102Y-116256903D01*
X167726307Y-116480931D01*
X167679000Y-116718757D01*
X167679000Y-116961243D01*
X167726307Y-117199069D01*
X167819102Y-117423097D01*
X167953820Y-117624717D01*
X167983103Y-117654000D01*
X167296897Y-117654000D01*
X167326180Y-117624717D01*
X167460898Y-117423097D01*
X167553693Y-117199069D01*
X167601000Y-116961243D01*
X167601000Y-116718757D01*
X167553693Y-116480931D01*
X167460898Y-116256903D01*
X167326180Y-116055283D01*
X167154717Y-115883820D01*
X166953097Y-115749102D01*
X166729069Y-115656307D01*
X166491243Y-115609000D01*
X166248757Y-115609000D01*
X166010931Y-115656307D01*
X165786903Y-115749102D01*
X165585283Y-115883820D01*
X165413820Y-116055283D01*
X165279102Y-116256903D01*
X165186307Y-116480931D01*
X165139000Y-116718757D01*
X165139000Y-116961243D01*
X165186307Y-117199069D01*
X165279102Y-117423097D01*
X165413820Y-117624717D01*
X165443103Y-117654000D01*
X164756897Y-117654000D01*
X164786180Y-117624717D01*
X164920898Y-117423097D01*
X165013693Y-117199069D01*
X165061000Y-116961243D01*
X165061000Y-116718757D01*
X165013693Y-116480931D01*
X164920898Y-116256903D01*
X164786180Y-116055283D01*
X164614717Y-115883820D01*
X164413097Y-115749102D01*
X164189069Y-115656307D01*
X163951243Y-115609000D01*
X163708757Y-115609000D01*
X163470931Y-115656307D01*
X163246903Y-115749102D01*
X163045283Y-115883820D01*
X162873820Y-116055283D01*
X162739102Y-116256903D01*
X162646307Y-116480931D01*
X162599000Y-116718757D01*
X162599000Y-116961243D01*
X162646307Y-117199069D01*
X162739102Y-117423097D01*
X162873820Y-117624717D01*
X162903103Y-117654000D01*
X162216897Y-117654000D01*
X162246180Y-117624717D01*
X162380898Y-117423097D01*
X162473693Y-117199069D01*
X162521000Y-116961243D01*
X162521000Y-116718757D01*
X162473693Y-116480931D01*
X162380898Y-116256903D01*
X162246180Y-116055283D01*
X162074717Y-115883820D01*
X161873097Y-115749102D01*
X161649069Y-115656307D01*
X161411243Y-115609000D01*
X161168757Y-115609000D01*
X160930931Y-115656307D01*
X160706903Y-115749102D01*
X160505283Y-115883820D01*
X160333820Y-116055283D01*
X160199102Y-116256903D01*
X160106307Y-116480931D01*
X160059000Y-116718757D01*
X160059000Y-116961243D01*
X160106307Y-117199069D01*
X160199102Y-117423097D01*
X160333820Y-117624717D01*
X160363103Y-117654000D01*
X159676897Y-117654000D01*
X159706180Y-117624717D01*
X159840898Y-117423097D01*
X159933693Y-117199069D01*
X159981000Y-116961243D01*
X159981000Y-116718757D01*
X159933693Y-116480931D01*
X159840898Y-116256903D01*
X159721359Y-116078000D01*
X159995056Y-116078000D01*
X160020000Y-116080457D01*
X160044944Y-116078000D01*
X160044947Y-116078000D01*
X160119585Y-116070649D01*
X160215343Y-116041601D01*
X160303595Y-115994429D01*
X160380948Y-115930948D01*
X160396855Y-115911565D01*
X161631571Y-114676850D01*
X161650948Y-114660948D01*
X161678449Y-114627438D01*
X161714429Y-114583596D01*
X161761600Y-114495345D01*
X161761601Y-114495342D01*
X161790649Y-114399585D01*
X161798000Y-114324947D01*
X161798000Y-114324945D01*
X161800457Y-114300001D01*
X161798000Y-114275053D01*
X161798000Y-113240420D01*
X161862420Y-113176000D01*
X162001922Y-113176000D01*
X162152809Y-113145987D01*
X162294942Y-113087113D01*
X162422859Y-113001642D01*
X162531642Y-112892859D01*
X162617113Y-112764942D01*
X162675987Y-112622809D01*
X162706000Y-112471922D01*
X162706000Y-112318078D01*
X162675987Y-112167191D01*
X162617113Y-112025058D01*
X162531642Y-111897141D01*
X162422859Y-111788358D01*
X162294942Y-111702887D01*
X162152809Y-111644013D01*
X162001922Y-111614000D01*
X161848078Y-111614000D01*
X161697191Y-111644013D01*
X161555058Y-111702887D01*
X161427141Y-111788358D01*
X161318358Y-111897141D01*
X161232887Y-112025058D01*
X161174013Y-112167191D01*
X161144000Y-112318078D01*
X161144000Y-112457580D01*
X160948435Y-112653145D01*
X160929052Y-112669052D01*
X160865571Y-112746405D01*
X160818399Y-112834658D01*
X160789351Y-112930416D01*
X160786612Y-112958231D01*
X160779543Y-113030000D01*
X160782000Y-113054945D01*
X160782001Y-114089578D01*
X159809580Y-115062000D01*
X157504943Y-115062000D01*
X157479999Y-115059543D01*
X157455055Y-115062000D01*
X157455053Y-115062000D01*
X157434385Y-115064036D01*
X157817421Y-114681000D01*
X158852053Y-114681000D01*
X158877000Y-114683457D01*
X158901947Y-114681000D01*
X158976585Y-114673649D01*
X159072343Y-114644601D01*
X159160595Y-114597429D01*
X159237948Y-114533948D01*
X159301429Y-114456595D01*
X159348601Y-114368343D01*
X159377649Y-114272585D01*
X159387457Y-114173000D01*
X159385000Y-114148053D01*
X159385000Y-112991501D01*
X159483642Y-112892859D01*
X159569113Y-112764942D01*
X159627987Y-112622809D01*
X159658000Y-112471922D01*
X159658000Y-112318078D01*
X159627987Y-112167191D01*
X159569113Y-112025058D01*
X159483642Y-111897141D01*
X159374859Y-111788358D01*
X159246942Y-111702887D01*
X159104809Y-111644013D01*
X158953922Y-111614000D01*
X158800078Y-111614000D01*
X158649191Y-111644013D01*
X158507058Y-111702887D01*
X158379141Y-111788358D01*
X158270358Y-111897141D01*
X158184887Y-112025058D01*
X158126013Y-112167191D01*
X158115000Y-112222558D01*
X158103987Y-112167191D01*
X158045113Y-112025058D01*
X157959642Y-111897141D01*
X157850859Y-111788358D01*
X157722942Y-111702887D01*
X157580809Y-111644013D01*
X157429922Y-111614000D01*
X157276078Y-111614000D01*
X157125191Y-111644013D01*
X156983058Y-111702887D01*
X156855141Y-111788358D01*
X156781500Y-111861999D01*
X156707859Y-111788358D01*
X156579942Y-111702887D01*
X156437809Y-111644013D01*
X156286922Y-111614000D01*
X156133078Y-111614000D01*
X155982191Y-111644013D01*
X155840058Y-111702887D01*
X155712141Y-111788358D01*
X155603358Y-111897141D01*
X155517887Y-112025058D01*
X155459013Y-112167191D01*
X155429000Y-112318078D01*
X155429000Y-112471922D01*
X155459013Y-112622809D01*
X155517887Y-112764942D01*
X155603358Y-112892859D01*
X155702000Y-112991501D01*
X155702001Y-114075447D01*
X155623468Y-114153980D01*
X152048830Y-114153980D01*
X152023886Y-114151523D01*
X151998942Y-114153980D01*
X151998939Y-114153980D01*
X151924301Y-114161331D01*
X151828543Y-114190379D01*
X151740291Y-114237551D01*
X151662938Y-114301032D01*
X151647031Y-114320415D01*
X151266457Y-114700989D01*
X149603888Y-114700989D01*
X149578944Y-114698532D01*
X149554000Y-114700989D01*
X149553997Y-114700989D01*
X149479359Y-114708340D01*
X149383601Y-114737388D01*
X149295349Y-114784560D01*
X149217996Y-114848041D01*
X149202089Y-114867424D01*
X149007513Y-115062000D01*
X147344943Y-115062000D01*
X147319999Y-115059543D01*
X147295055Y-115062000D01*
X147295053Y-115062000D01*
X147220415Y-115069351D01*
X147124657Y-115098399D01*
X147124655Y-115098400D01*
X147036404Y-115145571D01*
X147015619Y-115162629D01*
X146959052Y-115209052D01*
X146943150Y-115228429D01*
X146484166Y-115687413D01*
X146409069Y-115656307D01*
X146171243Y-115609000D01*
X145928757Y-115609000D01*
X145690931Y-115656307D01*
X145466903Y-115749102D01*
X145265283Y-115883820D01*
X145093820Y-116055283D01*
X144959102Y-116256903D01*
X144866307Y-116480931D01*
X144819000Y-116718757D01*
X144819000Y-116961243D01*
X144866307Y-117199069D01*
X144959102Y-117423097D01*
X145093820Y-117624717D01*
X145123103Y-117654000D01*
X144436897Y-117654000D01*
X144466180Y-117624717D01*
X144600898Y-117423097D01*
X144693693Y-117199069D01*
X144741000Y-116961243D01*
X144741000Y-116718757D01*
X144693693Y-116480931D01*
X144600898Y-116256903D01*
X144466180Y-116055283D01*
X144294717Y-115883820D01*
X144093097Y-115749102D01*
X144018000Y-115717996D01*
X144018000Y-113240420D01*
X144486565Y-112771855D01*
X144505948Y-112755948D01*
X144569429Y-112678595D01*
X144616601Y-112590343D01*
X144645649Y-112494585D01*
X144653000Y-112419947D01*
X144653000Y-112419944D01*
X144655457Y-112395000D01*
X144653000Y-112370053D01*
X144653000Y-110700420D01*
X145352421Y-110001000D01*
X145491922Y-110001000D01*
X145642809Y-109970987D01*
X145784942Y-109912113D01*
X145912859Y-109826642D01*
X146021642Y-109717859D01*
X146107113Y-109589942D01*
X146165987Y-109447809D01*
X146196000Y-109296922D01*
X146196000Y-109143078D01*
X146165987Y-108992191D01*
X146107113Y-108850058D01*
X146021642Y-108722141D01*
X145912859Y-108613358D01*
X145784942Y-108527887D01*
X145759931Y-108517527D01*
X149629458Y-104648000D01*
X151105056Y-104648000D01*
X151130000Y-104650457D01*
X151154944Y-104648000D01*
X151154947Y-104648000D01*
X151229585Y-104640649D01*
X151325343Y-104611601D01*
X151413595Y-104564429D01*
X151490948Y-104500948D01*
X151506855Y-104481565D01*
X151702420Y-104286000D01*
X151841922Y-104286000D01*
X151992809Y-104255987D01*
X152134942Y-104197113D01*
X152262859Y-104111642D01*
X152371642Y-104002859D01*
X152457113Y-103874942D01*
X152515987Y-103732809D01*
X152546000Y-103581922D01*
X152546000Y-103428078D01*
X152515987Y-103277191D01*
X152457113Y-103135058D01*
X152371642Y-103007141D01*
X152262859Y-102898358D01*
X152134942Y-102812887D01*
X151992809Y-102754013D01*
X151841922Y-102724000D01*
X151688078Y-102724000D01*
X151537191Y-102754013D01*
X151395058Y-102812887D01*
X151267141Y-102898358D01*
X151158358Y-103007141D01*
X151072887Y-103135058D01*
X151014013Y-103277191D01*
X150984000Y-103428078D01*
X150984000Y-103567580D01*
X150919580Y-103632000D01*
X149443982Y-103632000D01*
X149419038Y-103629543D01*
X149394094Y-103632000D01*
X149394091Y-103632000D01*
X149319453Y-103639351D01*
X149223695Y-103668399D01*
X149182614Y-103690357D01*
X149135442Y-103715571D01*
X149114438Y-103732809D01*
X149058090Y-103779052D01*
X149042183Y-103798435D01*
X144128618Y-108712000D01*
X142899944Y-108712000D01*
X142875000Y-108709543D01*
X142850056Y-108712000D01*
X142850053Y-108712000D01*
X142775415Y-108719351D01*
X142679657Y-108748399D01*
X142591405Y-108795571D01*
X142514052Y-108859052D01*
X142498145Y-108878435D01*
X140628430Y-110748150D01*
X140609053Y-110764052D01*
X140593151Y-110783429D01*
X140593150Y-110783430D01*
X140545571Y-110841405D01*
X140498400Y-110929657D01*
X140477669Y-110998000D01*
X140469352Y-111025416D01*
X140459543Y-111125000D01*
X140462001Y-111149954D01*
X140462001Y-111423642D01*
X140283097Y-111304102D01*
X140059069Y-111211307D01*
X139821243Y-111164000D01*
X139578757Y-111164000D01*
X139340931Y-111211307D01*
X139116903Y-111304102D01*
X138915283Y-111438820D01*
X138743820Y-111610283D01*
X138609102Y-111811903D01*
X138516307Y-112035931D01*
X138469000Y-112273757D01*
X138469000Y-112516243D01*
X138516307Y-112754069D01*
X138609102Y-112978097D01*
X138743820Y-113179717D01*
X138915283Y-113351180D01*
X139116903Y-113485898D01*
X139340931Y-113578693D01*
X139578757Y-113626000D01*
X139821243Y-113626000D01*
X140059069Y-113578693D01*
X140283097Y-113485898D01*
X140462000Y-113366359D01*
X140462000Y-114089580D01*
X140124580Y-114427000D01*
X137819944Y-114427000D01*
X137795000Y-114424543D01*
X137770056Y-114427000D01*
X137770053Y-114427000D01*
X137695415Y-114434351D01*
X137599657Y-114463399D01*
X137511405Y-114510571D01*
X137434052Y-114574052D01*
X137418145Y-114593435D01*
X136398000Y-115613580D01*
X136398000Y-114959943D01*
X136400457Y-114934999D01*
X136397692Y-114906926D01*
X136390649Y-114835415D01*
X136361601Y-114739657D01*
X136360388Y-114737388D01*
X136314429Y-114651404D01*
X136266850Y-114593429D01*
X136250948Y-114574052D01*
X136231571Y-114558150D01*
X134918421Y-113245000D01*
X135927157Y-113245000D01*
X135934513Y-113319689D01*
X135956299Y-113391508D01*
X135991678Y-113457696D01*
X136039289Y-113515711D01*
X136097304Y-113563322D01*
X136163492Y-113598701D01*
X136235311Y-113620487D01*
X136310000Y-113627843D01*
X137052050Y-113626000D01*
X137147300Y-113530750D01*
X137147300Y-112407700D01*
X137172700Y-112407700D01*
X137172700Y-113530750D01*
X137267950Y-113626000D01*
X138010000Y-113627843D01*
X138084689Y-113620487D01*
X138156508Y-113598701D01*
X138222696Y-113563322D01*
X138280711Y-113515711D01*
X138328322Y-113457696D01*
X138363701Y-113391508D01*
X138385487Y-113319689D01*
X138392843Y-113245000D01*
X138391000Y-112502950D01*
X138295750Y-112407700D01*
X137172700Y-112407700D01*
X137147300Y-112407700D01*
X136024250Y-112407700D01*
X135929000Y-112502950D01*
X135927157Y-113245000D01*
X134918421Y-113245000D01*
X134502587Y-112829166D01*
X134533693Y-112754069D01*
X134581000Y-112516243D01*
X134581000Y-112273757D01*
X134533693Y-112035931D01*
X134440898Y-111811903D01*
X134306180Y-111610283D01*
X134240897Y-111545000D01*
X135927157Y-111545000D01*
X135929000Y-112287050D01*
X136024250Y-112382300D01*
X137147300Y-112382300D01*
X137147300Y-111259250D01*
X137172700Y-111259250D01*
X137172700Y-112382300D01*
X138295750Y-112382300D01*
X138391000Y-112287050D01*
X138392843Y-111545000D01*
X138385487Y-111470311D01*
X138363701Y-111398492D01*
X138328322Y-111332304D01*
X138280711Y-111274289D01*
X138222696Y-111226678D01*
X138156508Y-111191299D01*
X138084689Y-111169513D01*
X138010000Y-111162157D01*
X137267950Y-111164000D01*
X137172700Y-111259250D01*
X137147300Y-111259250D01*
X137052050Y-111164000D01*
X136310000Y-111162157D01*
X136235311Y-111169513D01*
X136163492Y-111191299D01*
X136097304Y-111226678D01*
X136039289Y-111274289D01*
X135991678Y-111332304D01*
X135956299Y-111398492D01*
X135934513Y-111470311D01*
X135927157Y-111545000D01*
X134240897Y-111545000D01*
X134134717Y-111438820D01*
X133933097Y-111304102D01*
X133709069Y-111211307D01*
X133471243Y-111164000D01*
X133228757Y-111164000D01*
X132990931Y-111211307D01*
X132766903Y-111304102D01*
X132592765Y-111420457D01*
X134460708Y-109552515D01*
X134482518Y-109534616D01*
X134553935Y-109447594D01*
X134607003Y-109348311D01*
X134639682Y-109240583D01*
X134647951Y-109156623D01*
X134650716Y-109128550D01*
X134647951Y-109100476D01*
X134647951Y-104894522D01*
X134650716Y-104866450D01*
X134647334Y-104832113D01*
X134639682Y-104754417D01*
X134607003Y-104646689D01*
X134553935Y-104547406D01*
X134482518Y-104460384D01*
X134460709Y-104442486D01*
X134094723Y-104076500D01*
X141576926Y-104076500D01*
X141605000Y-104079265D01*
X141633074Y-104076500D01*
X141717034Y-104068231D01*
X141824762Y-104035552D01*
X141924045Y-103982484D01*
X142011067Y-103911067D01*
X142028970Y-103889252D01*
X144807223Y-101111000D01*
X144856922Y-101111000D01*
X145007809Y-101080987D01*
X145149942Y-101022113D01*
X145277859Y-100936642D01*
X145386642Y-100827859D01*
X145472113Y-100699942D01*
X145530987Y-100557809D01*
X145561000Y-100406922D01*
X145561000Y-100253078D01*
X145530987Y-100102191D01*
X145472113Y-99960058D01*
X145386642Y-99832141D01*
X145277859Y-99723358D01*
X145149942Y-99637887D01*
X145007809Y-99579013D01*
X144856922Y-99549000D01*
X144703078Y-99549000D01*
X144552191Y-99579013D01*
X144410058Y-99637887D01*
X144282141Y-99723358D01*
X144173358Y-99832141D01*
X144087887Y-99960058D01*
X144029013Y-100102191D01*
X143999000Y-100253078D01*
X143999000Y-100302777D01*
X141368278Y-102933500D01*
X132743074Y-102933500D01*
X132715000Y-102930735D01*
X132686926Y-102933500D01*
X131343001Y-102933500D01*
X131307859Y-102898358D01*
X131179942Y-102812887D01*
X131037809Y-102754013D01*
X130886922Y-102724000D01*
X130733078Y-102724000D01*
X130582191Y-102754013D01*
X130440058Y-102812887D01*
X130312141Y-102898358D01*
X130203358Y-103007141D01*
X130117887Y-103135058D01*
X130111500Y-103150477D01*
X130111500Y-102768001D01*
X130146642Y-102732859D01*
X130232113Y-102604942D01*
X130290987Y-102462809D01*
X130321000Y-102311922D01*
X130321000Y-102158078D01*
X130290987Y-102007191D01*
X130284077Y-101990508D01*
X137349416Y-101990508D01*
X137374360Y-101992965D01*
X137399304Y-101990508D01*
X137399307Y-101990508D01*
X137473945Y-101983157D01*
X137569703Y-101954109D01*
X137657955Y-101906937D01*
X137735308Y-101843456D01*
X137751215Y-101824073D01*
X140642289Y-98933000D01*
X146652558Y-98933000D01*
X147268558Y-99549000D01*
X147243078Y-99549000D01*
X147092191Y-99579013D01*
X146950058Y-99637887D01*
X146822141Y-99723358D01*
X146713358Y-99832141D01*
X146627887Y-99960058D01*
X146569013Y-100102191D01*
X146539000Y-100253078D01*
X146539000Y-100406922D01*
X146569013Y-100557809D01*
X146627887Y-100699942D01*
X146713358Y-100827859D01*
X146748501Y-100863002D01*
X146748500Y-101998277D01*
X145387778Y-103359000D01*
X145338078Y-103359000D01*
X145187191Y-103389013D01*
X145045058Y-103447887D01*
X144917141Y-103533358D01*
X144808358Y-103642141D01*
X144722887Y-103770058D01*
X144664013Y-103912191D01*
X144634000Y-104063078D01*
X144634000Y-104216922D01*
X144664013Y-104367809D01*
X144722887Y-104509942D01*
X144808358Y-104637859D01*
X144917141Y-104746642D01*
X145045058Y-104832113D01*
X145187191Y-104890987D01*
X145338078Y-104921000D01*
X145491922Y-104921000D01*
X145642809Y-104890987D01*
X145784942Y-104832113D01*
X145912859Y-104746642D01*
X146021642Y-104637859D01*
X146107113Y-104509942D01*
X146165987Y-104367809D01*
X146196000Y-104216922D01*
X146196000Y-104167222D01*
X147704258Y-102658965D01*
X147726067Y-102641067D01*
X147797484Y-102554045D01*
X147850552Y-102454762D01*
X147883231Y-102347034D01*
X147891500Y-102263074D01*
X147891500Y-102263073D01*
X147894265Y-102235000D01*
X147891500Y-102206926D01*
X147891500Y-100863001D01*
X147926642Y-100827859D01*
X148012113Y-100699942D01*
X148070987Y-100557809D01*
X148101000Y-100406922D01*
X148101000Y-100253078D01*
X148073338Y-100114011D01*
X161989045Y-100114011D01*
X162013989Y-100116468D01*
X162038933Y-100114011D01*
X162038936Y-100114011D01*
X162113574Y-100106660D01*
X162209332Y-100077612D01*
X162297584Y-100030440D01*
X162374937Y-99966959D01*
X162390844Y-99947576D01*
X163405420Y-98933000D01*
X173393499Y-98933000D01*
X173492141Y-99031642D01*
X173620058Y-99117113D01*
X173762191Y-99175987D01*
X173913078Y-99206000D01*
X174066922Y-99206000D01*
X174217809Y-99175987D01*
X174359942Y-99117113D01*
X174487859Y-99031642D01*
X174596642Y-98922859D01*
X174682113Y-98794942D01*
X174740987Y-98652809D01*
X174771000Y-98501922D01*
X174771000Y-98348078D01*
X174740987Y-98197191D01*
X174682113Y-98055058D01*
X174596642Y-97927141D01*
X174498000Y-97828499D01*
X174498000Y-96095420D01*
X174835420Y-95758000D01*
X175235056Y-95758000D01*
X175260000Y-95760457D01*
X175284944Y-95758000D01*
X175284947Y-95758000D01*
X175359585Y-95750649D01*
X175455343Y-95721601D01*
X175543595Y-95674429D01*
X175620948Y-95610948D01*
X175636855Y-95591565D01*
X176095834Y-95132587D01*
X176170931Y-95163693D01*
X176408757Y-95211000D01*
X176651243Y-95211000D01*
X176889069Y-95163693D01*
X177113097Y-95070898D01*
X177165000Y-95036218D01*
X177165000Y-115783782D01*
G04 #@! TA.AperFunction,Conductor*
D19*
G36*
X177165000Y-115783782D02*
G01*
X177113097Y-115749102D01*
X177038000Y-115717996D01*
X177038000Y-114959943D01*
X177040457Y-114934999D01*
X177037692Y-114906926D01*
X177030649Y-114835415D01*
X177001601Y-114739657D01*
X177000388Y-114737388D01*
X176954429Y-114651404D01*
X176906850Y-114593429D01*
X176890948Y-114574052D01*
X176871571Y-114558150D01*
X175464120Y-113150699D01*
X175487809Y-113145987D01*
X175629942Y-113087113D01*
X175757859Y-113001642D01*
X175866642Y-112892859D01*
X175952113Y-112764942D01*
X176010987Y-112622809D01*
X176041000Y-112471922D01*
X176041000Y-112318078D01*
X176010987Y-112167191D01*
X175952113Y-112025058D01*
X175866642Y-111897141D01*
X175757859Y-111788358D01*
X175629942Y-111702887D01*
X175487809Y-111644013D01*
X175336922Y-111614000D01*
X175197420Y-111614000D01*
X173731855Y-110148435D01*
X173715948Y-110129052D01*
X173638595Y-110065571D01*
X173550343Y-110018399D01*
X173454585Y-109989351D01*
X173379947Y-109982000D01*
X173379944Y-109982000D01*
X173355000Y-109979543D01*
X173330056Y-109982000D01*
X158518037Y-109982000D01*
X158612859Y-109918642D01*
X158721642Y-109809859D01*
X158807113Y-109681942D01*
X158865987Y-109539809D01*
X158896000Y-109388922D01*
X158896000Y-109235078D01*
X158865987Y-109084191D01*
X158807113Y-108942058D01*
X158721642Y-108814141D01*
X158612859Y-108705358D01*
X158484942Y-108619887D01*
X158342809Y-108561013D01*
X158191922Y-108531000D01*
X158038078Y-108531000D01*
X157887191Y-108561013D01*
X157745058Y-108619887D01*
X157617141Y-108705358D01*
X157508358Y-108814141D01*
X157422887Y-108942058D01*
X157364013Y-109084191D01*
X157334000Y-109235078D01*
X157334000Y-109374580D01*
X157228825Y-109479755D01*
X147921051Y-109479755D01*
X147822409Y-109381113D01*
X147694492Y-109295642D01*
X147552359Y-109236768D01*
X147401472Y-109206755D01*
X147247628Y-109206755D01*
X147096741Y-109236768D01*
X146954608Y-109295642D01*
X146826691Y-109381113D01*
X146717908Y-109489896D01*
X146632437Y-109617813D01*
X146573563Y-109759946D01*
X146543550Y-109910833D01*
X146543550Y-110064677D01*
X146573563Y-110215564D01*
X146632437Y-110357697D01*
X146717908Y-110485614D01*
X146826691Y-110594397D01*
X146860519Y-110617000D01*
X146646501Y-110617000D01*
X146547859Y-110518358D01*
X146419942Y-110432887D01*
X146277809Y-110374013D01*
X146126922Y-110344000D01*
X145973078Y-110344000D01*
X145822191Y-110374013D01*
X145680058Y-110432887D01*
X145552141Y-110518358D01*
X145443358Y-110627141D01*
X145357887Y-110755058D01*
X145299013Y-110897191D01*
X145269000Y-111048078D01*
X145269000Y-111201922D01*
X145299013Y-111352809D01*
X145357887Y-111494942D01*
X145443358Y-111622859D01*
X145552141Y-111731642D01*
X145680058Y-111817113D01*
X145822191Y-111875987D01*
X145973078Y-111906000D01*
X146126922Y-111906000D01*
X146277809Y-111875987D01*
X146419942Y-111817113D01*
X146547859Y-111731642D01*
X146646501Y-111633000D01*
X150660499Y-111633000D01*
X150759141Y-111731642D01*
X150887058Y-111817113D01*
X151029191Y-111875987D01*
X151180078Y-111906000D01*
X151333922Y-111906000D01*
X151484809Y-111875987D01*
X151626942Y-111817113D01*
X151754859Y-111731642D01*
X151853501Y-111633000D01*
X153645056Y-111633000D01*
X153670000Y-111635457D01*
X153694944Y-111633000D01*
X153694947Y-111633000D01*
X153769585Y-111625649D01*
X153865343Y-111596601D01*
X153953595Y-111549429D01*
X154030948Y-111485948D01*
X154046855Y-111466565D01*
X154515420Y-110998000D01*
X173144580Y-110998000D01*
X173785881Y-111639301D01*
X173762191Y-111644013D01*
X173620058Y-111702887D01*
X173492141Y-111788358D01*
X173383358Y-111897141D01*
X173355000Y-111939582D01*
X173326642Y-111897141D01*
X173217859Y-111788358D01*
X173089942Y-111702887D01*
X172947809Y-111644013D01*
X172796922Y-111614000D01*
X172643078Y-111614000D01*
X172492191Y-111644013D01*
X172350058Y-111702887D01*
X172222141Y-111788358D01*
X172113358Y-111897141D01*
X172027887Y-112025058D01*
X171969013Y-112167191D01*
X171939000Y-112318078D01*
X171939000Y-112471922D01*
X171969013Y-112622809D01*
X172027887Y-112764942D01*
X172113358Y-112892859D01*
X172212001Y-112991502D01*
X172212001Y-113005046D01*
X172209543Y-113030000D01*
X172215169Y-113087113D01*
X172219352Y-113129585D01*
X172248400Y-113225343D01*
X172295571Y-113313595D01*
X172334069Y-113360505D01*
X172359053Y-113390948D01*
X172378430Y-113406850D01*
X173482000Y-114510421D01*
X173482001Y-115717996D01*
X173406903Y-115749102D01*
X173205283Y-115883820D01*
X173033820Y-116055283D01*
X172899102Y-116256903D01*
X172806307Y-116480931D01*
X172759000Y-116718757D01*
X172759000Y-116961243D01*
X172806307Y-117199069D01*
X172899102Y-117423097D01*
X173033820Y-117624717D01*
X173063103Y-117654000D01*
X172376897Y-117654000D01*
X172406180Y-117624717D01*
X172540898Y-117423097D01*
X172633693Y-117199069D01*
X172681000Y-116961243D01*
X172681000Y-116718757D01*
X172633693Y-116480931D01*
X172540898Y-116256903D01*
X172406180Y-116055283D01*
X172234717Y-115883820D01*
X172033097Y-115749102D01*
X171809069Y-115656307D01*
X171571243Y-115609000D01*
X171328757Y-115609000D01*
X171090931Y-115656307D01*
X170866903Y-115749102D01*
X170665283Y-115883820D01*
X170493820Y-116055283D01*
X170359102Y-116256903D01*
X170266307Y-116480931D01*
X170219000Y-116718757D01*
X170219000Y-116961243D01*
X170266307Y-117199069D01*
X170359102Y-117423097D01*
X170493820Y-117624717D01*
X170523103Y-117654000D01*
X169836897Y-117654000D01*
X169866180Y-117624717D01*
X170000898Y-117423097D01*
X170093693Y-117199069D01*
X170141000Y-116961243D01*
X170141000Y-116718757D01*
X170093693Y-116480931D01*
X170000898Y-116256903D01*
X169866180Y-116055283D01*
X169694717Y-115883820D01*
X169493097Y-115749102D01*
X169269069Y-115656307D01*
X169031243Y-115609000D01*
X168788757Y-115609000D01*
X168550931Y-115656307D01*
X168326903Y-115749102D01*
X168125283Y-115883820D01*
X167953820Y-116055283D01*
X167819102Y-116256903D01*
X167726307Y-116480931D01*
X167679000Y-116718757D01*
X167679000Y-116961243D01*
X167726307Y-117199069D01*
X167819102Y-117423097D01*
X167953820Y-117624717D01*
X167983103Y-117654000D01*
X167296897Y-117654000D01*
X167326180Y-117624717D01*
X167460898Y-117423097D01*
X167553693Y-117199069D01*
X167601000Y-116961243D01*
X167601000Y-116718757D01*
X167553693Y-116480931D01*
X167460898Y-116256903D01*
X167326180Y-116055283D01*
X167154717Y-115883820D01*
X166953097Y-115749102D01*
X166729069Y-115656307D01*
X166491243Y-115609000D01*
X166248757Y-115609000D01*
X166010931Y-115656307D01*
X165786903Y-115749102D01*
X165585283Y-115883820D01*
X165413820Y-116055283D01*
X165279102Y-116256903D01*
X165186307Y-116480931D01*
X165139000Y-116718757D01*
X165139000Y-116961243D01*
X165186307Y-117199069D01*
X165279102Y-117423097D01*
X165413820Y-117624717D01*
X165443103Y-117654000D01*
X164756897Y-117654000D01*
X164786180Y-117624717D01*
X164920898Y-117423097D01*
X165013693Y-117199069D01*
X165061000Y-116961243D01*
X165061000Y-116718757D01*
X165013693Y-116480931D01*
X164920898Y-116256903D01*
X164786180Y-116055283D01*
X164614717Y-115883820D01*
X164413097Y-115749102D01*
X164189069Y-115656307D01*
X163951243Y-115609000D01*
X163708757Y-115609000D01*
X163470931Y-115656307D01*
X163246903Y-115749102D01*
X163045283Y-115883820D01*
X162873820Y-116055283D01*
X162739102Y-116256903D01*
X162646307Y-116480931D01*
X162599000Y-116718757D01*
X162599000Y-116961243D01*
X162646307Y-117199069D01*
X162739102Y-117423097D01*
X162873820Y-117624717D01*
X162903103Y-117654000D01*
X162216897Y-117654000D01*
X162246180Y-117624717D01*
X162380898Y-117423097D01*
X162473693Y-117199069D01*
X162521000Y-116961243D01*
X162521000Y-116718757D01*
X162473693Y-116480931D01*
X162380898Y-116256903D01*
X162246180Y-116055283D01*
X162074717Y-115883820D01*
X161873097Y-115749102D01*
X161649069Y-115656307D01*
X161411243Y-115609000D01*
X161168757Y-115609000D01*
X160930931Y-115656307D01*
X160706903Y-115749102D01*
X160505283Y-115883820D01*
X160333820Y-116055283D01*
X160199102Y-116256903D01*
X160106307Y-116480931D01*
X160059000Y-116718757D01*
X160059000Y-116961243D01*
X160106307Y-117199069D01*
X160199102Y-117423097D01*
X160333820Y-117624717D01*
X160363103Y-117654000D01*
X159676897Y-117654000D01*
X159706180Y-117624717D01*
X159840898Y-117423097D01*
X159933693Y-117199069D01*
X159981000Y-116961243D01*
X159981000Y-116718757D01*
X159933693Y-116480931D01*
X159840898Y-116256903D01*
X159721359Y-116078000D01*
X159995056Y-116078000D01*
X160020000Y-116080457D01*
X160044944Y-116078000D01*
X160044947Y-116078000D01*
X160119585Y-116070649D01*
X160215343Y-116041601D01*
X160303595Y-115994429D01*
X160380948Y-115930948D01*
X160396855Y-115911565D01*
X161631571Y-114676850D01*
X161650948Y-114660948D01*
X161678449Y-114627438D01*
X161714429Y-114583596D01*
X161761600Y-114495345D01*
X161761601Y-114495342D01*
X161790649Y-114399585D01*
X161798000Y-114324947D01*
X161798000Y-114324945D01*
X161800457Y-114300001D01*
X161798000Y-114275053D01*
X161798000Y-113240420D01*
X161862420Y-113176000D01*
X162001922Y-113176000D01*
X162152809Y-113145987D01*
X162294942Y-113087113D01*
X162422859Y-113001642D01*
X162531642Y-112892859D01*
X162617113Y-112764942D01*
X162675987Y-112622809D01*
X162706000Y-112471922D01*
X162706000Y-112318078D01*
X162675987Y-112167191D01*
X162617113Y-112025058D01*
X162531642Y-111897141D01*
X162422859Y-111788358D01*
X162294942Y-111702887D01*
X162152809Y-111644013D01*
X162001922Y-111614000D01*
X161848078Y-111614000D01*
X161697191Y-111644013D01*
X161555058Y-111702887D01*
X161427141Y-111788358D01*
X161318358Y-111897141D01*
X161232887Y-112025058D01*
X161174013Y-112167191D01*
X161144000Y-112318078D01*
X161144000Y-112457580D01*
X160948435Y-112653145D01*
X160929052Y-112669052D01*
X160865571Y-112746405D01*
X160818399Y-112834658D01*
X160789351Y-112930416D01*
X160786612Y-112958231D01*
X160779543Y-113030000D01*
X160782000Y-113054945D01*
X160782001Y-114089578D01*
X159809580Y-115062000D01*
X157504943Y-115062000D01*
X157479999Y-115059543D01*
X157455055Y-115062000D01*
X157455053Y-115062000D01*
X157434385Y-115064036D01*
X157817421Y-114681000D01*
X158852053Y-114681000D01*
X158877000Y-114683457D01*
X158901947Y-114681000D01*
X158976585Y-114673649D01*
X159072343Y-114644601D01*
X159160595Y-114597429D01*
X159237948Y-114533948D01*
X159301429Y-114456595D01*
X159348601Y-114368343D01*
X159377649Y-114272585D01*
X159387457Y-114173000D01*
X159385000Y-114148053D01*
X159385000Y-112991501D01*
X159483642Y-112892859D01*
X159569113Y-112764942D01*
X159627987Y-112622809D01*
X159658000Y-112471922D01*
X159658000Y-112318078D01*
X159627987Y-112167191D01*
X159569113Y-112025058D01*
X159483642Y-111897141D01*
X159374859Y-111788358D01*
X159246942Y-111702887D01*
X159104809Y-111644013D01*
X158953922Y-111614000D01*
X158800078Y-111614000D01*
X158649191Y-111644013D01*
X158507058Y-111702887D01*
X158379141Y-111788358D01*
X158270358Y-111897141D01*
X158184887Y-112025058D01*
X158126013Y-112167191D01*
X158115000Y-112222558D01*
X158103987Y-112167191D01*
X158045113Y-112025058D01*
X157959642Y-111897141D01*
X157850859Y-111788358D01*
X157722942Y-111702887D01*
X157580809Y-111644013D01*
X157429922Y-111614000D01*
X157276078Y-111614000D01*
X157125191Y-111644013D01*
X156983058Y-111702887D01*
X156855141Y-111788358D01*
X156781500Y-111861999D01*
X156707859Y-111788358D01*
X156579942Y-111702887D01*
X156437809Y-111644013D01*
X156286922Y-111614000D01*
X156133078Y-111614000D01*
X155982191Y-111644013D01*
X155840058Y-111702887D01*
X155712141Y-111788358D01*
X155603358Y-111897141D01*
X155517887Y-112025058D01*
X155459013Y-112167191D01*
X155429000Y-112318078D01*
X155429000Y-112471922D01*
X155459013Y-112622809D01*
X155517887Y-112764942D01*
X155603358Y-112892859D01*
X155702000Y-112991501D01*
X155702001Y-114075447D01*
X155623468Y-114153980D01*
X152048830Y-114153980D01*
X152023886Y-114151523D01*
X151998942Y-114153980D01*
X151998939Y-114153980D01*
X151924301Y-114161331D01*
X151828543Y-114190379D01*
X151740291Y-114237551D01*
X151662938Y-114301032D01*
X151647031Y-114320415D01*
X151266457Y-114700989D01*
X149603888Y-114700989D01*
X149578944Y-114698532D01*
X149554000Y-114700989D01*
X149553997Y-114700989D01*
X149479359Y-114708340D01*
X149383601Y-114737388D01*
X149295349Y-114784560D01*
X149217996Y-114848041D01*
X149202089Y-114867424D01*
X149007513Y-115062000D01*
X147344943Y-115062000D01*
X147319999Y-115059543D01*
X147295055Y-115062000D01*
X147295053Y-115062000D01*
X147220415Y-115069351D01*
X147124657Y-115098399D01*
X147124655Y-115098400D01*
X147036404Y-115145571D01*
X147015619Y-115162629D01*
X146959052Y-115209052D01*
X146943150Y-115228429D01*
X146484166Y-115687413D01*
X146409069Y-115656307D01*
X146171243Y-115609000D01*
X145928757Y-115609000D01*
X145690931Y-115656307D01*
X145466903Y-115749102D01*
X145265283Y-115883820D01*
X145093820Y-116055283D01*
X144959102Y-116256903D01*
X144866307Y-116480931D01*
X144819000Y-116718757D01*
X144819000Y-116961243D01*
X144866307Y-117199069D01*
X144959102Y-117423097D01*
X145093820Y-117624717D01*
X145123103Y-117654000D01*
X144436897Y-117654000D01*
X144466180Y-117624717D01*
X144600898Y-117423097D01*
X144693693Y-117199069D01*
X144741000Y-116961243D01*
X144741000Y-116718757D01*
X144693693Y-116480931D01*
X144600898Y-116256903D01*
X144466180Y-116055283D01*
X144294717Y-115883820D01*
X144093097Y-115749102D01*
X144018000Y-115717996D01*
X144018000Y-113240420D01*
X144486565Y-112771855D01*
X144505948Y-112755948D01*
X144569429Y-112678595D01*
X144616601Y-112590343D01*
X144645649Y-112494585D01*
X144653000Y-112419947D01*
X144653000Y-112419944D01*
X144655457Y-112395000D01*
X144653000Y-112370053D01*
X144653000Y-110700420D01*
X145352421Y-110001000D01*
X145491922Y-110001000D01*
X145642809Y-109970987D01*
X145784942Y-109912113D01*
X145912859Y-109826642D01*
X146021642Y-109717859D01*
X146107113Y-109589942D01*
X146165987Y-109447809D01*
X146196000Y-109296922D01*
X146196000Y-109143078D01*
X146165987Y-108992191D01*
X146107113Y-108850058D01*
X146021642Y-108722141D01*
X145912859Y-108613358D01*
X145784942Y-108527887D01*
X145759931Y-108517527D01*
X149629458Y-104648000D01*
X151105056Y-104648000D01*
X151130000Y-104650457D01*
X151154944Y-104648000D01*
X151154947Y-104648000D01*
X151229585Y-104640649D01*
X151325343Y-104611601D01*
X151413595Y-104564429D01*
X151490948Y-104500948D01*
X151506855Y-104481565D01*
X151702420Y-104286000D01*
X151841922Y-104286000D01*
X151992809Y-104255987D01*
X152134942Y-104197113D01*
X152262859Y-104111642D01*
X152371642Y-104002859D01*
X152457113Y-103874942D01*
X152515987Y-103732809D01*
X152546000Y-103581922D01*
X152546000Y-103428078D01*
X152515987Y-103277191D01*
X152457113Y-103135058D01*
X152371642Y-103007141D01*
X152262859Y-102898358D01*
X152134942Y-102812887D01*
X151992809Y-102754013D01*
X151841922Y-102724000D01*
X151688078Y-102724000D01*
X151537191Y-102754013D01*
X151395058Y-102812887D01*
X151267141Y-102898358D01*
X151158358Y-103007141D01*
X151072887Y-103135058D01*
X151014013Y-103277191D01*
X150984000Y-103428078D01*
X150984000Y-103567580D01*
X150919580Y-103632000D01*
X149443982Y-103632000D01*
X149419038Y-103629543D01*
X149394094Y-103632000D01*
X149394091Y-103632000D01*
X149319453Y-103639351D01*
X149223695Y-103668399D01*
X149182614Y-103690357D01*
X149135442Y-103715571D01*
X149114438Y-103732809D01*
X149058090Y-103779052D01*
X149042183Y-103798435D01*
X144128618Y-108712000D01*
X142899944Y-108712000D01*
X142875000Y-108709543D01*
X142850056Y-108712000D01*
X142850053Y-108712000D01*
X142775415Y-108719351D01*
X142679657Y-108748399D01*
X142591405Y-108795571D01*
X142514052Y-108859052D01*
X142498145Y-108878435D01*
X140628430Y-110748150D01*
X140609053Y-110764052D01*
X140593151Y-110783429D01*
X140593150Y-110783430D01*
X140545571Y-110841405D01*
X140498400Y-110929657D01*
X140477669Y-110998000D01*
X140469352Y-111025416D01*
X140459543Y-111125000D01*
X140462001Y-111149954D01*
X140462001Y-111423642D01*
X140283097Y-111304102D01*
X140059069Y-111211307D01*
X139821243Y-111164000D01*
X139578757Y-111164000D01*
X139340931Y-111211307D01*
X139116903Y-111304102D01*
X138915283Y-111438820D01*
X138743820Y-111610283D01*
X138609102Y-111811903D01*
X138516307Y-112035931D01*
X138469000Y-112273757D01*
X138469000Y-112516243D01*
X138516307Y-112754069D01*
X138609102Y-112978097D01*
X138743820Y-113179717D01*
X138915283Y-113351180D01*
X139116903Y-113485898D01*
X139340931Y-113578693D01*
X139578757Y-113626000D01*
X139821243Y-113626000D01*
X140059069Y-113578693D01*
X140283097Y-113485898D01*
X140462000Y-113366359D01*
X140462000Y-114089580D01*
X140124580Y-114427000D01*
X137819944Y-114427000D01*
X137795000Y-114424543D01*
X137770056Y-114427000D01*
X137770053Y-114427000D01*
X137695415Y-114434351D01*
X137599657Y-114463399D01*
X137511405Y-114510571D01*
X137434052Y-114574052D01*
X137418145Y-114593435D01*
X136398000Y-115613580D01*
X136398000Y-114959943D01*
X136400457Y-114934999D01*
X136397692Y-114906926D01*
X136390649Y-114835415D01*
X136361601Y-114739657D01*
X136360388Y-114737388D01*
X136314429Y-114651404D01*
X136266850Y-114593429D01*
X136250948Y-114574052D01*
X136231571Y-114558150D01*
X134918421Y-113245000D01*
X135927157Y-113245000D01*
X135934513Y-113319689D01*
X135956299Y-113391508D01*
X135991678Y-113457696D01*
X136039289Y-113515711D01*
X136097304Y-113563322D01*
X136163492Y-113598701D01*
X136235311Y-113620487D01*
X136310000Y-113627843D01*
X137052050Y-113626000D01*
X137147300Y-113530750D01*
X137147300Y-112407700D01*
X137172700Y-112407700D01*
X137172700Y-113530750D01*
X137267950Y-113626000D01*
X138010000Y-113627843D01*
X138084689Y-113620487D01*
X138156508Y-113598701D01*
X138222696Y-113563322D01*
X138280711Y-113515711D01*
X138328322Y-113457696D01*
X138363701Y-113391508D01*
X138385487Y-113319689D01*
X138392843Y-113245000D01*
X138391000Y-112502950D01*
X138295750Y-112407700D01*
X137172700Y-112407700D01*
X137147300Y-112407700D01*
X136024250Y-112407700D01*
X135929000Y-112502950D01*
X135927157Y-113245000D01*
X134918421Y-113245000D01*
X134502587Y-112829166D01*
X134533693Y-112754069D01*
X134581000Y-112516243D01*
X134581000Y-112273757D01*
X134533693Y-112035931D01*
X134440898Y-111811903D01*
X134306180Y-111610283D01*
X134240897Y-111545000D01*
X135927157Y-111545000D01*
X135929000Y-112287050D01*
X136024250Y-112382300D01*
X137147300Y-112382300D01*
X137147300Y-111259250D01*
X137172700Y-111259250D01*
X137172700Y-112382300D01*
X138295750Y-112382300D01*
X138391000Y-112287050D01*
X138392843Y-111545000D01*
X138385487Y-111470311D01*
X138363701Y-111398492D01*
X138328322Y-111332304D01*
X138280711Y-111274289D01*
X138222696Y-111226678D01*
X138156508Y-111191299D01*
X138084689Y-111169513D01*
X138010000Y-111162157D01*
X137267950Y-111164000D01*
X137172700Y-111259250D01*
X137147300Y-111259250D01*
X137052050Y-111164000D01*
X136310000Y-111162157D01*
X136235311Y-111169513D01*
X136163492Y-111191299D01*
X136097304Y-111226678D01*
X136039289Y-111274289D01*
X135991678Y-111332304D01*
X135956299Y-111398492D01*
X135934513Y-111470311D01*
X135927157Y-111545000D01*
X134240897Y-111545000D01*
X134134717Y-111438820D01*
X133933097Y-111304102D01*
X133709069Y-111211307D01*
X133471243Y-111164000D01*
X133228757Y-111164000D01*
X132990931Y-111211307D01*
X132766903Y-111304102D01*
X132592765Y-111420457D01*
X134460708Y-109552515D01*
X134482518Y-109534616D01*
X134553935Y-109447594D01*
X134607003Y-109348311D01*
X134639682Y-109240583D01*
X134647951Y-109156623D01*
X134650716Y-109128550D01*
X134647951Y-109100476D01*
X134647951Y-104894522D01*
X134650716Y-104866450D01*
X134647334Y-104832113D01*
X134639682Y-104754417D01*
X134607003Y-104646689D01*
X134553935Y-104547406D01*
X134482518Y-104460384D01*
X134460709Y-104442486D01*
X134094723Y-104076500D01*
X141576926Y-104076500D01*
X141605000Y-104079265D01*
X141633074Y-104076500D01*
X141717034Y-104068231D01*
X141824762Y-104035552D01*
X141924045Y-103982484D01*
X142011067Y-103911067D01*
X142028970Y-103889252D01*
X144807223Y-101111000D01*
X144856922Y-101111000D01*
X145007809Y-101080987D01*
X145149942Y-101022113D01*
X145277859Y-100936642D01*
X145386642Y-100827859D01*
X145472113Y-100699942D01*
X145530987Y-100557809D01*
X145561000Y-100406922D01*
X145561000Y-100253078D01*
X145530987Y-100102191D01*
X145472113Y-99960058D01*
X145386642Y-99832141D01*
X145277859Y-99723358D01*
X145149942Y-99637887D01*
X145007809Y-99579013D01*
X144856922Y-99549000D01*
X144703078Y-99549000D01*
X144552191Y-99579013D01*
X144410058Y-99637887D01*
X144282141Y-99723358D01*
X144173358Y-99832141D01*
X144087887Y-99960058D01*
X144029013Y-100102191D01*
X143999000Y-100253078D01*
X143999000Y-100302777D01*
X141368278Y-102933500D01*
X132743074Y-102933500D01*
X132715000Y-102930735D01*
X132686926Y-102933500D01*
X131343001Y-102933500D01*
X131307859Y-102898358D01*
X131179942Y-102812887D01*
X131037809Y-102754013D01*
X130886922Y-102724000D01*
X130733078Y-102724000D01*
X130582191Y-102754013D01*
X130440058Y-102812887D01*
X130312141Y-102898358D01*
X130203358Y-103007141D01*
X130117887Y-103135058D01*
X130111500Y-103150477D01*
X130111500Y-102768001D01*
X130146642Y-102732859D01*
X130232113Y-102604942D01*
X130290987Y-102462809D01*
X130321000Y-102311922D01*
X130321000Y-102158078D01*
X130290987Y-102007191D01*
X130284077Y-101990508D01*
X137349416Y-101990508D01*
X137374360Y-101992965D01*
X137399304Y-101990508D01*
X137399307Y-101990508D01*
X137473945Y-101983157D01*
X137569703Y-101954109D01*
X137657955Y-101906937D01*
X137735308Y-101843456D01*
X137751215Y-101824073D01*
X140642289Y-98933000D01*
X146652558Y-98933000D01*
X147268558Y-99549000D01*
X147243078Y-99549000D01*
X147092191Y-99579013D01*
X146950058Y-99637887D01*
X146822141Y-99723358D01*
X146713358Y-99832141D01*
X146627887Y-99960058D01*
X146569013Y-100102191D01*
X146539000Y-100253078D01*
X146539000Y-100406922D01*
X146569013Y-100557809D01*
X146627887Y-100699942D01*
X146713358Y-100827859D01*
X146748501Y-100863002D01*
X146748500Y-101998277D01*
X145387778Y-103359000D01*
X145338078Y-103359000D01*
X145187191Y-103389013D01*
X145045058Y-103447887D01*
X144917141Y-103533358D01*
X144808358Y-103642141D01*
X144722887Y-103770058D01*
X144664013Y-103912191D01*
X144634000Y-104063078D01*
X144634000Y-104216922D01*
X144664013Y-104367809D01*
X144722887Y-104509942D01*
X144808358Y-104637859D01*
X144917141Y-104746642D01*
X145045058Y-104832113D01*
X145187191Y-104890987D01*
X145338078Y-104921000D01*
X145491922Y-104921000D01*
X145642809Y-104890987D01*
X145784942Y-104832113D01*
X145912859Y-104746642D01*
X146021642Y-104637859D01*
X146107113Y-104509942D01*
X146165987Y-104367809D01*
X146196000Y-104216922D01*
X146196000Y-104167222D01*
X147704258Y-102658965D01*
X147726067Y-102641067D01*
X147797484Y-102554045D01*
X147850552Y-102454762D01*
X147883231Y-102347034D01*
X147891500Y-102263074D01*
X147891500Y-102263073D01*
X147894265Y-102235000D01*
X147891500Y-102206926D01*
X147891500Y-100863001D01*
X147926642Y-100827859D01*
X148012113Y-100699942D01*
X148070987Y-100557809D01*
X148101000Y-100406922D01*
X148101000Y-100253078D01*
X148073338Y-100114011D01*
X161989045Y-100114011D01*
X162013989Y-100116468D01*
X162038933Y-100114011D01*
X162038936Y-100114011D01*
X162113574Y-100106660D01*
X162209332Y-100077612D01*
X162297584Y-100030440D01*
X162374937Y-99966959D01*
X162390844Y-99947576D01*
X163405420Y-98933000D01*
X173393499Y-98933000D01*
X173492141Y-99031642D01*
X173620058Y-99117113D01*
X173762191Y-99175987D01*
X173913078Y-99206000D01*
X174066922Y-99206000D01*
X174217809Y-99175987D01*
X174359942Y-99117113D01*
X174487859Y-99031642D01*
X174596642Y-98922859D01*
X174682113Y-98794942D01*
X174740987Y-98652809D01*
X174771000Y-98501922D01*
X174771000Y-98348078D01*
X174740987Y-98197191D01*
X174682113Y-98055058D01*
X174596642Y-97927141D01*
X174498000Y-97828499D01*
X174498000Y-96095420D01*
X174835420Y-95758000D01*
X175235056Y-95758000D01*
X175260000Y-95760457D01*
X175284944Y-95758000D01*
X175284947Y-95758000D01*
X175359585Y-95750649D01*
X175455343Y-95721601D01*
X175543595Y-95674429D01*
X175620948Y-95610948D01*
X175636855Y-95591565D01*
X176095834Y-95132587D01*
X176170931Y-95163693D01*
X176408757Y-95211000D01*
X176651243Y-95211000D01*
X176889069Y-95163693D01*
X177113097Y-95070898D01*
X177165000Y-95036218D01*
X177165000Y-115783782D01*
G37*
G04 #@! TD.AperFunction*
M02*
