G04 #@! TF.GenerationSoftware,KiCad,Pcbnew,5.1.10-88a1d61d58~90~ubuntu21.04.1*
G04 #@! TF.CreationDate,2021-10-15T14:22:21-03:00*
G04 #@! TF.ProjectId,Franzininho WIFI,4672616e-7a69-46e6-996e-686f20574946,rev?*
G04 #@! TF.SameCoordinates,Original*
G04 #@! TF.FileFunction,Legend,Bot*
G04 #@! TF.FilePolarity,Positive*
%FSLAX46Y46*%
G04 Gerber Fmt 4.6, Leading zero omitted, Abs format (unit mm)*
G04 Created by KiCad (PCBNEW 5.1.10-88a1d61d58~90~ubuntu21.04.1) date 2021-10-15 14:22:21*
%MOMM*%
%LPD*%
G01*
G04 APERTURE LIST*
%ADD10C,0.150000*%
%ADD11C,0.250000*%
%ADD12C,0.175000*%
%ADD13C,0.152400*%
%ADD14C,0.010000*%
G04 APERTURE END LIST*
D10*
X139700000Y-92964000D02*
X129286000Y-92964000D01*
X146304000Y-108966000D02*
X146304000Y-111252000D01*
X138176000Y-108966000D02*
X146304000Y-108966000D01*
X129794000Y-108966000D02*
X129794000Y-111252000D01*
X138176000Y-108966000D02*
X129794000Y-108966000D01*
X138176000Y-111252000D02*
X138176000Y-108966000D01*
X137160000Y-92964000D02*
X137160000Y-101600000D01*
X134620000Y-92964000D02*
X134620000Y-101600000D01*
X132080000Y-92964000D02*
X132080000Y-101600000D01*
X129286000Y-101600000D02*
X129286000Y-92964000D01*
X139700000Y-101600000D02*
X129286000Y-101600000D01*
X139700000Y-92964000D02*
X139700000Y-101600000D01*
D11*
X138025238Y-101079547D02*
X137977619Y-100936690D01*
X137977619Y-100698595D01*
X138025238Y-100603357D01*
X138072857Y-100555738D01*
X138168095Y-100508119D01*
X138263333Y-100508119D01*
X138358571Y-100555738D01*
X138406190Y-100603357D01*
X138453809Y-100698595D01*
X138501428Y-100889071D01*
X138549047Y-100984309D01*
X138596666Y-101031928D01*
X138691904Y-101079547D01*
X138787142Y-101079547D01*
X138882380Y-101031928D01*
X138930000Y-100984309D01*
X138977619Y-100889071D01*
X138977619Y-100650976D01*
X138930000Y-100508119D01*
X137977619Y-100079547D02*
X138977619Y-100079547D01*
X138977619Y-99841452D01*
X138930000Y-99698595D01*
X138834761Y-99603357D01*
X138739523Y-99555738D01*
X138549047Y-99508119D01*
X138406190Y-99508119D01*
X138215714Y-99555738D01*
X138120476Y-99603357D01*
X138025238Y-99698595D01*
X137977619Y-99841452D01*
X137977619Y-100079547D01*
X138263333Y-99127166D02*
X138263333Y-98650976D01*
X137977619Y-99222404D02*
X138977619Y-98889071D01*
X137977619Y-98555738D01*
X135485238Y-101031928D02*
X135437619Y-100889071D01*
X135437619Y-100650976D01*
X135485238Y-100555738D01*
X135532857Y-100508119D01*
X135628095Y-100460500D01*
X135723333Y-100460500D01*
X135818571Y-100508119D01*
X135866190Y-100555738D01*
X135913809Y-100650976D01*
X135961428Y-100841452D01*
X136009047Y-100936690D01*
X136056666Y-100984309D01*
X136151904Y-101031928D01*
X136247142Y-101031928D01*
X136342380Y-100984309D01*
X136390000Y-100936690D01*
X136437619Y-100841452D01*
X136437619Y-100603357D01*
X136390000Y-100460500D01*
X135532857Y-99460500D02*
X135485238Y-99508119D01*
X135437619Y-99650976D01*
X135437619Y-99746214D01*
X135485238Y-99889071D01*
X135580476Y-99984309D01*
X135675714Y-100031928D01*
X135866190Y-100079547D01*
X136009047Y-100079547D01*
X136199523Y-100031928D01*
X136294761Y-99984309D01*
X136390000Y-99889071D01*
X136437619Y-99746214D01*
X136437619Y-99650976D01*
X136390000Y-99508119D01*
X136342380Y-99460500D01*
X135437619Y-98555738D02*
X135437619Y-99031928D01*
X136437619Y-99031928D01*
D10*
X138176000Y-111252000D02*
X138176000Y-113538000D01*
D11*
X145232380Y-110899023D02*
X145280000Y-110851404D01*
X145327619Y-110756166D01*
X145327619Y-110518071D01*
X145280000Y-110422833D01*
X145232380Y-110375214D01*
X145137142Y-110327595D01*
X145041904Y-110327595D01*
X144899047Y-110375214D01*
X144327619Y-110946642D01*
X144327619Y-110327595D01*
X144327619Y-109375214D02*
X144327619Y-109946642D01*
X144327619Y-109660928D02*
X145327619Y-109660928D01*
X145184761Y-109756166D01*
X145089523Y-109851404D01*
X145041904Y-109946642D01*
X136199619Y-110327595D02*
X136199619Y-110899023D01*
X136199619Y-110613309D02*
X137199619Y-110613309D01*
X137056761Y-110708547D01*
X136961523Y-110803785D01*
X136913904Y-110899023D01*
X136771047Y-109756166D02*
X136818666Y-109851404D01*
X136866285Y-109899023D01*
X136961523Y-109946642D01*
X137009142Y-109946642D01*
X137104380Y-109899023D01*
X137152000Y-109851404D01*
X137199619Y-109756166D01*
X137199619Y-109565690D01*
X137152000Y-109470452D01*
X137104380Y-109422833D01*
X137009142Y-109375214D01*
X136961523Y-109375214D01*
X136866285Y-109422833D01*
X136818666Y-109470452D01*
X136771047Y-109565690D01*
X136771047Y-109756166D01*
X136723428Y-109851404D01*
X136675809Y-109899023D01*
X136580571Y-109946642D01*
X136390095Y-109946642D01*
X136294857Y-109899023D01*
X136247238Y-109851404D01*
X136199619Y-109756166D01*
X136199619Y-109565690D01*
X136247238Y-109470452D01*
X136294857Y-109422833D01*
X136390095Y-109375214D01*
X136580571Y-109375214D01*
X136675809Y-109422833D01*
X136723428Y-109470452D01*
X136771047Y-109565690D01*
D12*
X142787619Y-110423964D02*
X142787619Y-110900154D01*
X142311428Y-110947773D01*
X142359047Y-110900154D01*
X142406666Y-110804916D01*
X142406666Y-110566821D01*
X142359047Y-110471583D01*
X142311428Y-110423964D01*
X142216190Y-110376345D01*
X141978095Y-110376345D01*
X141882857Y-110423964D01*
X141835238Y-110471583D01*
X141787619Y-110566821D01*
X141787619Y-110804916D01*
X141835238Y-110900154D01*
X141882857Y-110947773D01*
X142787619Y-110090630D02*
X141787619Y-109757297D01*
X142787619Y-109423964D01*
X134659619Y-110423964D02*
X134659619Y-110900154D01*
X134183428Y-110947773D01*
X134231047Y-110900154D01*
X134278666Y-110804916D01*
X134278666Y-110566821D01*
X134231047Y-110471583D01*
X134183428Y-110423964D01*
X134088190Y-110376345D01*
X133850095Y-110376345D01*
X133754857Y-110423964D01*
X133707238Y-110471583D01*
X133659619Y-110566821D01*
X133659619Y-110804916D01*
X133707238Y-110900154D01*
X133754857Y-110947773D01*
X134659619Y-110090630D02*
X133659619Y-109757297D01*
X134659619Y-109423964D01*
X140100000Y-110668416D02*
X140138095Y-110735083D01*
X140138095Y-110835083D01*
X140100000Y-110935083D01*
X140023809Y-111001750D01*
X139947619Y-111035083D01*
X139795238Y-111068416D01*
X139680952Y-111068416D01*
X139528571Y-111035083D01*
X139452380Y-111001750D01*
X139376190Y-110935083D01*
X139338095Y-110835083D01*
X139338095Y-110768416D01*
X139376190Y-110668416D01*
X139414285Y-110635083D01*
X139680952Y-110635083D01*
X139680952Y-110768416D01*
X139338095Y-110335083D02*
X140138095Y-110335083D01*
X139338095Y-109935083D01*
X140138095Y-109935083D01*
X139338095Y-109601750D02*
X140138095Y-109601750D01*
X140138095Y-109435083D01*
X140100000Y-109335083D01*
X140023809Y-109268416D01*
X139947619Y-109235083D01*
X139795238Y-109201750D01*
X139680952Y-109201750D01*
X139528571Y-109235083D01*
X139452380Y-109268416D01*
X139376190Y-109335083D01*
X139338095Y-109435083D01*
X139338095Y-109601750D01*
X131718000Y-110668416D02*
X131756095Y-110735083D01*
X131756095Y-110835083D01*
X131718000Y-110935083D01*
X131641809Y-111001750D01*
X131565619Y-111035083D01*
X131413238Y-111068416D01*
X131298952Y-111068416D01*
X131146571Y-111035083D01*
X131070380Y-111001750D01*
X130994190Y-110935083D01*
X130956095Y-110835083D01*
X130956095Y-110768416D01*
X130994190Y-110668416D01*
X131032285Y-110635083D01*
X131298952Y-110635083D01*
X131298952Y-110768416D01*
X130956095Y-110335083D02*
X131756095Y-110335083D01*
X130956095Y-109935083D01*
X131756095Y-109935083D01*
X130956095Y-109601750D02*
X131756095Y-109601750D01*
X131756095Y-109435083D01*
X131718000Y-109335083D01*
X131641809Y-109268416D01*
X131565619Y-109235083D01*
X131413238Y-109201750D01*
X131298952Y-109201750D01*
X131146571Y-109235083D01*
X131070380Y-109268416D01*
X130994190Y-109335083D01*
X130956095Y-109435083D01*
X130956095Y-109601750D01*
D10*
X146304000Y-113538000D02*
X146304000Y-111252000D01*
X129794000Y-113538000D02*
X129794000Y-111252000D01*
X146304000Y-113538000D02*
X129794000Y-113538000D01*
D12*
X131210000Y-115176916D02*
X131248095Y-115243583D01*
X131248095Y-115343583D01*
X131210000Y-115443583D01*
X131133809Y-115510250D01*
X131057619Y-115543583D01*
X130905238Y-115576916D01*
X130790952Y-115576916D01*
X130638571Y-115543583D01*
X130562380Y-115510250D01*
X130486190Y-115443583D01*
X130448095Y-115343583D01*
X130448095Y-115276916D01*
X130486190Y-115176916D01*
X130524285Y-115143583D01*
X130790952Y-115143583D01*
X130790952Y-115276916D01*
X130448095Y-114843583D02*
X131248095Y-114843583D01*
X130448095Y-114443583D01*
X131248095Y-114443583D01*
X130448095Y-114110250D02*
X131248095Y-114110250D01*
X131248095Y-113943583D01*
X131210000Y-113843583D01*
X131133809Y-113776916D01*
X131057619Y-113743583D01*
X130905238Y-113710250D01*
X130790952Y-113710250D01*
X130638571Y-113743583D01*
X130562380Y-113776916D01*
X130486190Y-113843583D01*
X130448095Y-113943583D01*
X130448095Y-114110250D01*
D11*
X140517619Y-96301357D02*
X140517619Y-96872785D01*
X140517619Y-96587071D02*
X141517619Y-96587071D01*
X141374761Y-96682309D01*
X141279523Y-96777547D01*
X141231904Y-96872785D01*
X141517619Y-95968023D02*
X141517619Y-95301357D01*
X140517619Y-95729928D01*
X145237571Y-106203642D02*
X144737571Y-106203642D01*
X144737571Y-105417928D02*
X144737571Y-106917928D01*
X145451857Y-106917928D01*
X146880428Y-105417928D02*
X146380428Y-106132214D01*
X146023285Y-105417928D02*
X146023285Y-106917928D01*
X146594714Y-106917928D01*
X146737571Y-106846500D01*
X146809000Y-106775071D01*
X146880428Y-106632214D01*
X146880428Y-106417928D01*
X146809000Y-106275071D01*
X146737571Y-106203642D01*
X146594714Y-106132214D01*
X146023285Y-106132214D01*
X147451857Y-105846500D02*
X148166142Y-105846500D01*
X147309000Y-105417928D02*
X147809000Y-106917928D01*
X148309000Y-105417928D01*
X148809000Y-105417928D02*
X148809000Y-106917928D01*
X149666142Y-105417928D01*
X149666142Y-106917928D01*
X150237571Y-106917928D02*
X151237571Y-106917928D01*
X150237571Y-105417928D01*
X151237571Y-105417928D01*
X151809000Y-105417928D02*
X151809000Y-106917928D01*
X152523285Y-105417928D02*
X152523285Y-106917928D01*
X153380428Y-105417928D01*
X153380428Y-106917928D01*
X154094714Y-105417928D02*
X154094714Y-106917928D01*
X154809000Y-105417928D02*
X154809000Y-106917928D01*
X155666142Y-105417928D01*
X155666142Y-106917928D01*
X156380428Y-105417928D02*
X156380428Y-106917928D01*
X156380428Y-106203642D02*
X157237571Y-106203642D01*
X157237571Y-105417928D02*
X157237571Y-106917928D01*
X158237571Y-106917928D02*
X158523285Y-106917928D01*
X158666142Y-106846500D01*
X158809000Y-106703642D01*
X158880428Y-106417928D01*
X158880428Y-105917928D01*
X158809000Y-105632214D01*
X158666142Y-105489357D01*
X158523285Y-105417928D01*
X158237571Y-105417928D01*
X158094714Y-105489357D01*
X157951857Y-105632214D01*
X157880428Y-105917928D01*
X157880428Y-106417928D01*
X157951857Y-106703642D01*
X158094714Y-106846500D01*
X158237571Y-106917928D01*
X160523285Y-106917928D02*
X160880428Y-105417928D01*
X161166142Y-106489357D01*
X161451857Y-105417928D01*
X161809000Y-106917928D01*
X162380428Y-105417928D02*
X162380428Y-106917928D01*
X163594714Y-106203642D02*
X163094714Y-106203642D01*
X163094714Y-105417928D02*
X163094714Y-106917928D01*
X163809000Y-106917928D01*
X164380428Y-105417928D02*
X164380428Y-106917928D01*
D10*
X152025571Y-104260595D02*
X152292238Y-103460595D01*
X152558904Y-104260595D01*
X153244619Y-103460595D02*
X152787476Y-103460595D01*
X153016047Y-103460595D02*
X153016047Y-104260595D01*
X152939857Y-104146309D01*
X152863666Y-104070119D01*
X152787476Y-104032023D01*
X154044619Y-103460595D02*
X153777952Y-103841547D01*
X153587476Y-103460595D02*
X153587476Y-104260595D01*
X153892238Y-104260595D01*
X153968428Y-104222500D01*
X154006523Y-104184404D01*
X154044619Y-104108214D01*
X154044619Y-103993928D01*
X154006523Y-103917738D01*
X153968428Y-103879642D01*
X153892238Y-103841547D01*
X153587476Y-103841547D01*
X154273190Y-104260595D02*
X154539857Y-103460595D01*
X154806523Y-104260595D01*
X155225571Y-104260595D02*
X155301761Y-104260595D01*
X155377952Y-104222500D01*
X155416047Y-104184404D01*
X155454142Y-104108214D01*
X155492238Y-103955833D01*
X155492238Y-103765357D01*
X155454142Y-103612976D01*
X155416047Y-103536785D01*
X155377952Y-103498690D01*
X155301761Y-103460595D01*
X155225571Y-103460595D01*
X155149380Y-103498690D01*
X155111285Y-103536785D01*
X155073190Y-103612976D01*
X155035095Y-103765357D01*
X155035095Y-103955833D01*
X155073190Y-104108214D01*
X155111285Y-104184404D01*
X155149380Y-104222500D01*
X155225571Y-104260595D01*
D11*
X154217619Y-115518642D02*
X154217619Y-114899595D01*
X153836666Y-115232928D01*
X153836666Y-115090071D01*
X153789047Y-114994833D01*
X153741428Y-114947214D01*
X153646190Y-114899595D01*
X153408095Y-114899595D01*
X153312857Y-114947214D01*
X153265238Y-114994833D01*
X153217619Y-115090071D01*
X153217619Y-115375785D01*
X153265238Y-115471023D01*
X153312857Y-115518642D01*
X154217619Y-114042452D02*
X154217619Y-114232928D01*
X154170000Y-114328166D01*
X154122380Y-114375785D01*
X153979523Y-114471023D01*
X153789047Y-114518642D01*
X153408095Y-114518642D01*
X153312857Y-114471023D01*
X153265238Y-114423404D01*
X153217619Y-114328166D01*
X153217619Y-114137690D01*
X153265238Y-114042452D01*
X153312857Y-113994833D01*
X153408095Y-113947214D01*
X153646190Y-113947214D01*
X153741428Y-113994833D01*
X153789047Y-114042452D01*
X153836666Y-114137690D01*
X153836666Y-114328166D01*
X153789047Y-114423404D01*
X153741428Y-114471023D01*
X153646190Y-114518642D01*
X143962380Y-115471023D02*
X144010000Y-115423404D01*
X144057619Y-115328166D01*
X144057619Y-115090071D01*
X144010000Y-114994833D01*
X143962380Y-114947214D01*
X143867142Y-114899595D01*
X143771904Y-114899595D01*
X143629047Y-114947214D01*
X143057619Y-115518642D01*
X143057619Y-114899595D01*
X144057619Y-114042452D02*
X144057619Y-114232928D01*
X144010000Y-114328166D01*
X143962380Y-114375785D01*
X143819523Y-114471023D01*
X143629047Y-114518642D01*
X143248095Y-114518642D01*
X143152857Y-114471023D01*
X143105238Y-114423404D01*
X143057619Y-114328166D01*
X143057619Y-114137690D01*
X143105238Y-114042452D01*
X143152857Y-113994833D01*
X143248095Y-113947214D01*
X143486190Y-113947214D01*
X143581428Y-113994833D01*
X143629047Y-114042452D01*
X143676666Y-114137690D01*
X143676666Y-114328166D01*
X143629047Y-114423404D01*
X143581428Y-114471023D01*
X143486190Y-114518642D01*
D12*
X136437619Y-114995964D02*
X136437619Y-115472154D01*
X135961428Y-115519773D01*
X136009047Y-115472154D01*
X136056666Y-115376916D01*
X136056666Y-115138821D01*
X136009047Y-115043583D01*
X135961428Y-114995964D01*
X135866190Y-114948345D01*
X135628095Y-114948345D01*
X135532857Y-114995964D01*
X135485238Y-115043583D01*
X135437619Y-115138821D01*
X135437619Y-115376916D01*
X135485238Y-115472154D01*
X135532857Y-115519773D01*
X136437619Y-114662630D02*
X135437619Y-114329297D01*
X136437619Y-113995964D01*
D11*
X141422380Y-115471023D02*
X141470000Y-115423404D01*
X141517619Y-115328166D01*
X141517619Y-115090071D01*
X141470000Y-114994833D01*
X141422380Y-114947214D01*
X141327142Y-114899595D01*
X141231904Y-114899595D01*
X141089047Y-114947214D01*
X140517619Y-115518642D01*
X140517619Y-114899595D01*
X140517619Y-113947214D02*
X140517619Y-114518642D01*
X140517619Y-114232928D02*
X141517619Y-114232928D01*
X141374761Y-114328166D01*
X141279523Y-114423404D01*
X141231904Y-114518642D01*
X171731999Y-114994833D02*
X171065333Y-114994833D01*
X172112952Y-115232928D02*
X171398666Y-115471023D01*
X171398666Y-114851976D01*
X172065333Y-114566261D02*
X172065333Y-113947214D01*
X171684380Y-114280547D01*
X171684380Y-114137690D01*
X171636761Y-114042452D01*
X171589142Y-113994833D01*
X171493904Y-113947214D01*
X171255809Y-113947214D01*
X171160571Y-113994833D01*
X171112952Y-114042452D01*
X171065333Y-114137690D01*
X171065333Y-114423404D01*
X171112952Y-114518642D01*
X171160571Y-114566261D01*
X172112952Y-112804357D02*
X170827237Y-113661500D01*
X172065333Y-112613880D02*
X172065333Y-112042452D01*
X171065333Y-112328166D02*
X172065333Y-112328166D01*
X172065333Y-111804357D02*
X171065333Y-111137690D01*
X172065333Y-111137690D02*
X171065333Y-111804357D01*
X164044285Y-114994833D02*
X163377619Y-114994833D01*
X164425238Y-115232928D02*
X163710952Y-115471023D01*
X163710952Y-114851976D01*
X164377619Y-114280547D02*
X164377619Y-114185309D01*
X164330000Y-114090071D01*
X164282380Y-114042452D01*
X164187142Y-113994833D01*
X163996666Y-113947214D01*
X163758571Y-113947214D01*
X163568095Y-113994833D01*
X163472857Y-114042452D01*
X163425238Y-114090071D01*
X163377619Y-114185309D01*
X163377619Y-114280547D01*
X163425238Y-114375785D01*
X163472857Y-114423404D01*
X163568095Y-114471023D01*
X163758571Y-114518642D01*
X163996666Y-114518642D01*
X164187142Y-114471023D01*
X164282380Y-114423404D01*
X164330000Y-114375785D01*
X164377619Y-114280547D01*
X137977619Y-114899595D02*
X137977619Y-115471023D01*
X137977619Y-115185309D02*
X138977619Y-115185309D01*
X138834761Y-115280547D01*
X138739523Y-115375785D01*
X138691904Y-115471023D01*
X138549047Y-114328166D02*
X138596666Y-114423404D01*
X138644285Y-114471023D01*
X138739523Y-114518642D01*
X138787142Y-114518642D01*
X138882380Y-114471023D01*
X138930000Y-114423404D01*
X138977619Y-114328166D01*
X138977619Y-114137690D01*
X138930000Y-114042452D01*
X138882380Y-113994833D01*
X138787142Y-113947214D01*
X138739523Y-113947214D01*
X138644285Y-113994833D01*
X138596666Y-114042452D01*
X138549047Y-114137690D01*
X138549047Y-114328166D01*
X138501428Y-114423404D01*
X138453809Y-114471023D01*
X138358571Y-114518642D01*
X138168095Y-114518642D01*
X138072857Y-114471023D01*
X138025238Y-114423404D01*
X137977619Y-114328166D01*
X137977619Y-114137690D01*
X138025238Y-114042452D01*
X138072857Y-113994833D01*
X138168095Y-113947214D01*
X138358571Y-113947214D01*
X138453809Y-113994833D01*
X138501428Y-114042452D01*
X138549047Y-114137690D01*
X179284285Y-114994833D02*
X178617619Y-114994833D01*
X179665238Y-115232928D02*
X178950952Y-115471023D01*
X178950952Y-114851976D01*
X179617619Y-114042452D02*
X179617619Y-114232928D01*
X179570000Y-114328166D01*
X179522380Y-114375785D01*
X179379523Y-114471023D01*
X179189047Y-114518642D01*
X178808095Y-114518642D01*
X178712857Y-114471023D01*
X178665238Y-114423404D01*
X178617619Y-114328166D01*
X178617619Y-114137690D01*
X178665238Y-114042452D01*
X178712857Y-113994833D01*
X178808095Y-113947214D01*
X179046190Y-113947214D01*
X179141428Y-113994833D01*
X179189047Y-114042452D01*
X179236666Y-114137690D01*
X179236666Y-114328166D01*
X179189047Y-114423404D01*
X179141428Y-114471023D01*
X179046190Y-114518642D01*
X149137619Y-115518642D02*
X149137619Y-114899595D01*
X148756666Y-115232928D01*
X148756666Y-115090071D01*
X148709047Y-114994833D01*
X148661428Y-114947214D01*
X148566190Y-114899595D01*
X148328095Y-114899595D01*
X148232857Y-114947214D01*
X148185238Y-114994833D01*
X148137619Y-115090071D01*
X148137619Y-115375785D01*
X148185238Y-115471023D01*
X148232857Y-115518642D01*
X148804285Y-114042452D02*
X148137619Y-114042452D01*
X149185238Y-114280547D02*
X148470952Y-114518642D01*
X148470952Y-113899595D01*
X169124285Y-114994833D02*
X168457619Y-114994833D01*
X169505238Y-115232928D02*
X168790952Y-115471023D01*
X168790952Y-114851976D01*
X169362380Y-114518642D02*
X169410000Y-114471023D01*
X169457619Y-114375785D01*
X169457619Y-114137690D01*
X169410000Y-114042452D01*
X169362380Y-113994833D01*
X169267142Y-113947214D01*
X169171904Y-113947214D01*
X169029047Y-113994833D01*
X168457619Y-114566261D01*
X168457619Y-113947214D01*
X151677619Y-115518642D02*
X151677619Y-114899595D01*
X151296666Y-115232928D01*
X151296666Y-115090071D01*
X151249047Y-114994833D01*
X151201428Y-114947214D01*
X151106190Y-114899595D01*
X150868095Y-114899595D01*
X150772857Y-114947214D01*
X150725238Y-114994833D01*
X150677619Y-115090071D01*
X150677619Y-115375785D01*
X150725238Y-115471023D01*
X150772857Y-115518642D01*
X151677619Y-113994833D02*
X151677619Y-114471023D01*
X151201428Y-114518642D01*
X151249047Y-114471023D01*
X151296666Y-114375785D01*
X151296666Y-114137690D01*
X151249047Y-114042452D01*
X151201428Y-113994833D01*
X151106190Y-113947214D01*
X150868095Y-113947214D01*
X150772857Y-113994833D01*
X150725238Y-114042452D01*
X150677619Y-114137690D01*
X150677619Y-114375785D01*
X150725238Y-114471023D01*
X150772857Y-114518642D01*
X176744285Y-114994833D02*
X176077619Y-114994833D01*
X177125238Y-115232928D02*
X176410952Y-115471023D01*
X176410952Y-114851976D01*
X177077619Y-113994833D02*
X177077619Y-114471023D01*
X176601428Y-114518642D01*
X176649047Y-114471023D01*
X176696666Y-114375785D01*
X176696666Y-114137690D01*
X176649047Y-114042452D01*
X176601428Y-113994833D01*
X176506190Y-113947214D01*
X176268095Y-113947214D01*
X176172857Y-113994833D01*
X176125238Y-114042452D01*
X176077619Y-114137690D01*
X176077619Y-114375785D01*
X176125238Y-114471023D01*
X176172857Y-114518642D01*
X174204285Y-114994833D02*
X173537619Y-114994833D01*
X174585238Y-115232928D02*
X173870952Y-115471023D01*
X173870952Y-114851976D01*
X174204285Y-114042452D02*
X173537619Y-114042452D01*
X174585238Y-114280547D02*
X173870952Y-114518642D01*
X173870952Y-113899595D01*
X174585238Y-112804357D02*
X173299523Y-113661500D01*
X173537619Y-111899595D02*
X174013809Y-112232928D01*
X173537619Y-112471023D02*
X174537619Y-112471023D01*
X174537619Y-112090071D01*
X174490000Y-111994833D01*
X174442380Y-111947214D01*
X174347142Y-111899595D01*
X174204285Y-111899595D01*
X174109047Y-111947214D01*
X174061428Y-111994833D01*
X174013809Y-112090071D01*
X174013809Y-112471023D01*
X174537619Y-111566261D02*
X173537619Y-110899595D01*
X174537619Y-110899595D02*
X173537619Y-111566261D01*
X161837619Y-115518642D02*
X161837619Y-114899595D01*
X161456666Y-115232928D01*
X161456666Y-115090071D01*
X161409047Y-114994833D01*
X161361428Y-114947214D01*
X161266190Y-114899595D01*
X161028095Y-114899595D01*
X160932857Y-114947214D01*
X160885238Y-114994833D01*
X160837619Y-115090071D01*
X160837619Y-115375785D01*
X160885238Y-115471023D01*
X160932857Y-115518642D01*
X160837619Y-114423404D02*
X160837619Y-114232928D01*
X160885238Y-114137690D01*
X160932857Y-114090071D01*
X161075714Y-113994833D01*
X161266190Y-113947214D01*
X161647142Y-113947214D01*
X161742380Y-113994833D01*
X161790000Y-114042452D01*
X161837619Y-114137690D01*
X161837619Y-114328166D01*
X161790000Y-114423404D01*
X161742380Y-114471023D01*
X161647142Y-114518642D01*
X161409047Y-114518642D01*
X161313809Y-114471023D01*
X161266190Y-114423404D01*
X161218571Y-114328166D01*
X161218571Y-114137690D01*
X161266190Y-114042452D01*
X161313809Y-113994833D01*
X161409047Y-113947214D01*
X156757619Y-115518642D02*
X156757619Y-114899595D01*
X156376666Y-115232928D01*
X156376666Y-115090071D01*
X156329047Y-114994833D01*
X156281428Y-114947214D01*
X156186190Y-114899595D01*
X155948095Y-114899595D01*
X155852857Y-114947214D01*
X155805238Y-114994833D01*
X155757619Y-115090071D01*
X155757619Y-115375785D01*
X155805238Y-115471023D01*
X155852857Y-115518642D01*
X156757619Y-114566261D02*
X156757619Y-113899595D01*
X155757619Y-114328166D01*
X166584285Y-114994833D02*
X165917619Y-114994833D01*
X166965238Y-115232928D02*
X166250952Y-115471023D01*
X166250952Y-114851976D01*
X165917619Y-113947214D02*
X165917619Y-114518642D01*
X165917619Y-114232928D02*
X166917619Y-114232928D01*
X166774761Y-114328166D01*
X166679523Y-114423404D01*
X166631904Y-114518642D01*
X159297619Y-115518642D02*
X159297619Y-114899595D01*
X158916666Y-115232928D01*
X158916666Y-115090071D01*
X158869047Y-114994833D01*
X158821428Y-114947214D01*
X158726190Y-114899595D01*
X158488095Y-114899595D01*
X158392857Y-114947214D01*
X158345238Y-114994833D01*
X158297619Y-115090071D01*
X158297619Y-115375785D01*
X158345238Y-115471023D01*
X158392857Y-115518642D01*
X158869047Y-114328166D02*
X158916666Y-114423404D01*
X158964285Y-114471023D01*
X159059523Y-114518642D01*
X159107142Y-114518642D01*
X159202380Y-114471023D01*
X159250000Y-114423404D01*
X159297619Y-114328166D01*
X159297619Y-114137690D01*
X159250000Y-114042452D01*
X159202380Y-113994833D01*
X159107142Y-113947214D01*
X159059523Y-113947214D01*
X158964285Y-113994833D01*
X158916666Y-114042452D01*
X158869047Y-114137690D01*
X158869047Y-114328166D01*
X158821428Y-114423404D01*
X158773809Y-114471023D01*
X158678571Y-114518642D01*
X158488095Y-114518642D01*
X158392857Y-114471023D01*
X158345238Y-114423404D01*
X158297619Y-114328166D01*
X158297619Y-114137690D01*
X158345238Y-114042452D01*
X158392857Y-113994833D01*
X158488095Y-113947214D01*
X158678571Y-113947214D01*
X158773809Y-113994833D01*
X158821428Y-114042452D01*
X158869047Y-114137690D01*
X146597619Y-115518642D02*
X146597619Y-114899595D01*
X146216666Y-115232928D01*
X146216666Y-115090071D01*
X146169047Y-114994833D01*
X146121428Y-114947214D01*
X146026190Y-114899595D01*
X145788095Y-114899595D01*
X145692857Y-114947214D01*
X145645238Y-114994833D01*
X145597619Y-115090071D01*
X145597619Y-115375785D01*
X145645238Y-115471023D01*
X145692857Y-115518642D01*
X146597619Y-114566261D02*
X146597619Y-113947214D01*
X146216666Y-114280547D01*
X146216666Y-114137690D01*
X146169047Y-114042452D01*
X146121428Y-113994833D01*
X146026190Y-113947214D01*
X145788095Y-113947214D01*
X145692857Y-113994833D01*
X145645238Y-114042452D01*
X145597619Y-114137690D01*
X145597619Y-114423404D01*
X145645238Y-114518642D01*
X145692857Y-114566261D01*
D12*
X133750000Y-115176916D02*
X133788095Y-115243583D01*
X133788095Y-115343583D01*
X133750000Y-115443583D01*
X133673809Y-115510250D01*
X133597619Y-115543583D01*
X133445238Y-115576916D01*
X133330952Y-115576916D01*
X133178571Y-115543583D01*
X133102380Y-115510250D01*
X133026190Y-115443583D01*
X132988095Y-115343583D01*
X132988095Y-115276916D01*
X133026190Y-115176916D01*
X133064285Y-115143583D01*
X133330952Y-115143583D01*
X133330952Y-115276916D01*
X132988095Y-114843583D02*
X133788095Y-114843583D01*
X132988095Y-114443583D01*
X133788095Y-114443583D01*
X132988095Y-114110250D02*
X133788095Y-114110250D01*
X133788095Y-113943583D01*
X133750000Y-113843583D01*
X133673809Y-113776916D01*
X133597619Y-113743583D01*
X133445238Y-113710250D01*
X133330952Y-113710250D01*
X133178571Y-113743583D01*
X133102380Y-113776916D01*
X133026190Y-113843583D01*
X132988095Y-113943583D01*
X132988095Y-114110250D01*
D11*
X143057619Y-96301357D02*
X143057619Y-96872785D01*
X143057619Y-96587071D02*
X144057619Y-96587071D01*
X143914761Y-96682309D01*
X143819523Y-96777547D01*
X143771904Y-96872785D01*
X144057619Y-95444214D02*
X144057619Y-95634690D01*
X144010000Y-95729928D01*
X143962380Y-95777547D01*
X143819523Y-95872785D01*
X143629047Y-95920404D01*
X143248095Y-95920404D01*
X143152857Y-95872785D01*
X143105238Y-95825166D01*
X143057619Y-95729928D01*
X143057619Y-95539452D01*
X143105238Y-95444214D01*
X143152857Y-95396595D01*
X143248095Y-95348976D01*
X143486190Y-95348976D01*
X143581428Y-95396595D01*
X143629047Y-95444214D01*
X143676666Y-95539452D01*
X143676666Y-95729928D01*
X143629047Y-95825166D01*
X143581428Y-95872785D01*
X143486190Y-95920404D01*
X158297619Y-96301357D02*
X158297619Y-96872785D01*
X158297619Y-96587071D02*
X159297619Y-96587071D01*
X159154761Y-96682309D01*
X159059523Y-96777547D01*
X159011904Y-96872785D01*
X159297619Y-95682309D02*
X159297619Y-95587071D01*
X159250000Y-95491833D01*
X159202380Y-95444214D01*
X159107142Y-95396595D01*
X158916666Y-95348976D01*
X158678571Y-95348976D01*
X158488095Y-95396595D01*
X158392857Y-95444214D01*
X158345238Y-95491833D01*
X158297619Y-95587071D01*
X158297619Y-95682309D01*
X158345238Y-95777547D01*
X158392857Y-95825166D01*
X158488095Y-95872785D01*
X158678571Y-95920404D01*
X158916666Y-95920404D01*
X159107142Y-95872785D01*
X159202380Y-95825166D01*
X159250000Y-95777547D01*
X159297619Y-95682309D01*
X148137619Y-96301357D02*
X148137619Y-96872785D01*
X148137619Y-96587071D02*
X149137619Y-96587071D01*
X148994761Y-96682309D01*
X148899523Y-96777547D01*
X148851904Y-96872785D01*
X148804285Y-95444214D02*
X148137619Y-95444214D01*
X149185238Y-95682309D02*
X148470952Y-95920404D01*
X148470952Y-95301357D01*
X135183619Y-95825166D02*
X135183619Y-95634690D01*
X135231238Y-95539452D01*
X135278857Y-95491833D01*
X135421714Y-95396595D01*
X135612190Y-95348976D01*
X135993142Y-95348976D01*
X136088380Y-95396595D01*
X136136000Y-95444214D01*
X136183619Y-95539452D01*
X136183619Y-95729928D01*
X136136000Y-95825166D01*
X136088380Y-95872785D01*
X135993142Y-95920404D01*
X135755047Y-95920404D01*
X135659809Y-95872785D01*
X135612190Y-95825166D01*
X135564571Y-95729928D01*
X135564571Y-95539452D01*
X135612190Y-95444214D01*
X135659809Y-95396595D01*
X135755047Y-95348976D01*
X169124285Y-95444214D02*
X168457619Y-95444214D01*
X169505238Y-95682309D02*
X168790952Y-95920404D01*
X168790952Y-95301357D01*
X133897619Y-101079547D02*
X133897619Y-100460500D01*
X133516666Y-100793833D01*
X133516666Y-100650976D01*
X133469047Y-100555738D01*
X133421428Y-100508119D01*
X133326190Y-100460500D01*
X133088095Y-100460500D01*
X132992857Y-100508119D01*
X132945238Y-100555738D01*
X132897619Y-100650976D01*
X132897619Y-100936690D01*
X132945238Y-101031928D01*
X132992857Y-101079547D01*
X133897619Y-100174785D02*
X132897619Y-99841452D01*
X133897619Y-99508119D01*
X133897619Y-99270023D02*
X133897619Y-98650976D01*
X133516666Y-98984309D01*
X133516666Y-98841452D01*
X133469047Y-98746214D01*
X133421428Y-98698595D01*
X133326190Y-98650976D01*
X133088095Y-98650976D01*
X132992857Y-98698595D01*
X132945238Y-98746214D01*
X132897619Y-98841452D01*
X132897619Y-99127166D01*
X132945238Y-99222404D01*
X132992857Y-99270023D01*
X145597619Y-96301357D02*
X145597619Y-96872785D01*
X145597619Y-96587071D02*
X146597619Y-96587071D01*
X146454761Y-96682309D01*
X146359523Y-96777547D01*
X146311904Y-96872785D01*
X146597619Y-95396595D02*
X146597619Y-95872785D01*
X146121428Y-95920404D01*
X146169047Y-95872785D01*
X146216666Y-95777547D01*
X146216666Y-95539452D01*
X146169047Y-95444214D01*
X146121428Y-95396595D01*
X146026190Y-95348976D01*
X145788095Y-95348976D01*
X145692857Y-95396595D01*
X145645238Y-95444214D01*
X145597619Y-95539452D01*
X145597619Y-95777547D01*
X145645238Y-95872785D01*
X145692857Y-95920404D01*
X153217619Y-96301357D02*
X153217619Y-96872785D01*
X153217619Y-96587071D02*
X154217619Y-96587071D01*
X154074761Y-96682309D01*
X153979523Y-96777547D01*
X153931904Y-96872785D01*
X154122380Y-95920404D02*
X154170000Y-95872785D01*
X154217619Y-95777547D01*
X154217619Y-95539452D01*
X154170000Y-95444214D01*
X154122380Y-95396595D01*
X154027142Y-95348976D01*
X153931904Y-95348976D01*
X153789047Y-95396595D01*
X153217619Y-95968023D01*
X153217619Y-95348976D01*
X131310000Y-100746214D02*
X131357619Y-100841452D01*
X131357619Y-100984309D01*
X131310000Y-101127166D01*
X131214761Y-101222404D01*
X131119523Y-101270023D01*
X130929047Y-101317642D01*
X130786190Y-101317642D01*
X130595714Y-101270023D01*
X130500476Y-101222404D01*
X130405238Y-101127166D01*
X130357619Y-100984309D01*
X130357619Y-100889071D01*
X130405238Y-100746214D01*
X130452857Y-100698595D01*
X130786190Y-100698595D01*
X130786190Y-100889071D01*
X130357619Y-100270023D02*
X131357619Y-100270023D01*
X130357619Y-99698595D01*
X131357619Y-99698595D01*
X130357619Y-99222404D02*
X131357619Y-99222404D01*
X131357619Y-98984309D01*
X131310000Y-98841452D01*
X131214761Y-98746214D01*
X131119523Y-98698595D01*
X130929047Y-98650976D01*
X130786190Y-98650976D01*
X130595714Y-98698595D01*
X130500476Y-98746214D01*
X130405238Y-98841452D01*
X130357619Y-98984309D01*
X130357619Y-99222404D01*
X150677619Y-96301357D02*
X150677619Y-96872785D01*
X150677619Y-96587071D02*
X151677619Y-96587071D01*
X151534761Y-96682309D01*
X151439523Y-96777547D01*
X151391904Y-96872785D01*
X151677619Y-95968023D02*
X151677619Y-95348976D01*
X151296666Y-95682309D01*
X151296666Y-95539452D01*
X151249047Y-95444214D01*
X151201428Y-95396595D01*
X151106190Y-95348976D01*
X150868095Y-95348976D01*
X150772857Y-95396595D01*
X150725238Y-95444214D01*
X150677619Y-95539452D01*
X150677619Y-95825166D01*
X150725238Y-95920404D01*
X150772857Y-95968023D01*
X138295047Y-95729928D02*
X138342666Y-95825166D01*
X138390285Y-95872785D01*
X138485523Y-95920404D01*
X138533142Y-95920404D01*
X138628380Y-95872785D01*
X138676000Y-95825166D01*
X138723619Y-95729928D01*
X138723619Y-95539452D01*
X138676000Y-95444214D01*
X138628380Y-95396595D01*
X138533142Y-95348976D01*
X138485523Y-95348976D01*
X138390285Y-95396595D01*
X138342666Y-95444214D01*
X138295047Y-95539452D01*
X138295047Y-95729928D01*
X138247428Y-95825166D01*
X138199809Y-95872785D01*
X138104571Y-95920404D01*
X137914095Y-95920404D01*
X137818857Y-95872785D01*
X137771238Y-95825166D01*
X137723619Y-95729928D01*
X137723619Y-95539452D01*
X137771238Y-95444214D01*
X137818857Y-95396595D01*
X137914095Y-95348976D01*
X138104571Y-95348976D01*
X138199809Y-95396595D01*
X138247428Y-95444214D01*
X138295047Y-95539452D01*
X155757619Y-96301357D02*
X155757619Y-96872785D01*
X155757619Y-96587071D02*
X156757619Y-96587071D01*
X156614761Y-96682309D01*
X156519523Y-96777547D01*
X156471904Y-96872785D01*
X155757619Y-95348976D02*
X155757619Y-95920404D01*
X155757619Y-95634690D02*
X156757619Y-95634690D01*
X156614761Y-95729928D01*
X156519523Y-95825166D01*
X156471904Y-95920404D01*
X166917619Y-95396595D02*
X166917619Y-95872785D01*
X166441428Y-95920404D01*
X166489047Y-95872785D01*
X166536666Y-95777547D01*
X166536666Y-95539452D01*
X166489047Y-95444214D01*
X166441428Y-95396595D01*
X166346190Y-95348976D01*
X166108095Y-95348976D01*
X166012857Y-95396595D01*
X165965238Y-95444214D01*
X165917619Y-95539452D01*
X165917619Y-95777547D01*
X165965238Y-95872785D01*
X166012857Y-95920404D01*
X164377619Y-95444214D02*
X164377619Y-95634690D01*
X164330000Y-95729928D01*
X164282380Y-95777547D01*
X164139523Y-95872785D01*
X163949047Y-95920404D01*
X163568095Y-95920404D01*
X163472857Y-95872785D01*
X163425238Y-95825166D01*
X163377619Y-95729928D01*
X163377619Y-95539452D01*
X163425238Y-95444214D01*
X163472857Y-95396595D01*
X163568095Y-95348976D01*
X163806190Y-95348976D01*
X163901428Y-95396595D01*
X163949047Y-95444214D01*
X163996666Y-95539452D01*
X163996666Y-95729928D01*
X163949047Y-95825166D01*
X163901428Y-95872785D01*
X163806190Y-95920404D01*
X171997619Y-95968023D02*
X171997619Y-95348976D01*
X171616666Y-95682309D01*
X171616666Y-95539452D01*
X171569047Y-95444214D01*
X171521428Y-95396595D01*
X171426190Y-95348976D01*
X171188095Y-95348976D01*
X171092857Y-95396595D01*
X171045238Y-95444214D01*
X170997619Y-95539452D01*
X170997619Y-95825166D01*
X171045238Y-95920404D01*
X171092857Y-95968023D01*
X161837619Y-95968023D02*
X161837619Y-95301357D01*
X160837619Y-95729928D01*
X174442380Y-95920404D02*
X174490000Y-95872785D01*
X174537619Y-95777547D01*
X174537619Y-95539452D01*
X174490000Y-95444214D01*
X174442380Y-95396595D01*
X174347142Y-95348976D01*
X174251904Y-95348976D01*
X174109047Y-95396595D01*
X173537619Y-95968023D01*
X173537619Y-95348976D01*
X176077619Y-95348976D02*
X176077619Y-95920404D01*
X176077619Y-95634690D02*
X177077619Y-95634690D01*
X176934761Y-95729928D01*
X176839523Y-95825166D01*
X176791904Y-95920404D01*
X179617619Y-95682309D02*
X179617619Y-95587071D01*
X179570000Y-95491833D01*
X179522380Y-95444214D01*
X179427142Y-95396595D01*
X179236666Y-95348976D01*
X178998571Y-95348976D01*
X178808095Y-95396595D01*
X178712857Y-95444214D01*
X178665238Y-95491833D01*
X178617619Y-95587071D01*
X178617619Y-95682309D01*
X178665238Y-95777547D01*
X178712857Y-95825166D01*
X178808095Y-95872785D01*
X178998571Y-95920404D01*
X179236666Y-95920404D01*
X179427142Y-95872785D01*
X179522380Y-95825166D01*
X179570000Y-95777547D01*
X179617619Y-95682309D01*
D13*
X144251071Y-102336642D02*
X144479642Y-101536642D01*
X144708214Y-102108071D01*
X144936785Y-101536642D01*
X145165357Y-102336642D01*
X145508214Y-102336642D02*
X145736785Y-101536642D01*
X145965357Y-102108071D01*
X146193928Y-101536642D01*
X146422500Y-102336642D01*
X146765357Y-102336642D02*
X146993928Y-101536642D01*
X147222500Y-102108071D01*
X147451071Y-101536642D01*
X147679642Y-102336642D01*
X148136785Y-101650928D02*
X148193928Y-101593785D01*
X148136785Y-101536642D01*
X148079642Y-101593785D01*
X148136785Y-101650928D01*
X148136785Y-101536642D01*
X148536785Y-102336642D02*
X148993928Y-102336642D01*
X148708214Y-101536642D02*
X148708214Y-102565214D01*
X148765357Y-102679500D01*
X148879642Y-102736642D01*
X148993928Y-102736642D01*
X149393928Y-101536642D02*
X149393928Y-102336642D01*
X149393928Y-102108071D02*
X149451071Y-102222357D01*
X149508214Y-102279500D01*
X149622500Y-102336642D01*
X149736785Y-102336642D01*
X150651071Y-101536642D02*
X150651071Y-102165214D01*
X150593928Y-102279500D01*
X150479642Y-102336642D01*
X150251071Y-102336642D01*
X150136785Y-102279500D01*
X150651071Y-101593785D02*
X150536785Y-101536642D01*
X150251071Y-101536642D01*
X150136785Y-101593785D01*
X150079642Y-101708071D01*
X150079642Y-101822357D01*
X150136785Y-101936642D01*
X150251071Y-101993785D01*
X150536785Y-101993785D01*
X150651071Y-102050928D01*
X151222500Y-102336642D02*
X151222500Y-101536642D01*
X151222500Y-102222357D02*
X151279642Y-102279500D01*
X151393928Y-102336642D01*
X151565357Y-102336642D01*
X151679642Y-102279500D01*
X151736785Y-102165214D01*
X151736785Y-101536642D01*
X152193928Y-102336642D02*
X152822500Y-102336642D01*
X152193928Y-101536642D01*
X152822500Y-101536642D01*
X153279642Y-101536642D02*
X153279642Y-102336642D01*
X153279642Y-102736642D02*
X153222500Y-102679500D01*
X153279642Y-102622357D01*
X153336785Y-102679500D01*
X153279642Y-102736642D01*
X153279642Y-102622357D01*
X153851071Y-102336642D02*
X153851071Y-101536642D01*
X153851071Y-102222357D02*
X153908214Y-102279500D01*
X154022500Y-102336642D01*
X154193928Y-102336642D01*
X154308214Y-102279500D01*
X154365357Y-102165214D01*
X154365357Y-101536642D01*
X154936785Y-101536642D02*
X154936785Y-102336642D01*
X154936785Y-102736642D02*
X154879642Y-102679500D01*
X154936785Y-102622357D01*
X154993928Y-102679500D01*
X154936785Y-102736642D01*
X154936785Y-102622357D01*
X155508214Y-102336642D02*
X155508214Y-101536642D01*
X155508214Y-102222357D02*
X155565357Y-102279500D01*
X155679642Y-102336642D01*
X155851071Y-102336642D01*
X155965357Y-102279500D01*
X156022500Y-102165214D01*
X156022500Y-101536642D01*
X156593928Y-101536642D02*
X156593928Y-102736642D01*
X157108214Y-101536642D02*
X157108214Y-102165214D01*
X157051071Y-102279500D01*
X156936785Y-102336642D01*
X156765357Y-102336642D01*
X156651071Y-102279500D01*
X156593928Y-102222357D01*
X157851071Y-101536642D02*
X157736785Y-101593785D01*
X157679642Y-101650928D01*
X157622500Y-101765214D01*
X157622500Y-102108071D01*
X157679642Y-102222357D01*
X157736785Y-102279500D01*
X157851071Y-102336642D01*
X158022500Y-102336642D01*
X158136785Y-102279500D01*
X158193928Y-102222357D01*
X158251071Y-102108071D01*
X158251071Y-101765214D01*
X158193928Y-101650928D01*
X158136785Y-101593785D01*
X158022500Y-101536642D01*
X157851071Y-101536642D01*
X158765357Y-101650928D02*
X158822500Y-101593785D01*
X158765357Y-101536642D01*
X158708214Y-101593785D01*
X158765357Y-101650928D01*
X158765357Y-101536642D01*
X159851071Y-101593785D02*
X159736785Y-101536642D01*
X159508214Y-101536642D01*
X159393928Y-101593785D01*
X159336785Y-101650928D01*
X159279642Y-101765214D01*
X159279642Y-102108071D01*
X159336785Y-102222357D01*
X159393928Y-102279500D01*
X159508214Y-102336642D01*
X159736785Y-102336642D01*
X159851071Y-102279500D01*
X160536785Y-101536642D02*
X160422500Y-101593785D01*
X160365357Y-101650928D01*
X160308214Y-101765214D01*
X160308214Y-102108071D01*
X160365357Y-102222357D01*
X160422500Y-102279500D01*
X160536785Y-102336642D01*
X160708214Y-102336642D01*
X160822500Y-102279500D01*
X160879642Y-102222357D01*
X160936785Y-102108071D01*
X160936785Y-101765214D01*
X160879642Y-101650928D01*
X160822500Y-101593785D01*
X160708214Y-101536642D01*
X160536785Y-101536642D01*
X161451071Y-101536642D02*
X161451071Y-102336642D01*
X161451071Y-102222357D02*
X161508214Y-102279500D01*
X161622500Y-102336642D01*
X161793928Y-102336642D01*
X161908214Y-102279500D01*
X161965357Y-102165214D01*
X161965357Y-101536642D01*
X161965357Y-102165214D02*
X162022500Y-102279500D01*
X162136785Y-102336642D01*
X162308214Y-102336642D01*
X162422500Y-102279500D01*
X162479642Y-102165214D01*
X162479642Y-101536642D01*
X163051071Y-101650928D02*
X163108214Y-101593785D01*
X163051071Y-101536642D01*
X162993928Y-101593785D01*
X163051071Y-101650928D01*
X163051071Y-101536642D01*
X163622500Y-101536642D02*
X163622500Y-102736642D01*
X163622500Y-102279500D02*
X163736785Y-102336642D01*
X163965357Y-102336642D01*
X164079642Y-102279500D01*
X164136785Y-102222357D01*
X164193928Y-102108071D01*
X164193928Y-101765214D01*
X164136785Y-101650928D01*
X164079642Y-101593785D01*
X163965357Y-101536642D01*
X163736785Y-101536642D01*
X163622500Y-101593785D01*
X164708214Y-101536642D02*
X164708214Y-102336642D01*
X164708214Y-102108071D02*
X164765357Y-102222357D01*
X164822500Y-102279500D01*
X164936785Y-102336642D01*
X165051071Y-102336642D01*
D14*
G36*
X172862875Y-102941438D02*
G01*
X172862875Y-107870625D01*
X174434548Y-107870625D01*
X174434548Y-107430094D01*
X174416665Y-107408950D01*
X174403970Y-107392979D01*
X174385332Y-107368375D01*
X174363996Y-107339448D01*
X174355125Y-107327204D01*
X174333202Y-107296831D01*
X174312333Y-107268017D01*
X174295965Y-107245520D01*
X174291625Y-107239594D01*
X174277659Y-107220487D01*
X174258001Y-107193471D01*
X174236260Y-107163506D01*
X174229848Y-107154653D01*
X174205982Y-107121788D01*
X174177382Y-107082568D01*
X174148736Y-107043413D01*
X174136583Y-107026850D01*
X174115752Y-106997903D01*
X174098984Y-106973473D01*
X174088225Y-106956466D01*
X174085250Y-106950120D01*
X174079607Y-106940816D01*
X174079184Y-106940615D01*
X174071975Y-106933231D01*
X174057729Y-106915506D01*
X174038471Y-106890133D01*
X174016227Y-106859806D01*
X173993020Y-106827219D01*
X173981723Y-106810969D01*
X173971101Y-106796008D01*
X173953248Y-106771348D01*
X173930389Y-106740043D01*
X173904747Y-106705145D01*
X173896299Y-106693694D01*
X173864134Y-106650012D01*
X173828156Y-106600955D01*
X173792851Y-106552649D01*
X173763781Y-106512703D01*
X173742972Y-106484029D01*
X173722472Y-106455803D01*
X173700901Y-106426128D01*
X173676881Y-106393112D01*
X173649034Y-106354860D01*
X173615980Y-106309477D01*
X173576340Y-106255068D01*
X173528737Y-106189740D01*
X173528364Y-106189229D01*
X173507178Y-106160325D01*
X173487568Y-106133863D01*
X173472823Y-106114274D01*
X173469415Y-106109854D01*
X173456933Y-106093006D01*
X173439148Y-106067947D01*
X173419589Y-106039661D01*
X173416610Y-106035285D01*
X173398188Y-106008627D01*
X173382030Y-105986067D01*
X173371085Y-105971704D01*
X173369664Y-105970044D01*
X173359529Y-105957269D01*
X173344292Y-105936403D01*
X173331187Y-105917663D01*
X173312268Y-105890472D01*
X173293436Y-105864033D01*
X173283562Y-105850536D01*
X173271499Y-105834229D01*
X173252493Y-105808390D01*
X173228961Y-105776309D01*
X173203319Y-105741278D01*
X173198027Y-105734039D01*
X173168699Y-105693948D01*
X173133808Y-105646307D01*
X173097194Y-105596358D01*
X173062697Y-105549341D01*
X173053635Y-105537000D01*
X173027422Y-105500747D01*
X173004852Y-105468460D01*
X172987504Y-105442488D01*
X172976960Y-105425177D01*
X172974468Y-105419393D01*
X172978586Y-105406672D01*
X172989379Y-105388289D01*
X172992659Y-105383674D01*
X173004709Y-105367276D01*
X173023480Y-105341641D01*
X173046343Y-105310363D01*
X173069212Y-105279032D01*
X173094323Y-105244633D01*
X173118594Y-105211437D01*
X173139080Y-105183467D01*
X173151756Y-105166213D01*
X173161801Y-105152555D01*
X173173343Y-105136790D01*
X173187609Y-105117229D01*
X173205830Y-105092183D01*
X173229234Y-105059961D01*
X173259051Y-105018873D01*
X173296508Y-104967230D01*
X173312153Y-104945657D01*
X173334372Y-104915017D01*
X173354127Y-104887780D01*
X173368949Y-104867348D01*
X173375484Y-104858344D01*
X173383813Y-104846841D01*
X173399656Y-104824936D01*
X173421227Y-104795097D01*
X173446743Y-104759789D01*
X173468240Y-104730036D01*
X173545157Y-104623612D01*
X173613020Y-104529804D01*
X173672035Y-104448331D01*
X173722406Y-104378911D01*
X173764336Y-104321263D01*
X173798030Y-104275107D01*
X173823693Y-104240162D01*
X173841529Y-104216147D01*
X173851094Y-104203600D01*
X173866666Y-104183132D01*
X173887645Y-104154669D01*
X173910348Y-104123230D01*
X173918562Y-104111686D01*
X173941826Y-104079164D01*
X173970502Y-104039554D01*
X174000502Y-103998484D01*
X174021489Y-103970006D01*
X174048557Y-103933115D01*
X174076156Y-103894929D01*
X174100717Y-103860413D01*
X174116060Y-103838375D01*
X174135829Y-103809896D01*
X174154760Y-103783318D01*
X174168994Y-103764052D01*
X174169829Y-103762969D01*
X174195667Y-103728873D01*
X174227944Y-103685043D01*
X174264178Y-103634877D01*
X174293143Y-103594168D01*
X174315059Y-103563536D01*
X174339862Y-103529458D01*
X174365090Y-103495250D01*
X174388284Y-103464228D01*
X174406985Y-103439706D01*
X174418199Y-103425625D01*
X174434945Y-103405782D01*
X174450429Y-103425625D01*
X174462783Y-103441954D01*
X174482216Y-103468217D01*
X174506568Y-103501440D01*
X174533675Y-103538651D01*
X174561376Y-103576876D01*
X174587508Y-103613143D01*
X174609909Y-103644477D01*
X174621031Y-103660203D01*
X174638246Y-103684274D01*
X174652724Y-103703755D01*
X174661247Y-103714334D01*
X174671189Y-103726900D01*
X174683976Y-103745423D01*
X174685060Y-103747094D01*
X174697841Y-103765897D01*
X174716805Y-103792629D01*
X174738714Y-103822851D01*
X174760328Y-103852123D01*
X174778408Y-103876006D01*
X174787388Y-103887336D01*
X174796580Y-103899307D01*
X174812350Y-103920697D01*
X174832105Y-103947969D01*
X174844632Y-103965459D01*
X174866322Y-103995871D01*
X174886272Y-104023844D01*
X174901536Y-104045247D01*
X174906781Y-104052602D01*
X174918334Y-104068640D01*
X174936320Y-104093422D01*
X174957789Y-104122890D01*
X174970281Y-104139991D01*
X174991811Y-104169517D01*
X175010918Y-104195873D01*
X175024920Y-104215350D01*
X175029739Y-104222169D01*
X175039983Y-104236469D01*
X175056576Y-104259151D01*
X175076347Y-104285891D01*
X175081332Y-104292592D01*
X175102592Y-104321301D01*
X175122594Y-104348606D01*
X175137548Y-104369325D01*
X175139420Y-104371967D01*
X175170560Y-104416065D01*
X175193875Y-104448859D01*
X175210608Y-104472075D01*
X175222006Y-104487436D01*
X175229312Y-104496668D01*
X175229864Y-104497319D01*
X175241328Y-104512325D01*
X175254881Y-104532042D01*
X175255395Y-104532831D01*
X175267693Y-104551075D01*
X175277084Y-104563834D01*
X175277599Y-104564450D01*
X175286067Y-104575298D01*
X175301077Y-104595350D01*
X175319912Y-104620914D01*
X175339855Y-104648301D01*
X175358186Y-104673821D01*
X175359219Y-104675273D01*
X175379141Y-104703045D01*
X175405747Y-104739760D01*
X175436265Y-104781611D01*
X175467920Y-104824790D01*
X175486790Y-104850407D01*
X175507907Y-104879227D01*
X175534725Y-104916138D01*
X175563737Y-104956299D01*
X175590356Y-104993358D01*
X175617763Y-105031528D01*
X175645924Y-105070543D01*
X175671499Y-105105786D01*
X175690869Y-105132265D01*
X175743978Y-105204443D01*
X175787935Y-105264416D01*
X175823103Y-105312684D01*
X175849847Y-105349748D01*
X175868531Y-105376109D01*
X175874251Y-105384387D01*
X175897159Y-105417938D01*
X175874251Y-105451556D01*
X175860064Y-105471831D01*
X175839413Y-105500659D01*
X175815311Y-105533857D01*
X175795612Y-105560697D01*
X175772464Y-105592175D01*
X175751828Y-105620439D01*
X175736100Y-105642193D01*
X175728143Y-105653452D01*
X175719873Y-105665095D01*
X175703870Y-105687198D01*
X175681824Y-105717447D01*
X175655423Y-105753523D01*
X175626356Y-105793110D01*
X175625125Y-105794783D01*
X175595631Y-105834929D01*
X175568394Y-105872096D01*
X175545197Y-105903843D01*
X175527822Y-105927729D01*
X175518053Y-105941315D01*
X175517969Y-105941435D01*
X175506259Y-105957844D01*
X175488249Y-105982822D01*
X175467008Y-106012121D01*
X175456673Y-106026322D01*
X175436225Y-106054447D01*
X175409248Y-106091637D01*
X175378504Y-106134085D01*
X175346750Y-106177982D01*
X175328131Y-106203750D01*
X175297465Y-106246184D01*
X175266471Y-106289024D01*
X175237797Y-106328612D01*
X175214093Y-106361290D01*
X175202895Y-106376694D01*
X175181405Y-106406249D01*
X175161193Y-106434101D01*
X175145749Y-106455444D01*
X175142437Y-106460038D01*
X175129429Y-106477941D01*
X175110287Y-106504075D01*
X175088327Y-106533917D01*
X175078937Y-106546636D01*
X175056511Y-106577141D01*
X175035252Y-106606329D01*
X175018609Y-106629457D01*
X175013937Y-106636062D01*
X175000196Y-106655335D01*
X174980434Y-106682633D01*
X174958084Y-106713225D01*
X174948859Y-106725770D01*
X174926817Y-106755715D01*
X174907680Y-106781809D01*
X174888870Y-106807595D01*
X174867807Y-106836614D01*
X174841913Y-106872409D01*
X174818697Y-106904550D01*
X174793322Y-106939431D01*
X174764722Y-106978359D01*
X174739983Y-107011706D01*
X174719232Y-107039884D01*
X174700340Y-107066245D01*
X174686821Y-107085869D01*
X174685057Y-107088575D01*
X174672814Y-107106895D01*
X174663386Y-107119698D01*
X174662854Y-107120325D01*
X174655681Y-107129649D01*
X174641333Y-107149070D01*
X174621872Y-107175776D01*
X174599360Y-107206954D01*
X174598717Y-107207848D01*
X174558744Y-107263279D01*
X174522794Y-107312788D01*
X174492079Y-107354718D01*
X174467815Y-107387416D01*
X174451213Y-107409227D01*
X174448415Y-107412768D01*
X174434548Y-107430094D01*
X174434548Y-107870625D01*
X176006125Y-107870625D01*
X176006125Y-102941438D01*
X172862875Y-102941438D01*
G37*
X172862875Y-102941438D02*
X172862875Y-107870625D01*
X174434548Y-107870625D01*
X174434548Y-107430094D01*
X174416665Y-107408950D01*
X174403970Y-107392979D01*
X174385332Y-107368375D01*
X174363996Y-107339448D01*
X174355125Y-107327204D01*
X174333202Y-107296831D01*
X174312333Y-107268017D01*
X174295965Y-107245520D01*
X174291625Y-107239594D01*
X174277659Y-107220487D01*
X174258001Y-107193471D01*
X174236260Y-107163506D01*
X174229848Y-107154653D01*
X174205982Y-107121788D01*
X174177382Y-107082568D01*
X174148736Y-107043413D01*
X174136583Y-107026850D01*
X174115752Y-106997903D01*
X174098984Y-106973473D01*
X174088225Y-106956466D01*
X174085250Y-106950120D01*
X174079607Y-106940816D01*
X174079184Y-106940615D01*
X174071975Y-106933231D01*
X174057729Y-106915506D01*
X174038471Y-106890133D01*
X174016227Y-106859806D01*
X173993020Y-106827219D01*
X173981723Y-106810969D01*
X173971101Y-106796008D01*
X173953248Y-106771348D01*
X173930389Y-106740043D01*
X173904747Y-106705145D01*
X173896299Y-106693694D01*
X173864134Y-106650012D01*
X173828156Y-106600955D01*
X173792851Y-106552649D01*
X173763781Y-106512703D01*
X173742972Y-106484029D01*
X173722472Y-106455803D01*
X173700901Y-106426128D01*
X173676881Y-106393112D01*
X173649034Y-106354860D01*
X173615980Y-106309477D01*
X173576340Y-106255068D01*
X173528737Y-106189740D01*
X173528364Y-106189229D01*
X173507178Y-106160325D01*
X173487568Y-106133863D01*
X173472823Y-106114274D01*
X173469415Y-106109854D01*
X173456933Y-106093006D01*
X173439148Y-106067947D01*
X173419589Y-106039661D01*
X173416610Y-106035285D01*
X173398188Y-106008627D01*
X173382030Y-105986067D01*
X173371085Y-105971704D01*
X173369664Y-105970044D01*
X173359529Y-105957269D01*
X173344292Y-105936403D01*
X173331187Y-105917663D01*
X173312268Y-105890472D01*
X173293436Y-105864033D01*
X173283562Y-105850536D01*
X173271499Y-105834229D01*
X173252493Y-105808390D01*
X173228961Y-105776309D01*
X173203319Y-105741278D01*
X173198027Y-105734039D01*
X173168699Y-105693948D01*
X173133808Y-105646307D01*
X173097194Y-105596358D01*
X173062697Y-105549341D01*
X173053635Y-105537000D01*
X173027422Y-105500747D01*
X173004852Y-105468460D01*
X172987504Y-105442488D01*
X172976960Y-105425177D01*
X172974468Y-105419393D01*
X172978586Y-105406672D01*
X172989379Y-105388289D01*
X172992659Y-105383674D01*
X173004709Y-105367276D01*
X173023480Y-105341641D01*
X173046343Y-105310363D01*
X173069212Y-105279032D01*
X173094323Y-105244633D01*
X173118594Y-105211437D01*
X173139080Y-105183467D01*
X173151756Y-105166213D01*
X173161801Y-105152555D01*
X173173343Y-105136790D01*
X173187609Y-105117229D01*
X173205830Y-105092183D01*
X173229234Y-105059961D01*
X173259051Y-105018873D01*
X173296508Y-104967230D01*
X173312153Y-104945657D01*
X173334372Y-104915017D01*
X173354127Y-104887780D01*
X173368949Y-104867348D01*
X173375484Y-104858344D01*
X173383813Y-104846841D01*
X173399656Y-104824936D01*
X173421227Y-104795097D01*
X173446743Y-104759789D01*
X173468240Y-104730036D01*
X173545157Y-104623612D01*
X173613020Y-104529804D01*
X173672035Y-104448331D01*
X173722406Y-104378911D01*
X173764336Y-104321263D01*
X173798030Y-104275107D01*
X173823693Y-104240162D01*
X173841529Y-104216147D01*
X173851094Y-104203600D01*
X173866666Y-104183132D01*
X173887645Y-104154669D01*
X173910348Y-104123230D01*
X173918562Y-104111686D01*
X173941826Y-104079164D01*
X173970502Y-104039554D01*
X174000502Y-103998484D01*
X174021489Y-103970006D01*
X174048557Y-103933115D01*
X174076156Y-103894929D01*
X174100717Y-103860413D01*
X174116060Y-103838375D01*
X174135829Y-103809896D01*
X174154760Y-103783318D01*
X174168994Y-103764052D01*
X174169829Y-103762969D01*
X174195667Y-103728873D01*
X174227944Y-103685043D01*
X174264178Y-103634877D01*
X174293143Y-103594168D01*
X174315059Y-103563536D01*
X174339862Y-103529458D01*
X174365090Y-103495250D01*
X174388284Y-103464228D01*
X174406985Y-103439706D01*
X174418199Y-103425625D01*
X174434945Y-103405782D01*
X174450429Y-103425625D01*
X174462783Y-103441954D01*
X174482216Y-103468217D01*
X174506568Y-103501440D01*
X174533675Y-103538651D01*
X174561376Y-103576876D01*
X174587508Y-103613143D01*
X174609909Y-103644477D01*
X174621031Y-103660203D01*
X174638246Y-103684274D01*
X174652724Y-103703755D01*
X174661247Y-103714334D01*
X174671189Y-103726900D01*
X174683976Y-103745423D01*
X174685060Y-103747094D01*
X174697841Y-103765897D01*
X174716805Y-103792629D01*
X174738714Y-103822851D01*
X174760328Y-103852123D01*
X174778408Y-103876006D01*
X174787388Y-103887336D01*
X174796580Y-103899307D01*
X174812350Y-103920697D01*
X174832105Y-103947969D01*
X174844632Y-103965459D01*
X174866322Y-103995871D01*
X174886272Y-104023844D01*
X174901536Y-104045247D01*
X174906781Y-104052602D01*
X174918334Y-104068640D01*
X174936320Y-104093422D01*
X174957789Y-104122890D01*
X174970281Y-104139991D01*
X174991811Y-104169517D01*
X175010918Y-104195873D01*
X175024920Y-104215350D01*
X175029739Y-104222169D01*
X175039983Y-104236469D01*
X175056576Y-104259151D01*
X175076347Y-104285891D01*
X175081332Y-104292592D01*
X175102592Y-104321301D01*
X175122594Y-104348606D01*
X175137548Y-104369325D01*
X175139420Y-104371967D01*
X175170560Y-104416065D01*
X175193875Y-104448859D01*
X175210608Y-104472075D01*
X175222006Y-104487436D01*
X175229312Y-104496668D01*
X175229864Y-104497319D01*
X175241328Y-104512325D01*
X175254881Y-104532042D01*
X175255395Y-104532831D01*
X175267693Y-104551075D01*
X175277084Y-104563834D01*
X175277599Y-104564450D01*
X175286067Y-104575298D01*
X175301077Y-104595350D01*
X175319912Y-104620914D01*
X175339855Y-104648301D01*
X175358186Y-104673821D01*
X175359219Y-104675273D01*
X175379141Y-104703045D01*
X175405747Y-104739760D01*
X175436265Y-104781611D01*
X175467920Y-104824790D01*
X175486790Y-104850407D01*
X175507907Y-104879227D01*
X175534725Y-104916138D01*
X175563737Y-104956299D01*
X175590356Y-104993358D01*
X175617763Y-105031528D01*
X175645924Y-105070543D01*
X175671499Y-105105786D01*
X175690869Y-105132265D01*
X175743978Y-105204443D01*
X175787935Y-105264416D01*
X175823103Y-105312684D01*
X175849847Y-105349748D01*
X175868531Y-105376109D01*
X175874251Y-105384387D01*
X175897159Y-105417938D01*
X175874251Y-105451556D01*
X175860064Y-105471831D01*
X175839413Y-105500659D01*
X175815311Y-105533857D01*
X175795612Y-105560697D01*
X175772464Y-105592175D01*
X175751828Y-105620439D01*
X175736100Y-105642193D01*
X175728143Y-105653452D01*
X175719873Y-105665095D01*
X175703870Y-105687198D01*
X175681824Y-105717447D01*
X175655423Y-105753523D01*
X175626356Y-105793110D01*
X175625125Y-105794783D01*
X175595631Y-105834929D01*
X175568394Y-105872096D01*
X175545197Y-105903843D01*
X175527822Y-105927729D01*
X175518053Y-105941315D01*
X175517969Y-105941435D01*
X175506259Y-105957844D01*
X175488249Y-105982822D01*
X175467008Y-106012121D01*
X175456673Y-106026322D01*
X175436225Y-106054447D01*
X175409248Y-106091637D01*
X175378504Y-106134085D01*
X175346750Y-106177982D01*
X175328131Y-106203750D01*
X175297465Y-106246184D01*
X175266471Y-106289024D01*
X175237797Y-106328612D01*
X175214093Y-106361290D01*
X175202895Y-106376694D01*
X175181405Y-106406249D01*
X175161193Y-106434101D01*
X175145749Y-106455444D01*
X175142437Y-106460038D01*
X175129429Y-106477941D01*
X175110287Y-106504075D01*
X175088327Y-106533917D01*
X175078937Y-106546636D01*
X175056511Y-106577141D01*
X175035252Y-106606329D01*
X175018609Y-106629457D01*
X175013937Y-106636062D01*
X175000196Y-106655335D01*
X174980434Y-106682633D01*
X174958084Y-106713225D01*
X174948859Y-106725770D01*
X174926817Y-106755715D01*
X174907680Y-106781809D01*
X174888870Y-106807595D01*
X174867807Y-106836614D01*
X174841913Y-106872409D01*
X174818697Y-106904550D01*
X174793322Y-106939431D01*
X174764722Y-106978359D01*
X174739983Y-107011706D01*
X174719232Y-107039884D01*
X174700340Y-107066245D01*
X174686821Y-107085869D01*
X174685057Y-107088575D01*
X174672814Y-107106895D01*
X174663386Y-107119698D01*
X174662854Y-107120325D01*
X174655681Y-107129649D01*
X174641333Y-107149070D01*
X174621872Y-107175776D01*
X174599360Y-107206954D01*
X174598717Y-107207848D01*
X174558744Y-107263279D01*
X174522794Y-107312788D01*
X174492079Y-107354718D01*
X174467815Y-107387416D01*
X174451213Y-107409227D01*
X174448415Y-107412768D01*
X174434548Y-107430094D01*
X174434548Y-107870625D01*
X176006125Y-107870625D01*
X176006125Y-102941438D01*
X172862875Y-102941438D01*
G36*
X174913551Y-106220800D02*
G01*
X174913298Y-106219708D01*
X174907587Y-106201412D01*
X174902959Y-106191844D01*
X174898170Y-106180519D01*
X174891103Y-106158634D01*
X174883668Y-106132313D01*
X174874681Y-106101241D01*
X174862060Y-106061180D01*
X174847454Y-106017026D01*
X174832516Y-105973671D01*
X174818894Y-105936011D01*
X174808718Y-105910063D01*
X174801716Y-105892849D01*
X174791248Y-105866376D01*
X174779516Y-105836217D01*
X174778914Y-105834657D01*
X174768873Y-105810109D01*
X174754394Y-105776652D01*
X174736893Y-105737356D01*
X174717783Y-105695293D01*
X174698480Y-105653533D01*
X174680400Y-105615147D01*
X174664957Y-105583208D01*
X174653566Y-105560784D01*
X174649075Y-105552875D01*
X174636118Y-105531527D01*
X174618880Y-105501719D01*
X174600507Y-105469027D01*
X174584142Y-105439023D01*
X174575381Y-105422240D01*
X174561930Y-105397286D01*
X174548445Y-105374795D01*
X174545693Y-105370647D01*
X174536774Y-105357492D01*
X174520800Y-105333781D01*
X174499544Y-105302151D01*
X174474779Y-105265242D01*
X174454765Y-105235375D01*
X174388038Y-105138513D01*
X174324994Y-105052957D01*
X174263126Y-104975394D01*
X174220187Y-104925231D01*
X174195407Y-104897047D01*
X174172311Y-104870710D01*
X174154451Y-104850271D01*
X174148750Y-104843710D01*
X174133128Y-104826619D01*
X174110483Y-104803075D01*
X174082953Y-104775174D01*
X174052676Y-104745006D01*
X174021791Y-104714667D01*
X173992435Y-104686248D01*
X173966747Y-104661843D01*
X173946864Y-104643545D01*
X173934924Y-104633446D01*
X173932620Y-104632125D01*
X173921538Y-104637015D01*
X173901482Y-104650188D01*
X173875357Y-104669403D01*
X173846073Y-104692416D01*
X173816536Y-104716984D01*
X173789655Y-104740865D01*
X173780852Y-104749187D01*
X173745536Y-104785549D01*
X173708753Y-104827224D01*
X173674255Y-104869687D01*
X173645793Y-104908410D01*
X173634472Y-104925813D01*
X173595592Y-104996704D01*
X173561133Y-105073351D01*
X173533146Y-105150545D01*
X173513683Y-105223076D01*
X173510091Y-105241549D01*
X173505198Y-105275926D01*
X173500826Y-105318578D01*
X173497212Y-105365389D01*
X173494594Y-105412238D01*
X173493210Y-105455009D01*
X173493296Y-105489583D01*
X173494670Y-105509219D01*
X173497327Y-105528549D01*
X173501315Y-105557804D01*
X173505844Y-105591176D01*
X173506569Y-105596532D01*
X173513764Y-105636348D01*
X173524648Y-105681598D01*
X173536967Y-105722995D01*
X173537963Y-105725909D01*
X173550840Y-105760574D01*
X173566392Y-105798664D01*
X173582886Y-105836322D01*
X173598589Y-105869689D01*
X173611768Y-105894908D01*
X173618906Y-105906094D01*
X173626844Y-105917283D01*
X173639409Y-105935935D01*
X173644574Y-105943771D01*
X173661762Y-105969567D01*
X173679239Y-105995141D01*
X173682165Y-105999334D01*
X173696008Y-106016573D01*
X173717921Y-106041110D01*
X173744974Y-106069948D01*
X173774238Y-106100087D01*
X173802783Y-106128528D01*
X173827681Y-106152274D01*
X173846003Y-106168324D01*
X173850572Y-106171742D01*
X173898422Y-106203869D01*
X173936787Y-106228676D01*
X173968994Y-106248219D01*
X173998368Y-106264551D01*
X174013566Y-106272426D01*
X174039623Y-106285262D01*
X174060114Y-106294667D01*
X174071004Y-106298798D01*
X174071446Y-106298852D01*
X174081699Y-106302050D01*
X174100711Y-106309973D01*
X174111133Y-106314716D01*
X174132412Y-106322638D01*
X174164717Y-106332252D01*
X174203478Y-106342286D01*
X174240031Y-106350607D01*
X174359595Y-106367929D01*
X174479711Y-106369628D01*
X174599210Y-106355866D01*
X174716924Y-106326801D01*
X174831684Y-106282595D01*
X174868752Y-106264688D01*
X174894678Y-106250885D01*
X174908932Y-106240842D01*
X174914296Y-106231750D01*
X174913551Y-106220800D01*
G37*
X174913551Y-106220800D02*
X174913298Y-106219708D01*
X174907587Y-106201412D01*
X174902959Y-106191844D01*
X174898170Y-106180519D01*
X174891103Y-106158634D01*
X174883668Y-106132313D01*
X174874681Y-106101241D01*
X174862060Y-106061180D01*
X174847454Y-106017026D01*
X174832516Y-105973671D01*
X174818894Y-105936011D01*
X174808718Y-105910063D01*
X174801716Y-105892849D01*
X174791248Y-105866376D01*
X174779516Y-105836217D01*
X174778914Y-105834657D01*
X174768873Y-105810109D01*
X174754394Y-105776652D01*
X174736893Y-105737356D01*
X174717783Y-105695293D01*
X174698480Y-105653533D01*
X174680400Y-105615147D01*
X174664957Y-105583208D01*
X174653566Y-105560784D01*
X174649075Y-105552875D01*
X174636118Y-105531527D01*
X174618880Y-105501719D01*
X174600507Y-105469027D01*
X174584142Y-105439023D01*
X174575381Y-105422240D01*
X174561930Y-105397286D01*
X174548445Y-105374795D01*
X174545693Y-105370647D01*
X174536774Y-105357492D01*
X174520800Y-105333781D01*
X174499544Y-105302151D01*
X174474779Y-105265242D01*
X174454765Y-105235375D01*
X174388038Y-105138513D01*
X174324994Y-105052957D01*
X174263126Y-104975394D01*
X174220187Y-104925231D01*
X174195407Y-104897047D01*
X174172311Y-104870710D01*
X174154451Y-104850271D01*
X174148750Y-104843710D01*
X174133128Y-104826619D01*
X174110483Y-104803075D01*
X174082953Y-104775174D01*
X174052676Y-104745006D01*
X174021791Y-104714667D01*
X173992435Y-104686248D01*
X173966747Y-104661843D01*
X173946864Y-104643545D01*
X173934924Y-104633446D01*
X173932620Y-104632125D01*
X173921538Y-104637015D01*
X173901482Y-104650188D01*
X173875357Y-104669403D01*
X173846073Y-104692416D01*
X173816536Y-104716984D01*
X173789655Y-104740865D01*
X173780852Y-104749187D01*
X173745536Y-104785549D01*
X173708753Y-104827224D01*
X173674255Y-104869687D01*
X173645793Y-104908410D01*
X173634472Y-104925813D01*
X173595592Y-104996704D01*
X173561133Y-105073351D01*
X173533146Y-105150545D01*
X173513683Y-105223076D01*
X173510091Y-105241549D01*
X173505198Y-105275926D01*
X173500826Y-105318578D01*
X173497212Y-105365389D01*
X173494594Y-105412238D01*
X173493210Y-105455009D01*
X173493296Y-105489583D01*
X173494670Y-105509219D01*
X173497327Y-105528549D01*
X173501315Y-105557804D01*
X173505844Y-105591176D01*
X173506569Y-105596532D01*
X173513764Y-105636348D01*
X173524648Y-105681598D01*
X173536967Y-105722995D01*
X173537963Y-105725909D01*
X173550840Y-105760574D01*
X173566392Y-105798664D01*
X173582886Y-105836322D01*
X173598589Y-105869689D01*
X173611768Y-105894908D01*
X173618906Y-105906094D01*
X173626844Y-105917283D01*
X173639409Y-105935935D01*
X173644574Y-105943771D01*
X173661762Y-105969567D01*
X173679239Y-105995141D01*
X173682165Y-105999334D01*
X173696008Y-106016573D01*
X173717921Y-106041110D01*
X173744974Y-106069948D01*
X173774238Y-106100087D01*
X173802783Y-106128528D01*
X173827681Y-106152274D01*
X173846003Y-106168324D01*
X173850572Y-106171742D01*
X173898422Y-106203869D01*
X173936787Y-106228676D01*
X173968994Y-106248219D01*
X173998368Y-106264551D01*
X174013566Y-106272426D01*
X174039623Y-106285262D01*
X174060114Y-106294667D01*
X174071004Y-106298798D01*
X174071446Y-106298852D01*
X174081699Y-106302050D01*
X174100711Y-106309973D01*
X174111133Y-106314716D01*
X174132412Y-106322638D01*
X174164717Y-106332252D01*
X174203478Y-106342286D01*
X174240031Y-106350607D01*
X174359595Y-106367929D01*
X174479711Y-106369628D01*
X174599210Y-106355866D01*
X174716924Y-106326801D01*
X174831684Y-106282595D01*
X174868752Y-106264688D01*
X174894678Y-106250885D01*
X174908932Y-106240842D01*
X174914296Y-106231750D01*
X174913551Y-106220800D01*
G36*
X175363571Y-105276881D02*
G01*
X175352467Y-105219051D01*
X175335120Y-105155625D01*
X175313132Y-105090935D01*
X175288107Y-105029315D01*
X175261649Y-104975098D01*
X175237038Y-104934944D01*
X175225989Y-104918085D01*
X175220459Y-104907018D01*
X175220312Y-104906104D01*
X175214838Y-104894180D01*
X175199829Y-104873712D01*
X175177409Y-104846930D01*
X175149701Y-104816066D01*
X175118829Y-104783351D01*
X175086915Y-104751017D01*
X175056084Y-104721295D01*
X175028457Y-104696416D01*
X175006159Y-104678611D01*
X174999730Y-104674292D01*
X174978407Y-104659680D01*
X174962069Y-104646758D01*
X174941566Y-104632366D01*
X174909682Y-104614254D01*
X174869966Y-104594095D01*
X174825966Y-104573564D01*
X174781231Y-104554335D01*
X174739310Y-104538082D01*
X174712766Y-104529134D01*
X174655322Y-104512793D01*
X174602992Y-104501296D01*
X174551194Y-104494109D01*
X174495345Y-104490699D01*
X174430863Y-104490530D01*
X174390844Y-104491598D01*
X174324588Y-104495046D01*
X174268141Y-104500424D01*
X174223007Y-104507497D01*
X174190687Y-104516027D01*
X174172685Y-104525778D01*
X174172525Y-104525940D01*
X174175023Y-104534040D01*
X174187318Y-104550698D01*
X174207581Y-104573659D01*
X174229664Y-104596407D01*
X174260910Y-104628401D01*
X174297571Y-104667451D01*
X174334895Y-104708419D01*
X174365609Y-104743250D01*
X174392891Y-104774709D01*
X174417323Y-104802638D01*
X174436598Y-104824418D01*
X174448412Y-104837431D01*
X174449934Y-104839012D01*
X174461409Y-104852154D01*
X174477878Y-104872843D01*
X174490062Y-104888933D01*
X174509490Y-104914761D01*
X174533515Y-104946154D01*
X174556484Y-104975734D01*
X174584451Y-105013251D01*
X174618104Y-105061304D01*
X174655327Y-105116608D01*
X174694000Y-105175876D01*
X174732005Y-105235819D01*
X174767226Y-105293152D01*
X174797543Y-105344587D01*
X174818408Y-105382219D01*
X174831468Y-105406415D01*
X174842478Y-105426066D01*
X174847104Y-105433813D01*
X174852480Y-105443995D01*
X174863222Y-105465675D01*
X174877955Y-105495977D01*
X174895303Y-105532029D01*
X174913890Y-105570955D01*
X174932340Y-105609881D01*
X174949276Y-105645932D01*
X174963324Y-105676236D01*
X174966801Y-105683844D01*
X174989901Y-105737773D01*
X175016188Y-105804721D01*
X175044773Y-105882363D01*
X175067034Y-105945782D01*
X175081663Y-105987898D01*
X175094627Y-106024540D01*
X175105009Y-106053168D01*
X175111892Y-106071242D01*
X175114219Y-106076361D01*
X175122047Y-106074085D01*
X175136458Y-106060502D01*
X175155782Y-106037865D01*
X175178349Y-106008427D01*
X175202490Y-105974443D01*
X175226533Y-105938166D01*
X175248809Y-105901848D01*
X175264838Y-105873140D01*
X175314774Y-105761725D01*
X175349625Y-105645571D01*
X175369323Y-105525087D01*
X175373800Y-105400680D01*
X175363571Y-105276881D01*
G37*
X175363571Y-105276881D02*
X175352467Y-105219051D01*
X175335120Y-105155625D01*
X175313132Y-105090935D01*
X175288107Y-105029315D01*
X175261649Y-104975098D01*
X175237038Y-104934944D01*
X175225989Y-104918085D01*
X175220459Y-104907018D01*
X175220312Y-104906104D01*
X175214838Y-104894180D01*
X175199829Y-104873712D01*
X175177409Y-104846930D01*
X175149701Y-104816066D01*
X175118829Y-104783351D01*
X175086915Y-104751017D01*
X175056084Y-104721295D01*
X175028457Y-104696416D01*
X175006159Y-104678611D01*
X174999730Y-104674292D01*
X174978407Y-104659680D01*
X174962069Y-104646758D01*
X174941566Y-104632366D01*
X174909682Y-104614254D01*
X174869966Y-104594095D01*
X174825966Y-104573564D01*
X174781231Y-104554335D01*
X174739310Y-104538082D01*
X174712766Y-104529134D01*
X174655322Y-104512793D01*
X174602992Y-104501296D01*
X174551194Y-104494109D01*
X174495345Y-104490699D01*
X174430863Y-104490530D01*
X174390844Y-104491598D01*
X174324588Y-104495046D01*
X174268141Y-104500424D01*
X174223007Y-104507497D01*
X174190687Y-104516027D01*
X174172685Y-104525778D01*
X174172525Y-104525940D01*
X174175023Y-104534040D01*
X174187318Y-104550698D01*
X174207581Y-104573659D01*
X174229664Y-104596407D01*
X174260910Y-104628401D01*
X174297571Y-104667451D01*
X174334895Y-104708419D01*
X174365609Y-104743250D01*
X174392891Y-104774709D01*
X174417323Y-104802638D01*
X174436598Y-104824418D01*
X174448412Y-104837431D01*
X174449934Y-104839012D01*
X174461409Y-104852154D01*
X174477878Y-104872843D01*
X174490062Y-104888933D01*
X174509490Y-104914761D01*
X174533515Y-104946154D01*
X174556484Y-104975734D01*
X174584451Y-105013251D01*
X174618104Y-105061304D01*
X174655327Y-105116608D01*
X174694000Y-105175876D01*
X174732005Y-105235819D01*
X174767226Y-105293152D01*
X174797543Y-105344587D01*
X174818408Y-105382219D01*
X174831468Y-105406415D01*
X174842478Y-105426066D01*
X174847104Y-105433813D01*
X174852480Y-105443995D01*
X174863222Y-105465675D01*
X174877955Y-105495977D01*
X174895303Y-105532029D01*
X174913890Y-105570955D01*
X174932340Y-105609881D01*
X174949276Y-105645932D01*
X174963324Y-105676236D01*
X174966801Y-105683844D01*
X174989901Y-105737773D01*
X175016188Y-105804721D01*
X175044773Y-105882363D01*
X175067034Y-105945782D01*
X175081663Y-105987898D01*
X175094627Y-106024540D01*
X175105009Y-106053168D01*
X175111892Y-106071242D01*
X175114219Y-106076361D01*
X175122047Y-106074085D01*
X175136458Y-106060502D01*
X175155782Y-106037865D01*
X175178349Y-106008427D01*
X175202490Y-105974443D01*
X175226533Y-105938166D01*
X175248809Y-105901848D01*
X175264838Y-105873140D01*
X175314774Y-105761725D01*
X175349625Y-105645571D01*
X175369323Y-105525087D01*
X175373800Y-105400680D01*
X175363571Y-105276881D01*
G36*
X178130200Y-110439200D02*
G01*
X178130200Y-111150400D01*
X177317400Y-111150400D01*
X177317400Y-111328200D01*
X177782220Y-111328200D01*
X177969596Y-111326908D01*
X178109663Y-111322891D01*
X178205851Y-111315937D01*
X178261589Y-111305836D01*
X178277520Y-111297721D01*
X178290532Y-111263380D01*
X178299794Y-111188241D01*
X178305513Y-111069260D01*
X178307900Y-110903392D01*
X178308000Y-110853221D01*
X178308000Y-110439200D01*
X178130200Y-110439200D01*
G37*
X178130200Y-110439200D02*
X178130200Y-111150400D01*
X177317400Y-111150400D01*
X177317400Y-111328200D01*
X177782220Y-111328200D01*
X177969596Y-111326908D01*
X178109663Y-111322891D01*
X178205851Y-111315937D01*
X178261589Y-111305836D01*
X178277520Y-111297721D01*
X178290532Y-111263380D01*
X178299794Y-111188241D01*
X178305513Y-111069260D01*
X178307900Y-110903392D01*
X178308000Y-110853221D01*
X178308000Y-110439200D01*
X178130200Y-110439200D01*
G36*
X178307756Y-109672044D02*
G01*
X178306224Y-109562939D01*
X178302212Y-109487472D01*
X178294522Y-109437059D01*
X178281961Y-109403120D01*
X178263333Y-109377073D01*
X178242880Y-109355771D01*
X178204127Y-109321575D01*
X178164019Y-109303171D01*
X178107000Y-109297058D01*
X178017515Y-109299734D01*
X177998605Y-109300774D01*
X177901500Y-109308256D01*
X177838802Y-109321184D01*
X177794121Y-109345581D01*
X177751067Y-109387472D01*
X177745303Y-109393881D01*
X177694437Y-109464406D01*
X177660322Y-109536363D01*
X177656064Y-109552332D01*
X177640971Y-109627799D01*
X177549036Y-109519574D01*
X177481897Y-109441444D01*
X177415233Y-109365264D01*
X177387995Y-109334725D01*
X177318890Y-109258100D01*
X177318145Y-109387017D01*
X177319792Y-109448474D01*
X177329677Y-109497879D01*
X177353982Y-109547324D01*
X177398886Y-109608904D01*
X177470568Y-109694713D01*
X177482500Y-109708657D01*
X177576501Y-109825980D01*
X177631277Y-109912883D01*
X177647600Y-109967090D01*
X177653875Y-110011454D01*
X177682739Y-110029628D01*
X177736500Y-110032800D01*
X177825400Y-110032800D01*
X177825400Y-109793315D01*
X177828419Y-109660327D01*
X177840683Y-109569960D01*
X177866999Y-109514229D01*
X177912179Y-109485147D01*
X177981031Y-109474731D01*
X178017715Y-109474000D01*
X178130200Y-109474000D01*
X178130200Y-110109000D01*
X177317400Y-110109000D01*
X177317400Y-110286800D01*
X177782220Y-110286800D01*
X177969596Y-110285508D01*
X178109663Y-110281491D01*
X178205851Y-110274537D01*
X178261589Y-110264436D01*
X178277520Y-110256321D01*
X178290743Y-110221315D01*
X178300087Y-110144821D01*
X178305757Y-110023927D01*
X178307957Y-109855725D01*
X178308000Y-109823366D01*
X178307756Y-109672044D01*
G37*
X178307756Y-109672044D02*
X178306224Y-109562939D01*
X178302212Y-109487472D01*
X178294522Y-109437059D01*
X178281961Y-109403120D01*
X178263333Y-109377073D01*
X178242880Y-109355771D01*
X178204127Y-109321575D01*
X178164019Y-109303171D01*
X178107000Y-109297058D01*
X178017515Y-109299734D01*
X177998605Y-109300774D01*
X177901500Y-109308256D01*
X177838802Y-109321184D01*
X177794121Y-109345581D01*
X177751067Y-109387472D01*
X177745303Y-109393881D01*
X177694437Y-109464406D01*
X177660322Y-109536363D01*
X177656064Y-109552332D01*
X177640971Y-109627799D01*
X177549036Y-109519574D01*
X177481897Y-109441444D01*
X177415233Y-109365264D01*
X177387995Y-109334725D01*
X177318890Y-109258100D01*
X177318145Y-109387017D01*
X177319792Y-109448474D01*
X177329677Y-109497879D01*
X177353982Y-109547324D01*
X177398886Y-109608904D01*
X177470568Y-109694713D01*
X177482500Y-109708657D01*
X177576501Y-109825980D01*
X177631277Y-109912883D01*
X177647600Y-109967090D01*
X177653875Y-110011454D01*
X177682739Y-110029628D01*
X177736500Y-110032800D01*
X177825400Y-110032800D01*
X177825400Y-109793315D01*
X177828419Y-109660327D01*
X177840683Y-109569960D01*
X177866999Y-109514229D01*
X177912179Y-109485147D01*
X177981031Y-109474731D01*
X178017715Y-109474000D01*
X178130200Y-109474000D01*
X178130200Y-110109000D01*
X177317400Y-110109000D01*
X177317400Y-110286800D01*
X177782220Y-110286800D01*
X177969596Y-110285508D01*
X178109663Y-110281491D01*
X178205851Y-110274537D01*
X178261589Y-110264436D01*
X178277520Y-110256321D01*
X178290743Y-110221315D01*
X178300087Y-110144821D01*
X178305757Y-110023927D01*
X178307957Y-109855725D01*
X178308000Y-109823366D01*
X178307756Y-109672044D01*
G36*
X178301395Y-108245277D02*
G01*
X178290529Y-108182455D01*
X178281644Y-108164748D01*
X178261330Y-108151197D01*
X178221751Y-108141259D01*
X178156305Y-108134444D01*
X178058391Y-108130261D01*
X177921410Y-108128220D01*
X177784190Y-108127800D01*
X177317400Y-108127800D01*
X177317400Y-108305600D01*
X177571400Y-108305600D01*
X177571400Y-108940600D01*
X177317400Y-108940600D01*
X177317400Y-109118400D01*
X177626881Y-109118400D01*
X177806080Y-109113607D01*
X177845149Y-109108949D01*
X177845149Y-108940600D01*
X177749200Y-108940600D01*
X177749200Y-108305600D01*
X178130200Y-108305600D01*
X178130200Y-108510062D01*
X178118652Y-108677422D01*
X178082947Y-108801667D01*
X178021501Y-108885194D01*
X177932726Y-108930399D01*
X177845149Y-108940600D01*
X177845149Y-109108949D01*
X177944062Y-109097155D01*
X178049689Y-109065934D01*
X178131818Y-109016836D01*
X178199310Y-108946751D01*
X178227126Y-108907749D01*
X178256614Y-108859419D01*
X178276616Y-108812120D01*
X178289379Y-108754009D01*
X178297148Y-108673240D01*
X178302168Y-108557971D01*
X178303804Y-108503274D01*
X178305737Y-108350952D01*
X178301395Y-108245277D01*
G37*
X178301395Y-108245277D02*
X178290529Y-108182455D01*
X178281644Y-108164748D01*
X178261330Y-108151197D01*
X178221751Y-108141259D01*
X178156305Y-108134444D01*
X178058391Y-108130261D01*
X177921410Y-108128220D01*
X177784190Y-108127800D01*
X177317400Y-108127800D01*
X177317400Y-108305600D01*
X177571400Y-108305600D01*
X177571400Y-108940600D01*
X177317400Y-108940600D01*
X177317400Y-109118400D01*
X177626881Y-109118400D01*
X177806080Y-109113607D01*
X177845149Y-109108949D01*
X177845149Y-108940600D01*
X177749200Y-108940600D01*
X177749200Y-108305600D01*
X178130200Y-108305600D01*
X178130200Y-108510062D01*
X178118652Y-108677422D01*
X178082947Y-108801667D01*
X178021501Y-108885194D01*
X177932726Y-108930399D01*
X177845149Y-108940600D01*
X177845149Y-109108949D01*
X177944062Y-109097155D01*
X178049689Y-109065934D01*
X178131818Y-109016836D01*
X178199310Y-108946751D01*
X178227126Y-108907749D01*
X178256614Y-108859419D01*
X178276616Y-108812120D01*
X178289379Y-108754009D01*
X178297148Y-108673240D01*
X178302168Y-108557971D01*
X178303804Y-108503274D01*
X178305737Y-108350952D01*
X178301395Y-108245277D01*
G36*
X178316075Y-107820627D02*
G01*
X178267753Y-107767869D01*
X178193916Y-107691119D01*
X178100046Y-107596059D01*
X177991623Y-107488370D01*
X177971450Y-107468540D01*
X177609500Y-107113299D01*
X177958750Y-107112550D01*
X178308000Y-107111800D01*
X178308000Y-106934000D01*
X177852878Y-106934000D01*
X177703646Y-106934831D01*
X177570360Y-106937137D01*
X177462026Y-106940638D01*
X177387651Y-106945052D01*
X177357578Y-106949418D01*
X177322952Y-106971479D01*
X177313437Y-107004634D01*
X177331566Y-107052686D01*
X177379874Y-107119436D01*
X177460897Y-107208686D01*
X177577169Y-107324238D01*
X177660300Y-107403435D01*
X177768658Y-107506775D01*
X177862934Y-107598919D01*
X177937320Y-107674008D01*
X177986011Y-107726181D01*
X178003200Y-107749478D01*
X177979346Y-107757784D01*
X177913950Y-107764728D01*
X177816267Y-107769698D01*
X177695551Y-107772080D01*
X177660300Y-107772200D01*
X177317400Y-107772200D01*
X177317400Y-107924600D01*
X177794920Y-107924600D01*
X177975947Y-107923684D01*
X178112219Y-107920331D01*
X178209760Y-107913636D01*
X178274592Y-107902695D01*
X178312739Y-107886604D01*
X178330223Y-107864457D01*
X178333400Y-107843711D01*
X178316075Y-107820627D01*
G37*
X178316075Y-107820627D02*
X178267753Y-107767869D01*
X178193916Y-107691119D01*
X178100046Y-107596059D01*
X177991623Y-107488370D01*
X177971450Y-107468540D01*
X177609500Y-107113299D01*
X177958750Y-107112550D01*
X178308000Y-107111800D01*
X178308000Y-106934000D01*
X177852878Y-106934000D01*
X177703646Y-106934831D01*
X177570360Y-106937137D01*
X177462026Y-106940638D01*
X177387651Y-106945052D01*
X177357578Y-106949418D01*
X177322952Y-106971479D01*
X177313437Y-107004634D01*
X177331566Y-107052686D01*
X177379874Y-107119436D01*
X177460897Y-107208686D01*
X177577169Y-107324238D01*
X177660300Y-107403435D01*
X177768658Y-107506775D01*
X177862934Y-107598919D01*
X177937320Y-107674008D01*
X177986011Y-107726181D01*
X178003200Y-107749478D01*
X177979346Y-107757784D01*
X177913950Y-107764728D01*
X177816267Y-107769698D01*
X177695551Y-107772080D01*
X177660300Y-107772200D01*
X177317400Y-107772200D01*
X177317400Y-107924600D01*
X177794920Y-107924600D01*
X177975947Y-107923684D01*
X178112219Y-107920331D01*
X178209760Y-107913636D01*
X178274592Y-107902695D01*
X178312739Y-107886604D01*
X178330223Y-107864457D01*
X178333400Y-107843711D01*
X178316075Y-107820627D01*
G36*
X178307169Y-106188334D02*
G01*
X178304311Y-106067709D01*
X178298879Y-105984209D01*
X178290327Y-105931006D01*
X178278108Y-105901275D01*
X178271230Y-105893704D01*
X178252322Y-105880524D01*
X178231739Y-105876590D01*
X178203946Y-105885734D01*
X178163412Y-105911786D01*
X178104604Y-105958576D01*
X178021989Y-106029934D01*
X177910034Y-106129692D01*
X177841733Y-106191050D01*
X177735856Y-106285529D01*
X177643198Y-106366828D01*
X177570257Y-106429356D01*
X177523530Y-106467524D01*
X177509584Y-106476800D01*
X177503921Y-106453073D01*
X177499308Y-106388576D01*
X177496238Y-106293335D01*
X177495200Y-106184700D01*
X177495200Y-105892600D01*
X177317400Y-105892600D01*
X177317400Y-106306620D01*
X177318971Y-106484933D01*
X177323821Y-106615583D01*
X177332159Y-106701613D01*
X177344194Y-106746070D01*
X177347880Y-106751120D01*
X177392280Y-106778184D01*
X177410383Y-106781600D01*
X177438782Y-106765316D01*
X177497908Y-106720112D01*
X177581105Y-106651465D01*
X177681715Y-106564851D01*
X177779953Y-106477591D01*
X178117500Y-106173582D01*
X178131764Y-106781600D01*
X178308000Y-106781600D01*
X178308000Y-106352911D01*
X178307169Y-106188334D01*
G37*
X178307169Y-106188334D02*
X178304311Y-106067709D01*
X178298879Y-105984209D01*
X178290327Y-105931006D01*
X178278108Y-105901275D01*
X178271230Y-105893704D01*
X178252322Y-105880524D01*
X178231739Y-105876590D01*
X178203946Y-105885734D01*
X178163412Y-105911786D01*
X178104604Y-105958576D01*
X178021989Y-106029934D01*
X177910034Y-106129692D01*
X177841733Y-106191050D01*
X177735856Y-106285529D01*
X177643198Y-106366828D01*
X177570257Y-106429356D01*
X177523530Y-106467524D01*
X177509584Y-106476800D01*
X177503921Y-106453073D01*
X177499308Y-106388576D01*
X177496238Y-106293335D01*
X177495200Y-106184700D01*
X177495200Y-105892600D01*
X177317400Y-105892600D01*
X177317400Y-106306620D01*
X177318971Y-106484933D01*
X177323821Y-106615583D01*
X177332159Y-106701613D01*
X177344194Y-106746070D01*
X177347880Y-106751120D01*
X177392280Y-106778184D01*
X177410383Y-106781600D01*
X177438782Y-106765316D01*
X177497908Y-106720112D01*
X177581105Y-106651465D01*
X177681715Y-106564851D01*
X177779953Y-106477591D01*
X178117500Y-106173582D01*
X178131764Y-106781600D01*
X178308000Y-106781600D01*
X178308000Y-106352911D01*
X178307169Y-106188334D01*
G36*
X177317400Y-105537000D02*
G01*
X177317400Y-105714800D01*
X178308000Y-105714800D01*
X178308000Y-105537000D01*
X177317400Y-105537000D01*
G37*
X177317400Y-105537000D02*
X177317400Y-105714800D01*
X178308000Y-105714800D01*
X178308000Y-105537000D01*
X177317400Y-105537000D01*
G36*
X178314053Y-105233584D02*
G01*
X178295426Y-105200831D01*
X178257298Y-105154467D01*
X178195353Y-105089277D01*
X178105273Y-105000042D01*
X177982742Y-104881547D01*
X177974418Y-104873542D01*
X177609500Y-104522634D01*
X178308000Y-104521000D01*
X178308000Y-104342104D01*
X177819050Y-104349002D01*
X177628587Y-104351866D01*
X177485009Y-104357232D01*
X177386903Y-104369340D01*
X177332859Y-104392428D01*
X177321466Y-104430733D01*
X177351312Y-104488494D01*
X177420985Y-104569949D01*
X177529075Y-104679336D01*
X177664908Y-104811866D01*
X178015900Y-105153906D01*
X177317400Y-105156000D01*
X177317400Y-105333800D01*
X177799107Y-105333800D01*
X177966769Y-105333580D01*
X178090785Y-105332407D01*
X178178310Y-105329516D01*
X178236498Y-105324142D01*
X178272501Y-105315520D01*
X178293475Y-105302884D01*
X178306573Y-105285467D01*
X178310075Y-105279125D01*
X178317497Y-105257943D01*
X178314053Y-105233584D01*
G37*
X178314053Y-105233584D02*
X178295426Y-105200831D01*
X178257298Y-105154467D01*
X178195353Y-105089277D01*
X178105273Y-105000042D01*
X177982742Y-104881547D01*
X177974418Y-104873542D01*
X177609500Y-104522634D01*
X178308000Y-104521000D01*
X178308000Y-104342104D01*
X177819050Y-104349002D01*
X177628587Y-104351866D01*
X177485009Y-104357232D01*
X177386903Y-104369340D01*
X177332859Y-104392428D01*
X177321466Y-104430733D01*
X177351312Y-104488494D01*
X177420985Y-104569949D01*
X177529075Y-104679336D01*
X177664908Y-104811866D01*
X178015900Y-105153906D01*
X177317400Y-105156000D01*
X177317400Y-105333800D01*
X177799107Y-105333800D01*
X177966769Y-105333580D01*
X178090785Y-105332407D01*
X178178310Y-105329516D01*
X178236498Y-105324142D01*
X178272501Y-105315520D01*
X178293475Y-105302884D01*
X178306573Y-105285467D01*
X178310075Y-105279125D01*
X178317497Y-105257943D01*
X178314053Y-105233584D01*
G36*
X177317400Y-103962200D02*
G01*
X177317400Y-104140000D01*
X178308000Y-104140000D01*
X178308000Y-103962200D01*
X177317400Y-103962200D01*
G37*
X177317400Y-103962200D02*
X177317400Y-104140000D01*
X178308000Y-104140000D01*
X178308000Y-103962200D01*
X177317400Y-103962200D01*
G36*
X178280877Y-103605515D02*
G01*
X178211269Y-103524525D01*
X178103554Y-103415151D01*
X177983022Y-103296329D01*
X177873083Y-103187397D01*
X177776647Y-103090953D01*
X177699159Y-103012515D01*
X177646062Y-102957600D01*
X177622799Y-102931728D01*
X177622200Y-102930573D01*
X177646058Y-102927001D01*
X177711459Y-102924014D01*
X177809149Y-102921877D01*
X177929873Y-102920852D01*
X177965100Y-102920800D01*
X178308000Y-102920800D01*
X178308000Y-102767304D01*
X177819050Y-102774202D01*
X177626806Y-102777116D01*
X177482789Y-102782574D01*
X177385455Y-102794829D01*
X177333259Y-102818135D01*
X177324655Y-102856745D01*
X177358098Y-102914913D01*
X177432043Y-102996892D01*
X177544944Y-103106935D01*
X177658951Y-103214888D01*
X177767397Y-103318574D01*
X177861818Y-103410827D01*
X177936441Y-103485843D01*
X177985493Y-103537819D01*
X178003200Y-103560951D01*
X178003200Y-103560971D01*
X177979345Y-103568366D01*
X177913948Y-103574548D01*
X177816263Y-103578973D01*
X177695545Y-103581094D01*
X177660300Y-103581200D01*
X177317400Y-103581200D01*
X177317400Y-103733600D01*
X177796890Y-103733600D01*
X177993945Y-103733587D01*
X178142030Y-103730712D01*
X178242955Y-103720720D01*
X178298531Y-103699359D01*
X178310568Y-103662375D01*
X178280877Y-103605515D01*
G37*
X178280877Y-103605515D02*
X178211269Y-103524525D01*
X178103554Y-103415151D01*
X177983022Y-103296329D01*
X177873083Y-103187397D01*
X177776647Y-103090953D01*
X177699159Y-103012515D01*
X177646062Y-102957600D01*
X177622799Y-102931728D01*
X177622200Y-102930573D01*
X177646058Y-102927001D01*
X177711459Y-102924014D01*
X177809149Y-102921877D01*
X177929873Y-102920852D01*
X177965100Y-102920800D01*
X178308000Y-102920800D01*
X178308000Y-102767304D01*
X177819050Y-102774202D01*
X177626806Y-102777116D01*
X177482789Y-102782574D01*
X177385455Y-102794829D01*
X177333259Y-102818135D01*
X177324655Y-102856745D01*
X177358098Y-102914913D01*
X177432043Y-102996892D01*
X177544944Y-103106935D01*
X177658951Y-103214888D01*
X177767397Y-103318574D01*
X177861818Y-103410827D01*
X177936441Y-103485843D01*
X177985493Y-103537819D01*
X178003200Y-103560951D01*
X178003200Y-103560971D01*
X177979345Y-103568366D01*
X177913948Y-103574548D01*
X177816263Y-103578973D01*
X177695545Y-103581094D01*
X177660300Y-103581200D01*
X177317400Y-103581200D01*
X177317400Y-103733600D01*
X177796890Y-103733600D01*
X177993945Y-103733587D01*
X178142030Y-103730712D01*
X178242955Y-103720720D01*
X178298531Y-103699359D01*
X178310568Y-103662375D01*
X178280877Y-103605515D01*
G36*
X177901600Y-102362000D02*
G01*
X177901600Y-101727000D01*
X178308000Y-101727000D01*
X178308000Y-101549200D01*
X177317400Y-101549200D01*
X177317400Y-101727000D01*
X177723800Y-101727000D01*
X177723800Y-102362000D01*
X177317400Y-102362000D01*
X177317400Y-102539800D01*
X178308000Y-102539800D01*
X178308000Y-102362000D01*
X177901600Y-102362000D01*
G37*
X177901600Y-102362000D02*
X177901600Y-101727000D01*
X178308000Y-101727000D01*
X178308000Y-101549200D01*
X177317400Y-101549200D01*
X177317400Y-101727000D01*
X177723800Y-101727000D01*
X177723800Y-102362000D01*
X177317400Y-102362000D01*
X177317400Y-102539800D01*
X178308000Y-102539800D01*
X178308000Y-102362000D01*
X177901600Y-102362000D01*
G36*
X178314464Y-100681007D02*
G01*
X178292829Y-100563910D01*
X178251408Y-100477013D01*
X178185814Y-100410621D01*
X178105187Y-100361750D01*
X177973023Y-100317454D01*
X177820729Y-100301601D01*
X177668217Y-100314168D01*
X177535397Y-100355135D01*
X177520921Y-100362384D01*
X177437561Y-100416233D01*
X177379511Y-100481197D01*
X177342791Y-100566825D01*
X177323422Y-100682668D01*
X177317423Y-100838275D01*
X177317400Y-100850758D01*
X177318672Y-100971463D01*
X177324035Y-101054527D01*
X177335816Y-101113082D01*
X177356340Y-101160256D01*
X177378441Y-101195438D01*
X177455265Y-101280777D01*
X177553422Y-101336026D01*
X177681089Y-101364145D01*
X177824398Y-101367565D01*
X177824398Y-101193600D01*
X177678415Y-101183395D01*
X177575588Y-101151640D01*
X177512309Y-101096629D01*
X177487660Y-101034344D01*
X177475106Y-100922865D01*
X177475295Y-100801587D01*
X177487305Y-100691518D01*
X177505750Y-100623329D01*
X177542843Y-100556433D01*
X177593972Y-100513965D01*
X177670117Y-100491037D01*
X177782260Y-100482759D01*
X177822314Y-100482400D01*
X177923204Y-100485093D01*
X177990035Y-100495888D01*
X178039388Y-100518862D01*
X178071634Y-100543701D01*
X178105563Y-100575718D01*
X178126562Y-100608893D01*
X178137724Y-100655810D01*
X178142139Y-100729052D01*
X178142900Y-100833755D01*
X178141625Y-100945518D01*
X178135988Y-101019477D01*
X178123277Y-101068602D01*
X178100778Y-101105862D01*
X178081323Y-101128054D01*
X178044843Y-101161734D01*
X178004525Y-101181421D01*
X177945956Y-101190792D01*
X177854727Y-101193524D01*
X177824398Y-101193600D01*
X177824398Y-101367565D01*
X177846442Y-101368092D01*
X177854608Y-101367761D01*
X177970820Y-101360048D01*
X178051334Y-101346473D01*
X178111195Y-101323556D01*
X178149634Y-101299548D01*
X178224158Y-101236006D01*
X178274359Y-101163579D01*
X178304364Y-101071135D01*
X178318299Y-100947542D01*
X178320700Y-100838000D01*
X178314464Y-100681007D01*
G37*
X178314464Y-100681007D02*
X178292829Y-100563910D01*
X178251408Y-100477013D01*
X178185814Y-100410621D01*
X178105187Y-100361750D01*
X177973023Y-100317454D01*
X177820729Y-100301601D01*
X177668217Y-100314168D01*
X177535397Y-100355135D01*
X177520921Y-100362384D01*
X177437561Y-100416233D01*
X177379511Y-100481197D01*
X177342791Y-100566825D01*
X177323422Y-100682668D01*
X177317423Y-100838275D01*
X177317400Y-100850758D01*
X177318672Y-100971463D01*
X177324035Y-101054527D01*
X177335816Y-101113082D01*
X177356340Y-101160256D01*
X177378441Y-101195438D01*
X177455265Y-101280777D01*
X177553422Y-101336026D01*
X177681089Y-101364145D01*
X177824398Y-101367565D01*
X177824398Y-101193600D01*
X177678415Y-101183395D01*
X177575588Y-101151640D01*
X177512309Y-101096629D01*
X177487660Y-101034344D01*
X177475106Y-100922865D01*
X177475295Y-100801587D01*
X177487305Y-100691518D01*
X177505750Y-100623329D01*
X177542843Y-100556433D01*
X177593972Y-100513965D01*
X177670117Y-100491037D01*
X177782260Y-100482759D01*
X177822314Y-100482400D01*
X177923204Y-100485093D01*
X177990035Y-100495888D01*
X178039388Y-100518862D01*
X178071634Y-100543701D01*
X178105563Y-100575718D01*
X178126562Y-100608893D01*
X178137724Y-100655810D01*
X178142139Y-100729052D01*
X178142900Y-100833755D01*
X178141625Y-100945518D01*
X178135988Y-101019477D01*
X178123277Y-101068602D01*
X178100778Y-101105862D01*
X178081323Y-101128054D01*
X178044843Y-101161734D01*
X178004525Y-101181421D01*
X177945956Y-101190792D01*
X177854727Y-101193524D01*
X177824398Y-101193600D01*
X177824398Y-101367565D01*
X177846442Y-101368092D01*
X177854608Y-101367761D01*
X177970820Y-101360048D01*
X178051334Y-101346473D01*
X178111195Y-101323556D01*
X178149634Y-101299548D01*
X178224158Y-101236006D01*
X178274359Y-101163579D01*
X178304364Y-101071135D01*
X178318299Y-100947542D01*
X178320700Y-100838000D01*
X178314464Y-100681007D01*
G36*
X177723800Y-110515400D02*
G01*
X177723800Y-111074200D01*
X177901600Y-111074200D01*
X177901600Y-110515400D01*
X177723800Y-110515400D01*
G37*
X177723800Y-110515400D02*
X177723800Y-111074200D01*
X177901600Y-111074200D01*
X177901600Y-110515400D01*
X177723800Y-110515400D01*
G36*
X183368820Y-105725506D02*
G01*
X183315229Y-105678793D01*
X183233150Y-105610944D01*
X183128509Y-105526832D01*
X183007230Y-105431329D01*
X182969081Y-105401646D01*
X182816699Y-105284861D01*
X182699249Y-105198616D01*
X182612853Y-105140673D01*
X182553633Y-105108793D01*
X182517710Y-105100739D01*
X182501206Y-105114275D01*
X182499000Y-105130432D01*
X182518036Y-105152426D01*
X182570996Y-105200275D01*
X182651661Y-105268705D01*
X182753809Y-105352440D01*
X182871222Y-105446207D01*
X182873650Y-105448122D01*
X182991665Y-105541826D01*
X183095082Y-105625149D01*
X183177570Y-105692892D01*
X183232798Y-105739854D01*
X183254435Y-105760835D01*
X183254477Y-105760939D01*
X183241003Y-105784420D01*
X183200373Y-105841500D01*
X183137274Y-105926202D01*
X183056397Y-106032547D01*
X182962431Y-106154557D01*
X182860063Y-106286252D01*
X182753985Y-106421654D01*
X182648884Y-106554785D01*
X182549450Y-106679666D01*
X182460372Y-106790318D01*
X182386339Y-106880763D01*
X182332039Y-106945022D01*
X182302163Y-106977117D01*
X182298686Y-106979573D01*
X182272811Y-106966313D01*
X182216101Y-106924830D01*
X182135647Y-106860696D01*
X182038538Y-106779487D01*
X181980579Y-106729545D01*
X181868258Y-106631240D01*
X181789111Y-106559527D01*
X181737786Y-106507883D01*
X181708933Y-106469786D01*
X181697201Y-106438714D01*
X181697238Y-106408146D01*
X181700521Y-106388197D01*
X181699442Y-106284399D01*
X181660874Y-106200312D01*
X181595139Y-106139357D01*
X181512558Y-106104957D01*
X181423456Y-106100533D01*
X181338153Y-106129507D01*
X181266974Y-106195301D01*
X181242925Y-106236509D01*
X181209125Y-106332935D01*
X181214438Y-106411401D01*
X181260916Y-106488688D01*
X181275868Y-106506080D01*
X181365760Y-106571770D01*
X181421740Y-106581937D01*
X181421740Y-106494164D01*
X181361606Y-106463398D01*
X181319543Y-106409950D01*
X181304803Y-106342880D01*
X181326641Y-106271250D01*
X181347237Y-106243851D01*
X181411664Y-106204290D01*
X181485436Y-106202421D01*
X181553054Y-106232510D01*
X181599015Y-106288823D01*
X181610000Y-106341037D01*
X181592467Y-106403494D01*
X181559200Y-106451400D01*
X181490689Y-106493185D01*
X181421740Y-106494164D01*
X181421740Y-106581937D01*
X181473679Y-106591371D01*
X181573843Y-106571292D01*
X181601423Y-106569556D01*
X181639570Y-106584613D01*
X181694438Y-106620662D01*
X181772179Y-106681902D01*
X181878943Y-106772533D01*
X181916743Y-106805377D01*
X182017698Y-106895042D01*
X182103378Y-106974261D01*
X182167101Y-107036609D01*
X182202186Y-107075658D01*
X182206900Y-107084448D01*
X182192137Y-107113428D01*
X182152440Y-107172233D01*
X182094694Y-107251943D01*
X182025787Y-107343634D01*
X181952606Y-107438384D01*
X181882038Y-107527270D01*
X181820970Y-107601371D01*
X181776288Y-107651764D01*
X181755276Y-107669552D01*
X181730626Y-107654545D01*
X181672548Y-107611924D01*
X181586934Y-107546241D01*
X181479678Y-107462046D01*
X181356672Y-107363890D01*
X181294079Y-107313406D01*
X181121558Y-107171343D01*
X180989285Y-107056994D01*
X180897665Y-106970730D01*
X180847103Y-106912922D01*
X180836916Y-106893296D01*
X180835233Y-106845065D01*
X180861991Y-106796636D01*
X180910763Y-106745841D01*
X180967865Y-106684184D01*
X180994059Y-106626762D01*
X181000400Y-106549182D01*
X181000400Y-106548079D01*
X180991142Y-106458709D01*
X180958828Y-106397630D01*
X180943250Y-106381511D01*
X180848994Y-106322242D01*
X180750569Y-106307115D01*
X180658142Y-106331535D01*
X180581882Y-106390910D01*
X180531957Y-106480646D01*
X180517800Y-106573714D01*
X180539155Y-106661098D01*
X180593805Y-106738637D01*
X180667630Y-106787479D01*
X180680971Y-106791547D01*
X180724928Y-106813240D01*
X180745784Y-106859693D01*
X180751223Y-106901901D01*
X180755907Y-106934160D01*
X180767448Y-106965217D01*
X180781288Y-106985920D01*
X180781288Y-106700984D01*
X180714777Y-106689208D01*
X180659737Y-106647875D01*
X180624786Y-106587442D01*
X180618539Y-106518366D01*
X180649611Y-106451106D01*
X180659315Y-106440515D01*
X180713647Y-106410813D01*
X180773029Y-106400600D01*
X180846818Y-106421204D01*
X180894913Y-106473482D01*
X180913237Y-106543137D01*
X180897712Y-106615873D01*
X180850654Y-106672745D01*
X180781288Y-106700984D01*
X180781288Y-106985920D01*
X180790692Y-106999988D01*
X180830483Y-107043390D01*
X180891666Y-107100342D01*
X180979086Y-107175761D01*
X181097588Y-107274564D01*
X181207960Y-107365476D01*
X181337203Y-107471813D01*
X181453331Y-107567595D01*
X181550573Y-107648043D01*
X181623156Y-107708376D01*
X181665307Y-107743814D01*
X181673346Y-107750879D01*
X181666894Y-107776805D01*
X181635817Y-107828958D01*
X181589137Y-107895505D01*
X181535878Y-107964618D01*
X181485064Y-108024463D01*
X181445719Y-108063212D01*
X181428983Y-108071253D01*
X181405714Y-108054330D01*
X181347067Y-108008746D01*
X181257165Y-107937783D01*
X181140129Y-107844724D01*
X181000079Y-107732851D01*
X180841140Y-107605449D01*
X180667431Y-107465799D01*
X180546522Y-107368377D01*
X179683592Y-106672453D01*
X179888386Y-106422227D01*
X180093179Y-106172000D01*
X180181522Y-106172000D01*
X180181522Y-106065557D01*
X180114463Y-106030665D01*
X180099387Y-106013250D01*
X180067620Y-105936792D01*
X180085716Y-105866335D01*
X180144315Y-105806770D01*
X180196596Y-105773049D01*
X180236237Y-105770031D01*
X180284015Y-105792314D01*
X180339258Y-105847340D01*
X180362551Y-105921332D01*
X180350416Y-105995084D01*
X180326858Y-106029115D01*
X180259418Y-106065535D01*
X180181522Y-106065557D01*
X180181522Y-106172000D01*
X180214332Y-106172000D01*
X180295521Y-106166848D01*
X180349330Y-106145003D01*
X180398682Y-106096880D01*
X180401243Y-106093852D01*
X180457772Y-105994640D01*
X180464985Y-105894231D01*
X180423040Y-105798811D01*
X180392754Y-105763647D01*
X180304514Y-105706737D01*
X180201858Y-105687603D01*
X180102461Y-105708208D01*
X180068196Y-105727579D01*
X180009092Y-105796248D01*
X179976380Y-105888970D01*
X179977039Y-105982854D01*
X179983638Y-106004895D01*
X180002730Y-106062125D01*
X180009800Y-106095765D01*
X179994961Y-106120995D01*
X179955310Y-106176199D01*
X179898145Y-106251987D01*
X179830765Y-106338970D01*
X179760469Y-106427757D01*
X179694555Y-106508960D01*
X179640322Y-106573187D01*
X179627176Y-106588013D01*
X179601315Y-106582013D01*
X179548245Y-106549875D01*
X179478212Y-106499784D01*
X179401463Y-106439921D01*
X179328242Y-106378469D01*
X179268795Y-106323610D01*
X179233369Y-106283529D01*
X179228076Y-106269275D01*
X179244884Y-106244152D01*
X179288635Y-106184254D01*
X179355239Y-106095025D01*
X179440607Y-105981910D01*
X179540648Y-105850353D01*
X179651274Y-105705799D01*
X179654292Y-105701868D01*
X179779863Y-105538756D01*
X179878890Y-105411698D01*
X179955464Y-105316226D01*
X180013676Y-105247873D01*
X180057619Y-105202170D01*
X180091383Y-105174649D01*
X180119061Y-105160842D01*
X180144744Y-105156281D01*
X180154139Y-105156043D01*
X180219030Y-105166985D01*
X180250352Y-105204651D01*
X180251559Y-105208247D01*
X180293662Y-105265412D01*
X180369118Y-105307238D01*
X180461177Y-105326790D01*
X180461717Y-105326761D01*
X180461717Y-105233504D01*
X180389597Y-105211557D01*
X180361051Y-105190164D01*
X180321296Y-105124824D01*
X180318931Y-105048774D01*
X180353040Y-104982453D01*
X180371052Y-104966941D01*
X180451790Y-104930881D01*
X180524406Y-104944134D01*
X180568600Y-104978200D01*
X180611064Y-105047283D01*
X180612604Y-105116550D01*
X180582224Y-105176806D01*
X180528927Y-105218855D01*
X180461717Y-105233504D01*
X180461717Y-105326761D01*
X180528886Y-105323079D01*
X180614378Y-105289272D01*
X180671317Y-105224472D01*
X180714879Y-105119490D01*
X180709387Y-105023344D01*
X180654365Y-104930013D01*
X180647400Y-104922028D01*
X180586534Y-104865941D01*
X180523619Y-104842771D01*
X180471629Y-104839655D01*
X180362363Y-104861753D01*
X180278405Y-104924085D01*
X180237469Y-104993687D01*
X180198170Y-105038087D01*
X180117818Y-105063127D01*
X180116671Y-105063311D01*
X180085705Y-105069867D01*
X180056063Y-105081990D01*
X180023539Y-105104215D01*
X179983923Y-105141074D01*
X179933009Y-105197102D01*
X179866587Y-105276830D01*
X179780450Y-105384793D01*
X179670390Y-105525524D01*
X179582196Y-105639080D01*
X179468691Y-105784458D01*
X179364841Y-105915657D01*
X179274795Y-106027581D01*
X179202703Y-106115131D01*
X179152714Y-106173212D01*
X179128977Y-106196725D01*
X179128059Y-106196980D01*
X179091533Y-106179557D01*
X179034419Y-106138157D01*
X178968072Y-106082902D01*
X178903849Y-106023917D01*
X178853106Y-105971328D01*
X178827198Y-105935259D01*
X178826260Y-105927902D01*
X178843503Y-105901656D01*
X178887680Y-105839789D01*
X178955462Y-105746747D01*
X179043523Y-105626976D01*
X179148535Y-105484924D01*
X179267171Y-105325037D01*
X179396104Y-105151761D01*
X179532005Y-104969544D01*
X179671549Y-104782833D01*
X179811407Y-104596073D01*
X179948253Y-104413712D01*
X180078759Y-104240197D01*
X180199597Y-104079973D01*
X180307441Y-103937488D01*
X180398963Y-103817189D01*
X180470836Y-103723522D01*
X180519732Y-103660934D01*
X180542324Y-103633872D01*
X180543363Y-103633114D01*
X180565939Y-103647883D01*
X180623038Y-103690089D01*
X180709337Y-103755656D01*
X180819514Y-103840509D01*
X180948246Y-103940573D01*
X181089463Y-104051185D01*
X181261221Y-104185268D01*
X181397849Y-104289423D01*
X181503337Y-104366132D01*
X181581672Y-104417876D01*
X181636845Y-104447138D01*
X181672843Y-104456400D01*
X181693656Y-104448143D01*
X181701657Y-104432100D01*
X181684285Y-104410590D01*
X181632357Y-104363422D01*
X181551992Y-104295375D01*
X181449310Y-104211227D01*
X181330427Y-104115756D01*
X181201463Y-104013740D01*
X181068536Y-103909957D01*
X180937764Y-103809184D01*
X180815267Y-103716201D01*
X180707162Y-103635785D01*
X180619568Y-103572713D01*
X180558604Y-103531764D01*
X180530716Y-103517700D01*
X180511189Y-103537399D01*
X180464687Y-103593624D01*
X180394452Y-103682068D01*
X180303728Y-103798421D01*
X180195759Y-103938378D01*
X180073788Y-104097629D01*
X179941060Y-104271868D01*
X179800818Y-104456786D01*
X179656306Y-104648075D01*
X179510767Y-104841429D01*
X179367445Y-105032538D01*
X179229583Y-105217096D01*
X179100426Y-105390794D01*
X178983217Y-105549326D01*
X178881200Y-105688382D01*
X178797618Y-105803655D01*
X178735716Y-105890838D01*
X178698736Y-105945622D01*
X178689277Y-105963220D01*
X178708552Y-105981869D01*
X178764160Y-106029813D01*
X178852914Y-106104428D01*
X178971628Y-106203088D01*
X179117116Y-106323169D01*
X179286192Y-106462045D01*
X179475671Y-106617091D01*
X179682365Y-106785682D01*
X179903089Y-106965192D01*
X180052467Y-107086400D01*
X180281213Y-107271484D01*
X180498805Y-107446848D01*
X180701977Y-107609903D01*
X180887463Y-107758062D01*
X181051995Y-107888736D01*
X181192308Y-107999335D01*
X181305135Y-108087272D01*
X181387210Y-108149958D01*
X181435267Y-108184805D01*
X181446671Y-108191300D01*
X181466586Y-108171982D01*
X181514456Y-108116813D01*
X181586960Y-108029977D01*
X181680779Y-107915655D01*
X181792591Y-107778029D01*
X181919078Y-107621281D01*
X182056918Y-107449593D01*
X182202791Y-107267145D01*
X182353377Y-107078121D01*
X182505356Y-106886702D01*
X182655407Y-106697070D01*
X182800211Y-106513407D01*
X182936447Y-106339894D01*
X183060794Y-106180714D01*
X183169933Y-106040048D01*
X183260543Y-105922078D01*
X183329305Y-105830986D01*
X183372897Y-105770954D01*
X183388000Y-105746210D01*
X183368820Y-105725506D01*
G37*
X183368820Y-105725506D02*
X183315229Y-105678793D01*
X183233150Y-105610944D01*
X183128509Y-105526832D01*
X183007230Y-105431329D01*
X182969081Y-105401646D01*
X182816699Y-105284861D01*
X182699249Y-105198616D01*
X182612853Y-105140673D01*
X182553633Y-105108793D01*
X182517710Y-105100739D01*
X182501206Y-105114275D01*
X182499000Y-105130432D01*
X182518036Y-105152426D01*
X182570996Y-105200275D01*
X182651661Y-105268705D01*
X182753809Y-105352440D01*
X182871222Y-105446207D01*
X182873650Y-105448122D01*
X182991665Y-105541826D01*
X183095082Y-105625149D01*
X183177570Y-105692892D01*
X183232798Y-105739854D01*
X183254435Y-105760835D01*
X183254477Y-105760939D01*
X183241003Y-105784420D01*
X183200373Y-105841500D01*
X183137274Y-105926202D01*
X183056397Y-106032547D01*
X182962431Y-106154557D01*
X182860063Y-106286252D01*
X182753985Y-106421654D01*
X182648884Y-106554785D01*
X182549450Y-106679666D01*
X182460372Y-106790318D01*
X182386339Y-106880763D01*
X182332039Y-106945022D01*
X182302163Y-106977117D01*
X182298686Y-106979573D01*
X182272811Y-106966313D01*
X182216101Y-106924830D01*
X182135647Y-106860696D01*
X182038538Y-106779487D01*
X181980579Y-106729545D01*
X181868258Y-106631240D01*
X181789111Y-106559527D01*
X181737786Y-106507883D01*
X181708933Y-106469786D01*
X181697201Y-106438714D01*
X181697238Y-106408146D01*
X181700521Y-106388197D01*
X181699442Y-106284399D01*
X181660874Y-106200312D01*
X181595139Y-106139357D01*
X181512558Y-106104957D01*
X181423456Y-106100533D01*
X181338153Y-106129507D01*
X181266974Y-106195301D01*
X181242925Y-106236509D01*
X181209125Y-106332935D01*
X181214438Y-106411401D01*
X181260916Y-106488688D01*
X181275868Y-106506080D01*
X181365760Y-106571770D01*
X181421740Y-106581937D01*
X181421740Y-106494164D01*
X181361606Y-106463398D01*
X181319543Y-106409950D01*
X181304803Y-106342880D01*
X181326641Y-106271250D01*
X181347237Y-106243851D01*
X181411664Y-106204290D01*
X181485436Y-106202421D01*
X181553054Y-106232510D01*
X181599015Y-106288823D01*
X181610000Y-106341037D01*
X181592467Y-106403494D01*
X181559200Y-106451400D01*
X181490689Y-106493185D01*
X181421740Y-106494164D01*
X181421740Y-106581937D01*
X181473679Y-106591371D01*
X181573843Y-106571292D01*
X181601423Y-106569556D01*
X181639570Y-106584613D01*
X181694438Y-106620662D01*
X181772179Y-106681902D01*
X181878943Y-106772533D01*
X181916743Y-106805377D01*
X182017698Y-106895042D01*
X182103378Y-106974261D01*
X182167101Y-107036609D01*
X182202186Y-107075658D01*
X182206900Y-107084448D01*
X182192137Y-107113428D01*
X182152440Y-107172233D01*
X182094694Y-107251943D01*
X182025787Y-107343634D01*
X181952606Y-107438384D01*
X181882038Y-107527270D01*
X181820970Y-107601371D01*
X181776288Y-107651764D01*
X181755276Y-107669552D01*
X181730626Y-107654545D01*
X181672548Y-107611924D01*
X181586934Y-107546241D01*
X181479678Y-107462046D01*
X181356672Y-107363890D01*
X181294079Y-107313406D01*
X181121558Y-107171343D01*
X180989285Y-107056994D01*
X180897665Y-106970730D01*
X180847103Y-106912922D01*
X180836916Y-106893296D01*
X180835233Y-106845065D01*
X180861991Y-106796636D01*
X180910763Y-106745841D01*
X180967865Y-106684184D01*
X180994059Y-106626762D01*
X181000400Y-106549182D01*
X181000400Y-106548079D01*
X180991142Y-106458709D01*
X180958828Y-106397630D01*
X180943250Y-106381511D01*
X180848994Y-106322242D01*
X180750569Y-106307115D01*
X180658142Y-106331535D01*
X180581882Y-106390910D01*
X180531957Y-106480646D01*
X180517800Y-106573714D01*
X180539155Y-106661098D01*
X180593805Y-106738637D01*
X180667630Y-106787479D01*
X180680971Y-106791547D01*
X180724928Y-106813240D01*
X180745784Y-106859693D01*
X180751223Y-106901901D01*
X180755907Y-106934160D01*
X180767448Y-106965217D01*
X180781288Y-106985920D01*
X180781288Y-106700984D01*
X180714777Y-106689208D01*
X180659737Y-106647875D01*
X180624786Y-106587442D01*
X180618539Y-106518366D01*
X180649611Y-106451106D01*
X180659315Y-106440515D01*
X180713647Y-106410813D01*
X180773029Y-106400600D01*
X180846818Y-106421204D01*
X180894913Y-106473482D01*
X180913237Y-106543137D01*
X180897712Y-106615873D01*
X180850654Y-106672745D01*
X180781288Y-106700984D01*
X180781288Y-106985920D01*
X180790692Y-106999988D01*
X180830483Y-107043390D01*
X180891666Y-107100342D01*
X180979086Y-107175761D01*
X181097588Y-107274564D01*
X181207960Y-107365476D01*
X181337203Y-107471813D01*
X181453331Y-107567595D01*
X181550573Y-107648043D01*
X181623156Y-107708376D01*
X181665307Y-107743814D01*
X181673346Y-107750879D01*
X181666894Y-107776805D01*
X181635817Y-107828958D01*
X181589137Y-107895505D01*
X181535878Y-107964618D01*
X181485064Y-108024463D01*
X181445719Y-108063212D01*
X181428983Y-108071253D01*
X181405714Y-108054330D01*
X181347067Y-108008746D01*
X181257165Y-107937783D01*
X181140129Y-107844724D01*
X181000079Y-107732851D01*
X180841140Y-107605449D01*
X180667431Y-107465799D01*
X180546522Y-107368377D01*
X179683592Y-106672453D01*
X179888386Y-106422227D01*
X180093179Y-106172000D01*
X180181522Y-106172000D01*
X180181522Y-106065557D01*
X180114463Y-106030665D01*
X180099387Y-106013250D01*
X180067620Y-105936792D01*
X180085716Y-105866335D01*
X180144315Y-105806770D01*
X180196596Y-105773049D01*
X180236237Y-105770031D01*
X180284015Y-105792314D01*
X180339258Y-105847340D01*
X180362551Y-105921332D01*
X180350416Y-105995084D01*
X180326858Y-106029115D01*
X180259418Y-106065535D01*
X180181522Y-106065557D01*
X180181522Y-106172000D01*
X180214332Y-106172000D01*
X180295521Y-106166848D01*
X180349330Y-106145003D01*
X180398682Y-106096880D01*
X180401243Y-106093852D01*
X180457772Y-105994640D01*
X180464985Y-105894231D01*
X180423040Y-105798811D01*
X180392754Y-105763647D01*
X180304514Y-105706737D01*
X180201858Y-105687603D01*
X180102461Y-105708208D01*
X180068196Y-105727579D01*
X180009092Y-105796248D01*
X179976380Y-105888970D01*
X179977039Y-105982854D01*
X179983638Y-106004895D01*
X180002730Y-106062125D01*
X180009800Y-106095765D01*
X179994961Y-106120995D01*
X179955310Y-106176199D01*
X179898145Y-106251987D01*
X179830765Y-106338970D01*
X179760469Y-106427757D01*
X179694555Y-106508960D01*
X179640322Y-106573187D01*
X179627176Y-106588013D01*
X179601315Y-106582013D01*
X179548245Y-106549875D01*
X179478212Y-106499784D01*
X179401463Y-106439921D01*
X179328242Y-106378469D01*
X179268795Y-106323610D01*
X179233369Y-106283529D01*
X179228076Y-106269275D01*
X179244884Y-106244152D01*
X179288635Y-106184254D01*
X179355239Y-106095025D01*
X179440607Y-105981910D01*
X179540648Y-105850353D01*
X179651274Y-105705799D01*
X179654292Y-105701868D01*
X179779863Y-105538756D01*
X179878890Y-105411698D01*
X179955464Y-105316226D01*
X180013676Y-105247873D01*
X180057619Y-105202170D01*
X180091383Y-105174649D01*
X180119061Y-105160842D01*
X180144744Y-105156281D01*
X180154139Y-105156043D01*
X180219030Y-105166985D01*
X180250352Y-105204651D01*
X180251559Y-105208247D01*
X180293662Y-105265412D01*
X180369118Y-105307238D01*
X180461177Y-105326790D01*
X180461717Y-105326761D01*
X180461717Y-105233504D01*
X180389597Y-105211557D01*
X180361051Y-105190164D01*
X180321296Y-105124824D01*
X180318931Y-105048774D01*
X180353040Y-104982453D01*
X180371052Y-104966941D01*
X180451790Y-104930881D01*
X180524406Y-104944134D01*
X180568600Y-104978200D01*
X180611064Y-105047283D01*
X180612604Y-105116550D01*
X180582224Y-105176806D01*
X180528927Y-105218855D01*
X180461717Y-105233504D01*
X180461717Y-105326761D01*
X180528886Y-105323079D01*
X180614378Y-105289272D01*
X180671317Y-105224472D01*
X180714879Y-105119490D01*
X180709387Y-105023344D01*
X180654365Y-104930013D01*
X180647400Y-104922028D01*
X180586534Y-104865941D01*
X180523619Y-104842771D01*
X180471629Y-104839655D01*
X180362363Y-104861753D01*
X180278405Y-104924085D01*
X180237469Y-104993687D01*
X180198170Y-105038087D01*
X180117818Y-105063127D01*
X180116671Y-105063311D01*
X180085705Y-105069867D01*
X180056063Y-105081990D01*
X180023539Y-105104215D01*
X179983923Y-105141074D01*
X179933009Y-105197102D01*
X179866587Y-105276830D01*
X179780450Y-105384793D01*
X179670390Y-105525524D01*
X179582196Y-105639080D01*
X179468691Y-105784458D01*
X179364841Y-105915657D01*
X179274795Y-106027581D01*
X179202703Y-106115131D01*
X179152714Y-106173212D01*
X179128977Y-106196725D01*
X179128059Y-106196980D01*
X179091533Y-106179557D01*
X179034419Y-106138157D01*
X178968072Y-106082902D01*
X178903849Y-106023917D01*
X178853106Y-105971328D01*
X178827198Y-105935259D01*
X178826260Y-105927902D01*
X178843503Y-105901656D01*
X178887680Y-105839789D01*
X178955462Y-105746747D01*
X179043523Y-105626976D01*
X179148535Y-105484924D01*
X179267171Y-105325037D01*
X179396104Y-105151761D01*
X179532005Y-104969544D01*
X179671549Y-104782833D01*
X179811407Y-104596073D01*
X179948253Y-104413712D01*
X180078759Y-104240197D01*
X180199597Y-104079973D01*
X180307441Y-103937488D01*
X180398963Y-103817189D01*
X180470836Y-103723522D01*
X180519732Y-103660934D01*
X180542324Y-103633872D01*
X180543363Y-103633114D01*
X180565939Y-103647883D01*
X180623038Y-103690089D01*
X180709337Y-103755656D01*
X180819514Y-103840509D01*
X180948246Y-103940573D01*
X181089463Y-104051185D01*
X181261221Y-104185268D01*
X181397849Y-104289423D01*
X181503337Y-104366132D01*
X181581672Y-104417876D01*
X181636845Y-104447138D01*
X181672843Y-104456400D01*
X181693656Y-104448143D01*
X181701657Y-104432100D01*
X181684285Y-104410590D01*
X181632357Y-104363422D01*
X181551992Y-104295375D01*
X181449310Y-104211227D01*
X181330427Y-104115756D01*
X181201463Y-104013740D01*
X181068536Y-103909957D01*
X180937764Y-103809184D01*
X180815267Y-103716201D01*
X180707162Y-103635785D01*
X180619568Y-103572713D01*
X180558604Y-103531764D01*
X180530716Y-103517700D01*
X180511189Y-103537399D01*
X180464687Y-103593624D01*
X180394452Y-103682068D01*
X180303728Y-103798421D01*
X180195759Y-103938378D01*
X180073788Y-104097629D01*
X179941060Y-104271868D01*
X179800818Y-104456786D01*
X179656306Y-104648075D01*
X179510767Y-104841429D01*
X179367445Y-105032538D01*
X179229583Y-105217096D01*
X179100426Y-105390794D01*
X178983217Y-105549326D01*
X178881200Y-105688382D01*
X178797618Y-105803655D01*
X178735716Y-105890838D01*
X178698736Y-105945622D01*
X178689277Y-105963220D01*
X178708552Y-105981869D01*
X178764160Y-106029813D01*
X178852914Y-106104428D01*
X178971628Y-106203088D01*
X179117116Y-106323169D01*
X179286192Y-106462045D01*
X179475671Y-106617091D01*
X179682365Y-106785682D01*
X179903089Y-106965192D01*
X180052467Y-107086400D01*
X180281213Y-107271484D01*
X180498805Y-107446848D01*
X180701977Y-107609903D01*
X180887463Y-107758062D01*
X181051995Y-107888736D01*
X181192308Y-107999335D01*
X181305135Y-108087272D01*
X181387210Y-108149958D01*
X181435267Y-108184805D01*
X181446671Y-108191300D01*
X181466586Y-108171982D01*
X181514456Y-108116813D01*
X181586960Y-108029977D01*
X181680779Y-107915655D01*
X181792591Y-107778029D01*
X181919078Y-107621281D01*
X182056918Y-107449593D01*
X182202791Y-107267145D01*
X182353377Y-107078121D01*
X182505356Y-106886702D01*
X182655407Y-106697070D01*
X182800211Y-106513407D01*
X182936447Y-106339894D01*
X183060794Y-106180714D01*
X183169933Y-106040048D01*
X183260543Y-105922078D01*
X183329305Y-105830986D01*
X183372897Y-105770954D01*
X183388000Y-105746210D01*
X183368820Y-105725506D01*
G36*
X183319746Y-104002018D02*
G01*
X183272923Y-103942632D01*
X183205044Y-103867979D01*
X183124421Y-103786082D01*
X183039366Y-103704964D01*
X182958192Y-103632647D01*
X182889210Y-103577153D01*
X182840733Y-103546505D01*
X182824694Y-103543471D01*
X182798478Y-103564625D01*
X182741196Y-103618187D01*
X182657042Y-103699997D01*
X182550214Y-103805897D01*
X182424906Y-103931725D01*
X182285314Y-104073322D01*
X182135633Y-104226527D01*
X182131525Y-104230752D01*
X181949341Y-104418989D01*
X181801212Y-104574157D01*
X181684912Y-104698746D01*
X181598220Y-104795250D01*
X181538913Y-104866159D01*
X181504767Y-104913966D01*
X181493561Y-104941162D01*
X181494165Y-104945258D01*
X181489182Y-104980764D01*
X181452098Y-105037727D01*
X181379868Y-105120397D01*
X181335124Y-105167079D01*
X181246931Y-105261346D01*
X181183661Y-105342301D01*
X181133504Y-105428309D01*
X181084649Y-105537736D01*
X181064552Y-105587800D01*
X181023240Y-105692439D01*
X180988299Y-105780926D01*
X180964348Y-105841566D01*
X180956810Y-105860636D01*
X180965030Y-105895573D01*
X180981331Y-105906371D01*
X181018775Y-105903172D01*
X181091882Y-105883608D01*
X181114393Y-105876096D01*
X181114393Y-105763716D01*
X181103637Y-105755704D01*
X181106234Y-105746181D01*
X181119199Y-105714716D01*
X181145783Y-105649176D01*
X181180685Y-105562634D01*
X181187511Y-105545663D01*
X181240595Y-105431028D01*
X181304577Y-105333602D01*
X181393287Y-105233264D01*
X181422349Y-105203977D01*
X181584377Y-105043390D01*
X181711625Y-105168724D01*
X181838873Y-105294059D01*
X181681696Y-105452645D01*
X181579428Y-105547995D01*
X181483863Y-105616055D01*
X181373171Y-105671564D01*
X181332310Y-105688553D01*
X181222069Y-105731838D01*
X181151650Y-105756327D01*
X181114393Y-105763716D01*
X181114393Y-105876096D01*
X181189498Y-105851029D01*
X181282416Y-105815997D01*
X181406846Y-105764672D01*
X181498963Y-105719519D01*
X181574595Y-105670492D01*
X181649571Y-105607547D01*
X181725235Y-105534977D01*
X181811625Y-105452321D01*
X181870693Y-105403153D01*
X181908881Y-105383006D01*
X181932629Y-105387409D01*
X181934944Y-105389504D01*
X181944583Y-105397482D01*
X181956455Y-105400246D01*
X181973808Y-105394868D01*
X181979123Y-105391516D01*
X181979123Y-105282631D01*
X181794562Y-105099301D01*
X181717639Y-105021650D01*
X181656422Y-104957491D01*
X181618543Y-104914965D01*
X181610000Y-104902409D01*
X181627277Y-104881710D01*
X181676133Y-104829778D01*
X181752111Y-104751183D01*
X181850751Y-104650494D01*
X181967595Y-104532283D01*
X182098183Y-104401118D01*
X182137480Y-104361816D01*
X182664959Y-103834785D01*
X183044237Y-104216611D01*
X181979123Y-105282631D01*
X181979123Y-105391516D01*
X181999894Y-105378416D01*
X182037961Y-105347958D01*
X182091261Y-105300565D01*
X182163043Y-105233306D01*
X182256558Y-105143249D01*
X182375056Y-105027465D01*
X182521786Y-104883022D01*
X182699999Y-104706989D01*
X182784750Y-104623196D01*
X182922376Y-104485884D01*
X183047488Y-104358700D01*
X183108530Y-104295288D01*
X183108530Y-104151359D01*
X182728574Y-103773939D01*
X182783315Y-103715670D01*
X182826321Y-103674972D01*
X182854337Y-103657417D01*
X182854744Y-103657400D01*
X182877656Y-103675136D01*
X182926193Y-103722982D01*
X182992436Y-103792902D01*
X183044431Y-103849931D01*
X183217428Y-104042461D01*
X183108530Y-104151359D01*
X183108530Y-104295288D01*
X183155662Y-104246326D01*
X183242475Y-104153449D01*
X183303503Y-104084754D01*
X183334322Y-104044924D01*
X183337200Y-104038115D01*
X183319746Y-104002018D01*
G37*
X183319746Y-104002018D02*
X183272923Y-103942632D01*
X183205044Y-103867979D01*
X183124421Y-103786082D01*
X183039366Y-103704964D01*
X182958192Y-103632647D01*
X182889210Y-103577153D01*
X182840733Y-103546505D01*
X182824694Y-103543471D01*
X182798478Y-103564625D01*
X182741196Y-103618187D01*
X182657042Y-103699997D01*
X182550214Y-103805897D01*
X182424906Y-103931725D01*
X182285314Y-104073322D01*
X182135633Y-104226527D01*
X182131525Y-104230752D01*
X181949341Y-104418989D01*
X181801212Y-104574157D01*
X181684912Y-104698746D01*
X181598220Y-104795250D01*
X181538913Y-104866159D01*
X181504767Y-104913966D01*
X181493561Y-104941162D01*
X181494165Y-104945258D01*
X181489182Y-104980764D01*
X181452098Y-105037727D01*
X181379868Y-105120397D01*
X181335124Y-105167079D01*
X181246931Y-105261346D01*
X181183661Y-105342301D01*
X181133504Y-105428309D01*
X181084649Y-105537736D01*
X181064552Y-105587800D01*
X181023240Y-105692439D01*
X180988299Y-105780926D01*
X180964348Y-105841566D01*
X180956810Y-105860636D01*
X180965030Y-105895573D01*
X180981331Y-105906371D01*
X181018775Y-105903172D01*
X181091882Y-105883608D01*
X181114393Y-105876096D01*
X181114393Y-105763716D01*
X181103637Y-105755704D01*
X181106234Y-105746181D01*
X181119199Y-105714716D01*
X181145783Y-105649176D01*
X181180685Y-105562634D01*
X181187511Y-105545663D01*
X181240595Y-105431028D01*
X181304577Y-105333602D01*
X181393287Y-105233264D01*
X181422349Y-105203977D01*
X181584377Y-105043390D01*
X181711625Y-105168724D01*
X181838873Y-105294059D01*
X181681696Y-105452645D01*
X181579428Y-105547995D01*
X181483863Y-105616055D01*
X181373171Y-105671564D01*
X181332310Y-105688553D01*
X181222069Y-105731838D01*
X181151650Y-105756327D01*
X181114393Y-105763716D01*
X181114393Y-105876096D01*
X181189498Y-105851029D01*
X181282416Y-105815997D01*
X181406846Y-105764672D01*
X181498963Y-105719519D01*
X181574595Y-105670492D01*
X181649571Y-105607547D01*
X181725235Y-105534977D01*
X181811625Y-105452321D01*
X181870693Y-105403153D01*
X181908881Y-105383006D01*
X181932629Y-105387409D01*
X181934944Y-105389504D01*
X181944583Y-105397482D01*
X181956455Y-105400246D01*
X181973808Y-105394868D01*
X181979123Y-105391516D01*
X181979123Y-105282631D01*
X181794562Y-105099301D01*
X181717639Y-105021650D01*
X181656422Y-104957491D01*
X181618543Y-104914965D01*
X181610000Y-104902409D01*
X181627277Y-104881710D01*
X181676133Y-104829778D01*
X181752111Y-104751183D01*
X181850751Y-104650494D01*
X181967595Y-104532283D01*
X182098183Y-104401118D01*
X182137480Y-104361816D01*
X182664959Y-103834785D01*
X183044237Y-104216611D01*
X181979123Y-105282631D01*
X181979123Y-105391516D01*
X181999894Y-105378416D01*
X182037961Y-105347958D01*
X182091261Y-105300565D01*
X182163043Y-105233306D01*
X182256558Y-105143249D01*
X182375056Y-105027465D01*
X182521786Y-104883022D01*
X182699999Y-104706989D01*
X182784750Y-104623196D01*
X182922376Y-104485884D01*
X183047488Y-104358700D01*
X183108530Y-104295288D01*
X183108530Y-104151359D01*
X182728574Y-103773939D01*
X182783315Y-103715670D01*
X182826321Y-103674972D01*
X182854337Y-103657417D01*
X182854744Y-103657400D01*
X182877656Y-103675136D01*
X182926193Y-103722982D01*
X182992436Y-103792902D01*
X183044431Y-103849931D01*
X183217428Y-104042461D01*
X183108530Y-104151359D01*
X183108530Y-104295288D01*
X183155662Y-104246326D01*
X183242475Y-104153449D01*
X183303503Y-104084754D01*
X183334322Y-104044924D01*
X183337200Y-104038115D01*
X183319746Y-104002018D01*
G36*
X182593794Y-104431111D02*
G01*
X182590631Y-104429634D01*
X182564888Y-104431335D01*
X182524360Y-104454198D01*
X182464469Y-104501979D01*
X182380637Y-104578433D01*
X182268286Y-104687316D01*
X182228272Y-104726930D01*
X182099886Y-104855306D01*
X182004501Y-104953157D01*
X181938418Y-105025085D01*
X181897939Y-105075691D01*
X181879365Y-105109579D01*
X181879000Y-105131350D01*
X181892261Y-105145068D01*
X181919008Y-105133524D01*
X181976078Y-105089201D01*
X182058839Y-105016180D01*
X182162657Y-104918545D01*
X182278414Y-104804864D01*
X182402240Y-104680015D01*
X182492814Y-104585894D01*
X182553696Y-104518222D01*
X182588446Y-104472720D01*
X182600625Y-104445110D01*
X182593794Y-104431111D01*
G37*
X182593794Y-104431111D02*
X182590631Y-104429634D01*
X182564888Y-104431335D01*
X182524360Y-104454198D01*
X182464469Y-104501979D01*
X182380637Y-104578433D01*
X182268286Y-104687316D01*
X182228272Y-104726930D01*
X182099886Y-104855306D01*
X182004501Y-104953157D01*
X181938418Y-105025085D01*
X181897939Y-105075691D01*
X181879365Y-105109579D01*
X181879000Y-105131350D01*
X181892261Y-105145068D01*
X181919008Y-105133524D01*
X181976078Y-105089201D01*
X182058839Y-105016180D01*
X182162657Y-104918545D01*
X182278414Y-104804864D01*
X182402240Y-104680015D01*
X182492814Y-104585894D01*
X182553696Y-104518222D01*
X182588446Y-104472720D01*
X182600625Y-104445110D01*
X182593794Y-104431111D01*
G36*
X182886174Y-104136042D02*
G01*
X182885168Y-104135008D01*
X182857572Y-104124186D01*
X182817687Y-104144580D01*
X182765750Y-104190753D01*
X182699321Y-104265918D01*
X182677619Y-104319946D01*
X182698073Y-104353349D01*
X182725921Y-104343987D01*
X182775380Y-104306024D01*
X182817491Y-104265986D01*
X182873665Y-104203291D01*
X182894963Y-104163066D01*
X182886174Y-104136042D01*
G37*
X182886174Y-104136042D02*
X182885168Y-104135008D01*
X182857572Y-104124186D01*
X182817687Y-104144580D01*
X182765750Y-104190753D01*
X182699321Y-104265918D01*
X182677619Y-104319946D01*
X182698073Y-104353349D01*
X182725921Y-104343987D01*
X182775380Y-104306024D01*
X182817491Y-104265986D01*
X182873665Y-104203291D01*
X182894963Y-104163066D01*
X182886174Y-104136042D01*
M02*
