G04 #@! TF.GenerationSoftware,KiCad,Pcbnew,5.1.10-88a1d61d58~90~ubuntu21.04.1*
G04 #@! TF.CreationDate,2021-10-15T14:22:21-03:00*
G04 #@! TF.ProjectId,Franzininho WIFI,4672616e-7a69-46e6-996e-686f20574946,rev?*
G04 #@! TF.SameCoordinates,Original*
G04 #@! TF.FileFunction,Legend,Top*
G04 #@! TF.FilePolarity,Positive*
%FSLAX46Y46*%
G04 Gerber Fmt 4.6, Leading zero omitted, Abs format (unit mm)*
G04 Created by KiCad (PCBNEW 5.1.10-88a1d61d58~90~ubuntu21.04.1) date 2021-10-15 14:22:21*
%MOMM*%
%LPD*%
G01*
G04 APERTURE LIST*
%ADD10C,0.175000*%
%ADD11C,0.150000*%
%ADD12C,0.250000*%
%ADD13C,0.300000*%
%ADD14C,0.120000*%
G04 APERTURE END LIST*
D10*
X130250583Y-95217500D02*
X130183916Y-95184166D01*
X130083916Y-95184166D01*
X129983916Y-95217500D01*
X129917250Y-95284166D01*
X129883916Y-95350833D01*
X129850583Y-95484166D01*
X129850583Y-95584166D01*
X129883916Y-95717500D01*
X129917250Y-95784166D01*
X129983916Y-95850833D01*
X130083916Y-95884166D01*
X130150583Y-95884166D01*
X130250583Y-95850833D01*
X130283916Y-95817500D01*
X130283916Y-95584166D01*
X130150583Y-95584166D01*
X130583916Y-95884166D02*
X130583916Y-95184166D01*
X130983916Y-95884166D01*
X130983916Y-95184166D01*
X131317250Y-95884166D02*
X131317250Y-95184166D01*
X131483916Y-95184166D01*
X131583916Y-95217500D01*
X131650583Y-95284166D01*
X131683916Y-95350833D01*
X131717250Y-95484166D01*
X131717250Y-95584166D01*
X131683916Y-95717500D01*
X131650583Y-95784166D01*
X131583916Y-95850833D01*
X131483916Y-95884166D01*
X131317250Y-95884166D01*
X132547750Y-95247666D02*
X132981083Y-95247666D01*
X132747750Y-95514333D01*
X132847750Y-95514333D01*
X132914416Y-95547666D01*
X132947750Y-95581000D01*
X132981083Y-95647666D01*
X132981083Y-95814333D01*
X132947750Y-95881000D01*
X132914416Y-95914333D01*
X132847750Y-95947666D01*
X132647750Y-95947666D01*
X132581083Y-95914333D01*
X132547750Y-95881000D01*
X133181083Y-95247666D02*
X133414416Y-95947666D01*
X133647750Y-95247666D01*
X133814416Y-95247666D02*
X134247750Y-95247666D01*
X134014416Y-95514333D01*
X134114416Y-95514333D01*
X134181083Y-95547666D01*
X134214416Y-95581000D01*
X134247750Y-95647666D01*
X134247750Y-95814333D01*
X134214416Y-95881000D01*
X134181083Y-95914333D01*
X134114416Y-95947666D01*
X133914416Y-95947666D01*
X133847750Y-95914333D01*
X133814416Y-95881000D01*
D11*
X181330666Y-95377833D02*
X181364000Y-95344500D01*
X181430666Y-95311166D01*
X181597333Y-95311166D01*
X181664000Y-95344500D01*
X181697333Y-95377833D01*
X181730666Y-95444500D01*
X181730666Y-95511166D01*
X181697333Y-95611166D01*
X181297333Y-96011166D01*
X181730666Y-96011166D01*
X182330666Y-95311166D02*
X182197333Y-95311166D01*
X182130666Y-95344500D01*
X182097333Y-95377833D01*
X182030666Y-95477833D01*
X181997333Y-95611166D01*
X181997333Y-95877833D01*
X182030666Y-95944500D01*
X182064000Y-95977833D01*
X182130666Y-96011166D01*
X182264000Y-96011166D01*
X182330666Y-95977833D01*
X182364000Y-95944500D01*
X182397333Y-95877833D01*
X182397333Y-95711166D01*
X182364000Y-95644500D01*
X182330666Y-95611166D01*
X182264000Y-95577833D01*
X182130666Y-95577833D01*
X182064000Y-95611166D01*
X182030666Y-95644500D01*
X181997333Y-95711166D01*
X181203666Y-114935833D02*
X181237000Y-114902500D01*
X181303666Y-114869166D01*
X181470333Y-114869166D01*
X181537000Y-114902500D01*
X181570333Y-114935833D01*
X181603666Y-115002500D01*
X181603666Y-115069166D01*
X181570333Y-115169166D01*
X181170333Y-115569166D01*
X181603666Y-115569166D01*
X182270333Y-115569166D02*
X181870333Y-115569166D01*
X182070333Y-115569166D02*
X182070333Y-114869166D01*
X182003666Y-114969166D01*
X181937000Y-115035833D01*
X181870333Y-115069166D01*
X140718333Y-104976666D02*
X140718333Y-105110000D01*
X140685000Y-105176666D01*
X140618333Y-105243333D01*
X140485000Y-105276666D01*
X140251666Y-105276666D01*
X140118333Y-105243333D01*
X140051666Y-105176666D01*
X140018333Y-105110000D01*
X140018333Y-104976666D01*
X140051666Y-104910000D01*
X140118333Y-104843333D01*
X140251666Y-104810000D01*
X140485000Y-104810000D01*
X140618333Y-104843333D01*
X140685000Y-104910000D01*
X140718333Y-104976666D01*
X140018333Y-105576666D02*
X140718333Y-105576666D01*
X140018333Y-105976666D01*
X140718333Y-105976666D01*
D12*
X127706428Y-93706785D02*
X127658809Y-93849642D01*
X127611190Y-93897261D01*
X127515952Y-93944880D01*
X127373095Y-93944880D01*
X127277857Y-93897261D01*
X127230238Y-93849642D01*
X127182619Y-93754404D01*
X127182619Y-93373452D01*
X128182619Y-93373452D01*
X128182619Y-93706785D01*
X128135000Y-93802023D01*
X128087380Y-93849642D01*
X127992142Y-93897261D01*
X127896904Y-93897261D01*
X127801666Y-93849642D01*
X127754047Y-93802023D01*
X127706428Y-93706785D01*
X127706428Y-93373452D01*
X128182619Y-94563928D02*
X128182619Y-94754404D01*
X128135000Y-94849642D01*
X128039761Y-94944880D01*
X127849285Y-94992500D01*
X127515952Y-94992500D01*
X127325476Y-94944880D01*
X127230238Y-94849642D01*
X127182619Y-94754404D01*
X127182619Y-94563928D01*
X127230238Y-94468690D01*
X127325476Y-94373452D01*
X127515952Y-94325833D01*
X127849285Y-94325833D01*
X128039761Y-94373452D01*
X128135000Y-94468690D01*
X128182619Y-94563928D01*
X128182619Y-95611547D02*
X128182619Y-95802023D01*
X128135000Y-95897261D01*
X128039761Y-95992500D01*
X127849285Y-96040119D01*
X127515952Y-96040119D01*
X127325476Y-95992500D01*
X127230238Y-95897261D01*
X127182619Y-95802023D01*
X127182619Y-95611547D01*
X127230238Y-95516309D01*
X127325476Y-95421071D01*
X127515952Y-95373452D01*
X127849285Y-95373452D01*
X128039761Y-95421071D01*
X128135000Y-95516309D01*
X128182619Y-95611547D01*
X128182619Y-96325833D02*
X128182619Y-96897261D01*
X127182619Y-96611547D02*
X128182619Y-96611547D01*
D11*
X137160000Y-98425000D02*
X137160000Y-101600000D01*
X134620000Y-98425000D02*
X134620000Y-101600000D01*
X132080000Y-98485000D02*
X132080000Y-101600000D01*
X129540000Y-92900500D02*
X139700000Y-92900500D01*
X129540000Y-101600000D02*
X129540000Y-92900500D01*
X139700000Y-101600000D02*
X129540000Y-101600000D01*
X139700000Y-98425000D02*
X139700000Y-101600000D01*
D10*
X133700000Y-114173750D02*
X133733333Y-114107083D01*
X133733333Y-114007083D01*
X133700000Y-113907083D01*
X133633333Y-113840416D01*
X133566666Y-113807083D01*
X133433333Y-113773750D01*
X133333333Y-113773750D01*
X133200000Y-113807083D01*
X133133333Y-113840416D01*
X133066666Y-113907083D01*
X133033333Y-114007083D01*
X133033333Y-114073750D01*
X133066666Y-114173750D01*
X133100000Y-114207083D01*
X133333333Y-114207083D01*
X133333333Y-114073750D01*
X133033333Y-114507083D02*
X133733333Y-114507083D01*
X133033333Y-114907083D01*
X133733333Y-114907083D01*
X133033333Y-115240416D02*
X133733333Y-115240416D01*
X133733333Y-115407083D01*
X133700000Y-115507083D01*
X133633333Y-115573750D01*
X133566666Y-115607083D01*
X133433333Y-115640416D01*
X133333333Y-115640416D01*
X133200000Y-115607083D01*
X133133333Y-115573750D01*
X133066666Y-115507083D01*
X133033333Y-115407083D01*
X133033333Y-115240416D01*
D12*
X138025238Y-98777976D02*
X137977619Y-98920833D01*
X137977619Y-99158928D01*
X138025238Y-99254166D01*
X138072857Y-99301785D01*
X138168095Y-99349404D01*
X138263333Y-99349404D01*
X138358571Y-99301785D01*
X138406190Y-99254166D01*
X138453809Y-99158928D01*
X138501428Y-98968452D01*
X138549047Y-98873214D01*
X138596666Y-98825595D01*
X138691904Y-98777976D01*
X138787142Y-98777976D01*
X138882380Y-98825595D01*
X138930000Y-98873214D01*
X138977619Y-98968452D01*
X138977619Y-99206547D01*
X138930000Y-99349404D01*
X137977619Y-99777976D02*
X138977619Y-99777976D01*
X138977619Y-100016071D01*
X138930000Y-100158928D01*
X138834761Y-100254166D01*
X138739523Y-100301785D01*
X138549047Y-100349404D01*
X138406190Y-100349404D01*
X138215714Y-100301785D01*
X138120476Y-100254166D01*
X138025238Y-100158928D01*
X137977619Y-100016071D01*
X137977619Y-99777976D01*
X138263333Y-100730357D02*
X138263333Y-101206547D01*
X137977619Y-100635119D02*
X138977619Y-100968452D01*
X137977619Y-101301785D01*
X135485238Y-98777976D02*
X135437619Y-98920833D01*
X135437619Y-99158928D01*
X135485238Y-99254166D01*
X135532857Y-99301785D01*
X135628095Y-99349404D01*
X135723333Y-99349404D01*
X135818571Y-99301785D01*
X135866190Y-99254166D01*
X135913809Y-99158928D01*
X135961428Y-98968452D01*
X136009047Y-98873214D01*
X136056666Y-98825595D01*
X136151904Y-98777976D01*
X136247142Y-98777976D01*
X136342380Y-98825595D01*
X136390000Y-98873214D01*
X136437619Y-98968452D01*
X136437619Y-99206547D01*
X136390000Y-99349404D01*
X135532857Y-100349404D02*
X135485238Y-100301785D01*
X135437619Y-100158928D01*
X135437619Y-100063690D01*
X135485238Y-99920833D01*
X135580476Y-99825595D01*
X135675714Y-99777976D01*
X135866190Y-99730357D01*
X136009047Y-99730357D01*
X136199523Y-99777976D01*
X136294761Y-99825595D01*
X136390000Y-99920833D01*
X136437619Y-100063690D01*
X136437619Y-100158928D01*
X136390000Y-100301785D01*
X136342380Y-100349404D01*
X135437619Y-101254166D02*
X135437619Y-100777976D01*
X136437619Y-100777976D01*
D11*
X137160000Y-92900500D02*
X137160000Y-98425000D01*
X134620000Y-92900500D02*
X134620000Y-98425000D01*
X132080000Y-92900500D02*
X132080000Y-98485000D01*
X139700000Y-92900500D02*
X139700000Y-98425000D01*
X126595000Y-116205000D02*
G75*
G03*
X126595000Y-116205000I-1500000J0D01*
G01*
X126595000Y-94615000D02*
G75*
G03*
X126595000Y-94615000I-1500000J0D01*
G01*
D12*
X127182619Y-114772738D02*
X127658809Y-114439404D01*
X127182619Y-114201309D02*
X128182619Y-114201309D01*
X128182619Y-114582261D01*
X128135000Y-114677500D01*
X128087380Y-114725119D01*
X127992142Y-114772738D01*
X127849285Y-114772738D01*
X127754047Y-114725119D01*
X127706428Y-114677500D01*
X127658809Y-114582261D01*
X127658809Y-114201309D01*
X127230238Y-115153690D02*
X127182619Y-115296547D01*
X127182619Y-115534642D01*
X127230238Y-115629880D01*
X127277857Y-115677500D01*
X127373095Y-115725119D01*
X127468333Y-115725119D01*
X127563571Y-115677500D01*
X127611190Y-115629880D01*
X127658809Y-115534642D01*
X127706428Y-115344166D01*
X127754047Y-115248928D01*
X127801666Y-115201309D01*
X127896904Y-115153690D01*
X127992142Y-115153690D01*
X128087380Y-115201309D01*
X128135000Y-115248928D01*
X128182619Y-115344166D01*
X128182619Y-115582261D01*
X128135000Y-115725119D01*
X128182619Y-116010833D02*
X128182619Y-116582261D01*
X127182619Y-116296547D02*
X128182619Y-116296547D01*
D10*
X136209833Y-114435583D02*
X136209833Y-114102250D01*
X135876500Y-114068916D01*
X135909833Y-114102250D01*
X135943166Y-114168916D01*
X135943166Y-114335583D01*
X135909833Y-114402250D01*
X135876500Y-114435583D01*
X135809833Y-114468916D01*
X135643166Y-114468916D01*
X135576500Y-114435583D01*
X135543166Y-114402250D01*
X135509833Y-114335583D01*
X135509833Y-114168916D01*
X135543166Y-114102250D01*
X135576500Y-114068916D01*
X136209833Y-114668916D02*
X135509833Y-114902250D01*
X136209833Y-115135583D01*
X131096500Y-114173750D02*
X131129833Y-114107083D01*
X131129833Y-114007083D01*
X131096500Y-113907083D01*
X131029833Y-113840416D01*
X130963166Y-113807083D01*
X130829833Y-113773750D01*
X130729833Y-113773750D01*
X130596500Y-113807083D01*
X130529833Y-113840416D01*
X130463166Y-113907083D01*
X130429833Y-114007083D01*
X130429833Y-114073750D01*
X130463166Y-114173750D01*
X130496500Y-114207083D01*
X130729833Y-114207083D01*
X130729833Y-114073750D01*
X130429833Y-114507083D02*
X131129833Y-114507083D01*
X130429833Y-114907083D01*
X131129833Y-114907083D01*
X130429833Y-115240416D02*
X131129833Y-115240416D01*
X131129833Y-115407083D01*
X131096500Y-115507083D01*
X131029833Y-115573750D01*
X130963166Y-115607083D01*
X130829833Y-115640416D01*
X130729833Y-115640416D01*
X130596500Y-115607083D01*
X130529833Y-115573750D01*
X130463166Y-115507083D01*
X130429833Y-115407083D01*
X130429833Y-115240416D01*
X138176833Y-114402250D02*
X138176833Y-114002250D01*
X138176833Y-114202250D02*
X138876833Y-114202250D01*
X138776833Y-114135583D01*
X138710166Y-114068916D01*
X138676833Y-114002250D01*
X138576833Y-114802250D02*
X138610166Y-114735583D01*
X138643500Y-114702250D01*
X138710166Y-114668916D01*
X138743500Y-114668916D01*
X138810166Y-114702250D01*
X138843500Y-114735583D01*
X138876833Y-114802250D01*
X138876833Y-114935583D01*
X138843500Y-115002250D01*
X138810166Y-115035583D01*
X138743500Y-115068916D01*
X138710166Y-115068916D01*
X138643500Y-115035583D01*
X138610166Y-115002250D01*
X138576833Y-114935583D01*
X138576833Y-114802250D01*
X138543500Y-114735583D01*
X138510166Y-114702250D01*
X138443500Y-114668916D01*
X138310166Y-114668916D01*
X138243500Y-114702250D01*
X138210166Y-114735583D01*
X138176833Y-114802250D01*
X138176833Y-114935583D01*
X138210166Y-115002250D01*
X138243500Y-115035583D01*
X138310166Y-115068916D01*
X138443500Y-115068916D01*
X138510166Y-115035583D01*
X138543500Y-115002250D01*
X138576833Y-114935583D01*
X141286666Y-114192750D02*
X141320000Y-114226083D01*
X141353333Y-114292750D01*
X141353333Y-114459416D01*
X141320000Y-114526083D01*
X141286666Y-114559416D01*
X141220000Y-114592750D01*
X141153333Y-114592750D01*
X141053333Y-114559416D01*
X140653333Y-114159416D01*
X140653333Y-114592750D01*
X140653333Y-115259416D02*
X140653333Y-114859416D01*
X140653333Y-115059416D02*
X141353333Y-115059416D01*
X141253333Y-114992750D01*
X141186666Y-114926083D01*
X141153333Y-114859416D01*
X143826666Y-114192750D02*
X143860000Y-114226083D01*
X143893333Y-114292750D01*
X143893333Y-114459416D01*
X143860000Y-114526083D01*
X143826666Y-114559416D01*
X143760000Y-114592750D01*
X143693333Y-114592750D01*
X143593333Y-114559416D01*
X143193333Y-114159416D01*
X143193333Y-114592750D01*
X143893333Y-115192750D02*
X143893333Y-115059416D01*
X143860000Y-114992750D01*
X143826666Y-114959416D01*
X143726666Y-114892750D01*
X143593333Y-114859416D01*
X143326666Y-114859416D01*
X143260000Y-114892750D01*
X143226666Y-114926083D01*
X143193333Y-114992750D01*
X143193333Y-115126083D01*
X143226666Y-115192750D01*
X143260000Y-115226083D01*
X143326666Y-115259416D01*
X143493333Y-115259416D01*
X143560000Y-115226083D01*
X143593333Y-115192750D01*
X143626666Y-115126083D01*
X143626666Y-114992750D01*
X143593333Y-114926083D01*
X143560000Y-114892750D01*
X143493333Y-114859416D01*
X146306333Y-114159416D02*
X146306333Y-114592750D01*
X146039666Y-114359416D01*
X146039666Y-114459416D01*
X146006333Y-114526083D01*
X145973000Y-114559416D01*
X145906333Y-114592750D01*
X145739666Y-114592750D01*
X145673000Y-114559416D01*
X145639666Y-114526083D01*
X145606333Y-114459416D01*
X145606333Y-114259416D01*
X145639666Y-114192750D01*
X145673000Y-114159416D01*
X146306333Y-114826083D02*
X146306333Y-115259416D01*
X146039666Y-115026083D01*
X146039666Y-115126083D01*
X146006333Y-115192750D01*
X145973000Y-115226083D01*
X145906333Y-115259416D01*
X145739666Y-115259416D01*
X145673000Y-115226083D01*
X145639666Y-115192750D01*
X145606333Y-115126083D01*
X145606333Y-114926083D01*
X145639666Y-114859416D01*
X145673000Y-114826083D01*
X147877916Y-114678666D02*
X148311250Y-114678666D01*
X148077916Y-114945333D01*
X148177916Y-114945333D01*
X148244583Y-114978666D01*
X148277916Y-115012000D01*
X148311250Y-115078666D01*
X148311250Y-115245333D01*
X148277916Y-115312000D01*
X148244583Y-115345333D01*
X148177916Y-115378666D01*
X147977916Y-115378666D01*
X147911250Y-115345333D01*
X147877916Y-115312000D01*
X148911250Y-114912000D02*
X148911250Y-115378666D01*
X148744583Y-114645333D02*
X148577916Y-115145333D01*
X149011250Y-115145333D01*
X151513333Y-114286416D02*
X151513333Y-114719750D01*
X151246666Y-114486416D01*
X151246666Y-114586416D01*
X151213333Y-114653083D01*
X151180000Y-114686416D01*
X151113333Y-114719750D01*
X150946666Y-114719750D01*
X150880000Y-114686416D01*
X150846666Y-114653083D01*
X150813333Y-114586416D01*
X150813333Y-114386416D01*
X150846666Y-114319750D01*
X150880000Y-114286416D01*
X151513333Y-115353083D02*
X151513333Y-115019750D01*
X151180000Y-114986416D01*
X151213333Y-115019750D01*
X151246666Y-115086416D01*
X151246666Y-115253083D01*
X151213333Y-115319750D01*
X151180000Y-115353083D01*
X151113333Y-115386416D01*
X150946666Y-115386416D01*
X150880000Y-115353083D01*
X150846666Y-115319750D01*
X150813333Y-115253083D01*
X150813333Y-115086416D01*
X150846666Y-115019750D01*
X150880000Y-114986416D01*
X153084916Y-115186666D02*
X153518250Y-115186666D01*
X153284916Y-115453333D01*
X153384916Y-115453333D01*
X153451583Y-115486666D01*
X153484916Y-115520000D01*
X153518250Y-115586666D01*
X153518250Y-115753333D01*
X153484916Y-115820000D01*
X153451583Y-115853333D01*
X153384916Y-115886666D01*
X153184916Y-115886666D01*
X153118250Y-115853333D01*
X153084916Y-115820000D01*
X154118250Y-115186666D02*
X153984916Y-115186666D01*
X153918250Y-115220000D01*
X153884916Y-115253333D01*
X153818250Y-115353333D01*
X153784916Y-115486666D01*
X153784916Y-115753333D01*
X153818250Y-115820000D01*
X153851583Y-115853333D01*
X153918250Y-115886666D01*
X154051583Y-115886666D01*
X154118250Y-115853333D01*
X154151583Y-115820000D01*
X154184916Y-115753333D01*
X154184916Y-115586666D01*
X154151583Y-115520000D01*
X154118250Y-115486666D01*
X154051583Y-115453333D01*
X153918250Y-115453333D01*
X153851583Y-115486666D01*
X153818250Y-115520000D01*
X153784916Y-115586666D01*
X155624916Y-115123166D02*
X156058250Y-115123166D01*
X155824916Y-115389833D01*
X155924916Y-115389833D01*
X155991583Y-115423166D01*
X156024916Y-115456500D01*
X156058250Y-115523166D01*
X156058250Y-115689833D01*
X156024916Y-115756500D01*
X155991583Y-115789833D01*
X155924916Y-115823166D01*
X155724916Y-115823166D01*
X155658250Y-115789833D01*
X155624916Y-115756500D01*
X156291583Y-115123166D02*
X156758250Y-115123166D01*
X156458250Y-115823166D01*
X158101416Y-115123166D02*
X158534750Y-115123166D01*
X158301416Y-115389833D01*
X158401416Y-115389833D01*
X158468083Y-115423166D01*
X158501416Y-115456500D01*
X158534750Y-115523166D01*
X158534750Y-115689833D01*
X158501416Y-115756500D01*
X158468083Y-115789833D01*
X158401416Y-115823166D01*
X158201416Y-115823166D01*
X158134750Y-115789833D01*
X158101416Y-115756500D01*
X158934750Y-115423166D02*
X158868083Y-115389833D01*
X158834750Y-115356500D01*
X158801416Y-115289833D01*
X158801416Y-115256500D01*
X158834750Y-115189833D01*
X158868083Y-115156500D01*
X158934750Y-115123166D01*
X159068083Y-115123166D01*
X159134750Y-115156500D01*
X159168083Y-115189833D01*
X159201416Y-115256500D01*
X159201416Y-115289833D01*
X159168083Y-115356500D01*
X159134750Y-115389833D01*
X159068083Y-115423166D01*
X158934750Y-115423166D01*
X158868083Y-115456500D01*
X158834750Y-115489833D01*
X158801416Y-115556500D01*
X158801416Y-115689833D01*
X158834750Y-115756500D01*
X158868083Y-115789833D01*
X158934750Y-115823166D01*
X159068083Y-115823166D01*
X159134750Y-115789833D01*
X159168083Y-115756500D01*
X159201416Y-115689833D01*
X159201416Y-115556500D01*
X159168083Y-115489833D01*
X159134750Y-115456500D01*
X159068083Y-115423166D01*
X160641416Y-115186666D02*
X161074750Y-115186666D01*
X160841416Y-115453333D01*
X160941416Y-115453333D01*
X161008083Y-115486666D01*
X161041416Y-115520000D01*
X161074750Y-115586666D01*
X161074750Y-115753333D01*
X161041416Y-115820000D01*
X161008083Y-115853333D01*
X160941416Y-115886666D01*
X160741416Y-115886666D01*
X160674750Y-115853333D01*
X160641416Y-115820000D01*
X161408083Y-115886666D02*
X161541416Y-115886666D01*
X161608083Y-115853333D01*
X161641416Y-115820000D01*
X161708083Y-115720000D01*
X161741416Y-115586666D01*
X161741416Y-115320000D01*
X161708083Y-115253333D01*
X161674750Y-115220000D01*
X161608083Y-115186666D01*
X161474750Y-115186666D01*
X161408083Y-115220000D01*
X161374750Y-115253333D01*
X161341416Y-115320000D01*
X161341416Y-115486666D01*
X161374750Y-115553333D01*
X161408083Y-115586666D01*
X161474750Y-115620000D01*
X161608083Y-115620000D01*
X161674750Y-115586666D01*
X161708083Y-115553333D01*
X161741416Y-115486666D01*
X163548083Y-115420000D02*
X163548083Y-115886666D01*
X163381416Y-115153333D02*
X163214750Y-115653333D01*
X163648083Y-115653333D01*
X164048083Y-115186666D02*
X164114750Y-115186666D01*
X164181416Y-115220000D01*
X164214750Y-115253333D01*
X164248083Y-115320000D01*
X164281416Y-115453333D01*
X164281416Y-115620000D01*
X164248083Y-115753333D01*
X164214750Y-115820000D01*
X164181416Y-115853333D01*
X164114750Y-115886666D01*
X164048083Y-115886666D01*
X163981416Y-115853333D01*
X163948083Y-115820000D01*
X163914750Y-115753333D01*
X163881416Y-115620000D01*
X163881416Y-115453333D01*
X163914750Y-115320000D01*
X163948083Y-115253333D01*
X163981416Y-115220000D01*
X164048083Y-115186666D01*
X166151583Y-115356500D02*
X166151583Y-115823166D01*
X165984916Y-115089833D02*
X165818250Y-115589833D01*
X166251583Y-115589833D01*
X166884916Y-115823166D02*
X166484916Y-115823166D01*
X166684916Y-115823166D02*
X166684916Y-115123166D01*
X166618250Y-115223166D01*
X166551583Y-115289833D01*
X166484916Y-115323166D01*
X168628083Y-115356500D02*
X168628083Y-115823166D01*
X168461416Y-115089833D02*
X168294750Y-115589833D01*
X168728083Y-115589833D01*
X168961416Y-115189833D02*
X168994750Y-115156500D01*
X169061416Y-115123166D01*
X169228083Y-115123166D01*
X169294750Y-115156500D01*
X169328083Y-115189833D01*
X169361416Y-115256500D01*
X169361416Y-115323166D01*
X169328083Y-115423166D01*
X168928083Y-115823166D01*
X169361416Y-115823166D01*
X171104583Y-115356500D02*
X171104583Y-115823166D01*
X170937916Y-115089833D02*
X170771250Y-115589833D01*
X171204583Y-115589833D01*
X171404583Y-115123166D02*
X171837916Y-115123166D01*
X171604583Y-115389833D01*
X171704583Y-115389833D01*
X171771250Y-115423166D01*
X171804583Y-115456500D01*
X171837916Y-115523166D01*
X171837916Y-115689833D01*
X171804583Y-115756500D01*
X171771250Y-115789833D01*
X171704583Y-115823166D01*
X171504583Y-115823166D01*
X171437916Y-115789833D01*
X171404583Y-115756500D01*
X173644583Y-115420000D02*
X173644583Y-115886666D01*
X173477916Y-115153333D02*
X173311250Y-115653333D01*
X173744583Y-115653333D01*
X174311250Y-115420000D02*
X174311250Y-115886666D01*
X174144583Y-115153333D02*
X173977916Y-115653333D01*
X174411250Y-115653333D01*
X176311583Y-115420000D02*
X176311583Y-115886666D01*
X176144916Y-115153333D02*
X175978250Y-115653333D01*
X176411583Y-115653333D01*
X177011583Y-115186666D02*
X176678250Y-115186666D01*
X176644916Y-115520000D01*
X176678250Y-115486666D01*
X176744916Y-115453333D01*
X176911583Y-115453333D01*
X176978250Y-115486666D01*
X177011583Y-115520000D01*
X177044916Y-115586666D01*
X177044916Y-115753333D01*
X177011583Y-115820000D01*
X176978250Y-115853333D01*
X176911583Y-115886666D01*
X176744916Y-115886666D01*
X176678250Y-115853333D01*
X176644916Y-115820000D01*
X178788083Y-115420000D02*
X178788083Y-115886666D01*
X178621416Y-115153333D02*
X178454750Y-115653333D01*
X178888083Y-115653333D01*
X179454750Y-115186666D02*
X179321416Y-115186666D01*
X179254750Y-115220000D01*
X179221416Y-115253333D01*
X179154750Y-115353333D01*
X179121416Y-115486666D01*
X179121416Y-115753333D01*
X179154750Y-115820000D01*
X179188083Y-115853333D01*
X179254750Y-115886666D01*
X179388083Y-115886666D01*
X179454750Y-115853333D01*
X179488083Y-115820000D01*
X179521416Y-115753333D01*
X179521416Y-115586666D01*
X179488083Y-115520000D01*
X179454750Y-115486666D01*
X179388083Y-115453333D01*
X179254750Y-115453333D01*
X179188083Y-115486666D01*
X179154750Y-115520000D01*
X179121416Y-115586666D01*
D12*
X133897619Y-98730357D02*
X133897619Y-99349404D01*
X133516666Y-99016071D01*
X133516666Y-99158928D01*
X133469047Y-99254166D01*
X133421428Y-99301785D01*
X133326190Y-99349404D01*
X133088095Y-99349404D01*
X132992857Y-99301785D01*
X132945238Y-99254166D01*
X132897619Y-99158928D01*
X132897619Y-98873214D01*
X132945238Y-98777976D01*
X132992857Y-98730357D01*
X133897619Y-99635119D02*
X132897619Y-99968452D01*
X133897619Y-100301785D01*
X133897619Y-100539880D02*
X133897619Y-101158928D01*
X133516666Y-100825595D01*
X133516666Y-100968452D01*
X133469047Y-101063690D01*
X133421428Y-101111309D01*
X133326190Y-101158928D01*
X133088095Y-101158928D01*
X132992857Y-101111309D01*
X132945238Y-101063690D01*
X132897619Y-100968452D01*
X132897619Y-100682738D01*
X132945238Y-100587500D01*
X132992857Y-100539880D01*
X131310000Y-99222404D02*
X131357619Y-99127166D01*
X131357619Y-98984309D01*
X131310000Y-98841452D01*
X131214761Y-98746214D01*
X131119523Y-98698595D01*
X130929047Y-98650976D01*
X130786190Y-98650976D01*
X130595714Y-98698595D01*
X130500476Y-98746214D01*
X130405238Y-98841452D01*
X130357619Y-98984309D01*
X130357619Y-99079547D01*
X130405238Y-99222404D01*
X130452857Y-99270023D01*
X130786190Y-99270023D01*
X130786190Y-99079547D01*
X130357619Y-99698595D02*
X131357619Y-99698595D01*
X130357619Y-100270023D01*
X131357619Y-100270023D01*
X130357619Y-100746214D02*
X131357619Y-100746214D01*
X131357619Y-100984309D01*
X131310000Y-101127166D01*
X131214761Y-101222404D01*
X131119523Y-101270023D01*
X130929047Y-101317642D01*
X130786190Y-101317642D01*
X130595714Y-101270023D01*
X130500476Y-101222404D01*
X130405238Y-101127166D01*
X130357619Y-100984309D01*
X130357619Y-100746214D01*
D10*
X140589833Y-95579583D02*
X140589833Y-95179583D01*
X140589833Y-95379583D02*
X141289833Y-95379583D01*
X141189833Y-95312916D01*
X141123166Y-95246250D01*
X141089833Y-95179583D01*
X141289833Y-95812916D02*
X141289833Y-96279583D01*
X140589833Y-95979583D01*
X143256833Y-95579583D02*
X143256833Y-95179583D01*
X143256833Y-95379583D02*
X143956833Y-95379583D01*
X143856833Y-95312916D01*
X143790166Y-95246250D01*
X143756833Y-95179583D01*
X143956833Y-96179583D02*
X143956833Y-96046250D01*
X143923500Y-95979583D01*
X143890166Y-95946250D01*
X143790166Y-95879583D01*
X143656833Y-95846250D01*
X143390166Y-95846250D01*
X143323500Y-95879583D01*
X143290166Y-95912916D01*
X143256833Y-95979583D01*
X143256833Y-96112916D01*
X143290166Y-96179583D01*
X143323500Y-96212916D01*
X143390166Y-96246250D01*
X143556833Y-96246250D01*
X143623500Y-96212916D01*
X143656833Y-96179583D01*
X143690166Y-96112916D01*
X143690166Y-95979583D01*
X143656833Y-95912916D01*
X143623500Y-95879583D01*
X143556833Y-95846250D01*
X145733333Y-95579583D02*
X145733333Y-95179583D01*
X145733333Y-95379583D02*
X146433333Y-95379583D01*
X146333333Y-95312916D01*
X146266666Y-95246250D01*
X146233333Y-95179583D01*
X146433333Y-96212916D02*
X146433333Y-95879583D01*
X146100000Y-95846250D01*
X146133333Y-95879583D01*
X146166666Y-95946250D01*
X146166666Y-96112916D01*
X146133333Y-96179583D01*
X146100000Y-96212916D01*
X146033333Y-96246250D01*
X145866666Y-96246250D01*
X145800000Y-96212916D01*
X145766666Y-96179583D01*
X145733333Y-96112916D01*
X145733333Y-95946250D01*
X145766666Y-95879583D01*
X145800000Y-95846250D01*
X148273333Y-95579583D02*
X148273333Y-95179583D01*
X148273333Y-95379583D02*
X148973333Y-95379583D01*
X148873333Y-95312916D01*
X148806666Y-95246250D01*
X148773333Y-95179583D01*
X148740000Y-96179583D02*
X148273333Y-96179583D01*
X149006666Y-96012916D02*
X148506666Y-95846250D01*
X148506666Y-96279583D01*
X150813333Y-95579583D02*
X150813333Y-95179583D01*
X150813333Y-95379583D02*
X151513333Y-95379583D01*
X151413333Y-95312916D01*
X151346666Y-95246250D01*
X151313333Y-95179583D01*
X151513333Y-95812916D02*
X151513333Y-96246250D01*
X151246666Y-96012916D01*
X151246666Y-96112916D01*
X151213333Y-96179583D01*
X151180000Y-96212916D01*
X151113333Y-96246250D01*
X150946666Y-96246250D01*
X150880000Y-96212916D01*
X150846666Y-96179583D01*
X150813333Y-96112916D01*
X150813333Y-95912916D01*
X150846666Y-95846250D01*
X150880000Y-95812916D01*
X152845333Y-95579583D02*
X152845333Y-95179583D01*
X152845333Y-95379583D02*
X153545333Y-95379583D01*
X153445333Y-95312916D01*
X153378666Y-95246250D01*
X153345333Y-95179583D01*
X153478666Y-95846250D02*
X153512000Y-95879583D01*
X153545333Y-95946250D01*
X153545333Y-96112916D01*
X153512000Y-96179583D01*
X153478666Y-96212916D01*
X153412000Y-96246250D01*
X153345333Y-96246250D01*
X153245333Y-96212916D01*
X152845333Y-95812916D01*
X152845333Y-96246250D01*
X156158583Y-95757166D02*
X155758583Y-95757166D01*
X155958583Y-95757166D02*
X155958583Y-95057166D01*
X155891916Y-95157166D01*
X155825250Y-95223833D01*
X155758583Y-95257166D01*
X156825250Y-95757166D02*
X156425250Y-95757166D01*
X156625250Y-95757166D02*
X156625250Y-95057166D01*
X156558583Y-95157166D01*
X156491916Y-95223833D01*
X156425250Y-95257166D01*
X158762083Y-95757166D02*
X158362083Y-95757166D01*
X158562083Y-95757166D02*
X158562083Y-95057166D01*
X158495416Y-95157166D01*
X158428750Y-95223833D01*
X158362083Y-95257166D01*
X159195416Y-95057166D02*
X159262083Y-95057166D01*
X159328750Y-95090500D01*
X159362083Y-95123833D01*
X159395416Y-95190500D01*
X159428750Y-95323833D01*
X159428750Y-95490500D01*
X159395416Y-95623833D01*
X159362083Y-95690500D01*
X159328750Y-95723833D01*
X159262083Y-95757166D01*
X159195416Y-95757166D01*
X159128750Y-95723833D01*
X159095416Y-95690500D01*
X159062083Y-95623833D01*
X159028750Y-95490500D01*
X159028750Y-95323833D01*
X159062083Y-95190500D01*
X159095416Y-95123833D01*
X159128750Y-95090500D01*
X159195416Y-95057166D01*
X135573333Y-95563750D02*
X135573333Y-95697083D01*
X135606666Y-95763750D01*
X135640000Y-95797083D01*
X135740000Y-95863750D01*
X135873333Y-95897083D01*
X136140000Y-95897083D01*
X136206666Y-95863750D01*
X136240000Y-95830416D01*
X136273333Y-95763750D01*
X136273333Y-95630416D01*
X136240000Y-95563750D01*
X136206666Y-95530416D01*
X136140000Y-95497083D01*
X135973333Y-95497083D01*
X135906666Y-95530416D01*
X135873333Y-95563750D01*
X135840000Y-95630416D01*
X135840000Y-95763750D01*
X135873333Y-95830416D01*
X135906666Y-95863750D01*
X135973333Y-95897083D01*
X138513333Y-95630416D02*
X138546666Y-95563750D01*
X138580000Y-95530416D01*
X138646666Y-95497083D01*
X138680000Y-95497083D01*
X138746666Y-95530416D01*
X138780000Y-95563750D01*
X138813333Y-95630416D01*
X138813333Y-95763750D01*
X138780000Y-95830416D01*
X138746666Y-95863750D01*
X138680000Y-95897083D01*
X138646666Y-95897083D01*
X138580000Y-95863750D01*
X138546666Y-95830416D01*
X138513333Y-95763750D01*
X138513333Y-95630416D01*
X138480000Y-95563750D01*
X138446666Y-95530416D01*
X138380000Y-95497083D01*
X138246666Y-95497083D01*
X138180000Y-95530416D01*
X138146666Y-95563750D01*
X138113333Y-95630416D01*
X138113333Y-95763750D01*
X138146666Y-95830416D01*
X138180000Y-95863750D01*
X138246666Y-95897083D01*
X138380000Y-95897083D01*
X138446666Y-95863750D01*
X138480000Y-95830416D01*
X138513333Y-95763750D01*
X161482833Y-95146250D02*
X161482833Y-95612916D01*
X160782833Y-95312916D01*
X164213333Y-95512916D02*
X164213333Y-95379583D01*
X164180000Y-95312916D01*
X164146666Y-95279583D01*
X164046666Y-95212916D01*
X163913333Y-95179583D01*
X163646666Y-95179583D01*
X163580000Y-95212916D01*
X163546666Y-95246250D01*
X163513333Y-95312916D01*
X163513333Y-95446250D01*
X163546666Y-95512916D01*
X163580000Y-95546250D01*
X163646666Y-95579583D01*
X163813333Y-95579583D01*
X163880000Y-95546250D01*
X163913333Y-95512916D01*
X163946666Y-95446250D01*
X163946666Y-95312916D01*
X163913333Y-95246250D01*
X163880000Y-95212916D01*
X163813333Y-95179583D01*
X166753333Y-95546250D02*
X166753333Y-95212916D01*
X166420000Y-95179583D01*
X166453333Y-95212916D01*
X166486666Y-95279583D01*
X166486666Y-95446250D01*
X166453333Y-95512916D01*
X166420000Y-95546250D01*
X166353333Y-95579583D01*
X166186666Y-95579583D01*
X166120000Y-95546250D01*
X166086666Y-95512916D01*
X166053333Y-95446250D01*
X166053333Y-95279583D01*
X166086666Y-95212916D01*
X166120000Y-95179583D01*
X169060000Y-95512916D02*
X168593333Y-95512916D01*
X169326666Y-95346250D02*
X168826666Y-95179583D01*
X168826666Y-95612916D01*
X171833333Y-95146250D02*
X171833333Y-95579583D01*
X171566666Y-95346250D01*
X171566666Y-95446250D01*
X171533333Y-95512916D01*
X171500000Y-95546250D01*
X171433333Y-95579583D01*
X171266666Y-95579583D01*
X171200000Y-95546250D01*
X171166666Y-95512916D01*
X171133333Y-95446250D01*
X171133333Y-95246250D01*
X171166666Y-95179583D01*
X171200000Y-95146250D01*
X174306666Y-95179583D02*
X174340000Y-95212916D01*
X174373333Y-95279583D01*
X174373333Y-95446250D01*
X174340000Y-95512916D01*
X174306666Y-95546250D01*
X174240000Y-95579583D01*
X174173333Y-95579583D01*
X174073333Y-95546250D01*
X173673333Y-95146250D01*
X173673333Y-95579583D01*
X176213333Y-95579583D02*
X176213333Y-95179583D01*
X176213333Y-95379583D02*
X176913333Y-95379583D01*
X176813333Y-95312916D01*
X176746666Y-95246250D01*
X176713333Y-95179583D01*
X179453333Y-95346250D02*
X179453333Y-95412916D01*
X179420000Y-95479583D01*
X179386666Y-95512916D01*
X179320000Y-95546250D01*
X179186666Y-95579583D01*
X179020000Y-95579583D01*
X178886666Y-95546250D01*
X178820000Y-95512916D01*
X178786666Y-95479583D01*
X178753333Y-95412916D01*
X178753333Y-95346250D01*
X178786666Y-95279583D01*
X178820000Y-95246250D01*
X178886666Y-95212916D01*
X179020000Y-95179583D01*
X179186666Y-95179583D01*
X179320000Y-95212916D01*
X179386666Y-95246250D01*
X179420000Y-95279583D01*
X179453333Y-95346250D01*
D13*
X143180000Y-109134357D02*
X143465714Y-110334357D01*
X143694285Y-109477214D01*
X143922857Y-110334357D01*
X144208571Y-109134357D01*
X144665714Y-110334357D02*
X144665714Y-109134357D01*
X145637142Y-109705785D02*
X145237142Y-109705785D01*
X145237142Y-110334357D02*
X145237142Y-109134357D01*
X145808571Y-109134357D01*
X146265714Y-110334357D02*
X146265714Y-109134357D01*
D12*
X131277214Y-109677285D02*
X130877214Y-109677285D01*
X130877214Y-110305857D02*
X130877214Y-109105857D01*
X131448642Y-109105857D01*
X132591500Y-110305857D02*
X132191500Y-109734428D01*
X131905785Y-110305857D02*
X131905785Y-109105857D01*
X132362928Y-109105857D01*
X132477214Y-109163000D01*
X132534357Y-109220142D01*
X132591500Y-109334428D01*
X132591500Y-109505857D01*
X132534357Y-109620142D01*
X132477214Y-109677285D01*
X132362928Y-109734428D01*
X131905785Y-109734428D01*
X133048642Y-109963000D02*
X133620071Y-109963000D01*
X132934357Y-110305857D02*
X133334357Y-109105857D01*
X133734357Y-110305857D01*
X134134357Y-110305857D02*
X134134357Y-109105857D01*
X134820071Y-110305857D01*
X134820071Y-109105857D01*
X135277214Y-109105857D02*
X136077214Y-109105857D01*
X135277214Y-110305857D01*
X136077214Y-110305857D01*
X136534357Y-110305857D02*
X136534357Y-109105857D01*
X137105785Y-110305857D02*
X137105785Y-109105857D01*
X137791500Y-110305857D01*
X137791500Y-109105857D01*
X138362928Y-110305857D02*
X138362928Y-109105857D01*
X138934357Y-110305857D02*
X138934357Y-109105857D01*
X139620071Y-110305857D01*
X139620071Y-109105857D01*
X140191500Y-110305857D02*
X140191500Y-109105857D01*
X140191500Y-109677285D02*
X140877214Y-109677285D01*
X140877214Y-110305857D02*
X140877214Y-109105857D01*
X141677214Y-109105857D02*
X141905785Y-109105857D01*
X142020071Y-109163000D01*
X142134357Y-109277285D01*
X142191500Y-109505857D01*
X142191500Y-109905857D01*
X142134357Y-110134428D01*
X142020071Y-110248714D01*
X141905785Y-110305857D01*
X141677214Y-110305857D01*
X141562928Y-110248714D01*
X141448642Y-110134428D01*
X141391500Y-109905857D01*
X141391500Y-109505857D01*
X141448642Y-109277285D01*
X141562928Y-109163000D01*
X141677214Y-109105857D01*
D14*
X148987742Y-111266500D02*
X149462258Y-111266500D01*
X148987742Y-110221500D02*
X149462258Y-110221500D01*
X149084420Y-112841500D02*
X149365580Y-112841500D01*
X149084420Y-111821500D02*
X149365580Y-111821500D01*
X148987742Y-108091500D02*
X149462258Y-108091500D01*
X148987742Y-107046500D02*
X149462258Y-107046500D01*
X149462258Y-106504000D02*
X148987742Y-106504000D01*
X149462258Y-105459000D02*
X148987742Y-105459000D01*
X184385000Y-96410000D02*
X177635000Y-96410000D01*
X177635000Y-114410000D02*
X184385000Y-114410000D01*
X153385000Y-114410000D02*
X153385000Y-112910000D01*
X153635000Y-114410000D02*
X153385000Y-114410000D01*
X153385000Y-96410000D02*
X153385000Y-97910000D01*
X153635000Y-96410000D02*
X153385000Y-96410000D01*
X184385000Y-96410000D02*
X184385000Y-114410000D01*
X178085000Y-114410000D02*
X178085000Y-96410000D01*
X149084420Y-101792500D02*
X149365580Y-101792500D01*
X149084420Y-100772500D02*
X149365580Y-100772500D01*
X146950000Y-100625000D02*
X144500000Y-100625000D01*
X145150000Y-103845000D02*
X146950000Y-103845000D01*
X127979000Y-103710000D02*
X127529000Y-103710000D01*
X127979000Y-103710000D02*
X127979000Y-104160000D01*
X127429000Y-109310000D02*
X127429000Y-108860000D01*
X125579000Y-109310000D02*
X127429000Y-109310000D01*
X123029000Y-101510000D02*
X123279000Y-101510000D01*
X123029000Y-109310000D02*
X123279000Y-109310000D01*
X125579000Y-101510000D02*
X127429000Y-101510000D01*
X127429000Y-101510000D02*
X127429000Y-101960000D01*
X149084420Y-99185000D02*
X149365580Y-99185000D01*
X149084420Y-100205000D02*
X149365580Y-100205000D01*
X148987742Y-102347500D02*
X149462258Y-102347500D01*
X148987742Y-103392500D02*
X149462258Y-103392500D01*
X142634580Y-100264500D02*
X142353420Y-100264500D01*
X142634580Y-101284500D02*
X142353420Y-101284500D01*
X149084420Y-108646500D02*
X149365580Y-108646500D01*
X149084420Y-109666500D02*
X149365580Y-109666500D01*
X149084420Y-103884000D02*
X149365580Y-103884000D01*
X149084420Y-104904000D02*
X149365580Y-104904000D01*
X143979000Y-104802000D02*
X141694000Y-104802000D01*
X143979000Y-106272000D02*
X143979000Y-104802000D01*
X141694000Y-106272000D02*
X143979000Y-106272000D01*
X142731258Y-103427000D02*
X142256742Y-103427000D01*
X142731258Y-104472000D02*
X142256742Y-104472000D01*
X124165000Y-113460000D02*
X128565000Y-113460000D01*
X128565000Y-113460000D02*
X128565000Y-113340000D01*
X128565000Y-112330000D02*
X128565000Y-111190000D01*
X128565000Y-110180000D02*
X128565000Y-110060000D01*
X128565000Y-110060000D02*
X124165000Y-110060000D01*
X124165000Y-110060000D02*
X124165000Y-110180000D01*
X124165000Y-111190000D02*
X124165000Y-112330000D01*
X124165000Y-113340000D02*
X124165000Y-113460000D01*
X124165000Y-100640000D02*
X124165000Y-100760000D01*
X124165000Y-98490000D02*
X124165000Y-99630000D01*
X124165000Y-97360000D02*
X124165000Y-97480000D01*
X128565000Y-97360000D02*
X124165000Y-97360000D01*
X128565000Y-97480000D02*
X128565000Y-97360000D01*
X128565000Y-99630000D02*
X128565000Y-98490000D01*
X128565000Y-100760000D02*
X128565000Y-100640000D01*
X124165000Y-100760000D02*
X128565000Y-100760000D01*
X142634580Y-98677000D02*
X142353420Y-98677000D01*
X142634580Y-99697000D02*
X142353420Y-99697000D01*
X145782420Y-98677000D02*
X146063580Y-98677000D01*
X145782420Y-99697000D02*
X146063580Y-99697000D01*
X145782420Y-106047000D02*
X146063580Y-106047000D01*
X145782420Y-105027000D02*
X146063580Y-105027000D01*
X142256742Y-102884500D02*
X142731258Y-102884500D01*
X142256742Y-101839500D02*
X142731258Y-101839500D01*
X131710000Y-105070000D02*
X129260000Y-105070000D01*
X129910000Y-108290000D02*
X131710000Y-108290000D01*
X133010000Y-104378000D02*
X129160000Y-104378000D01*
X133010000Y-102378000D02*
X129160000Y-102378000D01*
X133010000Y-104378000D02*
X133010000Y-102378000D01*
X149462258Y-113396500D02*
X148987742Y-113396500D01*
X149462258Y-114441500D02*
X148987742Y-114441500D01*
X146287258Y-108472500D02*
X145812742Y-108472500D01*
X146287258Y-107427500D02*
X145812742Y-107427500D01*
X183426000Y-115851000D02*
X181141000Y-115851000D01*
X181141000Y-115851000D02*
X181141000Y-117321000D01*
X181141000Y-117321000D02*
X183426000Y-117321000D01*
X181141000Y-94969000D02*
X183426000Y-94969000D01*
X181141000Y-93499000D02*
X181141000Y-94969000D01*
X183426000Y-93499000D02*
X181141000Y-93499000D01*
D11*
X181551666Y-110171904D02*
X181551666Y-109695714D01*
X181837380Y-110267142D02*
X180837380Y-109933809D01*
X181837380Y-109600476D01*
X181170714Y-109267142D02*
X181837380Y-109267142D01*
X181265952Y-109267142D02*
X181218333Y-109219523D01*
X181170714Y-109124285D01*
X181170714Y-108981428D01*
X181218333Y-108886190D01*
X181313571Y-108838571D01*
X181837380Y-108838571D01*
X181170714Y-108505238D02*
X181170714Y-108124285D01*
X180837380Y-108362380D02*
X181694523Y-108362380D01*
X181789761Y-108314761D01*
X181837380Y-108219523D01*
X181837380Y-108124285D01*
X181789761Y-107410000D02*
X181837380Y-107505238D01*
X181837380Y-107695714D01*
X181789761Y-107790952D01*
X181694523Y-107838571D01*
X181313571Y-107838571D01*
X181218333Y-107790952D01*
X181170714Y-107695714D01*
X181170714Y-107505238D01*
X181218333Y-107410000D01*
X181313571Y-107362380D01*
X181408809Y-107362380D01*
X181504047Y-107838571D01*
X181170714Y-106933809D02*
X181837380Y-106933809D01*
X181265952Y-106933809D02*
X181218333Y-106886190D01*
X181170714Y-106790952D01*
X181170714Y-106648095D01*
X181218333Y-106552857D01*
X181313571Y-106505238D01*
X181837380Y-106505238D01*
X181170714Y-106029047D02*
X181837380Y-106029047D01*
X181265952Y-106029047D02*
X181218333Y-105981428D01*
X181170714Y-105886190D01*
X181170714Y-105743333D01*
X181218333Y-105648095D01*
X181313571Y-105600476D01*
X181837380Y-105600476D01*
X181837380Y-104695714D02*
X181313571Y-104695714D01*
X181218333Y-104743333D01*
X181170714Y-104838571D01*
X181170714Y-105029047D01*
X181218333Y-105124285D01*
X181789761Y-104695714D02*
X181837380Y-104790952D01*
X181837380Y-105029047D01*
X181789761Y-105124285D01*
X181694523Y-105171904D01*
X181599285Y-105171904D01*
X181504047Y-105124285D01*
X181456428Y-105029047D01*
X181456428Y-104790952D01*
X181408809Y-104695714D01*
X181551666Y-103505238D02*
X181551666Y-103029047D01*
X181837380Y-103600476D02*
X180837380Y-103267142D01*
X181837380Y-102933809D01*
X181837380Y-102600476D02*
X181170714Y-102600476D01*
X181361190Y-102600476D02*
X181265952Y-102552857D01*
X181218333Y-102505238D01*
X181170714Y-102410000D01*
X181170714Y-102314761D01*
X181789761Y-101600476D02*
X181837380Y-101695714D01*
X181837380Y-101886190D01*
X181789761Y-101981428D01*
X181694523Y-102029047D01*
X181313571Y-102029047D01*
X181218333Y-101981428D01*
X181170714Y-101886190D01*
X181170714Y-101695714D01*
X181218333Y-101600476D01*
X181313571Y-101552857D01*
X181408809Y-101552857D01*
X181504047Y-102029047D01*
X181837380Y-100695714D02*
X181313571Y-100695714D01*
X181218333Y-100743333D01*
X181170714Y-100838571D01*
X181170714Y-101029047D01*
X181218333Y-101124285D01*
X181789761Y-100695714D02*
X181837380Y-100790952D01*
X181837380Y-101029047D01*
X181789761Y-101124285D01*
X181694523Y-101171904D01*
X181599285Y-101171904D01*
X181504047Y-101124285D01*
X181456428Y-101029047D01*
X181456428Y-100790952D01*
X181408809Y-100695714D01*
M02*
