G04 #@! TF.GenerationSoftware,KiCad,Pcbnew,5.1.12-84ad8e8a86~92~ubuntu21.04.1*
G04 #@! TF.CreationDate,2021-11-28T19:25:36-03:00*
G04 #@! TF.ProjectId,Franzininho WIFI,4672616e-7a69-46e6-996e-686f20574946,rev?*
G04 #@! TF.SameCoordinates,Original*
G04 #@! TF.FileFunction,Paste,Top*
G04 #@! TF.FilePolarity,Positive*
%FSLAX46Y46*%
G04 Gerber Fmt 4.6, Leading zero omitted, Abs format (unit mm)*
G04 Created by KiCad (PCBNEW 5.1.12-84ad8e8a86~92~ubuntu21.04.1) date 2021-11-28 19:25:36*
%MOMM*%
%LPD*%
G01*
G04 APERTURE LIST*
%ADD10R,0.900000X1.500000*%
%ADD11R,1.500000X0.900000*%
%ADD12R,1.100000X1.100000*%
%ADD13R,1.060000X0.650000*%
%ADD14R,1.900000X1.500000*%
%ADD15R,1.350000X0.400000*%
%ADD16R,1.050000X0.650000*%
G04 APERTURE END LIST*
G36*
G01*
X143225000Y-108206250D02*
X143225000Y-107693750D01*
G75*
G02*
X143443750Y-107475000I218750J0D01*
G01*
X143881250Y-107475000D01*
G75*
G02*
X144100000Y-107693750I0J-218750D01*
G01*
X144100000Y-108206250D01*
G75*
G02*
X143881250Y-108425000I-218750J0D01*
G01*
X143443750Y-108425000D01*
G75*
G02*
X143225000Y-108206250I0J218750D01*
G01*
G37*
G36*
G01*
X141650000Y-108206250D02*
X141650000Y-107693750D01*
G75*
G02*
X141868750Y-107475000I218750J0D01*
G01*
X142306250Y-107475000D01*
G75*
G02*
X142525000Y-107693750I0J-218750D01*
G01*
X142525000Y-108206250D01*
G75*
G02*
X142306250Y-108425000I-218750J0D01*
G01*
X141868750Y-108425000D01*
G75*
G02*
X141650000Y-108206250I0J218750D01*
G01*
G37*
G36*
G01*
X149650000Y-111019000D02*
X149650000Y-110469000D01*
G75*
G02*
X149850000Y-110269000I200000J0D01*
G01*
X150250000Y-110269000D01*
G75*
G02*
X150450000Y-110469000I0J-200000D01*
G01*
X150450000Y-111019000D01*
G75*
G02*
X150250000Y-111219000I-200000J0D01*
G01*
X149850000Y-111219000D01*
G75*
G02*
X149650000Y-111019000I0J200000D01*
G01*
G37*
G36*
G01*
X148000000Y-111019000D02*
X148000000Y-110469000D01*
G75*
G02*
X148200000Y-110269000I200000J0D01*
G01*
X148600000Y-110269000D01*
G75*
G02*
X148800000Y-110469000I0J-200000D01*
G01*
X148800000Y-111019000D01*
G75*
G02*
X148600000Y-111219000I-200000J0D01*
G01*
X148200000Y-111219000D01*
G75*
G02*
X148000000Y-111019000I0J200000D01*
G01*
G37*
G36*
G01*
X150450000Y-112081500D02*
X150450000Y-112581500D01*
G75*
G02*
X150225000Y-112806500I-225000J0D01*
G01*
X149775000Y-112806500D01*
G75*
G02*
X149550000Y-112581500I0J225000D01*
G01*
X149550000Y-112081500D01*
G75*
G02*
X149775000Y-111856500I225000J0D01*
G01*
X150225000Y-111856500D01*
G75*
G02*
X150450000Y-112081500I0J-225000D01*
G01*
G37*
G36*
G01*
X148900000Y-112081500D02*
X148900000Y-112581500D01*
G75*
G02*
X148675000Y-112806500I-225000J0D01*
G01*
X148225000Y-112806500D01*
G75*
G02*
X148000000Y-112581500I0J225000D01*
G01*
X148000000Y-112081500D01*
G75*
G02*
X148225000Y-111856500I225000J0D01*
G01*
X148675000Y-111856500D01*
G75*
G02*
X148900000Y-112081500I0J-225000D01*
G01*
G37*
G36*
G01*
X148381000Y-107844000D02*
X148381000Y-107294000D01*
G75*
G02*
X148581000Y-107094000I200000J0D01*
G01*
X148981000Y-107094000D01*
G75*
G02*
X149181000Y-107294000I0J-200000D01*
G01*
X149181000Y-107844000D01*
G75*
G02*
X148981000Y-108044000I-200000J0D01*
G01*
X148581000Y-108044000D01*
G75*
G02*
X148381000Y-107844000I0J200000D01*
G01*
G37*
G36*
G01*
X150031000Y-107844000D02*
X150031000Y-107294000D01*
G75*
G02*
X150231000Y-107094000I200000J0D01*
G01*
X150631000Y-107094000D01*
G75*
G02*
X150831000Y-107294000I0J-200000D01*
G01*
X150831000Y-107844000D01*
G75*
G02*
X150631000Y-108044000I-200000J0D01*
G01*
X150231000Y-108044000D01*
G75*
G02*
X150031000Y-107844000I0J200000D01*
G01*
G37*
G36*
G01*
X149181000Y-105706500D02*
X149181000Y-106256500D01*
G75*
G02*
X148981000Y-106456500I-200000J0D01*
G01*
X148581000Y-106456500D01*
G75*
G02*
X148381000Y-106256500I0J200000D01*
G01*
X148381000Y-105706500D01*
G75*
G02*
X148581000Y-105506500I200000J0D01*
G01*
X148981000Y-105506500D01*
G75*
G02*
X149181000Y-105706500I0J-200000D01*
G01*
G37*
G36*
G01*
X150831000Y-105706500D02*
X150831000Y-106256500D01*
G75*
G02*
X150631000Y-106456500I-200000J0D01*
G01*
X150231000Y-106456500D01*
G75*
G02*
X150031000Y-106256500I0J200000D01*
G01*
X150031000Y-105706500D01*
G75*
G02*
X150231000Y-105506500I200000J0D01*
G01*
X150631000Y-105506500D01*
G75*
G02*
X150831000Y-105706500I0J-200000D01*
G01*
G37*
D10*
X154385000Y-96660000D03*
X155885000Y-96660000D03*
X157385000Y-96660000D03*
X158885000Y-96660000D03*
X160385000Y-96660000D03*
X161885000Y-96660000D03*
X163385000Y-96660000D03*
X164885000Y-96660000D03*
X166385000Y-96660000D03*
X167885000Y-96660000D03*
X169385000Y-96660000D03*
X170885000Y-96660000D03*
X172385000Y-96660000D03*
X173885000Y-96660000D03*
X175385000Y-96660000D03*
X176885000Y-96660000D03*
D11*
X153635000Y-98660000D03*
X153635000Y-100160000D03*
X153635000Y-101660000D03*
X153635000Y-103160000D03*
X153635000Y-104660000D03*
X153635000Y-106160000D03*
X153635000Y-107660000D03*
X153635000Y-109160000D03*
X153635000Y-110660000D03*
X153635000Y-112160000D03*
D10*
X154385000Y-114160000D03*
X155885000Y-114160000D03*
X157385000Y-114160000D03*
X158885000Y-114160000D03*
X160385000Y-114160000D03*
X161885000Y-114160000D03*
X163385000Y-114160000D03*
X164885000Y-114160000D03*
X166385000Y-114160000D03*
X167885000Y-114160000D03*
X169385000Y-114160000D03*
X170885000Y-114160000D03*
X172385000Y-114160000D03*
X173885000Y-114160000D03*
X175385000Y-114160000D03*
X176885000Y-114160000D03*
D12*
X168835000Y-104220000D03*
X170385000Y-104220000D03*
X170385000Y-105720000D03*
X168835000Y-105720000D03*
X167335000Y-105720000D03*
X167335000Y-104220000D03*
X167335000Y-102720000D03*
X168835000Y-102720000D03*
X170385000Y-102720000D03*
G36*
G01*
X148381000Y-101532500D02*
X148381000Y-101032500D01*
G75*
G02*
X148606000Y-100807500I225000J0D01*
G01*
X149056000Y-100807500D01*
G75*
G02*
X149281000Y-101032500I0J-225000D01*
G01*
X149281000Y-101532500D01*
G75*
G02*
X149056000Y-101757500I-225000J0D01*
G01*
X148606000Y-101757500D01*
G75*
G02*
X148381000Y-101532500I0J225000D01*
G01*
G37*
G36*
G01*
X149931000Y-101532500D02*
X149931000Y-101032500D01*
G75*
G02*
X150156000Y-100807500I225000J0D01*
G01*
X150606000Y-100807500D01*
G75*
G02*
X150831000Y-101032500I0J-225000D01*
G01*
X150831000Y-101532500D01*
G75*
G02*
X150606000Y-101757500I-225000J0D01*
G01*
X150156000Y-101757500D01*
G75*
G02*
X149931000Y-101532500I0J225000D01*
G01*
G37*
D13*
X144950000Y-101285000D03*
X144950000Y-102235000D03*
X144950000Y-103185000D03*
X147150000Y-103185000D03*
X147150000Y-101285000D03*
D14*
X121952500Y-106410000D03*
D15*
X124652500Y-104760000D03*
X124652500Y-104110000D03*
X124652500Y-106710000D03*
X124652500Y-106060000D03*
X124652500Y-105410000D03*
D14*
X121952500Y-104410000D03*
G36*
G01*
X148381000Y-99945000D02*
X148381000Y-99445000D01*
G75*
G02*
X148606000Y-99220000I225000J0D01*
G01*
X149056000Y-99220000D01*
G75*
G02*
X149281000Y-99445000I0J-225000D01*
G01*
X149281000Y-99945000D01*
G75*
G02*
X149056000Y-100170000I-225000J0D01*
G01*
X148606000Y-100170000D01*
G75*
G02*
X148381000Y-99945000I0J225000D01*
G01*
G37*
G36*
G01*
X149931000Y-99945000D02*
X149931000Y-99445000D01*
G75*
G02*
X150156000Y-99220000I225000J0D01*
G01*
X150606000Y-99220000D01*
G75*
G02*
X150831000Y-99445000I0J-225000D01*
G01*
X150831000Y-99945000D01*
G75*
G02*
X150606000Y-100170000I-225000J0D01*
G01*
X150156000Y-100170000D01*
G75*
G02*
X149931000Y-99945000I0J225000D01*
G01*
G37*
G36*
G01*
X148381000Y-103145000D02*
X148381000Y-102595000D01*
G75*
G02*
X148581000Y-102395000I200000J0D01*
G01*
X148981000Y-102395000D01*
G75*
G02*
X149181000Y-102595000I0J-200000D01*
G01*
X149181000Y-103145000D01*
G75*
G02*
X148981000Y-103345000I-200000J0D01*
G01*
X148581000Y-103345000D01*
G75*
G02*
X148381000Y-103145000I0J200000D01*
G01*
G37*
G36*
G01*
X150031000Y-103145000D02*
X150031000Y-102595000D01*
G75*
G02*
X150231000Y-102395000I200000J0D01*
G01*
X150631000Y-102395000D01*
G75*
G02*
X150831000Y-102595000I0J-200000D01*
G01*
X150831000Y-103145000D01*
G75*
G02*
X150631000Y-103345000I-200000J0D01*
G01*
X150231000Y-103345000D01*
G75*
G02*
X150031000Y-103145000I0J200000D01*
G01*
G37*
G36*
G01*
X143719000Y-100524500D02*
X143719000Y-101024500D01*
G75*
G02*
X143494000Y-101249500I-225000J0D01*
G01*
X143044000Y-101249500D01*
G75*
G02*
X142819000Y-101024500I0J225000D01*
G01*
X142819000Y-100524500D01*
G75*
G02*
X143044000Y-100299500I225000J0D01*
G01*
X143494000Y-100299500D01*
G75*
G02*
X143719000Y-100524500I0J-225000D01*
G01*
G37*
G36*
G01*
X142169000Y-100524500D02*
X142169000Y-101024500D01*
G75*
G02*
X141944000Y-101249500I-225000J0D01*
G01*
X141494000Y-101249500D01*
G75*
G02*
X141269000Y-101024500I0J225000D01*
G01*
X141269000Y-100524500D01*
G75*
G02*
X141494000Y-100299500I225000J0D01*
G01*
X141944000Y-100299500D01*
G75*
G02*
X142169000Y-100524500I0J-225000D01*
G01*
G37*
G36*
G01*
X149281000Y-108906500D02*
X149281000Y-109406500D01*
G75*
G02*
X149056000Y-109631500I-225000J0D01*
G01*
X148606000Y-109631500D01*
G75*
G02*
X148381000Y-109406500I0J225000D01*
G01*
X148381000Y-108906500D01*
G75*
G02*
X148606000Y-108681500I225000J0D01*
G01*
X149056000Y-108681500D01*
G75*
G02*
X149281000Y-108906500I0J-225000D01*
G01*
G37*
G36*
G01*
X150831000Y-108906500D02*
X150831000Y-109406500D01*
G75*
G02*
X150606000Y-109631500I-225000J0D01*
G01*
X150156000Y-109631500D01*
G75*
G02*
X149931000Y-109406500I0J225000D01*
G01*
X149931000Y-108906500D01*
G75*
G02*
X150156000Y-108681500I225000J0D01*
G01*
X150606000Y-108681500D01*
G75*
G02*
X150831000Y-108906500I0J-225000D01*
G01*
G37*
G36*
G01*
X149931000Y-104644000D02*
X149931000Y-104144000D01*
G75*
G02*
X150156000Y-103919000I225000J0D01*
G01*
X150606000Y-103919000D01*
G75*
G02*
X150831000Y-104144000I0J-225000D01*
G01*
X150831000Y-104644000D01*
G75*
G02*
X150606000Y-104869000I-225000J0D01*
G01*
X150156000Y-104869000D01*
G75*
G02*
X149931000Y-104644000I0J225000D01*
G01*
G37*
G36*
G01*
X148381000Y-104644000D02*
X148381000Y-104144000D01*
G75*
G02*
X148606000Y-103919000I225000J0D01*
G01*
X149056000Y-103919000D01*
G75*
G02*
X149281000Y-104144000I0J-225000D01*
G01*
X149281000Y-104644000D01*
G75*
G02*
X149056000Y-104869000I-225000J0D01*
G01*
X148606000Y-104869000D01*
G75*
G02*
X148381000Y-104644000I0J225000D01*
G01*
G37*
G36*
G01*
X143719000Y-105280750D02*
X143719000Y-105793250D01*
G75*
G02*
X143500250Y-106012000I-218750J0D01*
G01*
X143062750Y-106012000D01*
G75*
G02*
X142844000Y-105793250I0J218750D01*
G01*
X142844000Y-105280750D01*
G75*
G02*
X143062750Y-105062000I218750J0D01*
G01*
X143500250Y-105062000D01*
G75*
G02*
X143719000Y-105280750I0J-218750D01*
G01*
G37*
G36*
G01*
X142144000Y-105280750D02*
X142144000Y-105793250D01*
G75*
G02*
X141925250Y-106012000I-218750J0D01*
G01*
X141487750Y-106012000D01*
G75*
G02*
X141269000Y-105793250I0J218750D01*
G01*
X141269000Y-105280750D01*
G75*
G02*
X141487750Y-105062000I218750J0D01*
G01*
X141925250Y-105062000D01*
G75*
G02*
X142144000Y-105280750I0J-218750D01*
G01*
G37*
G36*
G01*
X143719000Y-103674500D02*
X143719000Y-104224500D01*
G75*
G02*
X143519000Y-104424500I-200000J0D01*
G01*
X143119000Y-104424500D01*
G75*
G02*
X142919000Y-104224500I0J200000D01*
G01*
X142919000Y-103674500D01*
G75*
G02*
X143119000Y-103474500I200000J0D01*
G01*
X143519000Y-103474500D01*
G75*
G02*
X143719000Y-103674500I0J-200000D01*
G01*
G37*
G36*
G01*
X142069000Y-103674500D02*
X142069000Y-104224500D01*
G75*
G02*
X141869000Y-104424500I-200000J0D01*
G01*
X141469000Y-104424500D01*
G75*
G02*
X141269000Y-104224500I0J200000D01*
G01*
X141269000Y-103674500D01*
G75*
G02*
X141469000Y-103474500I200000J0D01*
G01*
X141869000Y-103474500D01*
G75*
G02*
X142069000Y-103674500I0J-200000D01*
G01*
G37*
D16*
X125646000Y-113089000D03*
X121496000Y-113089000D03*
X125646000Y-110939000D03*
X121496000Y-110939000D03*
X121496000Y-97731000D03*
X125646000Y-97731000D03*
X121496000Y-99881000D03*
X125646000Y-99881000D03*
G36*
G01*
X143719000Y-98937000D02*
X143719000Y-99437000D01*
G75*
G02*
X143494000Y-99662000I-225000J0D01*
G01*
X143044000Y-99662000D01*
G75*
G02*
X142819000Y-99437000I0J225000D01*
G01*
X142819000Y-98937000D01*
G75*
G02*
X143044000Y-98712000I225000J0D01*
G01*
X143494000Y-98712000D01*
G75*
G02*
X143719000Y-98937000I0J-225000D01*
G01*
G37*
G36*
G01*
X142169000Y-98937000D02*
X142169000Y-99437000D01*
G75*
G02*
X141944000Y-99662000I-225000J0D01*
G01*
X141494000Y-99662000D01*
G75*
G02*
X141269000Y-99437000I0J225000D01*
G01*
X141269000Y-98937000D01*
G75*
G02*
X141494000Y-98712000I225000J0D01*
G01*
X141944000Y-98712000D01*
G75*
G02*
X142169000Y-98937000I0J-225000D01*
G01*
G37*
G36*
G01*
X146248000Y-99437000D02*
X146248000Y-98937000D01*
G75*
G02*
X146473000Y-98712000I225000J0D01*
G01*
X146923000Y-98712000D01*
G75*
G02*
X147148000Y-98937000I0J-225000D01*
G01*
X147148000Y-99437000D01*
G75*
G02*
X146923000Y-99662000I-225000J0D01*
G01*
X146473000Y-99662000D01*
G75*
G02*
X146248000Y-99437000I0J225000D01*
G01*
G37*
G36*
G01*
X144698000Y-99437000D02*
X144698000Y-98937000D01*
G75*
G02*
X144923000Y-98712000I225000J0D01*
G01*
X145373000Y-98712000D01*
G75*
G02*
X145598000Y-98937000I0J-225000D01*
G01*
X145598000Y-99437000D01*
G75*
G02*
X145373000Y-99662000I-225000J0D01*
G01*
X144923000Y-99662000D01*
G75*
G02*
X144698000Y-99437000I0J225000D01*
G01*
G37*
G36*
G01*
X144698000Y-105787000D02*
X144698000Y-105287000D01*
G75*
G02*
X144923000Y-105062000I225000J0D01*
G01*
X145373000Y-105062000D01*
G75*
G02*
X145598000Y-105287000I0J-225000D01*
G01*
X145598000Y-105787000D01*
G75*
G02*
X145373000Y-106012000I-225000J0D01*
G01*
X144923000Y-106012000D01*
G75*
G02*
X144698000Y-105787000I0J225000D01*
G01*
G37*
G36*
G01*
X146248000Y-105787000D02*
X146248000Y-105287000D01*
G75*
G02*
X146473000Y-105062000I225000J0D01*
G01*
X146923000Y-105062000D01*
G75*
G02*
X147148000Y-105287000I0J-225000D01*
G01*
X147148000Y-105787000D01*
G75*
G02*
X146923000Y-106012000I-225000J0D01*
G01*
X146473000Y-106012000D01*
G75*
G02*
X146248000Y-105787000I0J225000D01*
G01*
G37*
G36*
G01*
X141269000Y-102637000D02*
X141269000Y-102087000D01*
G75*
G02*
X141469000Y-101887000I200000J0D01*
G01*
X141869000Y-101887000D01*
G75*
G02*
X142069000Y-102087000I0J-200000D01*
G01*
X142069000Y-102637000D01*
G75*
G02*
X141869000Y-102837000I-200000J0D01*
G01*
X141469000Y-102837000D01*
G75*
G02*
X141269000Y-102637000I0J200000D01*
G01*
G37*
G36*
G01*
X142919000Y-102637000D02*
X142919000Y-102087000D01*
G75*
G02*
X143119000Y-101887000I200000J0D01*
G01*
X143519000Y-101887000D01*
G75*
G02*
X143719000Y-102087000I0J-200000D01*
G01*
X143719000Y-102637000D01*
G75*
G02*
X143519000Y-102837000I-200000J0D01*
G01*
X143119000Y-102837000D01*
G75*
G02*
X142919000Y-102637000I0J200000D01*
G01*
G37*
D13*
X129710000Y-105730000D03*
X129710000Y-106680000D03*
X129710000Y-107630000D03*
X131910000Y-107630000D03*
X131910000Y-105730000D03*
X131910000Y-106680000D03*
D12*
X132210000Y-103378000D03*
X129410000Y-103378000D03*
G36*
G01*
X150450000Y-113644000D02*
X150450000Y-114194000D01*
G75*
G02*
X150250000Y-114394000I-200000J0D01*
G01*
X149850000Y-114394000D01*
G75*
G02*
X149650000Y-114194000I0J200000D01*
G01*
X149650000Y-113644000D01*
G75*
G02*
X149850000Y-113444000I200000J0D01*
G01*
X150250000Y-113444000D01*
G75*
G02*
X150450000Y-113644000I0J-200000D01*
G01*
G37*
G36*
G01*
X148800000Y-113644000D02*
X148800000Y-114194000D01*
G75*
G02*
X148600000Y-114394000I-200000J0D01*
G01*
X148200000Y-114394000D01*
G75*
G02*
X148000000Y-114194000I0J200000D01*
G01*
X148000000Y-113644000D01*
G75*
G02*
X148200000Y-113444000I200000J0D01*
G01*
X148600000Y-113444000D01*
G75*
G02*
X148800000Y-113644000I0J-200000D01*
G01*
G37*
G36*
G01*
X145625000Y-107675000D02*
X145625000Y-108225000D01*
G75*
G02*
X145425000Y-108425000I-200000J0D01*
G01*
X145025000Y-108425000D01*
G75*
G02*
X144825000Y-108225000I0J200000D01*
G01*
X144825000Y-107675000D01*
G75*
G02*
X145025000Y-107475000I200000J0D01*
G01*
X145425000Y-107475000D01*
G75*
G02*
X145625000Y-107675000I0J-200000D01*
G01*
G37*
G36*
G01*
X147275000Y-107675000D02*
X147275000Y-108225000D01*
G75*
G02*
X147075000Y-108425000I-200000J0D01*
G01*
X146675000Y-108425000D01*
G75*
G02*
X146475000Y-108225000I0J200000D01*
G01*
X146475000Y-107675000D01*
G75*
G02*
X146675000Y-107475000I200000J0D01*
G01*
X147075000Y-107475000D01*
G75*
G02*
X147275000Y-107675000I0J-200000D01*
G01*
G37*
G36*
G01*
X146146000Y-112651250D02*
X146146000Y-112138750D01*
G75*
G02*
X146364750Y-111920000I218750J0D01*
G01*
X146802250Y-111920000D01*
G75*
G02*
X147021000Y-112138750I0J-218750D01*
G01*
X147021000Y-112651250D01*
G75*
G02*
X146802250Y-112870000I-218750J0D01*
G01*
X146364750Y-112870000D01*
G75*
G02*
X146146000Y-112651250I0J218750D01*
G01*
G37*
G36*
G01*
X144571000Y-112651250D02*
X144571000Y-112138750D01*
G75*
G02*
X144789750Y-111920000I218750J0D01*
G01*
X145227250Y-111920000D01*
G75*
G02*
X145446000Y-112138750I0J-218750D01*
G01*
X145446000Y-112651250D01*
G75*
G02*
X145227250Y-112870000I-218750J0D01*
G01*
X144789750Y-112870000D01*
G75*
G02*
X144571000Y-112651250I0J218750D01*
G01*
G37*
M02*
