M48
; DRILL file {KiCad 5.1.10-88a1d61d58~90~ubuntu21.04.1} date Fri Oct 15 14:22:29 2021
; FORMAT={-:-/ absolute / inch / decimal}
; #@! TF.CreationDate,2021-10-15T14:22:29-03:00
; #@! TF.GenerationSoftware,Kicad,Pcbnew,5.1.10-88a1d61d58~90~ubuntu21.04.1
; #@! TF.FileFunction,Plated,1,2,PTH
FMAT,2
INCH
T1C0.0157
T2C0.0236
T3C0.0335
T4C0.0394
%
G90
G05
T1
X4.975Y-3.9
X5.1Y-4.025
X5.15Y-4.075
X5.2475Y-4.2012
X5.65Y-4.25
X5.68Y-4.11
X5.7Y-3.95
X5.725Y-4.1
X5.725Y-4.3
X5.75Y-3.95
X5.8Y-3.95
X5.8Y-4.475
X5.8002Y-4.3302
X5.8209Y-3.8709
X5.86Y-3.84
X5.94Y-4.44
X5.9464Y-4.375
X5.9625Y-4.1325
X5.975Y-4.075
X6.0175Y-4.425
X6.125Y-4.275
X6.15Y-3.875
X6.15Y-4.3786
X6.195Y-4.425
X6.255Y-4.425
X6.3Y-3.875
X6.3225Y-4.03
X6.3225Y-4.2775
X6.375Y-3.875
X6.54Y-4.39
X6.8Y-4.425
X6.85Y-3.875
X6.85Y-4.425
X6.9Y-4.425
X6.95Y-4.335
X6.95Y-4.425
X6.9625Y-3.8875
X7.2Y-3.75
X7.2Y-4.55
T3
X5.0051Y-4.0516
X5.0051Y-4.2484
T4
X5.15Y-3.7
X5.15Y-3.825
X5.15Y-4.6
X5.175Y-4.425
X5.25Y-3.7
X5.25Y-3.825
X5.25Y-4.6
X5.275Y-4.425
X5.35Y-3.7
X5.35Y-3.825
X5.35Y-4.6
X5.375Y-4.425
X5.45Y-3.7
X5.45Y-3.825
X5.45Y-4.6
X5.5Y-4.425
X5.55Y-3.7
X5.55Y-4.6
X5.6Y-4.425
X5.65Y-3.7
X5.65Y-4.6
X5.7Y-4.425
X5.75Y-3.7
X5.75Y-4.6
X5.85Y-3.7
X5.85Y-4.6
X5.95Y-3.7
X5.95Y-4.6
X6.05Y-3.7
X6.05Y-4.6
X6.15Y-3.7
X6.15Y-4.6
X6.25Y-3.7
X6.25Y-4.6
X6.35Y-3.7
X6.35Y-4.6
X6.45Y-3.7
X6.45Y-4.6
X6.55Y-3.7
X6.55Y-4.6
X6.65Y-3.7
X6.65Y-4.6
X6.75Y-3.7
X6.75Y-4.6
X6.85Y-3.7
X6.85Y-4.6
X6.95Y-3.7
X6.95Y-4.6
X7.05Y-3.7
X7.05Y-4.6
T2
G00X4.885Y-4.0122
M15
G01X4.9126Y-4.0122
M16
G05
G00X4.9126Y-4.2878
M15
G01X4.885Y-4.2878
M16
G05
T0
M30
