G04 #@! TF.GenerationSoftware,KiCad,Pcbnew,5.1.10-88a1d61d58~90~ubuntu21.04.1*
G04 #@! TF.CreationDate,2021-10-15T14:22:21-03:00*
G04 #@! TF.ProjectId,Franzininho WIFI,4672616e-7a69-46e6-996e-686f20574946,rev?*
G04 #@! TF.SameCoordinates,Original*
G04 #@! TF.FileFunction,Copper,L2,Bot*
G04 #@! TF.FilePolarity,Positive*
%FSLAX46Y46*%
G04 Gerber Fmt 4.6, Leading zero omitted, Abs format (unit mm)*
G04 Created by KiCad (PCBNEW 5.1.10-88a1d61d58~90~ubuntu21.04.1) date 2021-10-15 14:22:21*
%MOMM*%
%LPD*%
G01*
G04 APERTURE LIST*
G04 #@! TA.AperFunction,ComponentPad*
%ADD10O,1.700000X1.700000*%
G04 #@! TD*
G04 #@! TA.AperFunction,ComponentPad*
%ADD11R,1.700000X1.700000*%
G04 #@! TD*
G04 #@! TA.AperFunction,ComponentPad*
%ADD12C,1.450000*%
G04 #@! TD*
G04 #@! TA.AperFunction,ComponentPad*
%ADD13O,1.900000X1.200000*%
G04 #@! TD*
G04 #@! TA.AperFunction,ViaPad*
%ADD14C,0.800000*%
G04 #@! TD*
G04 #@! TA.AperFunction,ViaPad*
%ADD15C,0.500000*%
G04 #@! TD*
G04 #@! TA.AperFunction,Conductor*
%ADD16C,0.381000*%
G04 #@! TD*
G04 #@! TA.AperFunction,Conductor*
%ADD17C,0.254000*%
G04 #@! TD*
G04 #@! TA.AperFunction,Conductor*
%ADD18C,0.100000*%
G04 #@! TD*
G04 APERTURE END LIST*
D10*
X138430000Y-97155000D03*
X135890000Y-97155000D03*
X133350000Y-97155000D03*
D11*
X130810000Y-97155000D03*
D10*
X179070000Y-93980000D03*
X176530000Y-93980000D03*
X173990000Y-93980000D03*
X171450000Y-93980000D03*
X168910000Y-93980000D03*
X166370000Y-93980000D03*
X163830000Y-93980000D03*
X161290000Y-93980000D03*
X158750000Y-93980000D03*
X156210000Y-93980000D03*
X153670000Y-93980000D03*
X151130000Y-93980000D03*
X148590000Y-93980000D03*
X146050000Y-93980000D03*
X143510000Y-93980000D03*
X140970000Y-93980000D03*
X138430000Y-93980000D03*
X135890000Y-93980000D03*
X133350000Y-93980000D03*
D11*
X130810000Y-93980000D03*
D10*
X179070000Y-116840000D03*
X176530000Y-116840000D03*
X173990000Y-116840000D03*
X171450000Y-116840000D03*
X168910000Y-116840000D03*
X166370000Y-116840000D03*
X163830000Y-116840000D03*
X161290000Y-116840000D03*
X158750000Y-116840000D03*
X156210000Y-116840000D03*
X153670000Y-116840000D03*
X151130000Y-116840000D03*
X148590000Y-116840000D03*
X146050000Y-116840000D03*
X143510000Y-116840000D03*
X140970000Y-116840000D03*
X138430000Y-116840000D03*
X135890000Y-116840000D03*
X133350000Y-116840000D03*
D11*
X130810000Y-116840000D03*
D10*
X144780000Y-112395000D03*
X142240000Y-112395000D03*
D11*
X139700000Y-112395000D03*
X131445000Y-112395000D03*
D10*
X133985000Y-112395000D03*
X136525000Y-112395000D03*
D12*
X127129000Y-102910000D03*
X127129000Y-107910000D03*
D13*
X124429000Y-101910000D03*
X124429000Y-108910000D03*
D14*
X148844000Y-97536000D03*
X146050000Y-100330000D03*
D15*
X152844500Y-112395000D03*
X150876000Y-112776000D03*
X144272000Y-104394000D03*
D14*
X176847500Y-98742500D03*
X176530000Y-110109000D03*
X160591500Y-102362000D03*
X160591500Y-108648500D03*
X166116000Y-111506000D03*
D15*
X151447500Y-104965500D03*
D14*
X147851490Y-98321490D03*
X156210000Y-98425000D03*
X145415000Y-104140000D03*
X147320000Y-100330000D03*
X156210000Y-111217000D03*
X147324550Y-109987755D03*
X133285950Y-106711400D03*
X129540000Y-102235000D03*
X144780000Y-100330000D03*
X130810000Y-103505000D03*
X151765000Y-103505000D03*
X173990000Y-98425000D03*
X126365000Y-99060000D03*
X161925000Y-98425000D03*
X160020000Y-98425000D03*
X155575000Y-108585000D03*
X145415000Y-109220000D03*
X157353000Y-112395000D03*
X158877000Y-112395000D03*
X172720000Y-112395000D03*
X173990000Y-112395000D03*
X175260000Y-112395000D03*
X151038000Y-111125000D03*
X182880000Y-115570000D03*
X147320000Y-113665000D03*
X176530000Y-112395000D03*
X143510000Y-107950000D03*
X182880000Y-95250000D03*
D16*
X147955000Y-98425000D02*
X147851490Y-98321490D01*
X156210000Y-98425000D02*
X147955000Y-98425000D01*
X147747980Y-98425000D02*
X147851490Y-98321490D01*
X133350000Y-97790000D02*
X133985000Y-98425000D01*
X147851490Y-98321490D02*
X147320000Y-97790000D01*
X147320000Y-97790000D02*
X140335000Y-97790000D01*
X140335000Y-97790000D02*
X139700000Y-98425000D01*
X139700000Y-98425000D02*
X133985000Y-98425000D01*
X133350000Y-97790000D02*
X133350000Y-97155000D01*
X147320000Y-102235000D02*
X147320000Y-100330000D01*
X145415000Y-104140000D02*
X147320000Y-102235000D01*
D17*
X146592999Y-110719306D02*
X147324550Y-109987755D01*
X146592999Y-114013961D02*
X146592999Y-110719306D01*
X146971039Y-114392001D02*
X146592999Y-114013961D01*
X152469314Y-114392001D02*
X146971039Y-114392001D01*
X155644315Y-111217000D02*
X152469314Y-114392001D01*
X156210000Y-111217000D02*
X155644315Y-111217000D01*
D16*
X133285950Y-106711400D02*
X131349550Y-104775000D01*
X131349550Y-104775000D02*
X130175000Y-104775000D01*
X129540000Y-104140000D02*
X129540000Y-102235000D01*
X130175000Y-104775000D02*
X129540000Y-104140000D01*
X141605000Y-103505000D02*
X130810000Y-103505000D01*
X144780000Y-100330000D02*
X141605000Y-103505000D01*
X130810000Y-103505000D02*
X132715000Y-103505000D01*
X134076451Y-112303549D02*
X133985000Y-112395000D01*
X134076451Y-104866451D02*
X134076451Y-112303549D01*
X132715000Y-103505000D02*
X134076451Y-104866451D01*
X133985000Y-112395000D02*
X133985000Y-113665000D01*
X135890000Y-115570000D02*
X135890000Y-116840000D01*
X133985000Y-113665000D02*
X135890000Y-115570000D01*
D17*
X141062999Y-114207001D02*
X141062999Y-111032001D01*
X138430000Y-116840000D02*
X141062999Y-114207001D01*
X141062999Y-111032001D02*
X142875000Y-109220000D01*
X144339038Y-109220000D02*
X149419038Y-104140000D01*
X142875000Y-109220000D02*
X144339038Y-109220000D01*
X151130000Y-104140000D02*
X151765000Y-103505000D01*
X149419038Y-104140000D02*
X151130000Y-104140000D01*
X138430000Y-114300000D02*
X136525000Y-112395000D01*
X138430000Y-116840000D02*
X138430000Y-114300000D01*
X173990000Y-98425000D02*
X173990000Y-95885000D01*
X179070000Y-93980000D02*
X177800000Y-95250000D01*
X174625000Y-95250000D02*
X173990000Y-95885000D01*
X177800000Y-95250000D02*
X174625000Y-95250000D01*
X140431868Y-98425000D02*
X146862978Y-98425000D01*
X139796868Y-99060000D02*
X140431868Y-98425000D01*
X126365000Y-99060000D02*
X139796868Y-99060000D01*
X171904010Y-100510990D02*
X173990000Y-98425000D01*
X148948968Y-100510990D02*
X171904010Y-100510990D01*
X146862978Y-98425000D02*
X148948968Y-100510990D01*
X161197999Y-99152001D02*
X161925000Y-98425000D01*
X159477001Y-99152001D02*
X161197999Y-99152001D01*
X156664010Y-96339010D02*
X159477001Y-99152001D01*
X139700000Y-97155000D02*
X140515990Y-96339010D01*
X140515990Y-96339010D02*
X156664010Y-96339010D01*
X138430000Y-97155000D02*
X139700000Y-97155000D01*
X160020000Y-98425000D02*
X157480000Y-95885000D01*
X137160000Y-95885000D02*
X135890000Y-97155000D01*
X157480000Y-95885000D02*
X137160000Y-95885000D01*
X143417001Y-116747001D02*
X143510000Y-116840000D01*
X143417001Y-111217999D02*
X143417001Y-116747001D01*
X145415000Y-109220000D02*
X143417001Y-111217999D01*
X146050000Y-108585000D02*
X145415000Y-109220000D01*
X155575000Y-108585000D02*
X146050000Y-108585000D01*
X155575000Y-112395000D02*
X151130000Y-116840000D01*
X157353000Y-112395000D02*
X155575000Y-112395000D01*
X158877000Y-112395000D02*
X156845000Y-114427000D01*
X156845000Y-114427000D02*
X154559000Y-114427000D01*
X153670000Y-115316000D02*
X153670000Y-116840000D01*
X154559000Y-114427000D02*
X153670000Y-115316000D01*
X176530000Y-116205000D02*
X176530000Y-116840000D01*
X172720000Y-112395000D02*
X176530000Y-116205000D01*
X173990000Y-112395000D02*
X176530000Y-114935000D01*
X179070000Y-116840000D02*
X177800000Y-115570000D01*
X177165000Y-115570000D02*
X176530000Y-114935000D01*
X177800000Y-115570000D02*
X177165000Y-115570000D01*
X151038000Y-111125000D02*
X153670000Y-111125000D01*
X153670000Y-111125000D02*
X154305000Y-110490000D01*
X173355000Y-110490000D02*
X175260000Y-112395000D01*
X154305000Y-110490000D02*
X173355000Y-110490000D01*
X150587001Y-110397999D02*
X153127001Y-110397999D01*
X147320000Y-113665000D02*
X150587001Y-110397999D01*
X153489010Y-110035990D02*
X174170990Y-110035990D01*
X153127001Y-110397999D02*
X153489010Y-110035990D01*
X174170990Y-110035990D02*
X176530000Y-112395000D01*
X176530000Y-112395000D02*
X176530000Y-112395000D01*
X176530000Y-112395000D02*
X176530000Y-113657934D01*
X178442066Y-115570000D02*
X182880000Y-115570000D01*
X176530000Y-113657934D02*
X178442066Y-115570000D01*
X151765000Y-100965000D02*
X144780000Y-107950000D01*
X172720000Y-100965000D02*
X151765000Y-100965000D01*
X175260000Y-98425000D02*
X172720000Y-100965000D01*
X175260000Y-96520000D02*
X175260000Y-98425000D01*
X175895000Y-95885000D02*
X175260000Y-96520000D01*
X177807066Y-95885000D02*
X175895000Y-95885000D01*
X178442066Y-95250000D02*
X177807066Y-95885000D01*
X144780000Y-107950000D02*
X143510000Y-107950000D01*
X182880000Y-95250000D02*
X178442066Y-95250000D01*
X124663008Y-93190914D02*
X124393483Y-93302555D01*
X124150917Y-93464632D01*
X123944632Y-93670917D01*
X123782555Y-93913483D01*
X123670914Y-94183008D01*
X123614000Y-94469134D01*
X123614000Y-94760866D01*
X123670914Y-95046992D01*
X123782555Y-95316517D01*
X123944632Y-95559083D01*
X124150917Y-95765368D01*
X124393483Y-95927445D01*
X124663008Y-96039086D01*
X124949134Y-96096000D01*
X125240866Y-96096000D01*
X125526992Y-96039086D01*
X125796517Y-95927445D01*
X126039083Y-95765368D01*
X126245368Y-95559083D01*
X126407445Y-95316517D01*
X126519086Y-95046992D01*
X126576000Y-94760866D01*
X126576000Y-94469134D01*
X126519086Y-94183008D01*
X126407445Y-93913483D01*
X126245368Y-93670917D01*
X126039083Y-93464632D01*
X125796517Y-93302555D01*
X125526992Y-93190914D01*
X125401741Y-93166000D01*
X132423103Y-93166000D01*
X132393820Y-93195283D01*
X132259102Y-93396903D01*
X132166307Y-93620931D01*
X132119000Y-93858757D01*
X132119000Y-94101243D01*
X132166307Y-94339069D01*
X132259102Y-94563097D01*
X132393820Y-94764717D01*
X132565283Y-94936180D01*
X132766903Y-95070898D01*
X132990931Y-95163693D01*
X133228757Y-95211000D01*
X133471243Y-95211000D01*
X133709069Y-95163693D01*
X133933097Y-95070898D01*
X134134717Y-94936180D01*
X134306180Y-94764717D01*
X134440898Y-94563097D01*
X134533693Y-94339069D01*
X134581000Y-94101243D01*
X134581000Y-93858757D01*
X134533693Y-93620931D01*
X134440898Y-93396903D01*
X134306180Y-93195283D01*
X134276897Y-93166000D01*
X134963103Y-93166000D01*
X134933820Y-93195283D01*
X134799102Y-93396903D01*
X134706307Y-93620931D01*
X134659000Y-93858757D01*
X134659000Y-94101243D01*
X134706307Y-94339069D01*
X134799102Y-94563097D01*
X134933820Y-94764717D01*
X135105283Y-94936180D01*
X135306903Y-95070898D01*
X135530931Y-95163693D01*
X135768757Y-95211000D01*
X136011243Y-95211000D01*
X136249069Y-95163693D01*
X136473097Y-95070898D01*
X136674717Y-94936180D01*
X136846180Y-94764717D01*
X136980898Y-94563097D01*
X137073693Y-94339069D01*
X137121000Y-94101243D01*
X137121000Y-93858757D01*
X137073693Y-93620931D01*
X136980898Y-93396903D01*
X136846180Y-93195283D01*
X136816897Y-93166000D01*
X137503103Y-93166000D01*
X137473820Y-93195283D01*
X137339102Y-93396903D01*
X137246307Y-93620931D01*
X137199000Y-93858757D01*
X137199000Y-94101243D01*
X137246307Y-94339069D01*
X137339102Y-94563097D01*
X137473820Y-94764717D01*
X137645283Y-94936180D01*
X137846903Y-95070898D01*
X138070931Y-95163693D01*
X138308757Y-95211000D01*
X138551243Y-95211000D01*
X138789069Y-95163693D01*
X139013097Y-95070898D01*
X139214717Y-94936180D01*
X139386180Y-94764717D01*
X139520898Y-94563097D01*
X139613693Y-94339069D01*
X139661000Y-94101243D01*
X139661000Y-93858757D01*
X139613693Y-93620931D01*
X139520898Y-93396903D01*
X139386180Y-93195283D01*
X139356897Y-93166000D01*
X140043103Y-93166000D01*
X140013820Y-93195283D01*
X139879102Y-93396903D01*
X139786307Y-93620931D01*
X139739000Y-93858757D01*
X139739000Y-94101243D01*
X139786307Y-94339069D01*
X139879102Y-94563097D01*
X140013820Y-94764717D01*
X140185283Y-94936180D01*
X140386903Y-95070898D01*
X140610931Y-95163693D01*
X140848757Y-95211000D01*
X141091243Y-95211000D01*
X141329069Y-95163693D01*
X141553097Y-95070898D01*
X141754717Y-94936180D01*
X141926180Y-94764717D01*
X142060898Y-94563097D01*
X142153693Y-94339069D01*
X142201000Y-94101243D01*
X142201000Y-93858757D01*
X142153693Y-93620931D01*
X142060898Y-93396903D01*
X141926180Y-93195283D01*
X141896897Y-93166000D01*
X142583103Y-93166000D01*
X142553820Y-93195283D01*
X142419102Y-93396903D01*
X142326307Y-93620931D01*
X142279000Y-93858757D01*
X142279000Y-94101243D01*
X142326307Y-94339069D01*
X142419102Y-94563097D01*
X142553820Y-94764717D01*
X142725283Y-94936180D01*
X142926903Y-95070898D01*
X143150931Y-95163693D01*
X143388757Y-95211000D01*
X143631243Y-95211000D01*
X143869069Y-95163693D01*
X144093097Y-95070898D01*
X144294717Y-94936180D01*
X144466180Y-94764717D01*
X144600898Y-94563097D01*
X144693693Y-94339069D01*
X144741000Y-94101243D01*
X144741000Y-93858757D01*
X144693693Y-93620931D01*
X144600898Y-93396903D01*
X144466180Y-93195283D01*
X144436897Y-93166000D01*
X145123103Y-93166000D01*
X145093820Y-93195283D01*
X144959102Y-93396903D01*
X144866307Y-93620931D01*
X144819000Y-93858757D01*
X144819000Y-94101243D01*
X144866307Y-94339069D01*
X144959102Y-94563097D01*
X145093820Y-94764717D01*
X145265283Y-94936180D01*
X145466903Y-95070898D01*
X145690931Y-95163693D01*
X145928757Y-95211000D01*
X146171243Y-95211000D01*
X146409069Y-95163693D01*
X146633097Y-95070898D01*
X146834717Y-94936180D01*
X147006180Y-94764717D01*
X147140898Y-94563097D01*
X147233693Y-94339069D01*
X147281000Y-94101243D01*
X147281000Y-93858757D01*
X147233693Y-93620931D01*
X147140898Y-93396903D01*
X147006180Y-93195283D01*
X146976897Y-93166000D01*
X147663103Y-93166000D01*
X147633820Y-93195283D01*
X147499102Y-93396903D01*
X147406307Y-93620931D01*
X147359000Y-93858757D01*
X147359000Y-94101243D01*
X147406307Y-94339069D01*
X147499102Y-94563097D01*
X147633820Y-94764717D01*
X147805283Y-94936180D01*
X148006903Y-95070898D01*
X148230931Y-95163693D01*
X148468757Y-95211000D01*
X148711243Y-95211000D01*
X148949069Y-95163693D01*
X149173097Y-95070898D01*
X149374717Y-94936180D01*
X149546180Y-94764717D01*
X149680898Y-94563097D01*
X149773693Y-94339069D01*
X149821000Y-94101243D01*
X149821000Y-93858757D01*
X149773693Y-93620931D01*
X149680898Y-93396903D01*
X149546180Y-93195283D01*
X149516897Y-93166000D01*
X150203103Y-93166000D01*
X150173820Y-93195283D01*
X150039102Y-93396903D01*
X149946307Y-93620931D01*
X149899000Y-93858757D01*
X149899000Y-94101243D01*
X149946307Y-94339069D01*
X150039102Y-94563097D01*
X150173820Y-94764717D01*
X150345283Y-94936180D01*
X150546903Y-95070898D01*
X150770931Y-95163693D01*
X151008757Y-95211000D01*
X151251243Y-95211000D01*
X151489069Y-95163693D01*
X151713097Y-95070898D01*
X151914717Y-94936180D01*
X152086180Y-94764717D01*
X152220898Y-94563097D01*
X152313693Y-94339069D01*
X152361000Y-94101243D01*
X152361000Y-93858757D01*
X152313693Y-93620931D01*
X152220898Y-93396903D01*
X152086180Y-93195283D01*
X152056897Y-93166000D01*
X152743103Y-93166000D01*
X152713820Y-93195283D01*
X152579102Y-93396903D01*
X152486307Y-93620931D01*
X152439000Y-93858757D01*
X152439000Y-94101243D01*
X152486307Y-94339069D01*
X152579102Y-94563097D01*
X152713820Y-94764717D01*
X152885283Y-94936180D01*
X153086903Y-95070898D01*
X153310931Y-95163693D01*
X153548757Y-95211000D01*
X153791243Y-95211000D01*
X154029069Y-95163693D01*
X154253097Y-95070898D01*
X154454717Y-94936180D01*
X154626180Y-94764717D01*
X154760898Y-94563097D01*
X154853693Y-94339069D01*
X154901000Y-94101243D01*
X154901000Y-93858757D01*
X154853693Y-93620931D01*
X154760898Y-93396903D01*
X154626180Y-93195283D01*
X154596897Y-93166000D01*
X155283103Y-93166000D01*
X155253820Y-93195283D01*
X155119102Y-93396903D01*
X155026307Y-93620931D01*
X154979000Y-93858757D01*
X154979000Y-94101243D01*
X155026307Y-94339069D01*
X155119102Y-94563097D01*
X155253820Y-94764717D01*
X155425283Y-94936180D01*
X155626903Y-95070898D01*
X155850931Y-95163693D01*
X156088757Y-95211000D01*
X156331243Y-95211000D01*
X156569069Y-95163693D01*
X156793097Y-95070898D01*
X156994717Y-94936180D01*
X157166180Y-94764717D01*
X157300898Y-94563097D01*
X157393693Y-94339069D01*
X157441000Y-94101243D01*
X157441000Y-93858757D01*
X157393693Y-93620931D01*
X157300898Y-93396903D01*
X157166180Y-93195283D01*
X157136897Y-93166000D01*
X157823103Y-93166000D01*
X157793820Y-93195283D01*
X157659102Y-93396903D01*
X157566307Y-93620931D01*
X157519000Y-93858757D01*
X157519000Y-94101243D01*
X157566307Y-94339069D01*
X157659102Y-94563097D01*
X157793820Y-94764717D01*
X157965283Y-94936180D01*
X158166903Y-95070898D01*
X158390931Y-95163693D01*
X158628757Y-95211000D01*
X158871243Y-95211000D01*
X159109069Y-95163693D01*
X159333097Y-95070898D01*
X159534717Y-94936180D01*
X159706180Y-94764717D01*
X159840898Y-94563097D01*
X159933693Y-94339069D01*
X159981000Y-94101243D01*
X159981000Y-93858757D01*
X159933693Y-93620931D01*
X159840898Y-93396903D01*
X159706180Y-93195283D01*
X159676897Y-93166000D01*
X160363103Y-93166000D01*
X160333820Y-93195283D01*
X160199102Y-93396903D01*
X160106307Y-93620931D01*
X160059000Y-93858757D01*
X160059000Y-94101243D01*
X160106307Y-94339069D01*
X160199102Y-94563097D01*
X160333820Y-94764717D01*
X160505283Y-94936180D01*
X160706903Y-95070898D01*
X160930931Y-95163693D01*
X161168757Y-95211000D01*
X161411243Y-95211000D01*
X161649069Y-95163693D01*
X161873097Y-95070898D01*
X162074717Y-94936180D01*
X162246180Y-94764717D01*
X162380898Y-94563097D01*
X162473693Y-94339069D01*
X162521000Y-94101243D01*
X162521000Y-93858757D01*
X162473693Y-93620931D01*
X162380898Y-93396903D01*
X162246180Y-93195283D01*
X162216897Y-93166000D01*
X162903103Y-93166000D01*
X162873820Y-93195283D01*
X162739102Y-93396903D01*
X162646307Y-93620931D01*
X162599000Y-93858757D01*
X162599000Y-94101243D01*
X162646307Y-94339069D01*
X162739102Y-94563097D01*
X162873820Y-94764717D01*
X163045283Y-94936180D01*
X163246903Y-95070898D01*
X163470931Y-95163693D01*
X163708757Y-95211000D01*
X163951243Y-95211000D01*
X164189069Y-95163693D01*
X164413097Y-95070898D01*
X164614717Y-94936180D01*
X164786180Y-94764717D01*
X164920898Y-94563097D01*
X165013693Y-94339069D01*
X165061000Y-94101243D01*
X165061000Y-93858757D01*
X165013693Y-93620931D01*
X164920898Y-93396903D01*
X164786180Y-93195283D01*
X164756897Y-93166000D01*
X165443103Y-93166000D01*
X165413820Y-93195283D01*
X165279102Y-93396903D01*
X165186307Y-93620931D01*
X165139000Y-93858757D01*
X165139000Y-94101243D01*
X165186307Y-94339069D01*
X165279102Y-94563097D01*
X165413820Y-94764717D01*
X165585283Y-94936180D01*
X165786903Y-95070898D01*
X166010931Y-95163693D01*
X166248757Y-95211000D01*
X166491243Y-95211000D01*
X166729069Y-95163693D01*
X166953097Y-95070898D01*
X167154717Y-94936180D01*
X167326180Y-94764717D01*
X167460898Y-94563097D01*
X167553693Y-94339069D01*
X167601000Y-94101243D01*
X167601000Y-93858757D01*
X167553693Y-93620931D01*
X167460898Y-93396903D01*
X167326180Y-93195283D01*
X167296897Y-93166000D01*
X167983103Y-93166000D01*
X167953820Y-93195283D01*
X167819102Y-93396903D01*
X167726307Y-93620931D01*
X167679000Y-93858757D01*
X167679000Y-94101243D01*
X167726307Y-94339069D01*
X167819102Y-94563097D01*
X167953820Y-94764717D01*
X168125283Y-94936180D01*
X168326903Y-95070898D01*
X168550931Y-95163693D01*
X168788757Y-95211000D01*
X169031243Y-95211000D01*
X169269069Y-95163693D01*
X169493097Y-95070898D01*
X169694717Y-94936180D01*
X169866180Y-94764717D01*
X170000898Y-94563097D01*
X170093693Y-94339069D01*
X170141000Y-94101243D01*
X170141000Y-93858757D01*
X170093693Y-93620931D01*
X170000898Y-93396903D01*
X169866180Y-93195283D01*
X169836897Y-93166000D01*
X170523103Y-93166000D01*
X170493820Y-93195283D01*
X170359102Y-93396903D01*
X170266307Y-93620931D01*
X170219000Y-93858757D01*
X170219000Y-94101243D01*
X170266307Y-94339069D01*
X170359102Y-94563097D01*
X170493820Y-94764717D01*
X170665283Y-94936180D01*
X170866903Y-95070898D01*
X171090931Y-95163693D01*
X171328757Y-95211000D01*
X171571243Y-95211000D01*
X171809069Y-95163693D01*
X172033097Y-95070898D01*
X172234717Y-94936180D01*
X172406180Y-94764717D01*
X172540898Y-94563097D01*
X172633693Y-94339069D01*
X172681000Y-94101243D01*
X172681000Y-93858757D01*
X172633693Y-93620931D01*
X172540898Y-93396903D01*
X172406180Y-93195283D01*
X172376897Y-93166000D01*
X173063103Y-93166000D01*
X173033820Y-93195283D01*
X172899102Y-93396903D01*
X172806307Y-93620931D01*
X172759000Y-93858757D01*
X172759000Y-94101243D01*
X172806307Y-94339069D01*
X172899102Y-94563097D01*
X173033820Y-94764717D01*
X173205283Y-94936180D01*
X173406903Y-95070898D01*
X173630931Y-95163693D01*
X173868757Y-95211000D01*
X173945580Y-95211000D01*
X173648430Y-95508150D01*
X173629053Y-95524052D01*
X173613151Y-95543429D01*
X173613150Y-95543430D01*
X173565571Y-95601405D01*
X173518401Y-95689656D01*
X173518400Y-95689657D01*
X173497669Y-95758000D01*
X173489352Y-95785416D01*
X173479543Y-95885000D01*
X173482001Y-95909954D01*
X173482000Y-97828499D01*
X173383358Y-97927141D01*
X173297887Y-98055058D01*
X173239013Y-98197191D01*
X173209000Y-98348078D01*
X173209000Y-98487579D01*
X171693590Y-100002990D01*
X149159389Y-100002990D01*
X148185065Y-99028667D01*
X148221432Y-99013603D01*
X148247029Y-98996500D01*
X155676999Y-98996500D01*
X155712141Y-99031642D01*
X155840058Y-99117113D01*
X155982191Y-99175987D01*
X156133078Y-99206000D01*
X156286922Y-99206000D01*
X156437809Y-99175987D01*
X156579942Y-99117113D01*
X156707859Y-99031642D01*
X156816642Y-98922859D01*
X156902113Y-98794942D01*
X156960987Y-98652809D01*
X156991000Y-98501922D01*
X156991000Y-98348078D01*
X156960987Y-98197191D01*
X156902113Y-98055058D01*
X156816642Y-97927141D01*
X156707859Y-97818358D01*
X156579942Y-97732887D01*
X156437809Y-97674013D01*
X156286922Y-97644000D01*
X156133078Y-97644000D01*
X155982191Y-97674013D01*
X155840058Y-97732887D01*
X155712141Y-97818358D01*
X155676999Y-97853500D01*
X148478090Y-97853500D01*
X148458132Y-97823631D01*
X148349349Y-97714848D01*
X148221432Y-97629377D01*
X148079299Y-97570503D01*
X147928412Y-97540490D01*
X147878712Y-97540490D01*
X147743970Y-97405748D01*
X147726067Y-97383933D01*
X147639045Y-97312516D01*
X147539762Y-97259448D01*
X147432034Y-97226769D01*
X147348074Y-97218500D01*
X147320000Y-97215735D01*
X147291926Y-97218500D01*
X140363074Y-97218500D01*
X140355651Y-97217769D01*
X140726411Y-96847010D01*
X156453590Y-96847010D01*
X159100151Y-99493572D01*
X159116053Y-99512949D01*
X159135430Y-99528851D01*
X159193405Y-99576430D01*
X159198238Y-99579013D01*
X159281658Y-99623602D01*
X159377416Y-99652650D01*
X159452054Y-99660001D01*
X159452056Y-99660001D01*
X159477000Y-99662458D01*
X159501944Y-99660001D01*
X161173055Y-99660001D01*
X161197999Y-99662458D01*
X161222943Y-99660001D01*
X161222946Y-99660001D01*
X161297584Y-99652650D01*
X161393342Y-99623602D01*
X161481594Y-99576430D01*
X161558947Y-99512949D01*
X161574854Y-99493566D01*
X161862420Y-99206000D01*
X162001922Y-99206000D01*
X162152809Y-99175987D01*
X162294942Y-99117113D01*
X162422859Y-99031642D01*
X162531642Y-98922859D01*
X162617113Y-98794942D01*
X162675987Y-98652809D01*
X162706000Y-98501922D01*
X162706000Y-98348078D01*
X162675987Y-98197191D01*
X162617113Y-98055058D01*
X162531642Y-97927141D01*
X162422859Y-97818358D01*
X162294942Y-97732887D01*
X162152809Y-97674013D01*
X162001922Y-97644000D01*
X161848078Y-97644000D01*
X161697191Y-97674013D01*
X161555058Y-97732887D01*
X161427141Y-97818358D01*
X161318358Y-97927141D01*
X161232887Y-98055058D01*
X161174013Y-98197191D01*
X161144000Y-98348078D01*
X161144000Y-98487580D01*
X160987579Y-98644001D01*
X160772739Y-98644001D01*
X160801000Y-98501922D01*
X160801000Y-98348078D01*
X160770987Y-98197191D01*
X160712113Y-98055058D01*
X160626642Y-97927141D01*
X160517859Y-97818358D01*
X160389942Y-97732887D01*
X160247809Y-97674013D01*
X160096922Y-97644000D01*
X159957421Y-97644000D01*
X157856855Y-95543435D01*
X157840948Y-95524052D01*
X157763595Y-95460571D01*
X157675343Y-95413399D01*
X157579585Y-95384351D01*
X157504947Y-95377000D01*
X157504944Y-95377000D01*
X157480000Y-95374543D01*
X157455056Y-95377000D01*
X137184943Y-95377000D01*
X137159999Y-95374543D01*
X137135055Y-95377000D01*
X137135053Y-95377000D01*
X137060415Y-95384351D01*
X136964657Y-95413399D01*
X136964655Y-95413400D01*
X136876404Y-95460571D01*
X136821810Y-95505376D01*
X136799052Y-95524052D01*
X136783150Y-95543429D01*
X136324166Y-96002413D01*
X136249069Y-95971307D01*
X136011243Y-95924000D01*
X135768757Y-95924000D01*
X135530931Y-95971307D01*
X135306903Y-96064102D01*
X135105283Y-96198820D01*
X134933820Y-96370283D01*
X134799102Y-96571903D01*
X134706307Y-96795931D01*
X134659000Y-97033757D01*
X134659000Y-97276243D01*
X134706307Y-97514069D01*
X134799102Y-97738097D01*
X134876212Y-97853500D01*
X134363788Y-97853500D01*
X134440898Y-97738097D01*
X134533693Y-97514069D01*
X134581000Y-97276243D01*
X134581000Y-97033757D01*
X134533693Y-96795931D01*
X134440898Y-96571903D01*
X134306180Y-96370283D01*
X134134717Y-96198820D01*
X133933097Y-96064102D01*
X133709069Y-95971307D01*
X133471243Y-95924000D01*
X133228757Y-95924000D01*
X132990931Y-95971307D01*
X132766903Y-96064102D01*
X132565283Y-96198820D01*
X132393820Y-96370283D01*
X132259102Y-96571903D01*
X132166307Y-96795931D01*
X132119000Y-97033757D01*
X132119000Y-97276243D01*
X132166307Y-97514069D01*
X132259102Y-97738097D01*
X132393820Y-97939717D01*
X132565283Y-98111180D01*
X132766903Y-98245898D01*
X132990931Y-98338693D01*
X133115187Y-98363409D01*
X133303777Y-98552000D01*
X126961501Y-98552000D01*
X126862859Y-98453358D01*
X126734942Y-98367887D01*
X126592809Y-98309013D01*
X126441922Y-98279000D01*
X126288078Y-98279000D01*
X126137191Y-98309013D01*
X125995058Y-98367887D01*
X125867141Y-98453358D01*
X125758358Y-98562141D01*
X125672887Y-98690058D01*
X125614013Y-98832191D01*
X125584000Y-98983078D01*
X125584000Y-99136922D01*
X125614013Y-99287809D01*
X125672887Y-99429942D01*
X125758358Y-99557859D01*
X125867141Y-99666642D01*
X125995058Y-99752113D01*
X126137191Y-99810987D01*
X126288078Y-99841000D01*
X126441922Y-99841000D01*
X126592809Y-99810987D01*
X126734942Y-99752113D01*
X126862859Y-99666642D01*
X126961501Y-99568000D01*
X139771924Y-99568000D01*
X139796868Y-99570457D01*
X139821812Y-99568000D01*
X139821815Y-99568000D01*
X139896453Y-99560649D01*
X139992211Y-99531601D01*
X140080463Y-99484429D01*
X140157816Y-99420948D01*
X140173723Y-99401565D01*
X140642288Y-98933000D01*
X146652558Y-98933000D01*
X147268558Y-99549000D01*
X147243078Y-99549000D01*
X147092191Y-99579013D01*
X146950058Y-99637887D01*
X146822141Y-99723358D01*
X146713358Y-99832141D01*
X146627887Y-99960058D01*
X146569013Y-100102191D01*
X146539000Y-100253078D01*
X146539000Y-100406922D01*
X146569013Y-100557809D01*
X146627887Y-100699942D01*
X146713358Y-100827859D01*
X146748501Y-100863002D01*
X146748500Y-101998277D01*
X145387778Y-103359000D01*
X145338078Y-103359000D01*
X145187191Y-103389013D01*
X145045058Y-103447887D01*
X144917141Y-103533358D01*
X144808358Y-103642141D01*
X144722887Y-103770058D01*
X144664013Y-103912191D01*
X144634000Y-104063078D01*
X144634000Y-104216922D01*
X144664013Y-104367809D01*
X144722887Y-104509942D01*
X144808358Y-104637859D01*
X144917141Y-104746642D01*
X145045058Y-104832113D01*
X145187191Y-104890987D01*
X145338078Y-104921000D01*
X145491922Y-104921000D01*
X145642809Y-104890987D01*
X145784942Y-104832113D01*
X145912859Y-104746642D01*
X146021642Y-104637859D01*
X146107113Y-104509942D01*
X146165987Y-104367809D01*
X146196000Y-104216922D01*
X146196000Y-104167222D01*
X147704258Y-102658965D01*
X147726067Y-102641067D01*
X147797484Y-102554045D01*
X147850552Y-102454762D01*
X147883231Y-102347034D01*
X147891500Y-102263074D01*
X147891500Y-102263073D01*
X147894265Y-102235000D01*
X147891500Y-102206926D01*
X147891500Y-100863001D01*
X147926642Y-100827859D01*
X148012113Y-100699942D01*
X148070987Y-100557809D01*
X148101000Y-100406922D01*
X148101000Y-100381443D01*
X148572118Y-100852561D01*
X148588020Y-100871938D01*
X148607397Y-100887840D01*
X148665372Y-100935419D01*
X148753623Y-100982590D01*
X148753625Y-100982591D01*
X148849383Y-101011639D01*
X148924021Y-101018990D01*
X148924023Y-101018990D01*
X148948967Y-101021447D01*
X148973911Y-101018990D01*
X150992590Y-101018990D01*
X144569580Y-107442000D01*
X144106501Y-107442000D01*
X144007859Y-107343358D01*
X143879942Y-107257887D01*
X143737809Y-107199013D01*
X143586922Y-107169000D01*
X143433078Y-107169000D01*
X143282191Y-107199013D01*
X143140058Y-107257887D01*
X143012141Y-107343358D01*
X142903358Y-107452141D01*
X142817887Y-107580058D01*
X142759013Y-107722191D01*
X142729000Y-107873078D01*
X142729000Y-108026922D01*
X142759013Y-108177809D01*
X142817887Y-108319942D01*
X142903358Y-108447859D01*
X143012141Y-108556642D01*
X143140058Y-108642113D01*
X143282191Y-108700987D01*
X143337558Y-108712000D01*
X142899943Y-108712000D01*
X142874999Y-108709543D01*
X142850055Y-108712000D01*
X142850053Y-108712000D01*
X142775415Y-108719351D01*
X142679657Y-108748399D01*
X142679655Y-108748400D01*
X142591404Y-108795571D01*
X142570400Y-108812809D01*
X142514052Y-108859052D01*
X142498150Y-108878429D01*
X140721429Y-110655151D01*
X140702052Y-110671053D01*
X140686150Y-110690430D01*
X140686149Y-110690431D01*
X140638570Y-110748406D01*
X140619850Y-110783430D01*
X140591399Y-110836658D01*
X140562351Y-110932416D01*
X140562155Y-110934404D01*
X140552542Y-111032001D01*
X140555000Y-111056955D01*
X140554999Y-113996581D01*
X138938000Y-115613580D01*
X138938000Y-114324944D01*
X138940457Y-114300000D01*
X138934475Y-114239265D01*
X138930649Y-114200415D01*
X138901601Y-114104657D01*
X138854429Y-114016405D01*
X138790948Y-113939052D01*
X138771565Y-113923145D01*
X137677587Y-112829167D01*
X137708693Y-112754069D01*
X137756000Y-112516243D01*
X137756000Y-112273757D01*
X137708693Y-112035931D01*
X137615898Y-111811903D01*
X137481180Y-111610283D01*
X137309717Y-111438820D01*
X137108097Y-111304102D01*
X136884069Y-111211307D01*
X136646243Y-111164000D01*
X136403757Y-111164000D01*
X136165931Y-111211307D01*
X135941903Y-111304102D01*
X135740283Y-111438820D01*
X135568820Y-111610283D01*
X135434102Y-111811903D01*
X135341307Y-112035931D01*
X135294000Y-112273757D01*
X135294000Y-112516243D01*
X135341307Y-112754069D01*
X135434102Y-112978097D01*
X135568820Y-113179717D01*
X135740283Y-113351180D01*
X135941903Y-113485898D01*
X136165931Y-113578693D01*
X136403757Y-113626000D01*
X136646243Y-113626000D01*
X136884069Y-113578693D01*
X136959167Y-113547587D01*
X137922001Y-114510421D01*
X137922000Y-115717996D01*
X137846903Y-115749102D01*
X137645283Y-115883820D01*
X137473820Y-116055283D01*
X137339102Y-116256903D01*
X137246307Y-116480931D01*
X137199000Y-116718757D01*
X137199000Y-116961243D01*
X137246307Y-117199069D01*
X137339102Y-117423097D01*
X137473820Y-117624717D01*
X137503103Y-117654000D01*
X136816897Y-117654000D01*
X136846180Y-117624717D01*
X136980898Y-117423097D01*
X137073693Y-117199069D01*
X137121000Y-116961243D01*
X137121000Y-116718757D01*
X137073693Y-116480931D01*
X136980898Y-116256903D01*
X136846180Y-116055283D01*
X136674717Y-115883820D01*
X136473097Y-115749102D01*
X136461500Y-115744298D01*
X136461500Y-115598074D01*
X136464265Y-115570000D01*
X136453231Y-115457966D01*
X136420552Y-115350238D01*
X136367484Y-115250955D01*
X136340926Y-115218594D01*
X136296067Y-115163933D01*
X136274258Y-115146035D01*
X134595686Y-113467464D01*
X134769717Y-113351180D01*
X134941180Y-113179717D01*
X135075898Y-112978097D01*
X135168693Y-112754069D01*
X135216000Y-112516243D01*
X135216000Y-112273757D01*
X135168693Y-112035931D01*
X135075898Y-111811903D01*
X134941180Y-111610283D01*
X134769717Y-111438820D01*
X134647951Y-111357459D01*
X134647951Y-104894522D01*
X134650716Y-104866450D01*
X134647334Y-104832113D01*
X134639682Y-104754417D01*
X134607003Y-104646689D01*
X134553935Y-104547406D01*
X134482518Y-104460384D01*
X134460709Y-104442486D01*
X134094723Y-104076500D01*
X141576926Y-104076500D01*
X141605000Y-104079265D01*
X141633074Y-104076500D01*
X141717034Y-104068231D01*
X141824762Y-104035552D01*
X141924045Y-103982484D01*
X142011067Y-103911067D01*
X142028970Y-103889252D01*
X144807223Y-101111000D01*
X144856922Y-101111000D01*
X145007809Y-101080987D01*
X145149942Y-101022113D01*
X145277859Y-100936642D01*
X145386642Y-100827859D01*
X145472113Y-100699942D01*
X145530987Y-100557809D01*
X145561000Y-100406922D01*
X145561000Y-100253078D01*
X145530987Y-100102191D01*
X145472113Y-99960058D01*
X145386642Y-99832141D01*
X145277859Y-99723358D01*
X145149942Y-99637887D01*
X145007809Y-99579013D01*
X144856922Y-99549000D01*
X144703078Y-99549000D01*
X144552191Y-99579013D01*
X144410058Y-99637887D01*
X144282141Y-99723358D01*
X144173358Y-99832141D01*
X144087887Y-99960058D01*
X144029013Y-100102191D01*
X143999000Y-100253078D01*
X143999000Y-100302777D01*
X141368278Y-102933500D01*
X132743074Y-102933500D01*
X132715000Y-102930735D01*
X132686926Y-102933500D01*
X131343001Y-102933500D01*
X131307859Y-102898358D01*
X131179942Y-102812887D01*
X131037809Y-102754013D01*
X130886922Y-102724000D01*
X130733078Y-102724000D01*
X130582191Y-102754013D01*
X130440058Y-102812887D01*
X130312141Y-102898358D01*
X130203358Y-103007141D01*
X130117887Y-103135058D01*
X130111500Y-103150477D01*
X130111500Y-102768001D01*
X130146642Y-102732859D01*
X130232113Y-102604942D01*
X130290987Y-102462809D01*
X130321000Y-102311922D01*
X130321000Y-102158078D01*
X130290987Y-102007191D01*
X130232113Y-101865058D01*
X130146642Y-101737141D01*
X130037859Y-101628358D01*
X129909942Y-101542887D01*
X129767809Y-101484013D01*
X129616922Y-101454000D01*
X129463078Y-101454000D01*
X129312191Y-101484013D01*
X129170058Y-101542887D01*
X129042141Y-101628358D01*
X128933358Y-101737141D01*
X128847887Y-101865058D01*
X128789013Y-102007191D01*
X128759000Y-102158078D01*
X128759000Y-102311922D01*
X128789013Y-102462809D01*
X128847887Y-102604942D01*
X128933358Y-102732859D01*
X128968501Y-102768002D01*
X128968500Y-104111925D01*
X128965735Y-104140000D01*
X128973311Y-104216922D01*
X128976769Y-104252033D01*
X129009448Y-104359761D01*
X129062516Y-104459044D01*
X129133933Y-104546067D01*
X129155748Y-104563970D01*
X129751034Y-105159257D01*
X129768933Y-105181067D01*
X129855955Y-105252484D01*
X129955238Y-105305552D01*
X130062966Y-105338231D01*
X130175000Y-105349265D01*
X130203074Y-105346500D01*
X131112828Y-105346500D01*
X132504950Y-106738623D01*
X132504950Y-106788322D01*
X132534963Y-106939209D01*
X132593837Y-107081342D01*
X132679308Y-107209259D01*
X132788091Y-107318042D01*
X132916008Y-107403513D01*
X133058141Y-107462387D01*
X133209028Y-107492400D01*
X133362872Y-107492400D01*
X133504951Y-107464139D01*
X133504952Y-111261418D01*
X133401903Y-111304102D01*
X133200283Y-111438820D01*
X133028820Y-111610283D01*
X132894102Y-111811903D01*
X132801307Y-112035931D01*
X132754000Y-112273757D01*
X132754000Y-112516243D01*
X132801307Y-112754069D01*
X132894102Y-112978097D01*
X133028820Y-113179717D01*
X133200283Y-113351180D01*
X133401903Y-113485898D01*
X133413501Y-113490702D01*
X133413501Y-113636916D01*
X133410735Y-113665000D01*
X133421769Y-113777033D01*
X133454448Y-113884761D01*
X133493825Y-113958430D01*
X133507517Y-113984045D01*
X133578934Y-114071067D01*
X133600744Y-114088966D01*
X135279314Y-115767537D01*
X135105283Y-115883820D01*
X134933820Y-116055283D01*
X134799102Y-116256903D01*
X134706307Y-116480931D01*
X134659000Y-116718757D01*
X134659000Y-116961243D01*
X134706307Y-117199069D01*
X134799102Y-117423097D01*
X134933820Y-117624717D01*
X134963103Y-117654000D01*
X125401741Y-117654000D01*
X125526992Y-117629086D01*
X125796517Y-117517445D01*
X126039083Y-117355368D01*
X126245368Y-117149083D01*
X126407445Y-116906517D01*
X126519086Y-116636992D01*
X126576000Y-116350866D01*
X126576000Y-116059134D01*
X126519086Y-115773008D01*
X126407445Y-115503483D01*
X126245368Y-115260917D01*
X126039083Y-115054632D01*
X125796517Y-114892555D01*
X125526992Y-114780914D01*
X125240866Y-114724000D01*
X124949134Y-114724000D01*
X124663008Y-114780914D01*
X124393483Y-114892555D01*
X124150917Y-115054632D01*
X123944632Y-115260917D01*
X123782555Y-115503483D01*
X123670914Y-115773008D01*
X123614000Y-116059134D01*
X123614000Y-116350866D01*
X123670914Y-116636992D01*
X123782555Y-116906517D01*
X123944632Y-117149083D01*
X124150917Y-117355368D01*
X124393483Y-117517445D01*
X124663008Y-117629086D01*
X124788259Y-117654000D01*
X124259655Y-117654000D01*
X124079665Y-117636352D01*
X123927995Y-117590559D01*
X123788098Y-117516175D01*
X123665317Y-117416038D01*
X123564327Y-117293961D01*
X123488970Y-117154593D01*
X123442117Y-117003235D01*
X123423350Y-116824674D01*
X123423350Y-109640986D01*
X123531349Y-109729618D01*
X123701771Y-109820711D01*
X123886690Y-109876805D01*
X124030813Y-109891000D01*
X124827187Y-109891000D01*
X124971310Y-109876805D01*
X125156229Y-109820711D01*
X125326651Y-109729618D01*
X125476028Y-109607028D01*
X125598618Y-109457651D01*
X125689711Y-109287229D01*
X125745805Y-109102310D01*
X125764746Y-108910000D01*
X125745805Y-108717690D01*
X125689711Y-108532771D01*
X125598618Y-108362349D01*
X125476028Y-108212972D01*
X125326651Y-108090382D01*
X125156229Y-107999289D01*
X124971310Y-107943195D01*
X124827187Y-107929000D01*
X124030813Y-107929000D01*
X123886690Y-107943195D01*
X123701771Y-107999289D01*
X123531349Y-108090382D01*
X123423350Y-108179014D01*
X123423350Y-107801069D01*
X126023000Y-107801069D01*
X126023000Y-108018931D01*
X126065503Y-108232608D01*
X126148876Y-108433887D01*
X126269914Y-108615034D01*
X126423966Y-108769086D01*
X126605113Y-108890124D01*
X126806392Y-108973497D01*
X127020069Y-109016000D01*
X127237931Y-109016000D01*
X127451608Y-108973497D01*
X127652887Y-108890124D01*
X127834034Y-108769086D01*
X127988086Y-108615034D01*
X128109124Y-108433887D01*
X128192497Y-108232608D01*
X128235000Y-108018931D01*
X128235000Y-107801069D01*
X128192497Y-107587392D01*
X128109124Y-107386113D01*
X127988086Y-107204966D01*
X127834034Y-107050914D01*
X127652887Y-106929876D01*
X127451608Y-106846503D01*
X127237931Y-106804000D01*
X127020069Y-106804000D01*
X126806392Y-106846503D01*
X126605113Y-106929876D01*
X126423966Y-107050914D01*
X126269914Y-107204966D01*
X126148876Y-107386113D01*
X126065503Y-107587392D01*
X126023000Y-107801069D01*
X123423350Y-107801069D01*
X123423350Y-102640986D01*
X123531349Y-102729618D01*
X123701771Y-102820711D01*
X123886690Y-102876805D01*
X124030813Y-102891000D01*
X124827187Y-102891000D01*
X124971310Y-102876805D01*
X125156229Y-102820711D01*
X125192976Y-102801069D01*
X126023000Y-102801069D01*
X126023000Y-103018931D01*
X126065503Y-103232608D01*
X126148876Y-103433887D01*
X126269914Y-103615034D01*
X126423966Y-103769086D01*
X126605113Y-103890124D01*
X126806392Y-103973497D01*
X127020069Y-104016000D01*
X127237931Y-104016000D01*
X127451608Y-103973497D01*
X127652887Y-103890124D01*
X127834034Y-103769086D01*
X127988086Y-103615034D01*
X128109124Y-103433887D01*
X128192497Y-103232608D01*
X128235000Y-103018931D01*
X128235000Y-102801069D01*
X128192497Y-102587392D01*
X128109124Y-102386113D01*
X127988086Y-102204966D01*
X127834034Y-102050914D01*
X127652887Y-101929876D01*
X127451608Y-101846503D01*
X127237931Y-101804000D01*
X127020069Y-101804000D01*
X126806392Y-101846503D01*
X126605113Y-101929876D01*
X126423966Y-102050914D01*
X126269914Y-102204966D01*
X126148876Y-102386113D01*
X126065503Y-102587392D01*
X126023000Y-102801069D01*
X125192976Y-102801069D01*
X125326651Y-102729618D01*
X125476028Y-102607028D01*
X125598618Y-102457651D01*
X125689711Y-102287229D01*
X125745805Y-102102310D01*
X125764746Y-101910000D01*
X125745805Y-101717690D01*
X125689711Y-101532771D01*
X125598618Y-101362349D01*
X125476028Y-101212972D01*
X125326651Y-101090382D01*
X125156229Y-100999289D01*
X124971310Y-100943195D01*
X124827187Y-100929000D01*
X124030813Y-100929000D01*
X123886690Y-100943195D01*
X123701771Y-100999289D01*
X123531349Y-101090382D01*
X123423350Y-101179014D01*
X123423350Y-94002305D01*
X123440998Y-93822315D01*
X123486791Y-93670645D01*
X123561174Y-93530749D01*
X123661312Y-93407968D01*
X123783391Y-93306975D01*
X123922757Y-93231620D01*
X124074115Y-93184767D01*
X124252676Y-93166000D01*
X124788259Y-93166000D01*
X124663008Y-93190914D01*
G04 #@! TA.AperFunction,Conductor*
D18*
G36*
X124663008Y-93190914D02*
G01*
X124393483Y-93302555D01*
X124150917Y-93464632D01*
X123944632Y-93670917D01*
X123782555Y-93913483D01*
X123670914Y-94183008D01*
X123614000Y-94469134D01*
X123614000Y-94760866D01*
X123670914Y-95046992D01*
X123782555Y-95316517D01*
X123944632Y-95559083D01*
X124150917Y-95765368D01*
X124393483Y-95927445D01*
X124663008Y-96039086D01*
X124949134Y-96096000D01*
X125240866Y-96096000D01*
X125526992Y-96039086D01*
X125796517Y-95927445D01*
X126039083Y-95765368D01*
X126245368Y-95559083D01*
X126407445Y-95316517D01*
X126519086Y-95046992D01*
X126576000Y-94760866D01*
X126576000Y-94469134D01*
X126519086Y-94183008D01*
X126407445Y-93913483D01*
X126245368Y-93670917D01*
X126039083Y-93464632D01*
X125796517Y-93302555D01*
X125526992Y-93190914D01*
X125401741Y-93166000D01*
X132423103Y-93166000D01*
X132393820Y-93195283D01*
X132259102Y-93396903D01*
X132166307Y-93620931D01*
X132119000Y-93858757D01*
X132119000Y-94101243D01*
X132166307Y-94339069D01*
X132259102Y-94563097D01*
X132393820Y-94764717D01*
X132565283Y-94936180D01*
X132766903Y-95070898D01*
X132990931Y-95163693D01*
X133228757Y-95211000D01*
X133471243Y-95211000D01*
X133709069Y-95163693D01*
X133933097Y-95070898D01*
X134134717Y-94936180D01*
X134306180Y-94764717D01*
X134440898Y-94563097D01*
X134533693Y-94339069D01*
X134581000Y-94101243D01*
X134581000Y-93858757D01*
X134533693Y-93620931D01*
X134440898Y-93396903D01*
X134306180Y-93195283D01*
X134276897Y-93166000D01*
X134963103Y-93166000D01*
X134933820Y-93195283D01*
X134799102Y-93396903D01*
X134706307Y-93620931D01*
X134659000Y-93858757D01*
X134659000Y-94101243D01*
X134706307Y-94339069D01*
X134799102Y-94563097D01*
X134933820Y-94764717D01*
X135105283Y-94936180D01*
X135306903Y-95070898D01*
X135530931Y-95163693D01*
X135768757Y-95211000D01*
X136011243Y-95211000D01*
X136249069Y-95163693D01*
X136473097Y-95070898D01*
X136674717Y-94936180D01*
X136846180Y-94764717D01*
X136980898Y-94563097D01*
X137073693Y-94339069D01*
X137121000Y-94101243D01*
X137121000Y-93858757D01*
X137073693Y-93620931D01*
X136980898Y-93396903D01*
X136846180Y-93195283D01*
X136816897Y-93166000D01*
X137503103Y-93166000D01*
X137473820Y-93195283D01*
X137339102Y-93396903D01*
X137246307Y-93620931D01*
X137199000Y-93858757D01*
X137199000Y-94101243D01*
X137246307Y-94339069D01*
X137339102Y-94563097D01*
X137473820Y-94764717D01*
X137645283Y-94936180D01*
X137846903Y-95070898D01*
X138070931Y-95163693D01*
X138308757Y-95211000D01*
X138551243Y-95211000D01*
X138789069Y-95163693D01*
X139013097Y-95070898D01*
X139214717Y-94936180D01*
X139386180Y-94764717D01*
X139520898Y-94563097D01*
X139613693Y-94339069D01*
X139661000Y-94101243D01*
X139661000Y-93858757D01*
X139613693Y-93620931D01*
X139520898Y-93396903D01*
X139386180Y-93195283D01*
X139356897Y-93166000D01*
X140043103Y-93166000D01*
X140013820Y-93195283D01*
X139879102Y-93396903D01*
X139786307Y-93620931D01*
X139739000Y-93858757D01*
X139739000Y-94101243D01*
X139786307Y-94339069D01*
X139879102Y-94563097D01*
X140013820Y-94764717D01*
X140185283Y-94936180D01*
X140386903Y-95070898D01*
X140610931Y-95163693D01*
X140848757Y-95211000D01*
X141091243Y-95211000D01*
X141329069Y-95163693D01*
X141553097Y-95070898D01*
X141754717Y-94936180D01*
X141926180Y-94764717D01*
X142060898Y-94563097D01*
X142153693Y-94339069D01*
X142201000Y-94101243D01*
X142201000Y-93858757D01*
X142153693Y-93620931D01*
X142060898Y-93396903D01*
X141926180Y-93195283D01*
X141896897Y-93166000D01*
X142583103Y-93166000D01*
X142553820Y-93195283D01*
X142419102Y-93396903D01*
X142326307Y-93620931D01*
X142279000Y-93858757D01*
X142279000Y-94101243D01*
X142326307Y-94339069D01*
X142419102Y-94563097D01*
X142553820Y-94764717D01*
X142725283Y-94936180D01*
X142926903Y-95070898D01*
X143150931Y-95163693D01*
X143388757Y-95211000D01*
X143631243Y-95211000D01*
X143869069Y-95163693D01*
X144093097Y-95070898D01*
X144294717Y-94936180D01*
X144466180Y-94764717D01*
X144600898Y-94563097D01*
X144693693Y-94339069D01*
X144741000Y-94101243D01*
X144741000Y-93858757D01*
X144693693Y-93620931D01*
X144600898Y-93396903D01*
X144466180Y-93195283D01*
X144436897Y-93166000D01*
X145123103Y-93166000D01*
X145093820Y-93195283D01*
X144959102Y-93396903D01*
X144866307Y-93620931D01*
X144819000Y-93858757D01*
X144819000Y-94101243D01*
X144866307Y-94339069D01*
X144959102Y-94563097D01*
X145093820Y-94764717D01*
X145265283Y-94936180D01*
X145466903Y-95070898D01*
X145690931Y-95163693D01*
X145928757Y-95211000D01*
X146171243Y-95211000D01*
X146409069Y-95163693D01*
X146633097Y-95070898D01*
X146834717Y-94936180D01*
X147006180Y-94764717D01*
X147140898Y-94563097D01*
X147233693Y-94339069D01*
X147281000Y-94101243D01*
X147281000Y-93858757D01*
X147233693Y-93620931D01*
X147140898Y-93396903D01*
X147006180Y-93195283D01*
X146976897Y-93166000D01*
X147663103Y-93166000D01*
X147633820Y-93195283D01*
X147499102Y-93396903D01*
X147406307Y-93620931D01*
X147359000Y-93858757D01*
X147359000Y-94101243D01*
X147406307Y-94339069D01*
X147499102Y-94563097D01*
X147633820Y-94764717D01*
X147805283Y-94936180D01*
X148006903Y-95070898D01*
X148230931Y-95163693D01*
X148468757Y-95211000D01*
X148711243Y-95211000D01*
X148949069Y-95163693D01*
X149173097Y-95070898D01*
X149374717Y-94936180D01*
X149546180Y-94764717D01*
X149680898Y-94563097D01*
X149773693Y-94339069D01*
X149821000Y-94101243D01*
X149821000Y-93858757D01*
X149773693Y-93620931D01*
X149680898Y-93396903D01*
X149546180Y-93195283D01*
X149516897Y-93166000D01*
X150203103Y-93166000D01*
X150173820Y-93195283D01*
X150039102Y-93396903D01*
X149946307Y-93620931D01*
X149899000Y-93858757D01*
X149899000Y-94101243D01*
X149946307Y-94339069D01*
X150039102Y-94563097D01*
X150173820Y-94764717D01*
X150345283Y-94936180D01*
X150546903Y-95070898D01*
X150770931Y-95163693D01*
X151008757Y-95211000D01*
X151251243Y-95211000D01*
X151489069Y-95163693D01*
X151713097Y-95070898D01*
X151914717Y-94936180D01*
X152086180Y-94764717D01*
X152220898Y-94563097D01*
X152313693Y-94339069D01*
X152361000Y-94101243D01*
X152361000Y-93858757D01*
X152313693Y-93620931D01*
X152220898Y-93396903D01*
X152086180Y-93195283D01*
X152056897Y-93166000D01*
X152743103Y-93166000D01*
X152713820Y-93195283D01*
X152579102Y-93396903D01*
X152486307Y-93620931D01*
X152439000Y-93858757D01*
X152439000Y-94101243D01*
X152486307Y-94339069D01*
X152579102Y-94563097D01*
X152713820Y-94764717D01*
X152885283Y-94936180D01*
X153086903Y-95070898D01*
X153310931Y-95163693D01*
X153548757Y-95211000D01*
X153791243Y-95211000D01*
X154029069Y-95163693D01*
X154253097Y-95070898D01*
X154454717Y-94936180D01*
X154626180Y-94764717D01*
X154760898Y-94563097D01*
X154853693Y-94339069D01*
X154901000Y-94101243D01*
X154901000Y-93858757D01*
X154853693Y-93620931D01*
X154760898Y-93396903D01*
X154626180Y-93195283D01*
X154596897Y-93166000D01*
X155283103Y-93166000D01*
X155253820Y-93195283D01*
X155119102Y-93396903D01*
X155026307Y-93620931D01*
X154979000Y-93858757D01*
X154979000Y-94101243D01*
X155026307Y-94339069D01*
X155119102Y-94563097D01*
X155253820Y-94764717D01*
X155425283Y-94936180D01*
X155626903Y-95070898D01*
X155850931Y-95163693D01*
X156088757Y-95211000D01*
X156331243Y-95211000D01*
X156569069Y-95163693D01*
X156793097Y-95070898D01*
X156994717Y-94936180D01*
X157166180Y-94764717D01*
X157300898Y-94563097D01*
X157393693Y-94339069D01*
X157441000Y-94101243D01*
X157441000Y-93858757D01*
X157393693Y-93620931D01*
X157300898Y-93396903D01*
X157166180Y-93195283D01*
X157136897Y-93166000D01*
X157823103Y-93166000D01*
X157793820Y-93195283D01*
X157659102Y-93396903D01*
X157566307Y-93620931D01*
X157519000Y-93858757D01*
X157519000Y-94101243D01*
X157566307Y-94339069D01*
X157659102Y-94563097D01*
X157793820Y-94764717D01*
X157965283Y-94936180D01*
X158166903Y-95070898D01*
X158390931Y-95163693D01*
X158628757Y-95211000D01*
X158871243Y-95211000D01*
X159109069Y-95163693D01*
X159333097Y-95070898D01*
X159534717Y-94936180D01*
X159706180Y-94764717D01*
X159840898Y-94563097D01*
X159933693Y-94339069D01*
X159981000Y-94101243D01*
X159981000Y-93858757D01*
X159933693Y-93620931D01*
X159840898Y-93396903D01*
X159706180Y-93195283D01*
X159676897Y-93166000D01*
X160363103Y-93166000D01*
X160333820Y-93195283D01*
X160199102Y-93396903D01*
X160106307Y-93620931D01*
X160059000Y-93858757D01*
X160059000Y-94101243D01*
X160106307Y-94339069D01*
X160199102Y-94563097D01*
X160333820Y-94764717D01*
X160505283Y-94936180D01*
X160706903Y-95070898D01*
X160930931Y-95163693D01*
X161168757Y-95211000D01*
X161411243Y-95211000D01*
X161649069Y-95163693D01*
X161873097Y-95070898D01*
X162074717Y-94936180D01*
X162246180Y-94764717D01*
X162380898Y-94563097D01*
X162473693Y-94339069D01*
X162521000Y-94101243D01*
X162521000Y-93858757D01*
X162473693Y-93620931D01*
X162380898Y-93396903D01*
X162246180Y-93195283D01*
X162216897Y-93166000D01*
X162903103Y-93166000D01*
X162873820Y-93195283D01*
X162739102Y-93396903D01*
X162646307Y-93620931D01*
X162599000Y-93858757D01*
X162599000Y-94101243D01*
X162646307Y-94339069D01*
X162739102Y-94563097D01*
X162873820Y-94764717D01*
X163045283Y-94936180D01*
X163246903Y-95070898D01*
X163470931Y-95163693D01*
X163708757Y-95211000D01*
X163951243Y-95211000D01*
X164189069Y-95163693D01*
X164413097Y-95070898D01*
X164614717Y-94936180D01*
X164786180Y-94764717D01*
X164920898Y-94563097D01*
X165013693Y-94339069D01*
X165061000Y-94101243D01*
X165061000Y-93858757D01*
X165013693Y-93620931D01*
X164920898Y-93396903D01*
X164786180Y-93195283D01*
X164756897Y-93166000D01*
X165443103Y-93166000D01*
X165413820Y-93195283D01*
X165279102Y-93396903D01*
X165186307Y-93620931D01*
X165139000Y-93858757D01*
X165139000Y-94101243D01*
X165186307Y-94339069D01*
X165279102Y-94563097D01*
X165413820Y-94764717D01*
X165585283Y-94936180D01*
X165786903Y-95070898D01*
X166010931Y-95163693D01*
X166248757Y-95211000D01*
X166491243Y-95211000D01*
X166729069Y-95163693D01*
X166953097Y-95070898D01*
X167154717Y-94936180D01*
X167326180Y-94764717D01*
X167460898Y-94563097D01*
X167553693Y-94339069D01*
X167601000Y-94101243D01*
X167601000Y-93858757D01*
X167553693Y-93620931D01*
X167460898Y-93396903D01*
X167326180Y-93195283D01*
X167296897Y-93166000D01*
X167983103Y-93166000D01*
X167953820Y-93195283D01*
X167819102Y-93396903D01*
X167726307Y-93620931D01*
X167679000Y-93858757D01*
X167679000Y-94101243D01*
X167726307Y-94339069D01*
X167819102Y-94563097D01*
X167953820Y-94764717D01*
X168125283Y-94936180D01*
X168326903Y-95070898D01*
X168550931Y-95163693D01*
X168788757Y-95211000D01*
X169031243Y-95211000D01*
X169269069Y-95163693D01*
X169493097Y-95070898D01*
X169694717Y-94936180D01*
X169866180Y-94764717D01*
X170000898Y-94563097D01*
X170093693Y-94339069D01*
X170141000Y-94101243D01*
X170141000Y-93858757D01*
X170093693Y-93620931D01*
X170000898Y-93396903D01*
X169866180Y-93195283D01*
X169836897Y-93166000D01*
X170523103Y-93166000D01*
X170493820Y-93195283D01*
X170359102Y-93396903D01*
X170266307Y-93620931D01*
X170219000Y-93858757D01*
X170219000Y-94101243D01*
X170266307Y-94339069D01*
X170359102Y-94563097D01*
X170493820Y-94764717D01*
X170665283Y-94936180D01*
X170866903Y-95070898D01*
X171090931Y-95163693D01*
X171328757Y-95211000D01*
X171571243Y-95211000D01*
X171809069Y-95163693D01*
X172033097Y-95070898D01*
X172234717Y-94936180D01*
X172406180Y-94764717D01*
X172540898Y-94563097D01*
X172633693Y-94339069D01*
X172681000Y-94101243D01*
X172681000Y-93858757D01*
X172633693Y-93620931D01*
X172540898Y-93396903D01*
X172406180Y-93195283D01*
X172376897Y-93166000D01*
X173063103Y-93166000D01*
X173033820Y-93195283D01*
X172899102Y-93396903D01*
X172806307Y-93620931D01*
X172759000Y-93858757D01*
X172759000Y-94101243D01*
X172806307Y-94339069D01*
X172899102Y-94563097D01*
X173033820Y-94764717D01*
X173205283Y-94936180D01*
X173406903Y-95070898D01*
X173630931Y-95163693D01*
X173868757Y-95211000D01*
X173945580Y-95211000D01*
X173648430Y-95508150D01*
X173629053Y-95524052D01*
X173613151Y-95543429D01*
X173613150Y-95543430D01*
X173565571Y-95601405D01*
X173518401Y-95689656D01*
X173518400Y-95689657D01*
X173497669Y-95758000D01*
X173489352Y-95785416D01*
X173479543Y-95885000D01*
X173482001Y-95909954D01*
X173482000Y-97828499D01*
X173383358Y-97927141D01*
X173297887Y-98055058D01*
X173239013Y-98197191D01*
X173209000Y-98348078D01*
X173209000Y-98487579D01*
X171693590Y-100002990D01*
X149159389Y-100002990D01*
X148185065Y-99028667D01*
X148221432Y-99013603D01*
X148247029Y-98996500D01*
X155676999Y-98996500D01*
X155712141Y-99031642D01*
X155840058Y-99117113D01*
X155982191Y-99175987D01*
X156133078Y-99206000D01*
X156286922Y-99206000D01*
X156437809Y-99175987D01*
X156579942Y-99117113D01*
X156707859Y-99031642D01*
X156816642Y-98922859D01*
X156902113Y-98794942D01*
X156960987Y-98652809D01*
X156991000Y-98501922D01*
X156991000Y-98348078D01*
X156960987Y-98197191D01*
X156902113Y-98055058D01*
X156816642Y-97927141D01*
X156707859Y-97818358D01*
X156579942Y-97732887D01*
X156437809Y-97674013D01*
X156286922Y-97644000D01*
X156133078Y-97644000D01*
X155982191Y-97674013D01*
X155840058Y-97732887D01*
X155712141Y-97818358D01*
X155676999Y-97853500D01*
X148478090Y-97853500D01*
X148458132Y-97823631D01*
X148349349Y-97714848D01*
X148221432Y-97629377D01*
X148079299Y-97570503D01*
X147928412Y-97540490D01*
X147878712Y-97540490D01*
X147743970Y-97405748D01*
X147726067Y-97383933D01*
X147639045Y-97312516D01*
X147539762Y-97259448D01*
X147432034Y-97226769D01*
X147348074Y-97218500D01*
X147320000Y-97215735D01*
X147291926Y-97218500D01*
X140363074Y-97218500D01*
X140355651Y-97217769D01*
X140726411Y-96847010D01*
X156453590Y-96847010D01*
X159100151Y-99493572D01*
X159116053Y-99512949D01*
X159135430Y-99528851D01*
X159193405Y-99576430D01*
X159198238Y-99579013D01*
X159281658Y-99623602D01*
X159377416Y-99652650D01*
X159452054Y-99660001D01*
X159452056Y-99660001D01*
X159477000Y-99662458D01*
X159501944Y-99660001D01*
X161173055Y-99660001D01*
X161197999Y-99662458D01*
X161222943Y-99660001D01*
X161222946Y-99660001D01*
X161297584Y-99652650D01*
X161393342Y-99623602D01*
X161481594Y-99576430D01*
X161558947Y-99512949D01*
X161574854Y-99493566D01*
X161862420Y-99206000D01*
X162001922Y-99206000D01*
X162152809Y-99175987D01*
X162294942Y-99117113D01*
X162422859Y-99031642D01*
X162531642Y-98922859D01*
X162617113Y-98794942D01*
X162675987Y-98652809D01*
X162706000Y-98501922D01*
X162706000Y-98348078D01*
X162675987Y-98197191D01*
X162617113Y-98055058D01*
X162531642Y-97927141D01*
X162422859Y-97818358D01*
X162294942Y-97732887D01*
X162152809Y-97674013D01*
X162001922Y-97644000D01*
X161848078Y-97644000D01*
X161697191Y-97674013D01*
X161555058Y-97732887D01*
X161427141Y-97818358D01*
X161318358Y-97927141D01*
X161232887Y-98055058D01*
X161174013Y-98197191D01*
X161144000Y-98348078D01*
X161144000Y-98487580D01*
X160987579Y-98644001D01*
X160772739Y-98644001D01*
X160801000Y-98501922D01*
X160801000Y-98348078D01*
X160770987Y-98197191D01*
X160712113Y-98055058D01*
X160626642Y-97927141D01*
X160517859Y-97818358D01*
X160389942Y-97732887D01*
X160247809Y-97674013D01*
X160096922Y-97644000D01*
X159957421Y-97644000D01*
X157856855Y-95543435D01*
X157840948Y-95524052D01*
X157763595Y-95460571D01*
X157675343Y-95413399D01*
X157579585Y-95384351D01*
X157504947Y-95377000D01*
X157504944Y-95377000D01*
X157480000Y-95374543D01*
X157455056Y-95377000D01*
X137184943Y-95377000D01*
X137159999Y-95374543D01*
X137135055Y-95377000D01*
X137135053Y-95377000D01*
X137060415Y-95384351D01*
X136964657Y-95413399D01*
X136964655Y-95413400D01*
X136876404Y-95460571D01*
X136821810Y-95505376D01*
X136799052Y-95524052D01*
X136783150Y-95543429D01*
X136324166Y-96002413D01*
X136249069Y-95971307D01*
X136011243Y-95924000D01*
X135768757Y-95924000D01*
X135530931Y-95971307D01*
X135306903Y-96064102D01*
X135105283Y-96198820D01*
X134933820Y-96370283D01*
X134799102Y-96571903D01*
X134706307Y-96795931D01*
X134659000Y-97033757D01*
X134659000Y-97276243D01*
X134706307Y-97514069D01*
X134799102Y-97738097D01*
X134876212Y-97853500D01*
X134363788Y-97853500D01*
X134440898Y-97738097D01*
X134533693Y-97514069D01*
X134581000Y-97276243D01*
X134581000Y-97033757D01*
X134533693Y-96795931D01*
X134440898Y-96571903D01*
X134306180Y-96370283D01*
X134134717Y-96198820D01*
X133933097Y-96064102D01*
X133709069Y-95971307D01*
X133471243Y-95924000D01*
X133228757Y-95924000D01*
X132990931Y-95971307D01*
X132766903Y-96064102D01*
X132565283Y-96198820D01*
X132393820Y-96370283D01*
X132259102Y-96571903D01*
X132166307Y-96795931D01*
X132119000Y-97033757D01*
X132119000Y-97276243D01*
X132166307Y-97514069D01*
X132259102Y-97738097D01*
X132393820Y-97939717D01*
X132565283Y-98111180D01*
X132766903Y-98245898D01*
X132990931Y-98338693D01*
X133115187Y-98363409D01*
X133303777Y-98552000D01*
X126961501Y-98552000D01*
X126862859Y-98453358D01*
X126734942Y-98367887D01*
X126592809Y-98309013D01*
X126441922Y-98279000D01*
X126288078Y-98279000D01*
X126137191Y-98309013D01*
X125995058Y-98367887D01*
X125867141Y-98453358D01*
X125758358Y-98562141D01*
X125672887Y-98690058D01*
X125614013Y-98832191D01*
X125584000Y-98983078D01*
X125584000Y-99136922D01*
X125614013Y-99287809D01*
X125672887Y-99429942D01*
X125758358Y-99557859D01*
X125867141Y-99666642D01*
X125995058Y-99752113D01*
X126137191Y-99810987D01*
X126288078Y-99841000D01*
X126441922Y-99841000D01*
X126592809Y-99810987D01*
X126734942Y-99752113D01*
X126862859Y-99666642D01*
X126961501Y-99568000D01*
X139771924Y-99568000D01*
X139796868Y-99570457D01*
X139821812Y-99568000D01*
X139821815Y-99568000D01*
X139896453Y-99560649D01*
X139992211Y-99531601D01*
X140080463Y-99484429D01*
X140157816Y-99420948D01*
X140173723Y-99401565D01*
X140642288Y-98933000D01*
X146652558Y-98933000D01*
X147268558Y-99549000D01*
X147243078Y-99549000D01*
X147092191Y-99579013D01*
X146950058Y-99637887D01*
X146822141Y-99723358D01*
X146713358Y-99832141D01*
X146627887Y-99960058D01*
X146569013Y-100102191D01*
X146539000Y-100253078D01*
X146539000Y-100406922D01*
X146569013Y-100557809D01*
X146627887Y-100699942D01*
X146713358Y-100827859D01*
X146748501Y-100863002D01*
X146748500Y-101998277D01*
X145387778Y-103359000D01*
X145338078Y-103359000D01*
X145187191Y-103389013D01*
X145045058Y-103447887D01*
X144917141Y-103533358D01*
X144808358Y-103642141D01*
X144722887Y-103770058D01*
X144664013Y-103912191D01*
X144634000Y-104063078D01*
X144634000Y-104216922D01*
X144664013Y-104367809D01*
X144722887Y-104509942D01*
X144808358Y-104637859D01*
X144917141Y-104746642D01*
X145045058Y-104832113D01*
X145187191Y-104890987D01*
X145338078Y-104921000D01*
X145491922Y-104921000D01*
X145642809Y-104890987D01*
X145784942Y-104832113D01*
X145912859Y-104746642D01*
X146021642Y-104637859D01*
X146107113Y-104509942D01*
X146165987Y-104367809D01*
X146196000Y-104216922D01*
X146196000Y-104167222D01*
X147704258Y-102658965D01*
X147726067Y-102641067D01*
X147797484Y-102554045D01*
X147850552Y-102454762D01*
X147883231Y-102347034D01*
X147891500Y-102263074D01*
X147891500Y-102263073D01*
X147894265Y-102235000D01*
X147891500Y-102206926D01*
X147891500Y-100863001D01*
X147926642Y-100827859D01*
X148012113Y-100699942D01*
X148070987Y-100557809D01*
X148101000Y-100406922D01*
X148101000Y-100381443D01*
X148572118Y-100852561D01*
X148588020Y-100871938D01*
X148607397Y-100887840D01*
X148665372Y-100935419D01*
X148753623Y-100982590D01*
X148753625Y-100982591D01*
X148849383Y-101011639D01*
X148924021Y-101018990D01*
X148924023Y-101018990D01*
X148948967Y-101021447D01*
X148973911Y-101018990D01*
X150992590Y-101018990D01*
X144569580Y-107442000D01*
X144106501Y-107442000D01*
X144007859Y-107343358D01*
X143879942Y-107257887D01*
X143737809Y-107199013D01*
X143586922Y-107169000D01*
X143433078Y-107169000D01*
X143282191Y-107199013D01*
X143140058Y-107257887D01*
X143012141Y-107343358D01*
X142903358Y-107452141D01*
X142817887Y-107580058D01*
X142759013Y-107722191D01*
X142729000Y-107873078D01*
X142729000Y-108026922D01*
X142759013Y-108177809D01*
X142817887Y-108319942D01*
X142903358Y-108447859D01*
X143012141Y-108556642D01*
X143140058Y-108642113D01*
X143282191Y-108700987D01*
X143337558Y-108712000D01*
X142899943Y-108712000D01*
X142874999Y-108709543D01*
X142850055Y-108712000D01*
X142850053Y-108712000D01*
X142775415Y-108719351D01*
X142679657Y-108748399D01*
X142679655Y-108748400D01*
X142591404Y-108795571D01*
X142570400Y-108812809D01*
X142514052Y-108859052D01*
X142498150Y-108878429D01*
X140721429Y-110655151D01*
X140702052Y-110671053D01*
X140686150Y-110690430D01*
X140686149Y-110690431D01*
X140638570Y-110748406D01*
X140619850Y-110783430D01*
X140591399Y-110836658D01*
X140562351Y-110932416D01*
X140562155Y-110934404D01*
X140552542Y-111032001D01*
X140555000Y-111056955D01*
X140554999Y-113996581D01*
X138938000Y-115613580D01*
X138938000Y-114324944D01*
X138940457Y-114300000D01*
X138934475Y-114239265D01*
X138930649Y-114200415D01*
X138901601Y-114104657D01*
X138854429Y-114016405D01*
X138790948Y-113939052D01*
X138771565Y-113923145D01*
X137677587Y-112829167D01*
X137708693Y-112754069D01*
X137756000Y-112516243D01*
X137756000Y-112273757D01*
X137708693Y-112035931D01*
X137615898Y-111811903D01*
X137481180Y-111610283D01*
X137309717Y-111438820D01*
X137108097Y-111304102D01*
X136884069Y-111211307D01*
X136646243Y-111164000D01*
X136403757Y-111164000D01*
X136165931Y-111211307D01*
X135941903Y-111304102D01*
X135740283Y-111438820D01*
X135568820Y-111610283D01*
X135434102Y-111811903D01*
X135341307Y-112035931D01*
X135294000Y-112273757D01*
X135294000Y-112516243D01*
X135341307Y-112754069D01*
X135434102Y-112978097D01*
X135568820Y-113179717D01*
X135740283Y-113351180D01*
X135941903Y-113485898D01*
X136165931Y-113578693D01*
X136403757Y-113626000D01*
X136646243Y-113626000D01*
X136884069Y-113578693D01*
X136959167Y-113547587D01*
X137922001Y-114510421D01*
X137922000Y-115717996D01*
X137846903Y-115749102D01*
X137645283Y-115883820D01*
X137473820Y-116055283D01*
X137339102Y-116256903D01*
X137246307Y-116480931D01*
X137199000Y-116718757D01*
X137199000Y-116961243D01*
X137246307Y-117199069D01*
X137339102Y-117423097D01*
X137473820Y-117624717D01*
X137503103Y-117654000D01*
X136816897Y-117654000D01*
X136846180Y-117624717D01*
X136980898Y-117423097D01*
X137073693Y-117199069D01*
X137121000Y-116961243D01*
X137121000Y-116718757D01*
X137073693Y-116480931D01*
X136980898Y-116256903D01*
X136846180Y-116055283D01*
X136674717Y-115883820D01*
X136473097Y-115749102D01*
X136461500Y-115744298D01*
X136461500Y-115598074D01*
X136464265Y-115570000D01*
X136453231Y-115457966D01*
X136420552Y-115350238D01*
X136367484Y-115250955D01*
X136340926Y-115218594D01*
X136296067Y-115163933D01*
X136274258Y-115146035D01*
X134595686Y-113467464D01*
X134769717Y-113351180D01*
X134941180Y-113179717D01*
X135075898Y-112978097D01*
X135168693Y-112754069D01*
X135216000Y-112516243D01*
X135216000Y-112273757D01*
X135168693Y-112035931D01*
X135075898Y-111811903D01*
X134941180Y-111610283D01*
X134769717Y-111438820D01*
X134647951Y-111357459D01*
X134647951Y-104894522D01*
X134650716Y-104866450D01*
X134647334Y-104832113D01*
X134639682Y-104754417D01*
X134607003Y-104646689D01*
X134553935Y-104547406D01*
X134482518Y-104460384D01*
X134460709Y-104442486D01*
X134094723Y-104076500D01*
X141576926Y-104076500D01*
X141605000Y-104079265D01*
X141633074Y-104076500D01*
X141717034Y-104068231D01*
X141824762Y-104035552D01*
X141924045Y-103982484D01*
X142011067Y-103911067D01*
X142028970Y-103889252D01*
X144807223Y-101111000D01*
X144856922Y-101111000D01*
X145007809Y-101080987D01*
X145149942Y-101022113D01*
X145277859Y-100936642D01*
X145386642Y-100827859D01*
X145472113Y-100699942D01*
X145530987Y-100557809D01*
X145561000Y-100406922D01*
X145561000Y-100253078D01*
X145530987Y-100102191D01*
X145472113Y-99960058D01*
X145386642Y-99832141D01*
X145277859Y-99723358D01*
X145149942Y-99637887D01*
X145007809Y-99579013D01*
X144856922Y-99549000D01*
X144703078Y-99549000D01*
X144552191Y-99579013D01*
X144410058Y-99637887D01*
X144282141Y-99723358D01*
X144173358Y-99832141D01*
X144087887Y-99960058D01*
X144029013Y-100102191D01*
X143999000Y-100253078D01*
X143999000Y-100302777D01*
X141368278Y-102933500D01*
X132743074Y-102933500D01*
X132715000Y-102930735D01*
X132686926Y-102933500D01*
X131343001Y-102933500D01*
X131307859Y-102898358D01*
X131179942Y-102812887D01*
X131037809Y-102754013D01*
X130886922Y-102724000D01*
X130733078Y-102724000D01*
X130582191Y-102754013D01*
X130440058Y-102812887D01*
X130312141Y-102898358D01*
X130203358Y-103007141D01*
X130117887Y-103135058D01*
X130111500Y-103150477D01*
X130111500Y-102768001D01*
X130146642Y-102732859D01*
X130232113Y-102604942D01*
X130290987Y-102462809D01*
X130321000Y-102311922D01*
X130321000Y-102158078D01*
X130290987Y-102007191D01*
X130232113Y-101865058D01*
X130146642Y-101737141D01*
X130037859Y-101628358D01*
X129909942Y-101542887D01*
X129767809Y-101484013D01*
X129616922Y-101454000D01*
X129463078Y-101454000D01*
X129312191Y-101484013D01*
X129170058Y-101542887D01*
X129042141Y-101628358D01*
X128933358Y-101737141D01*
X128847887Y-101865058D01*
X128789013Y-102007191D01*
X128759000Y-102158078D01*
X128759000Y-102311922D01*
X128789013Y-102462809D01*
X128847887Y-102604942D01*
X128933358Y-102732859D01*
X128968501Y-102768002D01*
X128968500Y-104111925D01*
X128965735Y-104140000D01*
X128973311Y-104216922D01*
X128976769Y-104252033D01*
X129009448Y-104359761D01*
X129062516Y-104459044D01*
X129133933Y-104546067D01*
X129155748Y-104563970D01*
X129751034Y-105159257D01*
X129768933Y-105181067D01*
X129855955Y-105252484D01*
X129955238Y-105305552D01*
X130062966Y-105338231D01*
X130175000Y-105349265D01*
X130203074Y-105346500D01*
X131112828Y-105346500D01*
X132504950Y-106738623D01*
X132504950Y-106788322D01*
X132534963Y-106939209D01*
X132593837Y-107081342D01*
X132679308Y-107209259D01*
X132788091Y-107318042D01*
X132916008Y-107403513D01*
X133058141Y-107462387D01*
X133209028Y-107492400D01*
X133362872Y-107492400D01*
X133504951Y-107464139D01*
X133504952Y-111261418D01*
X133401903Y-111304102D01*
X133200283Y-111438820D01*
X133028820Y-111610283D01*
X132894102Y-111811903D01*
X132801307Y-112035931D01*
X132754000Y-112273757D01*
X132754000Y-112516243D01*
X132801307Y-112754069D01*
X132894102Y-112978097D01*
X133028820Y-113179717D01*
X133200283Y-113351180D01*
X133401903Y-113485898D01*
X133413501Y-113490702D01*
X133413501Y-113636916D01*
X133410735Y-113665000D01*
X133421769Y-113777033D01*
X133454448Y-113884761D01*
X133493825Y-113958430D01*
X133507517Y-113984045D01*
X133578934Y-114071067D01*
X133600744Y-114088966D01*
X135279314Y-115767537D01*
X135105283Y-115883820D01*
X134933820Y-116055283D01*
X134799102Y-116256903D01*
X134706307Y-116480931D01*
X134659000Y-116718757D01*
X134659000Y-116961243D01*
X134706307Y-117199069D01*
X134799102Y-117423097D01*
X134933820Y-117624717D01*
X134963103Y-117654000D01*
X125401741Y-117654000D01*
X125526992Y-117629086D01*
X125796517Y-117517445D01*
X126039083Y-117355368D01*
X126245368Y-117149083D01*
X126407445Y-116906517D01*
X126519086Y-116636992D01*
X126576000Y-116350866D01*
X126576000Y-116059134D01*
X126519086Y-115773008D01*
X126407445Y-115503483D01*
X126245368Y-115260917D01*
X126039083Y-115054632D01*
X125796517Y-114892555D01*
X125526992Y-114780914D01*
X125240866Y-114724000D01*
X124949134Y-114724000D01*
X124663008Y-114780914D01*
X124393483Y-114892555D01*
X124150917Y-115054632D01*
X123944632Y-115260917D01*
X123782555Y-115503483D01*
X123670914Y-115773008D01*
X123614000Y-116059134D01*
X123614000Y-116350866D01*
X123670914Y-116636992D01*
X123782555Y-116906517D01*
X123944632Y-117149083D01*
X124150917Y-117355368D01*
X124393483Y-117517445D01*
X124663008Y-117629086D01*
X124788259Y-117654000D01*
X124259655Y-117654000D01*
X124079665Y-117636352D01*
X123927995Y-117590559D01*
X123788098Y-117516175D01*
X123665317Y-117416038D01*
X123564327Y-117293961D01*
X123488970Y-117154593D01*
X123442117Y-117003235D01*
X123423350Y-116824674D01*
X123423350Y-109640986D01*
X123531349Y-109729618D01*
X123701771Y-109820711D01*
X123886690Y-109876805D01*
X124030813Y-109891000D01*
X124827187Y-109891000D01*
X124971310Y-109876805D01*
X125156229Y-109820711D01*
X125326651Y-109729618D01*
X125476028Y-109607028D01*
X125598618Y-109457651D01*
X125689711Y-109287229D01*
X125745805Y-109102310D01*
X125764746Y-108910000D01*
X125745805Y-108717690D01*
X125689711Y-108532771D01*
X125598618Y-108362349D01*
X125476028Y-108212972D01*
X125326651Y-108090382D01*
X125156229Y-107999289D01*
X124971310Y-107943195D01*
X124827187Y-107929000D01*
X124030813Y-107929000D01*
X123886690Y-107943195D01*
X123701771Y-107999289D01*
X123531349Y-108090382D01*
X123423350Y-108179014D01*
X123423350Y-107801069D01*
X126023000Y-107801069D01*
X126023000Y-108018931D01*
X126065503Y-108232608D01*
X126148876Y-108433887D01*
X126269914Y-108615034D01*
X126423966Y-108769086D01*
X126605113Y-108890124D01*
X126806392Y-108973497D01*
X127020069Y-109016000D01*
X127237931Y-109016000D01*
X127451608Y-108973497D01*
X127652887Y-108890124D01*
X127834034Y-108769086D01*
X127988086Y-108615034D01*
X128109124Y-108433887D01*
X128192497Y-108232608D01*
X128235000Y-108018931D01*
X128235000Y-107801069D01*
X128192497Y-107587392D01*
X128109124Y-107386113D01*
X127988086Y-107204966D01*
X127834034Y-107050914D01*
X127652887Y-106929876D01*
X127451608Y-106846503D01*
X127237931Y-106804000D01*
X127020069Y-106804000D01*
X126806392Y-106846503D01*
X126605113Y-106929876D01*
X126423966Y-107050914D01*
X126269914Y-107204966D01*
X126148876Y-107386113D01*
X126065503Y-107587392D01*
X126023000Y-107801069D01*
X123423350Y-107801069D01*
X123423350Y-102640986D01*
X123531349Y-102729618D01*
X123701771Y-102820711D01*
X123886690Y-102876805D01*
X124030813Y-102891000D01*
X124827187Y-102891000D01*
X124971310Y-102876805D01*
X125156229Y-102820711D01*
X125192976Y-102801069D01*
X126023000Y-102801069D01*
X126023000Y-103018931D01*
X126065503Y-103232608D01*
X126148876Y-103433887D01*
X126269914Y-103615034D01*
X126423966Y-103769086D01*
X126605113Y-103890124D01*
X126806392Y-103973497D01*
X127020069Y-104016000D01*
X127237931Y-104016000D01*
X127451608Y-103973497D01*
X127652887Y-103890124D01*
X127834034Y-103769086D01*
X127988086Y-103615034D01*
X128109124Y-103433887D01*
X128192497Y-103232608D01*
X128235000Y-103018931D01*
X128235000Y-102801069D01*
X128192497Y-102587392D01*
X128109124Y-102386113D01*
X127988086Y-102204966D01*
X127834034Y-102050914D01*
X127652887Y-101929876D01*
X127451608Y-101846503D01*
X127237931Y-101804000D01*
X127020069Y-101804000D01*
X126806392Y-101846503D01*
X126605113Y-101929876D01*
X126423966Y-102050914D01*
X126269914Y-102204966D01*
X126148876Y-102386113D01*
X126065503Y-102587392D01*
X126023000Y-102801069D01*
X125192976Y-102801069D01*
X125326651Y-102729618D01*
X125476028Y-102607028D01*
X125598618Y-102457651D01*
X125689711Y-102287229D01*
X125745805Y-102102310D01*
X125764746Y-101910000D01*
X125745805Y-101717690D01*
X125689711Y-101532771D01*
X125598618Y-101362349D01*
X125476028Y-101212972D01*
X125326651Y-101090382D01*
X125156229Y-100999289D01*
X124971310Y-100943195D01*
X124827187Y-100929000D01*
X124030813Y-100929000D01*
X123886690Y-100943195D01*
X123701771Y-100999289D01*
X123531349Y-101090382D01*
X123423350Y-101179014D01*
X123423350Y-94002305D01*
X123440998Y-93822315D01*
X123486791Y-93670645D01*
X123561174Y-93530749D01*
X123661312Y-93407968D01*
X123783391Y-93306975D01*
X123922757Y-93231620D01*
X124074115Y-93184767D01*
X124252676Y-93166000D01*
X124788259Y-93166000D01*
X124663008Y-93190914D01*
G37*
G04 #@! TD.AperFunction*
D17*
X173785881Y-111639301D02*
X173762191Y-111644013D01*
X173620058Y-111702887D01*
X173492141Y-111788358D01*
X173383358Y-111897141D01*
X173355000Y-111939582D01*
X173326642Y-111897141D01*
X173217859Y-111788358D01*
X173089942Y-111702887D01*
X172947809Y-111644013D01*
X172796922Y-111614000D01*
X172643078Y-111614000D01*
X172492191Y-111644013D01*
X172350058Y-111702887D01*
X172222141Y-111788358D01*
X172113358Y-111897141D01*
X172027887Y-112025058D01*
X171969013Y-112167191D01*
X171939000Y-112318078D01*
X171939000Y-112471922D01*
X171969013Y-112622809D01*
X172027887Y-112764942D01*
X172113358Y-112892859D01*
X172222141Y-113001642D01*
X172350058Y-113087113D01*
X172492191Y-113145987D01*
X172643078Y-113176000D01*
X172782580Y-113176000D01*
X175617842Y-116011262D01*
X175573820Y-116055283D01*
X175439102Y-116256903D01*
X175346307Y-116480931D01*
X175299000Y-116718757D01*
X175299000Y-116961243D01*
X175346307Y-117199069D01*
X175439102Y-117423097D01*
X175573820Y-117624717D01*
X175603103Y-117654000D01*
X174916897Y-117654000D01*
X174946180Y-117624717D01*
X175080898Y-117423097D01*
X175173693Y-117199069D01*
X175221000Y-116961243D01*
X175221000Y-116718757D01*
X175173693Y-116480931D01*
X175080898Y-116256903D01*
X174946180Y-116055283D01*
X174774717Y-115883820D01*
X174573097Y-115749102D01*
X174349069Y-115656307D01*
X174111243Y-115609000D01*
X173868757Y-115609000D01*
X173630931Y-115656307D01*
X173406903Y-115749102D01*
X173205283Y-115883820D01*
X173033820Y-116055283D01*
X172899102Y-116256903D01*
X172806307Y-116480931D01*
X172759000Y-116718757D01*
X172759000Y-116961243D01*
X172806307Y-117199069D01*
X172899102Y-117423097D01*
X173033820Y-117624717D01*
X173063103Y-117654000D01*
X172376897Y-117654000D01*
X172406180Y-117624717D01*
X172540898Y-117423097D01*
X172633693Y-117199069D01*
X172681000Y-116961243D01*
X172681000Y-116718757D01*
X172633693Y-116480931D01*
X172540898Y-116256903D01*
X172406180Y-116055283D01*
X172234717Y-115883820D01*
X172033097Y-115749102D01*
X171809069Y-115656307D01*
X171571243Y-115609000D01*
X171328757Y-115609000D01*
X171090931Y-115656307D01*
X170866903Y-115749102D01*
X170665283Y-115883820D01*
X170493820Y-116055283D01*
X170359102Y-116256903D01*
X170266307Y-116480931D01*
X170219000Y-116718757D01*
X170219000Y-116961243D01*
X170266307Y-117199069D01*
X170359102Y-117423097D01*
X170493820Y-117624717D01*
X170523103Y-117654000D01*
X169836897Y-117654000D01*
X169866180Y-117624717D01*
X170000898Y-117423097D01*
X170093693Y-117199069D01*
X170141000Y-116961243D01*
X170141000Y-116718757D01*
X170093693Y-116480931D01*
X170000898Y-116256903D01*
X169866180Y-116055283D01*
X169694717Y-115883820D01*
X169493097Y-115749102D01*
X169269069Y-115656307D01*
X169031243Y-115609000D01*
X168788757Y-115609000D01*
X168550931Y-115656307D01*
X168326903Y-115749102D01*
X168125283Y-115883820D01*
X167953820Y-116055283D01*
X167819102Y-116256903D01*
X167726307Y-116480931D01*
X167679000Y-116718757D01*
X167679000Y-116961243D01*
X167726307Y-117199069D01*
X167819102Y-117423097D01*
X167953820Y-117624717D01*
X167983103Y-117654000D01*
X167296897Y-117654000D01*
X167326180Y-117624717D01*
X167460898Y-117423097D01*
X167553693Y-117199069D01*
X167601000Y-116961243D01*
X167601000Y-116718757D01*
X167553693Y-116480931D01*
X167460898Y-116256903D01*
X167326180Y-116055283D01*
X167154717Y-115883820D01*
X166953097Y-115749102D01*
X166729069Y-115656307D01*
X166491243Y-115609000D01*
X166248757Y-115609000D01*
X166010931Y-115656307D01*
X165786903Y-115749102D01*
X165585283Y-115883820D01*
X165413820Y-116055283D01*
X165279102Y-116256903D01*
X165186307Y-116480931D01*
X165139000Y-116718757D01*
X165139000Y-116961243D01*
X165186307Y-117199069D01*
X165279102Y-117423097D01*
X165413820Y-117624717D01*
X165443103Y-117654000D01*
X164756897Y-117654000D01*
X164786180Y-117624717D01*
X164920898Y-117423097D01*
X165013693Y-117199069D01*
X165061000Y-116961243D01*
X165061000Y-116718757D01*
X165013693Y-116480931D01*
X164920898Y-116256903D01*
X164786180Y-116055283D01*
X164614717Y-115883820D01*
X164413097Y-115749102D01*
X164189069Y-115656307D01*
X163951243Y-115609000D01*
X163708757Y-115609000D01*
X163470931Y-115656307D01*
X163246903Y-115749102D01*
X163045283Y-115883820D01*
X162873820Y-116055283D01*
X162739102Y-116256903D01*
X162646307Y-116480931D01*
X162599000Y-116718757D01*
X162599000Y-116961243D01*
X162646307Y-117199069D01*
X162739102Y-117423097D01*
X162873820Y-117624717D01*
X162903103Y-117654000D01*
X162216897Y-117654000D01*
X162246180Y-117624717D01*
X162380898Y-117423097D01*
X162473693Y-117199069D01*
X162521000Y-116961243D01*
X162521000Y-116718757D01*
X162473693Y-116480931D01*
X162380898Y-116256903D01*
X162246180Y-116055283D01*
X162074717Y-115883820D01*
X161873097Y-115749102D01*
X161649069Y-115656307D01*
X161411243Y-115609000D01*
X161168757Y-115609000D01*
X160930931Y-115656307D01*
X160706903Y-115749102D01*
X160505283Y-115883820D01*
X160333820Y-116055283D01*
X160199102Y-116256903D01*
X160106307Y-116480931D01*
X160059000Y-116718757D01*
X160059000Y-116961243D01*
X160106307Y-117199069D01*
X160199102Y-117423097D01*
X160333820Y-117624717D01*
X160363103Y-117654000D01*
X159676897Y-117654000D01*
X159706180Y-117624717D01*
X159840898Y-117423097D01*
X159933693Y-117199069D01*
X159981000Y-116961243D01*
X159981000Y-116718757D01*
X159933693Y-116480931D01*
X159840898Y-116256903D01*
X159706180Y-116055283D01*
X159534717Y-115883820D01*
X159333097Y-115749102D01*
X159109069Y-115656307D01*
X158871243Y-115609000D01*
X158628757Y-115609000D01*
X158390931Y-115656307D01*
X158166903Y-115749102D01*
X157965283Y-115883820D01*
X157793820Y-116055283D01*
X157659102Y-116256903D01*
X157566307Y-116480931D01*
X157519000Y-116718757D01*
X157519000Y-116961243D01*
X157566307Y-117199069D01*
X157659102Y-117423097D01*
X157793820Y-117624717D01*
X157823103Y-117654000D01*
X157136897Y-117654000D01*
X157166180Y-117624717D01*
X157300898Y-117423097D01*
X157393693Y-117199069D01*
X157441000Y-116961243D01*
X157441000Y-116718757D01*
X157393693Y-116480931D01*
X157300898Y-116256903D01*
X157166180Y-116055283D01*
X156994717Y-115883820D01*
X156793097Y-115749102D01*
X156569069Y-115656307D01*
X156331243Y-115609000D01*
X156088757Y-115609000D01*
X155850931Y-115656307D01*
X155626903Y-115749102D01*
X155425283Y-115883820D01*
X155253820Y-116055283D01*
X155119102Y-116256903D01*
X155026307Y-116480931D01*
X154979000Y-116718757D01*
X154979000Y-116961243D01*
X155026307Y-117199069D01*
X155119102Y-117423097D01*
X155253820Y-117624717D01*
X155283103Y-117654000D01*
X154596897Y-117654000D01*
X154626180Y-117624717D01*
X154760898Y-117423097D01*
X154853693Y-117199069D01*
X154901000Y-116961243D01*
X154901000Y-116718757D01*
X154853693Y-116480931D01*
X154760898Y-116256903D01*
X154626180Y-116055283D01*
X154454717Y-115883820D01*
X154253097Y-115749102D01*
X154178000Y-115717996D01*
X154178000Y-115526420D01*
X154769420Y-114935000D01*
X156820056Y-114935000D01*
X156845000Y-114937457D01*
X156869944Y-114935000D01*
X156869947Y-114935000D01*
X156944585Y-114927649D01*
X157040343Y-114898601D01*
X157128595Y-114851429D01*
X157205948Y-114787948D01*
X157221855Y-114768565D01*
X158814421Y-113176000D01*
X158953922Y-113176000D01*
X159104809Y-113145987D01*
X159246942Y-113087113D01*
X159374859Y-113001642D01*
X159483642Y-112892859D01*
X159569113Y-112764942D01*
X159627987Y-112622809D01*
X159658000Y-112471922D01*
X159658000Y-112318078D01*
X159627987Y-112167191D01*
X159569113Y-112025058D01*
X159483642Y-111897141D01*
X159374859Y-111788358D01*
X159246942Y-111702887D01*
X159104809Y-111644013D01*
X158953922Y-111614000D01*
X158800078Y-111614000D01*
X158649191Y-111644013D01*
X158507058Y-111702887D01*
X158379141Y-111788358D01*
X158270358Y-111897141D01*
X158184887Y-112025058D01*
X158126013Y-112167191D01*
X158115000Y-112222558D01*
X158103987Y-112167191D01*
X158045113Y-112025058D01*
X157959642Y-111897141D01*
X157850859Y-111788358D01*
X157722942Y-111702887D01*
X157580809Y-111644013D01*
X157429922Y-111614000D01*
X157276078Y-111614000D01*
X157125191Y-111644013D01*
X156983058Y-111702887D01*
X156855141Y-111788358D01*
X156756499Y-111887000D01*
X156613037Y-111887000D01*
X156707859Y-111823642D01*
X156816642Y-111714859D01*
X156902113Y-111586942D01*
X156960987Y-111444809D01*
X156991000Y-111293922D01*
X156991000Y-111140078D01*
X156962739Y-110998000D01*
X173144580Y-110998000D01*
X173785881Y-111639301D01*
G04 #@! TA.AperFunction,Conductor*
D18*
G36*
X173785881Y-111639301D02*
G01*
X173762191Y-111644013D01*
X173620058Y-111702887D01*
X173492141Y-111788358D01*
X173383358Y-111897141D01*
X173355000Y-111939582D01*
X173326642Y-111897141D01*
X173217859Y-111788358D01*
X173089942Y-111702887D01*
X172947809Y-111644013D01*
X172796922Y-111614000D01*
X172643078Y-111614000D01*
X172492191Y-111644013D01*
X172350058Y-111702887D01*
X172222141Y-111788358D01*
X172113358Y-111897141D01*
X172027887Y-112025058D01*
X171969013Y-112167191D01*
X171939000Y-112318078D01*
X171939000Y-112471922D01*
X171969013Y-112622809D01*
X172027887Y-112764942D01*
X172113358Y-112892859D01*
X172222141Y-113001642D01*
X172350058Y-113087113D01*
X172492191Y-113145987D01*
X172643078Y-113176000D01*
X172782580Y-113176000D01*
X175617842Y-116011262D01*
X175573820Y-116055283D01*
X175439102Y-116256903D01*
X175346307Y-116480931D01*
X175299000Y-116718757D01*
X175299000Y-116961243D01*
X175346307Y-117199069D01*
X175439102Y-117423097D01*
X175573820Y-117624717D01*
X175603103Y-117654000D01*
X174916897Y-117654000D01*
X174946180Y-117624717D01*
X175080898Y-117423097D01*
X175173693Y-117199069D01*
X175221000Y-116961243D01*
X175221000Y-116718757D01*
X175173693Y-116480931D01*
X175080898Y-116256903D01*
X174946180Y-116055283D01*
X174774717Y-115883820D01*
X174573097Y-115749102D01*
X174349069Y-115656307D01*
X174111243Y-115609000D01*
X173868757Y-115609000D01*
X173630931Y-115656307D01*
X173406903Y-115749102D01*
X173205283Y-115883820D01*
X173033820Y-116055283D01*
X172899102Y-116256903D01*
X172806307Y-116480931D01*
X172759000Y-116718757D01*
X172759000Y-116961243D01*
X172806307Y-117199069D01*
X172899102Y-117423097D01*
X173033820Y-117624717D01*
X173063103Y-117654000D01*
X172376897Y-117654000D01*
X172406180Y-117624717D01*
X172540898Y-117423097D01*
X172633693Y-117199069D01*
X172681000Y-116961243D01*
X172681000Y-116718757D01*
X172633693Y-116480931D01*
X172540898Y-116256903D01*
X172406180Y-116055283D01*
X172234717Y-115883820D01*
X172033097Y-115749102D01*
X171809069Y-115656307D01*
X171571243Y-115609000D01*
X171328757Y-115609000D01*
X171090931Y-115656307D01*
X170866903Y-115749102D01*
X170665283Y-115883820D01*
X170493820Y-116055283D01*
X170359102Y-116256903D01*
X170266307Y-116480931D01*
X170219000Y-116718757D01*
X170219000Y-116961243D01*
X170266307Y-117199069D01*
X170359102Y-117423097D01*
X170493820Y-117624717D01*
X170523103Y-117654000D01*
X169836897Y-117654000D01*
X169866180Y-117624717D01*
X170000898Y-117423097D01*
X170093693Y-117199069D01*
X170141000Y-116961243D01*
X170141000Y-116718757D01*
X170093693Y-116480931D01*
X170000898Y-116256903D01*
X169866180Y-116055283D01*
X169694717Y-115883820D01*
X169493097Y-115749102D01*
X169269069Y-115656307D01*
X169031243Y-115609000D01*
X168788757Y-115609000D01*
X168550931Y-115656307D01*
X168326903Y-115749102D01*
X168125283Y-115883820D01*
X167953820Y-116055283D01*
X167819102Y-116256903D01*
X167726307Y-116480931D01*
X167679000Y-116718757D01*
X167679000Y-116961243D01*
X167726307Y-117199069D01*
X167819102Y-117423097D01*
X167953820Y-117624717D01*
X167983103Y-117654000D01*
X167296897Y-117654000D01*
X167326180Y-117624717D01*
X167460898Y-117423097D01*
X167553693Y-117199069D01*
X167601000Y-116961243D01*
X167601000Y-116718757D01*
X167553693Y-116480931D01*
X167460898Y-116256903D01*
X167326180Y-116055283D01*
X167154717Y-115883820D01*
X166953097Y-115749102D01*
X166729069Y-115656307D01*
X166491243Y-115609000D01*
X166248757Y-115609000D01*
X166010931Y-115656307D01*
X165786903Y-115749102D01*
X165585283Y-115883820D01*
X165413820Y-116055283D01*
X165279102Y-116256903D01*
X165186307Y-116480931D01*
X165139000Y-116718757D01*
X165139000Y-116961243D01*
X165186307Y-117199069D01*
X165279102Y-117423097D01*
X165413820Y-117624717D01*
X165443103Y-117654000D01*
X164756897Y-117654000D01*
X164786180Y-117624717D01*
X164920898Y-117423097D01*
X165013693Y-117199069D01*
X165061000Y-116961243D01*
X165061000Y-116718757D01*
X165013693Y-116480931D01*
X164920898Y-116256903D01*
X164786180Y-116055283D01*
X164614717Y-115883820D01*
X164413097Y-115749102D01*
X164189069Y-115656307D01*
X163951243Y-115609000D01*
X163708757Y-115609000D01*
X163470931Y-115656307D01*
X163246903Y-115749102D01*
X163045283Y-115883820D01*
X162873820Y-116055283D01*
X162739102Y-116256903D01*
X162646307Y-116480931D01*
X162599000Y-116718757D01*
X162599000Y-116961243D01*
X162646307Y-117199069D01*
X162739102Y-117423097D01*
X162873820Y-117624717D01*
X162903103Y-117654000D01*
X162216897Y-117654000D01*
X162246180Y-117624717D01*
X162380898Y-117423097D01*
X162473693Y-117199069D01*
X162521000Y-116961243D01*
X162521000Y-116718757D01*
X162473693Y-116480931D01*
X162380898Y-116256903D01*
X162246180Y-116055283D01*
X162074717Y-115883820D01*
X161873097Y-115749102D01*
X161649069Y-115656307D01*
X161411243Y-115609000D01*
X161168757Y-115609000D01*
X160930931Y-115656307D01*
X160706903Y-115749102D01*
X160505283Y-115883820D01*
X160333820Y-116055283D01*
X160199102Y-116256903D01*
X160106307Y-116480931D01*
X160059000Y-116718757D01*
X160059000Y-116961243D01*
X160106307Y-117199069D01*
X160199102Y-117423097D01*
X160333820Y-117624717D01*
X160363103Y-117654000D01*
X159676897Y-117654000D01*
X159706180Y-117624717D01*
X159840898Y-117423097D01*
X159933693Y-117199069D01*
X159981000Y-116961243D01*
X159981000Y-116718757D01*
X159933693Y-116480931D01*
X159840898Y-116256903D01*
X159706180Y-116055283D01*
X159534717Y-115883820D01*
X159333097Y-115749102D01*
X159109069Y-115656307D01*
X158871243Y-115609000D01*
X158628757Y-115609000D01*
X158390931Y-115656307D01*
X158166903Y-115749102D01*
X157965283Y-115883820D01*
X157793820Y-116055283D01*
X157659102Y-116256903D01*
X157566307Y-116480931D01*
X157519000Y-116718757D01*
X157519000Y-116961243D01*
X157566307Y-117199069D01*
X157659102Y-117423097D01*
X157793820Y-117624717D01*
X157823103Y-117654000D01*
X157136897Y-117654000D01*
X157166180Y-117624717D01*
X157300898Y-117423097D01*
X157393693Y-117199069D01*
X157441000Y-116961243D01*
X157441000Y-116718757D01*
X157393693Y-116480931D01*
X157300898Y-116256903D01*
X157166180Y-116055283D01*
X156994717Y-115883820D01*
X156793097Y-115749102D01*
X156569069Y-115656307D01*
X156331243Y-115609000D01*
X156088757Y-115609000D01*
X155850931Y-115656307D01*
X155626903Y-115749102D01*
X155425283Y-115883820D01*
X155253820Y-116055283D01*
X155119102Y-116256903D01*
X155026307Y-116480931D01*
X154979000Y-116718757D01*
X154979000Y-116961243D01*
X155026307Y-117199069D01*
X155119102Y-117423097D01*
X155253820Y-117624717D01*
X155283103Y-117654000D01*
X154596897Y-117654000D01*
X154626180Y-117624717D01*
X154760898Y-117423097D01*
X154853693Y-117199069D01*
X154901000Y-116961243D01*
X154901000Y-116718757D01*
X154853693Y-116480931D01*
X154760898Y-116256903D01*
X154626180Y-116055283D01*
X154454717Y-115883820D01*
X154253097Y-115749102D01*
X154178000Y-115717996D01*
X154178000Y-115526420D01*
X154769420Y-114935000D01*
X156820056Y-114935000D01*
X156845000Y-114937457D01*
X156869944Y-114935000D01*
X156869947Y-114935000D01*
X156944585Y-114927649D01*
X157040343Y-114898601D01*
X157128595Y-114851429D01*
X157205948Y-114787948D01*
X157221855Y-114768565D01*
X158814421Y-113176000D01*
X158953922Y-113176000D01*
X159104809Y-113145987D01*
X159246942Y-113087113D01*
X159374859Y-113001642D01*
X159483642Y-112892859D01*
X159569113Y-112764942D01*
X159627987Y-112622809D01*
X159658000Y-112471922D01*
X159658000Y-112318078D01*
X159627987Y-112167191D01*
X159569113Y-112025058D01*
X159483642Y-111897141D01*
X159374859Y-111788358D01*
X159246942Y-111702887D01*
X159104809Y-111644013D01*
X158953922Y-111614000D01*
X158800078Y-111614000D01*
X158649191Y-111644013D01*
X158507058Y-111702887D01*
X158379141Y-111788358D01*
X158270358Y-111897141D01*
X158184887Y-112025058D01*
X158126013Y-112167191D01*
X158115000Y-112222558D01*
X158103987Y-112167191D01*
X158045113Y-112025058D01*
X157959642Y-111897141D01*
X157850859Y-111788358D01*
X157722942Y-111702887D01*
X157580809Y-111644013D01*
X157429922Y-111614000D01*
X157276078Y-111614000D01*
X157125191Y-111644013D01*
X156983058Y-111702887D01*
X156855141Y-111788358D01*
X156756499Y-111887000D01*
X156613037Y-111887000D01*
X156707859Y-111823642D01*
X156816642Y-111714859D01*
X156902113Y-111586942D01*
X156960987Y-111444809D01*
X156991000Y-111293922D01*
X156991000Y-111140078D01*
X156962739Y-110998000D01*
X173144580Y-110998000D01*
X173785881Y-111639301D01*
G37*
G04 #@! TD.AperFunction*
D17*
X177673000Y-114082514D02*
X177038000Y-113447514D01*
X177038000Y-112991501D01*
X177136642Y-112892859D01*
X177222113Y-112764942D01*
X177280987Y-112622809D01*
X177311000Y-112471922D01*
X177311000Y-112318078D01*
X177280987Y-112167191D01*
X177222113Y-112025058D01*
X177136642Y-111897141D01*
X177027859Y-111788358D01*
X176899942Y-111702887D01*
X176757809Y-111644013D01*
X176606922Y-111614000D01*
X176467421Y-111614000D01*
X174547845Y-109694425D01*
X174531938Y-109675042D01*
X174454585Y-109611561D01*
X174366333Y-109564389D01*
X174270575Y-109535341D01*
X174195937Y-109527990D01*
X174195934Y-109527990D01*
X174170990Y-109525533D01*
X174146046Y-109527990D01*
X153513953Y-109527990D01*
X153489009Y-109525533D01*
X153464065Y-109527990D01*
X153464063Y-109527990D01*
X153389425Y-109535341D01*
X153293667Y-109564389D01*
X153262688Y-109580948D01*
X153205414Y-109611561D01*
X153150820Y-109656366D01*
X153128062Y-109675042D01*
X153112159Y-109694420D01*
X152916581Y-109889999D01*
X150611944Y-109889999D01*
X150587000Y-109887542D01*
X150562056Y-109889999D01*
X150562054Y-109889999D01*
X150487416Y-109897350D01*
X150391658Y-109926398D01*
X150350577Y-109948356D01*
X150303405Y-109973570D01*
X150284175Y-109989352D01*
X150226053Y-110037051D01*
X150210151Y-110056428D01*
X147382580Y-112884000D01*
X147243078Y-112884000D01*
X147100999Y-112912261D01*
X147100999Y-110929726D01*
X147261970Y-110768755D01*
X147401472Y-110768755D01*
X147552359Y-110738742D01*
X147694492Y-110679868D01*
X147822409Y-110594397D01*
X147931192Y-110485614D01*
X148016663Y-110357697D01*
X148075537Y-110215564D01*
X148105550Y-110064677D01*
X148105550Y-109910833D01*
X148075537Y-109759946D01*
X148016663Y-109617813D01*
X147931192Y-109489896D01*
X147822409Y-109381113D01*
X147694492Y-109295642D01*
X147552359Y-109236768D01*
X147401472Y-109206755D01*
X147247628Y-109206755D01*
X147096741Y-109236768D01*
X146954608Y-109295642D01*
X146826691Y-109381113D01*
X146717908Y-109489896D01*
X146632437Y-109617813D01*
X146573563Y-109759946D01*
X146543550Y-109910833D01*
X146543550Y-110050335D01*
X146251429Y-110342456D01*
X146232052Y-110358358D01*
X146216150Y-110377735D01*
X146216149Y-110377736D01*
X146168570Y-110435711D01*
X146135499Y-110497584D01*
X146121399Y-110523963D01*
X146093177Y-110617000D01*
X146092351Y-110619722D01*
X146082542Y-110719306D01*
X146085000Y-110744260D01*
X146084999Y-113989017D01*
X146082542Y-114013961D01*
X146084999Y-114038905D01*
X146084999Y-114038907D01*
X146092350Y-114113545D01*
X146121398Y-114209303D01*
X146168570Y-114297556D01*
X146232051Y-114374909D01*
X146251433Y-114390815D01*
X146594188Y-114733571D01*
X146610091Y-114752949D01*
X146629468Y-114768851D01*
X146687443Y-114816430D01*
X146752922Y-114851429D01*
X146775696Y-114863602D01*
X146871454Y-114892650D01*
X146946092Y-114900001D01*
X146946094Y-114900001D01*
X146971038Y-114902458D01*
X146995982Y-114900001D01*
X152351579Y-114900001D01*
X151564167Y-115687413D01*
X151489069Y-115656307D01*
X151251243Y-115609000D01*
X151008757Y-115609000D01*
X150770931Y-115656307D01*
X150546903Y-115749102D01*
X150345283Y-115883820D01*
X150173820Y-116055283D01*
X150039102Y-116256903D01*
X149946307Y-116480931D01*
X149899000Y-116718757D01*
X149899000Y-116961243D01*
X149946307Y-117199069D01*
X150039102Y-117423097D01*
X150173820Y-117624717D01*
X150203103Y-117654000D01*
X149516897Y-117654000D01*
X149546180Y-117624717D01*
X149680898Y-117423097D01*
X149773693Y-117199069D01*
X149821000Y-116961243D01*
X149821000Y-116718757D01*
X149773693Y-116480931D01*
X149680898Y-116256903D01*
X149546180Y-116055283D01*
X149374717Y-115883820D01*
X149173097Y-115749102D01*
X148949069Y-115656307D01*
X148711243Y-115609000D01*
X148468757Y-115609000D01*
X148230931Y-115656307D01*
X148006903Y-115749102D01*
X147805283Y-115883820D01*
X147633820Y-116055283D01*
X147499102Y-116256903D01*
X147406307Y-116480931D01*
X147359000Y-116718757D01*
X147359000Y-116961243D01*
X147406307Y-117199069D01*
X147499102Y-117423097D01*
X147633820Y-117624717D01*
X147663103Y-117654000D01*
X146976897Y-117654000D01*
X147006180Y-117624717D01*
X147140898Y-117423097D01*
X147233693Y-117199069D01*
X147281000Y-116961243D01*
X147281000Y-116718757D01*
X147233693Y-116480931D01*
X147140898Y-116256903D01*
X147006180Y-116055283D01*
X146834717Y-115883820D01*
X146633097Y-115749102D01*
X146409069Y-115656307D01*
X146171243Y-115609000D01*
X145928757Y-115609000D01*
X145690931Y-115656307D01*
X145466903Y-115749102D01*
X145265283Y-115883820D01*
X145093820Y-116055283D01*
X144959102Y-116256903D01*
X144866307Y-116480931D01*
X144819000Y-116718757D01*
X144819000Y-116961243D01*
X144866307Y-117199069D01*
X144959102Y-117423097D01*
X145093820Y-117624717D01*
X145123103Y-117654000D01*
X144436897Y-117654000D01*
X144466180Y-117624717D01*
X144600898Y-117423097D01*
X144693693Y-117199069D01*
X144741000Y-116961243D01*
X144741000Y-116718757D01*
X144693693Y-116480931D01*
X144600898Y-116256903D01*
X144466180Y-116055283D01*
X144294717Y-115883820D01*
X144093097Y-115749102D01*
X143925001Y-115679475D01*
X143925001Y-113280898D01*
X143995283Y-113351180D01*
X144196903Y-113485898D01*
X144420931Y-113578693D01*
X144658757Y-113626000D01*
X144901243Y-113626000D01*
X145139069Y-113578693D01*
X145363097Y-113485898D01*
X145564717Y-113351180D01*
X145736180Y-113179717D01*
X145870898Y-112978097D01*
X145963693Y-112754069D01*
X146011000Y-112516243D01*
X146011000Y-112273757D01*
X145963693Y-112035931D01*
X145870898Y-111811903D01*
X145736180Y-111610283D01*
X145564717Y-111438820D01*
X145363097Y-111304102D01*
X145139069Y-111211307D01*
X144901243Y-111164000D01*
X144658757Y-111164000D01*
X144420931Y-111211307D01*
X144196903Y-111304102D01*
X143995283Y-111438820D01*
X143925001Y-111509102D01*
X143925001Y-111428419D01*
X145352421Y-110001000D01*
X145491922Y-110001000D01*
X145642809Y-109970987D01*
X145784942Y-109912113D01*
X145912859Y-109826642D01*
X146021642Y-109717859D01*
X146107113Y-109589942D01*
X146165987Y-109447809D01*
X146196000Y-109296922D01*
X146196000Y-109157420D01*
X146260420Y-109093000D01*
X154978499Y-109093000D01*
X155077141Y-109191642D01*
X155205058Y-109277113D01*
X155347191Y-109335987D01*
X155498078Y-109366000D01*
X155651922Y-109366000D01*
X155802809Y-109335987D01*
X155944942Y-109277113D01*
X156072859Y-109191642D01*
X156181642Y-109082859D01*
X156267113Y-108954942D01*
X156325987Y-108812809D01*
X156356000Y-108661922D01*
X156356000Y-108508078D01*
X156325987Y-108357191D01*
X156267113Y-108215058D01*
X156181642Y-108087141D01*
X156072859Y-107978358D01*
X155944942Y-107892887D01*
X155802809Y-107834013D01*
X155651922Y-107804000D01*
X155498078Y-107804000D01*
X155347191Y-107834013D01*
X155205058Y-107892887D01*
X155077141Y-107978358D01*
X154978499Y-108077000D01*
X146200458Y-108077000D01*
X149629458Y-104648000D01*
X151105056Y-104648000D01*
X151130000Y-104650457D01*
X151154944Y-104648000D01*
X151154947Y-104648000D01*
X151229585Y-104640649D01*
X151325343Y-104611601D01*
X151413595Y-104564429D01*
X151490948Y-104500948D01*
X151506855Y-104481565D01*
X151702420Y-104286000D01*
X151841922Y-104286000D01*
X151992809Y-104255987D01*
X152134942Y-104197113D01*
X152262859Y-104111642D01*
X152371642Y-104002859D01*
X152457113Y-103874942D01*
X152515987Y-103732809D01*
X152546000Y-103581922D01*
X152546000Y-103428078D01*
X152515987Y-103277191D01*
X152457113Y-103135058D01*
X152371642Y-103007141D01*
X152262859Y-102898358D01*
X152134942Y-102812887D01*
X151992809Y-102754013D01*
X151841922Y-102724000D01*
X151688078Y-102724000D01*
X151537191Y-102754013D01*
X151395058Y-102812887D01*
X151267141Y-102898358D01*
X151158358Y-103007141D01*
X151072887Y-103135058D01*
X151014013Y-103277191D01*
X150984000Y-103428078D01*
X150984000Y-103567580D01*
X150919580Y-103632000D01*
X149816420Y-103632000D01*
X151975420Y-101473000D01*
X172695056Y-101473000D01*
X172720000Y-101475457D01*
X172744944Y-101473000D01*
X172744947Y-101473000D01*
X172819585Y-101465649D01*
X172915343Y-101436601D01*
X173003595Y-101389429D01*
X173080948Y-101325948D01*
X173096855Y-101306565D01*
X175601571Y-98801850D01*
X175620948Y-98785948D01*
X175654182Y-98745452D01*
X175684429Y-98708596D01*
X175731600Y-98620345D01*
X175749256Y-98562141D01*
X175760649Y-98524585D01*
X175768000Y-98449947D01*
X175768000Y-98449945D01*
X175770457Y-98425001D01*
X175768000Y-98400057D01*
X175768000Y-96730420D01*
X176105420Y-96393000D01*
X177673000Y-96393000D01*
X177673000Y-114082514D01*
G04 #@! TA.AperFunction,Conductor*
D18*
G36*
X177673000Y-114082514D02*
G01*
X177038000Y-113447514D01*
X177038000Y-112991501D01*
X177136642Y-112892859D01*
X177222113Y-112764942D01*
X177280987Y-112622809D01*
X177311000Y-112471922D01*
X177311000Y-112318078D01*
X177280987Y-112167191D01*
X177222113Y-112025058D01*
X177136642Y-111897141D01*
X177027859Y-111788358D01*
X176899942Y-111702887D01*
X176757809Y-111644013D01*
X176606922Y-111614000D01*
X176467421Y-111614000D01*
X174547845Y-109694425D01*
X174531938Y-109675042D01*
X174454585Y-109611561D01*
X174366333Y-109564389D01*
X174270575Y-109535341D01*
X174195937Y-109527990D01*
X174195934Y-109527990D01*
X174170990Y-109525533D01*
X174146046Y-109527990D01*
X153513953Y-109527990D01*
X153489009Y-109525533D01*
X153464065Y-109527990D01*
X153464063Y-109527990D01*
X153389425Y-109535341D01*
X153293667Y-109564389D01*
X153262688Y-109580948D01*
X153205414Y-109611561D01*
X153150820Y-109656366D01*
X153128062Y-109675042D01*
X153112159Y-109694420D01*
X152916581Y-109889999D01*
X150611944Y-109889999D01*
X150587000Y-109887542D01*
X150562056Y-109889999D01*
X150562054Y-109889999D01*
X150487416Y-109897350D01*
X150391658Y-109926398D01*
X150350577Y-109948356D01*
X150303405Y-109973570D01*
X150284175Y-109989352D01*
X150226053Y-110037051D01*
X150210151Y-110056428D01*
X147382580Y-112884000D01*
X147243078Y-112884000D01*
X147100999Y-112912261D01*
X147100999Y-110929726D01*
X147261970Y-110768755D01*
X147401472Y-110768755D01*
X147552359Y-110738742D01*
X147694492Y-110679868D01*
X147822409Y-110594397D01*
X147931192Y-110485614D01*
X148016663Y-110357697D01*
X148075537Y-110215564D01*
X148105550Y-110064677D01*
X148105550Y-109910833D01*
X148075537Y-109759946D01*
X148016663Y-109617813D01*
X147931192Y-109489896D01*
X147822409Y-109381113D01*
X147694492Y-109295642D01*
X147552359Y-109236768D01*
X147401472Y-109206755D01*
X147247628Y-109206755D01*
X147096741Y-109236768D01*
X146954608Y-109295642D01*
X146826691Y-109381113D01*
X146717908Y-109489896D01*
X146632437Y-109617813D01*
X146573563Y-109759946D01*
X146543550Y-109910833D01*
X146543550Y-110050335D01*
X146251429Y-110342456D01*
X146232052Y-110358358D01*
X146216150Y-110377735D01*
X146216149Y-110377736D01*
X146168570Y-110435711D01*
X146135499Y-110497584D01*
X146121399Y-110523963D01*
X146093177Y-110617000D01*
X146092351Y-110619722D01*
X146082542Y-110719306D01*
X146085000Y-110744260D01*
X146084999Y-113989017D01*
X146082542Y-114013961D01*
X146084999Y-114038905D01*
X146084999Y-114038907D01*
X146092350Y-114113545D01*
X146121398Y-114209303D01*
X146168570Y-114297556D01*
X146232051Y-114374909D01*
X146251433Y-114390815D01*
X146594188Y-114733571D01*
X146610091Y-114752949D01*
X146629468Y-114768851D01*
X146687443Y-114816430D01*
X146752922Y-114851429D01*
X146775696Y-114863602D01*
X146871454Y-114892650D01*
X146946092Y-114900001D01*
X146946094Y-114900001D01*
X146971038Y-114902458D01*
X146995982Y-114900001D01*
X152351579Y-114900001D01*
X151564167Y-115687413D01*
X151489069Y-115656307D01*
X151251243Y-115609000D01*
X151008757Y-115609000D01*
X150770931Y-115656307D01*
X150546903Y-115749102D01*
X150345283Y-115883820D01*
X150173820Y-116055283D01*
X150039102Y-116256903D01*
X149946307Y-116480931D01*
X149899000Y-116718757D01*
X149899000Y-116961243D01*
X149946307Y-117199069D01*
X150039102Y-117423097D01*
X150173820Y-117624717D01*
X150203103Y-117654000D01*
X149516897Y-117654000D01*
X149546180Y-117624717D01*
X149680898Y-117423097D01*
X149773693Y-117199069D01*
X149821000Y-116961243D01*
X149821000Y-116718757D01*
X149773693Y-116480931D01*
X149680898Y-116256903D01*
X149546180Y-116055283D01*
X149374717Y-115883820D01*
X149173097Y-115749102D01*
X148949069Y-115656307D01*
X148711243Y-115609000D01*
X148468757Y-115609000D01*
X148230931Y-115656307D01*
X148006903Y-115749102D01*
X147805283Y-115883820D01*
X147633820Y-116055283D01*
X147499102Y-116256903D01*
X147406307Y-116480931D01*
X147359000Y-116718757D01*
X147359000Y-116961243D01*
X147406307Y-117199069D01*
X147499102Y-117423097D01*
X147633820Y-117624717D01*
X147663103Y-117654000D01*
X146976897Y-117654000D01*
X147006180Y-117624717D01*
X147140898Y-117423097D01*
X147233693Y-117199069D01*
X147281000Y-116961243D01*
X147281000Y-116718757D01*
X147233693Y-116480931D01*
X147140898Y-116256903D01*
X147006180Y-116055283D01*
X146834717Y-115883820D01*
X146633097Y-115749102D01*
X146409069Y-115656307D01*
X146171243Y-115609000D01*
X145928757Y-115609000D01*
X145690931Y-115656307D01*
X145466903Y-115749102D01*
X145265283Y-115883820D01*
X145093820Y-116055283D01*
X144959102Y-116256903D01*
X144866307Y-116480931D01*
X144819000Y-116718757D01*
X144819000Y-116961243D01*
X144866307Y-117199069D01*
X144959102Y-117423097D01*
X145093820Y-117624717D01*
X145123103Y-117654000D01*
X144436897Y-117654000D01*
X144466180Y-117624717D01*
X144600898Y-117423097D01*
X144693693Y-117199069D01*
X144741000Y-116961243D01*
X144741000Y-116718757D01*
X144693693Y-116480931D01*
X144600898Y-116256903D01*
X144466180Y-116055283D01*
X144294717Y-115883820D01*
X144093097Y-115749102D01*
X143925001Y-115679475D01*
X143925001Y-113280898D01*
X143995283Y-113351180D01*
X144196903Y-113485898D01*
X144420931Y-113578693D01*
X144658757Y-113626000D01*
X144901243Y-113626000D01*
X145139069Y-113578693D01*
X145363097Y-113485898D01*
X145564717Y-113351180D01*
X145736180Y-113179717D01*
X145870898Y-112978097D01*
X145963693Y-112754069D01*
X146011000Y-112516243D01*
X146011000Y-112273757D01*
X145963693Y-112035931D01*
X145870898Y-111811903D01*
X145736180Y-111610283D01*
X145564717Y-111438820D01*
X145363097Y-111304102D01*
X145139069Y-111211307D01*
X144901243Y-111164000D01*
X144658757Y-111164000D01*
X144420931Y-111211307D01*
X144196903Y-111304102D01*
X143995283Y-111438820D01*
X143925001Y-111509102D01*
X143925001Y-111428419D01*
X145352421Y-110001000D01*
X145491922Y-110001000D01*
X145642809Y-109970987D01*
X145784942Y-109912113D01*
X145912859Y-109826642D01*
X146021642Y-109717859D01*
X146107113Y-109589942D01*
X146165987Y-109447809D01*
X146196000Y-109296922D01*
X146196000Y-109157420D01*
X146260420Y-109093000D01*
X154978499Y-109093000D01*
X155077141Y-109191642D01*
X155205058Y-109277113D01*
X155347191Y-109335987D01*
X155498078Y-109366000D01*
X155651922Y-109366000D01*
X155802809Y-109335987D01*
X155944942Y-109277113D01*
X156072859Y-109191642D01*
X156181642Y-109082859D01*
X156267113Y-108954942D01*
X156325987Y-108812809D01*
X156356000Y-108661922D01*
X156356000Y-108508078D01*
X156325987Y-108357191D01*
X156267113Y-108215058D01*
X156181642Y-108087141D01*
X156072859Y-107978358D01*
X155944942Y-107892887D01*
X155802809Y-107834013D01*
X155651922Y-107804000D01*
X155498078Y-107804000D01*
X155347191Y-107834013D01*
X155205058Y-107892887D01*
X155077141Y-107978358D01*
X154978499Y-108077000D01*
X146200458Y-108077000D01*
X149629458Y-104648000D01*
X151105056Y-104648000D01*
X151130000Y-104650457D01*
X151154944Y-104648000D01*
X151154947Y-104648000D01*
X151229585Y-104640649D01*
X151325343Y-104611601D01*
X151413595Y-104564429D01*
X151490948Y-104500948D01*
X151506855Y-104481565D01*
X151702420Y-104286000D01*
X151841922Y-104286000D01*
X151992809Y-104255987D01*
X152134942Y-104197113D01*
X152262859Y-104111642D01*
X152371642Y-104002859D01*
X152457113Y-103874942D01*
X152515987Y-103732809D01*
X152546000Y-103581922D01*
X152546000Y-103428078D01*
X152515987Y-103277191D01*
X152457113Y-103135058D01*
X152371642Y-103007141D01*
X152262859Y-102898358D01*
X152134942Y-102812887D01*
X151992809Y-102754013D01*
X151841922Y-102724000D01*
X151688078Y-102724000D01*
X151537191Y-102754013D01*
X151395058Y-102812887D01*
X151267141Y-102898358D01*
X151158358Y-103007141D01*
X151072887Y-103135058D01*
X151014013Y-103277191D01*
X150984000Y-103428078D01*
X150984000Y-103567580D01*
X150919580Y-103632000D01*
X149816420Y-103632000D01*
X151975420Y-101473000D01*
X172695056Y-101473000D01*
X172720000Y-101475457D01*
X172744944Y-101473000D01*
X172744947Y-101473000D01*
X172819585Y-101465649D01*
X172915343Y-101436601D01*
X173003595Y-101389429D01*
X173080948Y-101325948D01*
X173096855Y-101306565D01*
X175601571Y-98801850D01*
X175620948Y-98785948D01*
X175654182Y-98745452D01*
X175684429Y-98708596D01*
X175731600Y-98620345D01*
X175749256Y-98562141D01*
X175760649Y-98524585D01*
X175768000Y-98449947D01*
X175768000Y-98449945D01*
X175770457Y-98425001D01*
X175768000Y-98400057D01*
X175768000Y-96730420D01*
X176105420Y-96393000D01*
X177673000Y-96393000D01*
X177673000Y-114082514D01*
G37*
G04 #@! TD.AperFunction*
D17*
X152258894Y-113884001D02*
X148072739Y-113884001D01*
X148101000Y-113741922D01*
X148101000Y-113602420D01*
X150305641Y-111397780D01*
X150345887Y-111494942D01*
X150431358Y-111622859D01*
X150540141Y-111731642D01*
X150668058Y-111817113D01*
X150810191Y-111875987D01*
X150961078Y-111906000D01*
X151114922Y-111906000D01*
X151265809Y-111875987D01*
X151407942Y-111817113D01*
X151535859Y-111731642D01*
X151634501Y-111633000D01*
X153645056Y-111633000D01*
X153670000Y-111635457D01*
X153694944Y-111633000D01*
X153694947Y-111633000D01*
X153769585Y-111625649D01*
X153865343Y-111596601D01*
X153953595Y-111549429D01*
X154030948Y-111485948D01*
X154046855Y-111466565D01*
X154515420Y-110998000D01*
X155144894Y-110998000D01*
X152258894Y-113884001D01*
G04 #@! TA.AperFunction,Conductor*
D18*
G36*
X152258894Y-113884001D02*
G01*
X148072739Y-113884001D01*
X148101000Y-113741922D01*
X148101000Y-113602420D01*
X150305641Y-111397780D01*
X150345887Y-111494942D01*
X150431358Y-111622859D01*
X150540141Y-111731642D01*
X150668058Y-111817113D01*
X150810191Y-111875987D01*
X150961078Y-111906000D01*
X151114922Y-111906000D01*
X151265809Y-111875987D01*
X151407942Y-111817113D01*
X151535859Y-111731642D01*
X151634501Y-111633000D01*
X153645056Y-111633000D01*
X153670000Y-111635457D01*
X153694944Y-111633000D01*
X153694947Y-111633000D01*
X153769585Y-111625649D01*
X153865343Y-111596601D01*
X153953595Y-111549429D01*
X154030948Y-111485948D01*
X154046855Y-111466565D01*
X154515420Y-110998000D01*
X155144894Y-110998000D01*
X152258894Y-113884001D01*
G37*
G04 #@! TD.AperFunction*
M02*
