G04 #@! TF.GenerationSoftware,KiCad,Pcbnew,5.1.10-88a1d61d58~90~ubuntu21.04.1*
G04 #@! TF.CreationDate,2021-10-15T14:22:21-03:00*
G04 #@! TF.ProjectId,Franzininho WIFI,4672616e-7a69-46e6-996e-686f20574946,rev?*
G04 #@! TF.SameCoordinates,Original*
G04 #@! TF.FileFunction,Soldermask,Bot*
G04 #@! TF.FilePolarity,Negative*
%FSLAX46Y46*%
G04 Gerber Fmt 4.6, Leading zero omitted, Abs format (unit mm)*
G04 Created by KiCad (PCBNEW 5.1.10-88a1d61d58~90~ubuntu21.04.1) date 2021-10-15 14:22:21*
%MOMM*%
%LPD*%
G01*
G04 APERTURE LIST*
%ADD10O,1.700000X1.700000*%
%ADD11R,1.700000X1.700000*%
%ADD12C,2.200000*%
%ADD13C,1.450000*%
%ADD14O,1.900000X1.200000*%
G04 APERTURE END LIST*
D10*
X138430000Y-97155000D03*
X135890000Y-97155000D03*
X133350000Y-97155000D03*
D11*
X130810000Y-97155000D03*
D10*
X179070000Y-93980000D03*
X176530000Y-93980000D03*
X173990000Y-93980000D03*
X171450000Y-93980000D03*
X168910000Y-93980000D03*
X166370000Y-93980000D03*
X163830000Y-93980000D03*
X161290000Y-93980000D03*
X158750000Y-93980000D03*
X156210000Y-93980000D03*
X153670000Y-93980000D03*
X151130000Y-93980000D03*
X148590000Y-93980000D03*
X146050000Y-93980000D03*
X143510000Y-93980000D03*
X140970000Y-93980000D03*
X138430000Y-93980000D03*
X135890000Y-93980000D03*
X133350000Y-93980000D03*
D11*
X130810000Y-93980000D03*
D10*
X179070000Y-116840000D03*
X176530000Y-116840000D03*
X173990000Y-116840000D03*
X171450000Y-116840000D03*
X168910000Y-116840000D03*
X166370000Y-116840000D03*
X163830000Y-116840000D03*
X161290000Y-116840000D03*
X158750000Y-116840000D03*
X156210000Y-116840000D03*
X153670000Y-116840000D03*
X151130000Y-116840000D03*
X148590000Y-116840000D03*
X146050000Y-116840000D03*
X143510000Y-116840000D03*
X140970000Y-116840000D03*
X138430000Y-116840000D03*
X135890000Y-116840000D03*
X133350000Y-116840000D03*
D11*
X130810000Y-116840000D03*
D10*
X144780000Y-112395000D03*
X142240000Y-112395000D03*
D11*
X139700000Y-112395000D03*
X131445000Y-112395000D03*
D10*
X133985000Y-112395000D03*
X136525000Y-112395000D03*
D12*
X125095000Y-94615000D03*
X125095000Y-116205000D03*
D13*
X127129000Y-102910000D03*
X127129000Y-107910000D03*
D14*
X124429000Y-101910000D03*
X124429000Y-108910000D03*
M02*
